<svg width="64" height="64" viewBox="0 0 64 64" fill="none" xmlns="http://www.w3.org/2000/svg">
<path fill-rule="evenodd" clip-rule="evenodd" d="M32 8C32 21.2548 42.7452 32 56 32C56 45.2548 45.2548 56 32 56C18.7452 56 8 45.2548 8 32C8 18.7452 18.7452 8 32 8Z" fill="#9928FE"/>
<path d="M21.3306 36.9013C21.2164 36.9011 21.1069 36.9467 21.0267 37.0279C20.9464 37.1091 20.9022 37.2192 20.9039 37.3333C20.9048 37.5716 21.0977 37.7644 21.3359 37.7653C21.4902 37.7644 21.6324 37.6812 21.7087 37.547C21.785 37.4129 21.784 37.2482 21.706 37.115C21.628 36.9818 21.4849 36.9004 21.3306 36.9013" stroke="white" stroke-width="4" stroke-linecap="round" stroke-linejoin="round"/>
<path d="M23.9973 23.5678C23.8831 23.5676 23.7737 23.6132 23.6934 23.6944C23.6132 23.7756 23.569 23.8857 23.5707 23.9998C23.5715 24.2381 23.7644 24.4309 24.0027 24.4318C24.2412 24.4304 24.4335 24.2358 24.432 23.9972C24.4305 23.7586 24.2359 23.5664 23.9973 23.5678" stroke="white" stroke-width="4" stroke-linecap="round" stroke-linejoin="round"/>
<path d="M34.6638 42.2348C34.5497 42.2346 34.4402 42.2802 34.3599 42.3614C34.2797 42.4426 34.2355 42.5527 34.2372 42.6668C34.2381 42.9051 34.4309 43.0979 34.6692 43.0988C34.9077 43.0974 35.1 42.9028 35.0985 42.6642C35.097 42.4256 34.9024 42.2334 34.6638 42.2348" stroke="white" stroke-width="4" stroke-linecap="round" stroke-linejoin="round"/>
<path d="M31.9973 31.5678C31.8831 31.5676 31.7737 31.6132 31.6934 31.6944C31.6132 31.7756 31.569 31.8857 31.5707 31.9998C31.5715 32.2381 31.7644 32.4309 32.0027 32.4318C32.157 32.4309 32.2991 32.3477 32.3754 32.2135C32.4518 32.0794 32.4508 31.9147 32.3728 31.7815C32.2948 31.6483 32.1517 31.5669 31.9973 31.5678" stroke="white" stroke-width="4" stroke-linecap="round" stroke-linejoin="round"/>
</svg>
