<svg viewBox="0 0 64 64" fill="none" xmlns="http://www.w3.org/2000/svg">
<path fill-rule="evenodd" clip-rule="evenodd" d="M12.0001 33.3326V28.6768C11.9947 27.7573 12.3702 26.8766 13.0375 26.244C13.7048 25.6114 14.6043 25.2834 15.5222 25.3379C21.3154 25.5223 26.9742 27.1291 31.9997 30.0169C37.0253 27.1291 42.6841 25.5223 48.4773 25.3379C49.3952 25.2834 50.2947 25.6114 50.9621 26.244C51.6294 26.8766 52.005 27.7573 51.9995 28.6768L51.9997 33.3326" fill="#9928FE"/>
<path fill-rule="evenodd" clip-rule="evenodd" d="M12 43.9987V48.5724C12.0095 50.0032 13.1411 51.1743 14.5708 51.2329C20.7093 51.1799 26.7423 52.8296 31.9998 55.9987C37.2573 52.8296 43.2904 51.1799 49.4289 51.2329C50.8586 51.1743 51.9902 50.0032 51.9997 48.5724V43.9987" fill="#9928FE"/>
<path fill-rule="evenodd" clip-rule="evenodd" d="M31.9997 30.0169L31.9998 55.9987L31.9997 30.0169Z" fill="#9928FE"/>
<path d="M12.0001 28.6768V33.3326L12 43.9987V48.5724C12.0095 50.0032 13.1411 51.1743 14.5708 51.2329C20.7093 51.1799 26.7423 52.8296 31.9998 55.9987L31.9997 30.0169C26.9742 27.1291 21.3154 25.5223 15.5222 25.3379C14.6043 25.2834 13.7048 25.6114 13.0375 26.244C12.3702 26.8766 11.9947 27.7573 12.0001 28.6768Z" fill="#9928FE"/>
<path d="M48.4773 25.3379C42.6841 25.5223 37.0253 27.1291 31.9997 30.0169L31.9998 55.9987C37.2573 52.8296 43.2904 51.1799 49.4289 51.2329C50.8586 51.1743 51.9902 50.0032 51.9997 48.5724V43.9987L51.9997 33.3326L51.9995 28.6768C52.005 27.7573 51.6294 26.8766 50.9621 26.244C50.2947 25.6114 49.3952 25.2834 48.4773 25.3379Z" fill="#9928FE"/>
<circle cx="32" cy="12.6654" r="7.33333" fill="white"/>
<path fill-rule="evenodd" clip-rule="evenodd" d="M10.6667 33.332H13.3333C16.2789 33.332 18.6667 35.7198 18.6667 38.6654C18.6667 41.6109 16.2789 43.9987 13.3333 43.9987H10.6667C9.19391 43.9987 8 42.8048 8 41.332V35.9987C8 34.5259 9.19391 33.332 10.6667 33.332Z" fill="white"/>
<path fill-rule="evenodd" clip-rule="evenodd" d="M53.3333 44H50.6667C47.7211 44 45.3333 41.6122 45.3333 38.6667C45.3333 35.7211 47.7211 33.3333 50.6667 33.3333H53.3333C54.8061 33.3333 56 34.5272 56 36V41.3333C56 42.8061 54.8061 44 53.3333 44Z" fill="white"/>
</svg>
