<svg viewBox="0 0 65 64" fill="none" xmlns="http://www.w3.org/2000/svg">
<path d="M57.8041 41.332L53.8041 37.332L49.8041 41.332" stroke="#9928FE" stroke-width="4" stroke-linecap="round" stroke-linejoin="round"/>
<path d="M7.16663 17.332L11.1666 21.332L15.1666 17.332" stroke="#9928FE" stroke-width="4" stroke-linecap="round" stroke-linejoin="round"/>
<path d="M11.1666 21.3333V13.3333C11.1666 10.3867 13.5533 8 16.5 8H24.5" stroke="#9928FE" stroke-width="4" stroke-linecap="round" stroke-linejoin="round"/>
<path d="M53.804 37.332V50.6654C53.804 53.5987 51.404 55.9987 48.4707 55.9987H40.5" stroke="#9928FE" stroke-width="4" stroke-linecap="round" stroke-linejoin="round"/>
<path fill-rule="evenodd" clip-rule="evenodd" d="M8.5 45.4987V35C8.5 33.344 9.844 32 11.5 32H29.8333C31.4893 32 32.8333 33.344 32.8333 35V45.5013C32.8333 47.1573 31.4893 48.5013 29.8333 48.5013H11.5C9.844 48.5013 8.5 47.1573 8.5 45.4987Z" fill="#9928FE"/>
<path d="M20.6601 48.5078V56.0011" stroke="#9928FE" stroke-width="4" stroke-linecap="round" stroke-linejoin="round"/>
<path d="M15.3268 56.0013H25.9934" stroke="#9928FE" stroke-width="4" stroke-linecap="round" stroke-linejoin="round"/>
<path fill-rule="evenodd" clip-rule="evenodd" d="M38.2653 13.424C35.0147 13.8667 32.5 16.6267 32.5 20C32.5 23.6827 35.4867 26.6667 39.1667 26.6667H53.8333C56.78 26.6667 59.1667 24.28 59.1667 21.3333C59.1667 18.3867 56.78 16 53.8333 16C53.8333 11.5813 50.252 8 45.8333 8C42.3187 8 39.3373 10.2693 38.2653 13.424Z" fill="#9928FE"/>
</svg>
