<svg width="64" height="64" viewBox="0 0 64 64" fill="none" xmlns="http://www.w3.org/2000/svg">
<rect x="8" y="8" width="48" height="48" rx="5" fill="#9928FE"/>
<path d="M21.3334 42.6654H42.6667" stroke="white" stroke-width="4" stroke-linecap="round" stroke-linejoin="round"/>
<path fill-rule="evenodd" clip-rule="evenodd" d="M39.2203 28.3579L33.6938 33.8845C33.1937 34.3845 32.5154 34.6655 31.8081 34.6654H27.3333C26.9651 34.6654 26.6666 34.367 26.6666 33.9988V29.5238C26.6666 28.8167 26.9475 28.1385 27.4474 27.6384L32.9706 22.1134C33.4707 21.6132 34.149 21.3321 34.8564 21.332C35.5637 21.332 36.2421 21.6129 36.7423 22.1131L39.218 24.5889C39.7183 25.0883 39.9996 25.766 40 26.4729C40.0004 27.1798 39.72 27.8579 39.2203 28.3579Z" fill="white"/>
</svg>
