<svg width="24" height="25" viewBox="0 0 24 25" fill="none" xmlns="http://www.w3.org/2000/svg">
	<path fill-rule="evenodd" clip-rule="evenodd" d="M19.4139 6.914L16.5859 4.086C16.2109 3.711 15.7019 3.5 15.1719 3.5H5.99994C4.89494 3.5 3.99994 4.395 3.99994 5.5V19.5C3.99994 20.605 4.89494 21.5 5.99994 21.5H17.9999C19.1049 21.5 19.9999 20.605 19.9999 19.5V8.328C19.9999 7.798 19.7889 7.289 19.4139 6.914Z" fill="white" fill-opacity="0.5" />
	<path fill-rule="evenodd" clip-rule="evenodd" d="M19.9999 8.5H15.9999C15.4479 8.5 14.9999 8.052 14.9999 7.5V3.5" fill="white" />
	<path d="M19.4139 6.914L16.5859 4.086C16.2109 3.711 15.7019 3.5 15.1719 3.5H14.9999V7.5C14.9999 8.052 15.4479 8.5 15.9999 8.5H19.9999L19.9999 8.328C19.9999 7.798 19.7889 7.289 19.4139 6.914Z" fill="white" />
	<path d="M13.6001 12.5L16.0001 14.9L13.6001 17.3" stroke="white" stroke-width="1.5" stroke-linecap="round" stroke-linejoin="round" />
	<path d="M10.4 12.5L8 14.9L10.4 17.3" stroke="white" stroke-width="1.5" stroke-linecap="round" stroke-linejoin="round" />
</svg>
