<svg width="24" height="25" viewBox="0 0 24 25" fill="none" xmlns="http://www.w3.org/2000/svg">
	<path d="M17.0914 21.2271C17.2421 21.8299 16.8756 22.4407 16.2729 22.5914C15.6701 22.7421 15.0593 22.3756 14.9086 21.7729L13.9086 17.7729C13.8858 17.6815 13.8748 17.5901 13.8747 17.5H10.1253C10.1252 17.5901 10.1142 17.6815 10.0914 17.7729L9.09141 21.7729C8.94072 22.3756 8.32992 22.7421 7.72715 22.5914C7.12438 22.4407 6.7579 21.8299 6.90859 21.2271L7.84038 17.5H5.075C3.929 17.5 3 16.571 3 15.425V5.575C3 4.429 3.929 3.5 5.075 3.5H18.924C20.071 3.5 21 4.429 21 5.575V15.424C21 16.571 20.071 17.5 18.925 17.5H16.1596L17.0914 21.2271Z" fill="white" fill-opacity="0.5" />
	<path d="M7.49994 13.5V10.77" stroke="white" stroke-width="2" stroke-linecap="round" stroke-linejoin="round" />
	<path d="M10.4999 13.5V7.5" stroke="white" stroke-width="2" stroke-linecap="round" stroke-linejoin="round" />
	<path d="M13.4999 13.5002V10.1802" stroke="white" stroke-width="2" stroke-linecap="round" stroke-linejoin="round" />
	<path d="M16.4999 13.4998V8.0498" stroke="white" stroke-width="2" stroke-linecap="round" stroke-linejoin="round" />
</svg>
