<svg width="24" height="25" viewBox="0 0 24 25" fill="none" xmlns="http://www.w3.org/2000/svg">
	<path d="M14.251 3.65589C18.2952 4.68531 21.1257 8.32713 21.1251 12.5003C21.125 13.1216 20.6212 13.6252 19.9999 13.6251C19.3786 13.625 18.875 13.1213 18.8751 12.5C18.8756 9.35579 16.743 6.61195 13.696 5.83636C11.3422 5.23721 8.90606 5.93059 7.22667 7.55024H8.04709C8.66841 7.55024 9.17209 8.05392 9.17209 8.67524C9.17209 9.29656 8.66841 9.80024 8.04709 9.80024H4.51208C3.89076 9.80024 3.38708 9.29656 3.38708 8.67524V5.13924C3.38708 4.51792 3.89076 4.01424 4.51208 4.01424C5.13341 4.01424 5.63708 4.51792 5.63708 5.13924V5.9572C7.86695 3.78854 11.114 2.8574 14.251 3.65589Z" fill="white" fill-opacity="0.5" />
	<path d="M4.00029 12.5C4.62161 12.5001 5.12522 13.0039 5.12512 13.6252C5.12464 16.7693 7.25722 19.5132 10.3042 20.2888C12.658 20.8879 15.0941 20.1946 16.7735 18.5749H15.9531C15.3318 18.5749 14.8281 18.0713 14.8281 17.4499C14.8281 16.8286 15.3318 16.3249 15.9531 16.3249H19.4881C20.1095 16.3249 20.6131 16.8286 20.6131 17.4499V20.9859C20.6131 21.6073 20.1095 22.1109 19.4881 22.1109C18.8668 22.1109 18.3631 21.6073 18.3631 20.9859V20.1679C16.1333 22.3366 12.8862 23.2677 9.7492 22.4692C5.705 21.4398 2.87448 17.798 2.87512 13.6248C2.87522 13.0035 3.37897 12.4999 4.00029 12.5Z" fill="white" fill-opacity="0.5" />
</svg>
