<svg width="768" height="954" viewBox="0 0 768 954" fill="none" xmlns="http://www.w3.org/2000/svg">
<path d="M877.255 634.447C1019.04 634.447 1133.98 519.508 1133.98 377.724C1133.98 235.939 1019.04 121 877.255 121C735.47 121 620.531 235.939 620.531 377.724C620.531 519.508 735.47 634.447 877.255 634.447Z" stroke="black" stroke-dasharray="2 2"/>
<path d="M877.255 634.447C1019.04 634.447 1133.98 519.508 1133.98 377.724C1133.98 235.939 1019.04 121 877.255 121C735.47 121 620.531 235.939 620.531 377.724C620.531 519.508 735.47 634.447 877.255 634.447Z" stroke="url(#paint0_linear_298_3255)" stroke-dasharray="2 2"/>
<path d="M535.015 377.384H590.36M534.9 365.363C554.528 365.363 557.972 377.319 579.665 377.319H620.643M535.015 356.32C555.203 356.32 562.513 377.039 592.1 377.039H620.643M534.9 344.989C562.634 344.989 567.141 376.974 592.448 376.974M534.9 389.406C554.528 389.406 557.972 377.449 579.665 377.449H620.643M535.015 398.449C555.203 398.449 562.513 377.73 592.1 377.73H620.643M534.9 409.779C562.634 409.779 567.141 377.795 592.448 377.795" stroke="black" stroke-dasharray="2 2"/>
<path d="M535.015 377.384H590.36M534.9 365.363C554.528 365.363 557.972 377.319 579.665 377.319H620.643M535.015 356.32C555.203 356.32 562.513 377.039 592.1 377.039H620.643M534.9 344.989C562.634 344.989 567.141 376.974 592.448 376.974M534.9 389.406C554.528 389.406 557.972 377.449 579.665 377.449H620.643M535.015 398.449C555.203 398.449 562.513 377.73 592.1 377.73H620.643M534.9 409.779C562.634 409.779 567.141 377.795 592.448 377.795" stroke="url(#paint1_linear_298_3255)" stroke-dasharray="2 2"/>
<g filter="url(#filter0_bd_298_3255)">
<path d="M383.561 311.708C373.042 317.781 360.081 317.781 349.561 311.707L317.872 293.412C307.352 287.338 300.872 276.114 300.872 263.967L300.872 227.375C300.872 215.228 307.352 204.004 317.872 197.93L349.561 179.634C360.081 173.561 373.042 173.561 383.561 179.634L415.251 197.93C425.77 204.004 432.251 215.228 432.251 227.375L432.251 263.967C432.251 276.114 425.77 287.338 415.251 293.412L383.561 311.708Z" fill="#3E3E3E" fill-opacity="0.01" shape-rendering="crispEdges"/>
<path d="M383.311 311.274C372.946 317.259 360.176 317.259 349.811 311.274L318.122 292.979C307.757 286.994 301.372 275.935 301.372 263.967L301.372 227.375C301.372 215.407 307.757 204.347 318.122 198.363L349.811 180.067C360.176 174.083 372.946 174.083 383.311 180.067L415.001 198.363C425.366 204.347 431.751 215.407 431.751 227.375L431.751 263.967C431.751 275.935 425.366 286.994 415.001 292.979L383.311 311.274Z" stroke="url(#paint2_linear_298_3255)" shape-rendering="crispEdges"/>
</g>
<path d="M359.988 282.24C364.32 284.741 369.657 284.741 373.988 282.24L394.977 270.122C399.308 267.621 401.977 263 401.977 257.998L401.977 233.763C401.977 228.761 399.308 224.139 394.977 221.638L373.988 209.521C369.657 207.02 364.32 207.02 359.988 209.521L339 221.638C334.669 224.139 332 228.761 332 233.763L332 257.998C332 263 334.669 267.621 339 270.122L359.988 282.24Z" fill="url(#paint3_linear_298_3255)"/>
<path d="M356.89 241.233V239.563H366.836V241.233H362.826V252.414H360.893V241.233H356.89Z" fill="white"/>
<path d="M369.466 242.776L371.593 246.529L373.739 242.776H375.791L372.786 247.595L375.816 252.414H373.765L371.593 248.813L369.429 252.414H367.37L370.37 247.595L367.408 242.776H369.466Z" fill="white"/>
<g filter="url(#filter1_bd_298_3255)">
<path d="M570.897 280.807C560.378 286.881 547.417 286.881 536.898 280.807L505.208 262.511C494.689 256.438 488.208 245.213 488.208 233.066L488.208 196.475C488.208 184.328 494.689 173.103 505.208 167.03L536.898 148.734C547.417 142.66 560.378 142.66 570.898 148.734L602.587 167.03C613.107 173.103 619.587 184.328 619.587 196.475L619.587 233.066C619.587 245.213 613.106 256.438 602.587 262.511L570.897 280.807Z" fill="#3E3E3E" fill-opacity="0.01" shape-rendering="crispEdges"/>
<path d="M570.647 280.374C560.283 286.358 547.512 286.358 537.148 280.374L505.458 262.078C495.093 256.094 488.708 245.035 488.708 233.066L488.708 196.475C488.708 184.506 495.093 173.447 505.458 167.463L537.148 149.167C547.512 143.183 560.283 143.183 570.648 149.167L602.337 167.463C612.702 173.447 619.087 184.506 619.087 196.475L619.087 233.066C619.087 245.035 612.702 256.094 602.337 262.078L570.647 280.374Z" stroke="url(#paint4_linear_298_3255)" shape-rendering="crispEdges"/>
</g>
<path d="M561.324 251.205C556.993 253.705 551.656 253.705 547.324 251.205L526.336 239.087C522.004 236.586 519.336 231.964 519.336 226.963L519.336 202.728C519.336 197.726 522.004 193.104 526.336 190.603L547.324 178.486C551.656 175.985 556.993 175.985 561.324 178.486L582.312 190.603C586.644 193.104 589.312 197.726 589.312 202.728L589.312 226.963C589.312 231.964 586.644 236.586 582.312 239.087L561.324 251.205Z" fill="url(#paint5_linear_298_3255)"/>
<path d="M545.041 210.197V208.528H554.986V210.197H550.977V221.379H549.044V210.197H545.041Z" fill="white"/>
<path d="M557.617 211.741L559.744 215.493L561.89 211.741H563.942L560.936 216.56L563.967 221.379H561.915L559.744 217.777L557.579 221.379H555.521L558.52 216.56L555.559 211.741H557.617Z" fill="white"/>
<g filter="url(#filter2_bd_298_3255)">
<path d="M356.011 596.208C345.491 602.281 332.53 602.281 322.011 596.207L267.098 564.504C256.578 558.43 250.098 547.206 250.098 535.059L250.098 471.651C250.098 459.504 256.578 448.279 267.098 442.206L322.011 410.502C332.53 404.428 345.491 404.428 356.011 410.502L410.924 442.206C421.443 448.279 427.924 459.504 427.924 471.651L427.924 535.059C427.924 547.206 421.443 558.43 410.924 564.504L356.011 596.208Z" fill="#3E3E3E" fill-opacity="0.01" shape-rendering="crispEdges"/>
<path d="M355.761 595.774C345.396 601.759 332.626 601.759 322.261 595.774L267.348 564.071C256.983 558.086 250.598 547.027 250.598 535.059L250.598 471.651C250.598 459.682 256.983 448.623 267.348 442.639L322.261 410.935C332.626 404.951 345.396 404.951 355.761 410.935L410.674 442.639C421.039 448.623 427.424 459.682 427.424 471.651L427.424 535.059C427.424 547.027 421.039 558.086 410.674 564.071L355.761 595.774Z" stroke="url(#paint6_linear_298_3255)" shape-rendering="crispEdges"/>
</g>
<path d="M328.534 554.693C332.866 557.194 338.203 557.194 342.534 554.693L375.892 535.434C380.224 532.933 382.892 528.311 382.892 523.309L382.892 484.791C382.892 479.789 380.224 475.168 375.892 472.667L342.534 453.408C338.203 450.907 332.866 450.907 328.534 453.408L295.177 472.667C290.845 475.168 288.177 479.789 288.177 484.791L288.177 523.309C288.177 528.311 290.845 532.933 295.177 535.434L328.534 554.693Z" fill="url(#paint7_linear_298_3255)"/>
<path d="M325.606 498.961V497.292H335.551V498.961H331.542V510.143H329.609V498.961H325.606Z" fill="white"/>
<path d="M338.182 500.505L340.309 504.257L342.455 500.505H344.507L341.501 505.324L344.532 510.143H342.48L340.309 506.541L338.144 510.143H336.086L339.086 505.324L336.124 500.505H338.182Z" fill="white"/>
<g filter="url(#filter3_bd_298_3255)">
<path d="M582.642 695.184C572.122 701.258 559.161 701.258 548.642 695.184L493.729 663.48C483.209 657.407 476.729 646.182 476.729 634.035L476.729 570.627C476.729 558.48 483.209 547.256 493.729 541.182L548.642 509.479C559.161 503.405 572.122 503.405 582.642 509.479L637.555 541.183C648.074 547.256 654.555 558.48 654.555 570.627L654.555 634.035C654.555 646.182 648.074 657.407 637.555 663.48L582.642 695.184Z" fill="#3E3E3E" fill-opacity="0.01" shape-rendering="crispEdges"/>
<path d="M582.392 694.751C572.027 700.735 559.257 700.735 548.892 694.751L493.979 663.047C483.614 657.063 477.229 646.004 477.229 634.035L477.229 570.627C477.229 558.659 483.614 547.6 493.979 541.616L548.892 509.912C559.257 503.927 572.027 503.927 582.392 509.912L637.305 541.616C647.669 547.6 654.055 558.659 654.055 570.627L654.055 634.035C654.055 646.004 647.669 657.063 637.305 663.047L582.392 694.751Z" stroke="url(#paint8_linear_298_3255)" shape-rendering="crispEdges"/>
</g>
<path d="M572.933 653.102C568.602 655.603 563.265 655.603 558.933 653.102L525.576 633.843C521.244 631.342 518.576 626.72 518.576 621.719L518.576 583.2C518.576 578.199 521.244 573.577 525.576 571.076L558.934 551.817C563.265 549.316 568.602 549.316 572.934 551.817L606.291 571.076C610.623 573.577 613.291 578.199 613.291 583.2L613.291 621.719C613.291 626.72 610.623 631.342 606.291 633.843L572.933 653.102Z" fill="url(#paint9_linear_298_3255)"/>
<path d="M556.005 597.369V595.7H565.95V597.369H561.941V608.551H560.008V597.369H556.005Z" fill="white"/>
<path d="M568.581 598.913L570.708 602.665L572.854 598.913H574.906L571.9 603.732L574.931 608.551H572.879L570.708 604.949L568.543 608.551H566.485L569.485 603.732L566.523 598.913H568.581Z" fill="white"/>
<g filter="url(#filter4_bd_298_3255)">
<path d="M464.069 481.804C453.55 487.878 440.589 487.878 430.069 481.804L364.955 444.21C354.435 438.137 347.955 426.912 347.955 414.765L347.955 339.578C347.955 327.431 354.435 316.206 364.955 310.133L430.069 272.539C440.589 266.465 453.55 266.465 464.069 272.539L529.184 310.133C539.704 316.206 546.184 327.431 546.184 339.578L546.184 414.765C546.184 426.912 539.704 438.137 529.184 444.21L464.069 481.804Z" fill="#3E3E3E" fill-opacity="0.01" shape-rendering="crispEdges"/>
<path d="M463.819 481.371C453.454 487.355 440.684 487.355 430.319 481.371L365.205 443.777C354.84 437.793 348.455 426.734 348.455 414.765L348.455 339.578C348.455 327.609 354.84 316.55 365.205 310.566L430.319 272.972C440.684 266.988 453.455 266.988 463.819 272.972L528.934 310.566C539.299 316.55 545.684 327.609 545.684 339.578L545.684 414.765C545.684 426.734 539.299 437.793 528.934 443.777L463.819 481.371Z" stroke="url(#paint10_linear_298_3255)" shape-rendering="crispEdges"/>
</g>
<path d="M459.06 431.68C451.634 435.967 442.485 435.967 435.06 431.68L406.268 415.057C398.842 410.77 394.268 402.847 394.268 394.273L394.268 361.027C394.268 352.453 398.842 344.53 406.268 340.243L435.06 323.62C442.485 319.333 451.634 319.333 459.06 323.62L487.851 340.243C495.277 344.53 499.851 352.453 499.851 361.027L499.851 394.273C499.851 402.847 495.277 410.77 487.851 415.057L459.06 431.68Z" fill="url(#paint11_linear_298_3255)"/>
<path d="M436.729 363.608C436.662 363.014 436.386 362.554 435.9 362.228C435.415 361.897 434.804 361.732 434.068 361.732C433.541 361.732 433.085 361.816 432.7 361.983C432.315 362.146 432.016 362.372 431.803 362.661C431.594 362.945 431.489 363.269 431.489 363.633C431.489 363.939 431.56 364.202 431.703 364.424C431.849 364.646 432.039 364.832 432.274 364.982C432.512 365.129 432.767 365.252 433.039 365.353C433.311 365.449 433.572 365.528 433.823 365.591L435.078 365.917C435.488 366.018 435.909 366.154 436.34 366.325C436.771 366.497 437.17 366.723 437.538 367.003C437.906 367.283 438.203 367.63 438.429 368.044C438.659 368.459 438.774 368.954 438.774 369.532C438.774 370.259 438.586 370.906 438.21 371.471C437.837 372.035 437.296 372.481 436.584 372.807C435.877 373.133 435.022 373.297 434.018 373.297C433.056 373.297 432.223 373.144 431.521 372.838C430.818 372.533 430.268 372.1 429.87 371.54C429.473 370.975 429.253 370.305 429.211 369.532H431.157C431.194 369.996 431.345 370.383 431.608 370.692C431.876 370.998 432.217 371.226 432.631 371.376C433.05 371.523 433.508 371.596 434.005 371.596C434.553 371.596 435.041 371.51 435.467 371.339C435.898 371.163 436.237 370.92 436.484 370.611C436.731 370.297 436.854 369.931 436.854 369.513C436.854 369.132 436.745 368.82 436.528 368.578C436.315 368.335 436.024 368.134 435.656 367.975C435.292 367.816 434.88 367.676 434.42 367.555L432.901 367.141C431.872 366.861 431.056 366.449 430.454 365.905C429.856 365.361 429.557 364.641 429.557 363.746C429.557 363.006 429.757 362.359 430.159 361.807C430.561 361.255 431.104 360.826 431.79 360.521C432.476 360.211 433.25 360.057 434.112 360.057C434.982 360.057 435.75 360.209 436.415 360.515C437.084 360.82 437.611 361.24 437.996 361.776C438.381 362.307 438.582 362.918 438.599 363.608H436.729Z" fill="white"/>
<path d="M440.941 373.083V363.445H442.817V373.083H440.941ZM441.888 361.958C441.562 361.958 441.282 361.849 441.047 361.632C440.817 361.41 440.702 361.146 440.702 360.841C440.702 360.531 440.817 360.268 441.047 360.05C441.282 359.829 441.562 359.718 441.888 359.718C442.214 359.718 442.493 359.829 442.723 360.05C442.957 360.268 443.074 360.531 443.074 360.841C443.074 361.146 442.957 361.41 442.723 361.632C442.493 361.849 442.214 361.958 441.888 361.958Z" fill="white"/>
<path d="M448.949 373.271C448.171 373.271 447.476 373.073 446.866 372.675C446.259 372.274 445.782 371.703 445.435 370.962C445.092 370.218 444.92 369.325 444.92 368.283C444.92 367.241 445.094 366.35 445.441 365.61C445.793 364.869 446.274 364.303 446.884 363.909C447.495 363.516 448.188 363.32 448.961 363.32C449.56 363.32 450.041 363.42 450.405 363.621C450.773 363.817 451.057 364.047 451.258 364.311C451.463 364.574 451.622 364.807 451.735 365.007H451.848V360.232H453.724V373.083H451.892V371.583H451.735C451.622 371.788 451.459 372.023 451.245 372.286C451.036 372.55 450.748 372.78 450.38 372.976C450.011 373.173 449.535 373.271 448.949 373.271ZM449.363 371.671C449.903 371.671 450.359 371.529 450.731 371.245C451.107 370.956 451.392 370.556 451.584 370.046C451.781 369.536 451.879 368.942 451.879 368.264C451.879 367.595 451.783 367.009 451.591 366.507C451.398 366.005 451.116 365.614 450.744 365.334C450.371 365.053 449.911 364.913 449.363 364.913C448.798 364.913 448.328 365.06 447.951 365.353C447.575 365.645 447.29 366.045 447.098 366.551C446.91 367.057 446.815 367.628 446.815 368.264C446.815 368.908 446.912 369.488 447.104 370.002C447.297 370.517 447.581 370.925 447.957 371.226C448.338 371.523 448.807 371.671 449.363 371.671Z" fill="white"/>
<path d="M460.556 373.278C459.606 373.278 458.788 373.075 458.102 372.669C457.42 372.259 456.893 371.684 456.521 370.943C456.153 370.199 455.969 369.327 455.969 368.327C455.969 367.34 456.153 366.469 456.521 365.717C456.893 364.964 457.412 364.376 458.077 363.953C458.747 363.531 459.529 363.32 460.424 363.32C460.968 363.32 461.495 363.409 462.005 363.589C462.516 363.769 462.974 364.052 463.379 364.436C463.785 364.821 464.105 365.321 464.339 365.936C464.574 366.547 464.691 367.289 464.691 368.164V368.829H457.029V367.423H462.852C462.852 366.93 462.752 366.492 462.551 366.112C462.35 365.727 462.068 365.424 461.704 365.202C461.344 364.98 460.922 364.869 460.437 364.869C459.909 364.869 459.449 364.999 459.056 365.258C458.667 365.514 458.366 365.848 458.153 366.262C457.943 366.672 457.839 367.118 457.839 367.599V368.697C457.839 369.341 457.952 369.889 458.178 370.341C458.408 370.793 458.728 371.138 459.138 371.376C459.548 371.611 460.027 371.728 460.575 371.728C460.93 371.728 461.254 371.678 461.547 371.577C461.84 371.473 462.093 371.318 462.306 371.113C462.52 370.908 462.683 370.655 462.796 370.354L464.572 370.674C464.429 371.197 464.174 371.655 463.806 372.048C463.442 372.437 462.984 372.74 462.432 372.958C461.884 373.171 461.259 373.278 460.556 373.278Z" fill="white"/>
<path d="M434.673 385.762H432.715C432.64 385.344 432.5 384.976 432.295 384.658C432.09 384.34 431.839 384.07 431.542 383.849C431.245 383.627 430.912 383.46 430.544 383.347C430.18 383.234 429.793 383.177 429.383 383.177C428.643 383.177 427.98 383.363 427.394 383.736C426.813 384.108 426.352 384.654 426.014 385.373C425.679 386.093 425.512 386.971 425.512 388.009C425.512 389.055 425.679 389.937 426.014 390.657C426.352 391.376 426.815 391.92 427.4 392.288C427.986 392.656 428.645 392.84 429.377 392.84C429.783 392.84 430.168 392.786 430.531 392.677C430.9 392.564 431.232 392.399 431.529 392.182C431.826 391.964 432.077 391.698 432.282 391.385C432.491 391.067 432.636 390.703 432.715 390.293L434.673 390.299C434.568 390.931 434.365 391.512 434.064 392.044C433.767 392.571 433.384 393.027 432.916 393.412C432.452 393.792 431.92 394.087 431.322 394.296C430.724 394.505 430.071 394.61 429.364 394.61C428.252 394.61 427.26 394.346 426.39 393.819C425.52 393.288 424.834 392.529 424.332 391.542C423.834 390.554 423.585 389.377 423.585 388.009C423.585 386.637 423.836 385.459 424.338 384.476C424.84 383.489 425.526 382.732 426.396 382.205C427.266 381.673 428.256 381.408 429.364 381.408C430.046 381.408 430.682 381.506 431.272 381.703C431.866 381.895 432.399 382.18 432.872 382.556C433.345 382.928 433.736 383.384 434.045 383.924C434.355 384.459 434.564 385.072 434.673 385.762Z" fill="white"/>
<path d="M438.719 388.712V394.434H436.842V381.583H438.693V386.365H438.813C439.039 385.846 439.384 385.434 439.848 385.129C440.312 384.823 440.919 384.671 441.668 384.671C442.329 384.671 442.906 384.807 443.4 385.079C443.897 385.35 444.282 385.756 444.554 386.296C444.83 386.831 444.968 387.501 444.968 388.304V394.434H443.092V388.53C443.092 387.823 442.91 387.275 442.546 386.886C442.182 386.492 441.676 386.296 441.028 386.296C440.584 386.296 440.187 386.39 439.835 386.578C439.488 386.766 439.214 387.043 439.013 387.406C438.817 387.766 438.719 388.201 438.719 388.712Z" fill="white"/>
<path d="M450.277 394.648C449.666 394.648 449.114 394.535 448.62 394.309C448.127 394.079 447.736 393.746 447.447 393.311C447.162 392.876 447.02 392.343 447.02 391.711C447.02 391.167 447.125 390.72 447.334 390.368C447.543 390.017 447.825 389.739 448.181 389.534C448.537 389.329 448.934 389.174 449.373 389.069C449.812 388.965 450.26 388.885 450.716 388.831C451.293 388.764 451.762 388.71 452.122 388.668C452.481 388.622 452.743 388.549 452.906 388.448C453.069 388.348 453.151 388.185 453.151 387.959V387.915C453.151 387.367 452.996 386.942 452.686 386.641C452.381 386.34 451.925 386.189 451.318 386.189C450.687 386.189 450.189 386.329 449.825 386.61C449.465 386.886 449.216 387.193 449.078 387.532L447.315 387.13C447.524 386.545 447.83 386.072 448.231 385.712C448.637 385.348 449.103 385.085 449.631 384.922C450.158 384.754 450.712 384.671 451.293 384.671C451.678 384.671 452.086 384.717 452.517 384.809C452.952 384.897 453.358 385.06 453.734 385.298C454.115 385.537 454.427 385.878 454.669 386.321C454.912 386.76 455.033 387.331 455.033 388.034V394.434H453.201V393.117H453.126C453.004 393.359 452.822 393.598 452.58 393.832C452.337 394.066 452.025 394.261 451.645 394.415C451.264 394.57 450.808 394.648 450.277 394.648ZM450.685 393.142C451.203 393.142 451.647 393.039 452.015 392.834C452.387 392.629 452.67 392.362 452.862 392.031C453.059 391.696 453.157 391.339 453.157 390.958V389.716C453.09 389.783 452.96 389.845 452.768 389.904C452.58 389.958 452.364 390.006 452.122 390.048C451.879 390.086 451.643 390.121 451.413 390.155C451.182 390.184 450.99 390.209 450.835 390.23C450.471 390.276 450.139 390.354 449.838 390.462C449.541 390.571 449.302 390.728 449.122 390.933C448.947 391.134 448.859 391.401 448.859 391.736C448.859 392.2 449.03 392.552 449.373 392.79C449.716 393.025 450.153 393.142 450.685 393.142Z" fill="white"/>
<path d="M457.532 394.434V384.796H459.408V394.434H457.532ZM458.48 383.309C458.153 383.309 457.873 383.2 457.639 382.983C457.409 382.761 457.294 382.497 457.294 382.192C457.294 381.883 457.409 381.619 457.639 381.401C457.873 381.18 458.153 381.069 458.48 381.069C458.806 381.069 459.084 381.18 459.314 381.401C459.548 381.619 459.666 381.883 459.666 382.192C459.666 382.497 459.548 382.761 459.314 382.983C459.084 383.2 458.806 383.309 458.48 383.309Z" fill="white"/>
<path d="M463.808 388.712V394.434H461.932V384.796H463.733V386.365H463.852C464.074 385.855 464.421 385.445 464.894 385.135C465.371 384.825 465.971 384.671 466.695 384.671C467.352 384.671 467.927 384.809 468.42 385.085C468.914 385.357 469.297 385.762 469.569 386.302C469.841 386.842 469.977 387.509 469.977 388.304V394.434H468.1V388.53C468.1 387.831 467.918 387.285 467.555 386.892C467.191 386.495 466.691 386.296 466.055 386.296C465.62 386.296 465.233 386.39 464.894 386.578C464.559 386.766 464.294 387.043 464.097 387.406C463.905 387.766 463.808 388.201 463.808 388.712Z" fill="white"/>
<defs>
<filter id="filter0_bd_298_3255" x="50.8721" y="-70.9209" width="631.379" height="641.184" filterUnits="userSpaceOnUse" color-interpolation-filters="sRGB">
<feFlood flood-opacity="0" result="BackgroundImageFix"/>
<feGaussianBlur in="BackgroundImageFix" stdDeviation="12"/>
<feComposite in2="SourceAlpha" operator="in" result="effect1_backgroundBlur_298_3255"/>
<feColorMatrix in="SourceAlpha" type="matrix" values="0 0 0 0 0 0 0 0 0 0 0 0 0 0 0 0 0 0 127 0" result="hardAlpha"/>
<feOffset dy="4"/>
<feGaussianBlur stdDeviation="125"/>
<feComposite in2="hardAlpha" operator="out"/>
<feColorMatrix type="matrix" values="0 0 0 0 0.6 0 0 0 0 0.156863 0 0 0 0 0.996078 0 0 0 0.6 0"/>
<feBlend mode="normal" in2="effect1_backgroundBlur_298_3255" result="effect2_dropShadow_298_3255"/>
<feBlend mode="normal" in="SourceGraphic" in2="effect2_dropShadow_298_3255" result="shape"/>
</filter>
<filter id="filter1_bd_298_3255" x="238.208" y="-101.821" width="631.379" height="641.184" filterUnits="userSpaceOnUse" color-interpolation-filters="sRGB">
<feFlood flood-opacity="0" result="BackgroundImageFix"/>
<feGaussianBlur in="BackgroundImageFix" stdDeviation="12"/>
<feComposite in2="SourceAlpha" operator="in" result="effect1_backgroundBlur_298_3255"/>
<feColorMatrix in="SourceAlpha" type="matrix" values="0 0 0 0 0 0 0 0 0 0 0 0 0 0 0 0 0 0 127 0" result="hardAlpha"/>
<feOffset dy="4"/>
<feGaussianBlur stdDeviation="125"/>
<feComposite in2="hardAlpha" operator="out"/>
<feColorMatrix type="matrix" values="0 0 0 0 0.6 0 0 0 0 0.156863 0 0 0 0 0.996078 0 0 0 0.6 0"/>
<feBlend mode="normal" in2="effect1_backgroundBlur_298_3255" result="effect2_dropShadow_298_3255"/>
<feBlend mode="normal" in="SourceGraphic" in2="effect2_dropShadow_298_3255" result="shape"/>
</filter>
<filter id="filter2_bd_298_3255" x="0.0979309" y="159.947" width="677.826" height="694.815" filterUnits="userSpaceOnUse" color-interpolation-filters="sRGB">
<feFlood flood-opacity="0" result="BackgroundImageFix"/>
<feGaussianBlur in="BackgroundImageFix" stdDeviation="12"/>
<feComposite in2="SourceAlpha" operator="in" result="effect1_backgroundBlur_298_3255"/>
<feColorMatrix in="SourceAlpha" type="matrix" values="0 0 0 0 0 0 0 0 0 0 0 0 0 0 0 0 0 0 127 0" result="hardAlpha"/>
<feOffset dy="4"/>
<feGaussianBlur stdDeviation="125"/>
<feComposite in2="hardAlpha" operator="out"/>
<feColorMatrix type="matrix" values="0 0 0 0 0.6 0 0 0 0 0.156863 0 0 0 0 0.996078 0 0 0 0.6 0"/>
<feBlend mode="normal" in2="effect1_backgroundBlur_298_3255" result="effect2_dropShadow_298_3255"/>
<feBlend mode="normal" in="SourceGraphic" in2="effect2_dropShadow_298_3255" result="shape"/>
</filter>
<filter id="filter3_bd_298_3255" x="226.729" y="258.924" width="677.826" height="694.815" filterUnits="userSpaceOnUse" color-interpolation-filters="sRGB">
<feFlood flood-opacity="0" result="BackgroundImageFix"/>
<feGaussianBlur in="BackgroundImageFix" stdDeviation="12"/>
<feComposite in2="SourceAlpha" operator="in" result="effect1_backgroundBlur_298_3255"/>
<feColorMatrix in="SourceAlpha" type="matrix" values="0 0 0 0 0 0 0 0 0 0 0 0 0 0 0 0 0 0 127 0" result="hardAlpha"/>
<feOffset dy="4"/>
<feGaussianBlur stdDeviation="125"/>
<feComposite in2="hardAlpha" operator="out"/>
<feColorMatrix type="matrix" values="0 0 0 0 0.6 0 0 0 0 0.156863 0 0 0 0 0.996078 0 0 0 0.6 0"/>
<feBlend mode="normal" in2="effect1_backgroundBlur_298_3255" result="effect2_dropShadow_298_3255"/>
<feBlend mode="normal" in="SourceGraphic" in2="effect2_dropShadow_298_3255" result="shape"/>
</filter>
<filter id="filter4_bd_298_3255" x="97.9549" y="21.9834" width="698.229" height="718.376" filterUnits="userSpaceOnUse" color-interpolation-filters="sRGB">
<feFlood flood-opacity="0" result="BackgroundImageFix"/>
<feGaussianBlur in="BackgroundImageFix" stdDeviation="12"/>
<feComposite in2="SourceAlpha" operator="in" result="effect1_backgroundBlur_298_3255"/>
<feColorMatrix in="SourceAlpha" type="matrix" values="0 0 0 0 0 0 0 0 0 0 0 0 0 0 0 0 0 0 127 0" result="hardAlpha"/>
<feOffset dy="4"/>
<feGaussianBlur stdDeviation="125"/>
<feComposite in2="hardAlpha" operator="out"/>
<feColorMatrix type="matrix" values="0 0 0 0 0.6 0 0 0 0 0.156863 0 0 0 0 0.996078 0 0 0 0.6 0"/>
<feBlend mode="normal" in2="effect1_backgroundBlur_298_3255" result="effect2_dropShadow_298_3255"/>
<feBlend mode="normal" in="SourceGraphic" in2="effect2_dropShadow_298_3255" result="shape"/>
</filter>
<linearGradient id="paint0_linear_298_3255" x1="4471.39" y1="598.333" x2="4471.42" y2="120.917" gradientUnits="userSpaceOnUse">
<stop stop-color="#191443"/>
<stop offset="0.640625" stop-color="#9A74DB"/>
<stop offset="1" stop-color="#191443"/>
</linearGradient>
<linearGradient id="paint1_linear_298_3255" x1="1177.97" y1="405.222" x2="1177.97" y2="344.979" gradientUnits="userSpaceOnUse">
<stop stop-color="#191443"/>
<stop offset="0.244792" stop-color="#9A74DB"/>
<stop offset="1" stop-color="#191443"/>
</linearGradient>
<linearGradient id="paint2_linear_298_3255" x1="689.677" y1="235.613" x2="357.837" y2="39.0488" gradientUnits="userSpaceOnUse">
<stop stop-color="#9A74DB"/>
<stop offset="1" stop-color="#9A74DB" stop-opacity="0"/>
</linearGradient>
<linearGradient id="paint3_linear_298_3255" x1="407.389" y1="245.88" x2="326.587" y2="245.88" gradientUnits="userSpaceOnUse">
<stop stop-color="#D5A222"/>
<stop offset="1" stop-color="#F242E1"/>
</linearGradient>
<linearGradient id="paint4_linear_298_3255" x1="877.013" y1="204.713" x2="545.173" y2="8.14843" gradientUnits="userSpaceOnUse">
<stop stop-color="#9A74DB"/>
<stop offset="1" stop-color="#9A74DB" stop-opacity="0"/>
</linearGradient>
<linearGradient id="paint5_linear_298_3255" x1="513.923" y1="214.845" x2="594.725" y2="214.845" gradientUnits="userSpaceOnUse">
<stop stop-color="#9B08CE"/>
<stop offset="1" stop-color="#FC315A"/>
</linearGradient>
<linearGradient id="paint6_linear_298_3255" x1="776.359" y1="489.741" x2="327.202" y2="223.684" gradientUnits="userSpaceOnUse">
<stop stop-color="#9A74DB"/>
<stop offset="1" stop-color="#9A74DB" stop-opacity="0"/>
</linearGradient>
<linearGradient id="paint7_linear_298_3255" x1="390.218" y1="504.05" x2="280.85" y2="504.05" gradientUnits="userSpaceOnUse">
<stop offset="0.0913122" stop-color="#24AD7C"/>
<stop offset="1" stop-color="#1845B9"/>
</linearGradient>
<linearGradient id="paint8_linear_298_3255" x1="1002.99" y1="588.718" x2="553.833" y2="322.661" gradientUnits="userSpaceOnUse">
<stop stop-color="#9A74DB"/>
<stop offset="1" stop-color="#9A74DB" stop-opacity="0"/>
</linearGradient>
<linearGradient id="paint9_linear_298_3255" x1="511.249" y1="602.46" x2="620.616" y2="602.908" gradientUnits="userSpaceOnUse">
<stop stop-color="#F43053"/>
<stop offset="1" stop-color="#E38048"/>
</linearGradient>
<linearGradient id="paint10_linear_298_3255" x1="934.598" y1="361.996" x2="433.906" y2="65.4122" gradientUnits="userSpaceOnUse">
<stop stop-color="#9A74DB"/>
<stop offset="1" stop-color="#9A74DB" stop-opacity="0"/>
</linearGradient>
<linearGradient id="paint11_linear_298_3255" x1="508.005" y1="377.59" x2="386.154" y2="377.59" gradientUnits="userSpaceOnUse">
<stop stop-color="#B000FD"/>
<stop offset="0.0001" stop-color="#B000FD"/>
<stop offset="0.98" stop-color="#30DAFF"/>
</linearGradient>
</defs>
</svg>
