<svg viewBox="0 0 64 64" fill="none" xmlns="http://www.w3.org/2000/svg">
<mask id="mask0_559_65711" style="mask-type:alpha" maskUnits="userSpaceOnUse" x="7" y="7" width="50" height="50">
<path fill-rule="evenodd" clip-rule="evenodd" d="M49.2855 14.7146C58.832 24.2611 58.832 39.739 49.2855 49.2855C39.739 58.832 24.2611 58.832 14.7146 49.2855C5.16806 39.739 5.16806 24.2611 14.7146 14.7146C24.2611 5.16806 39.739 5.16806 49.2855 14.7146Z" fill="#9928FE"/>
</mask>
<g mask="url(#mask0_559_65711)">
<path fill-rule="evenodd" clip-rule="evenodd" d="M49.2855 14.7146C58.832 24.2611 58.832 39.739 49.2855 49.2855C39.739 58.832 24.2611 58.832 14.7146 49.2855C5.16806 39.739 5.16806 24.2611 14.7146 14.7146C24.2611 5.16806 39.739 5.16806 49.2855 14.7146Z" fill="#9928FE"/>
<path fill-rule="evenodd" clip-rule="evenodd" d="M28.1262 34.4439V39.2946C28.1262 40.6439 29.2196 41.7399 30.5716 41.7399H41.8409C43.5102 41.7399 44.6889 40.1026 44.1582 38.5186L42.7929 34.4439L44.1636 30.3293C44.6916 28.7453 43.5129 27.1106 41.8436 27.1106H33.0116" fill="white"/>
<path fill-rule="evenodd" clip-rule="evenodd" d="M30.5714 34.444H18.3501V24.6653C18.3501 23.316 19.4434 22.22 20.7954 22.22H30.5714C31.9208 22.22 33.0168 23.3133 33.0168 24.6653V31.9986C33.0168 33.348 31.9208 34.444 30.5714 34.444Z" fill="white"/>
<path d="M19.3333 53.1735V34.4535" stroke="white" stroke-width="2" stroke-linecap="round" stroke-linejoin="round"/>
</g>
</svg>
