<svg viewBox="0 0 65 65" fill="none" xmlns="http://www.w3.org/2000/svg">
<path fill-rule="evenodd" clip-rule="evenodd" d="M8.00342 32.0133C8.00579 30.2446 8.41278 28.4998 9.19325 26.9125C13.6095 18.4257 22.4478 13.1686 32.0134 13.3389C41.579 13.1686 50.4174 18.4257 54.8336 26.9125C56.42 30.128 56.42 33.8986 54.8336 37.1141C50.4174 45.601 41.579 50.8581 32.0134 50.6878C22.4478 50.8581 13.6095 45.601 9.19325 37.1141C8.41278 35.5269 8.00579 33.7821 8.00342 32.0133Z" fill="#9928FE"/>
<path d="M40.0167 32.0133C40.0167 36.4335 36.4335 40.0167 32.0133 40.0167C27.5932 40.0167 24.01 36.4335 24.01 32.0133C24.01 27.5932 27.5932 24.01 32.0133 24.01" stroke="white" stroke-width="4" stroke-linecap="round" stroke-linejoin="round"/>
</svg>
