<svg width="65" height="64" viewBox="0 0 65 64" fill="none" xmlns="http://www.w3.org/2000/svg">
	<path fill-rule="evenodd" clip-rule="evenodd" d="M9.65325 35.9066L12.8399 40.0773L13.5279 45.2693C13.9093 48.1493 16.1733 50.4159 19.0533 50.7999L24.2586 51.4959L28.4266 54.6799C30.7333 56.4426 33.9306 56.4426 36.2373 54.6799L40.4079 51.4933H40.4026L45.5973 50.8053C48.4773 50.4239 50.7439 48.1599 51.1279 45.2799L51.8213 40.0746C51.8213 40.0773 53.4319 37.9679 55.0079 35.9066C56.7706 33.5999 56.7679 30.4026 55.0079 28.0959L51.8266 23.9226L51.1386 18.7306C50.7573 15.8506 48.4933 13.5839 45.6133 13.1999L40.4053 12.5066L36.2373 9.32261C33.9306 7.55994 30.7333 7.55994 28.4266 9.32261L24.2559 12.5066H24.2613L19.0666 13.1973C16.1866 13.5786 13.9199 15.8426 13.5359 18.7226L12.8399 23.9279C12.8399 23.9253 11.2293 26.0346 9.65325 28.0959C7.89325 30.3999 7.89325 33.5999 9.65325 35.9066Z" fill="#9928FE" />
	<path d="M39.808 28.272L30.472 37.608L24.864 32.0053" stroke="white" stroke-width="4" stroke-linecap="round" stroke-linejoin="round" />
</svg>
