<svg width="65" height="64" viewBox="0 0 65 64" fill="none" xmlns="http://www.w3.org/2000/svg">
	<path fill-rule="evenodd" clip-rule="evenodd" d="M56.3333 45.3334V28.5851C56.3332 25.3447 54.8603 22.2801 52.33 20.2559L40.6625 10.9218C35.7929 7.02607 28.8735 7.02607 24.0039 10.9218L12.3365 20.2559C9.8062 22.2801 8.33325 25.3448 8.33325 28.5851V45.3334C8.33325 51.2244 13.1089 56 18.9999 56H45.6666C51.5576 56 56.3333 51.2244 56.3333 45.3334Z" fill="#9928FE" />
	<path d="M32.3333 24V26.1543" stroke="white" stroke-width="4" stroke-linecap="round" stroke-linejoin="round" />
	<path d="M27 30.463C27.3116 27.8161 29.6801 25.9027 32.3333 26.1544" stroke="white" stroke-width="4" stroke-linecap="round" stroke-linejoin="round" />
	<path d="M32.3333 45.3333V43.179" stroke="white" stroke-width="4" stroke-linecap="round" stroke-linejoin="round" />
	<path d="M37.6666 38.8704C37.355 41.5173 34.9865 43.4307 32.3333 43.179" stroke="white" stroke-width="4" stroke-linecap="round" stroke-linejoin="round" />
	<path d="M37.5308 29.5229C36.7283 27.3786 34.6183 26.0111 32.3333 26.1543" stroke="white" stroke-width="4" stroke-linecap="round" stroke-linejoin="round" />
	<path d="M27.136 39.8105C27.9384 41.9548 30.0485 43.3224 32.3335 43.1791" stroke="white" stroke-width="4" stroke-linecap="round" stroke-linejoin="round" />
	<path d="M27 30.4629V30.4629C27 32.287 28.2875 33.8575 30.0762 34.2152L34.5905 35.1181C36.3792 35.4758 37.6667 37.0464 37.6667 38.8705V38.8705" stroke="white" stroke-width="4" stroke-linecap="round" stroke-linejoin="round" />
</svg>
