<svg width="405" height="444" viewBox="0 0 405 444" fill="none" xmlns="http://www.w3.org/2000/svg">
<path d="M239.878 433.216C216.498 446.716 187.694 446.716 164.314 433.216L37.782 360.164C14.4038 346.664 0 321.719 0 294.723V148.618C0 121.621 14.4038 96.6764 37.782 83.1771L164.314 10.1245C187.694 -3.37482 216.498 -3.37482 239.878 10.1245L366.41 83.1771C389.788 96.6764 404.192 121.621 404.192 148.618V294.723C404.192 321.719 389.788 346.664 366.41 360.164L239.878 433.216Z" fill="black" fill-opacity="0.55"/>
<path fill-rule="evenodd" clip-rule="evenodd" d="M164.814 432.35C187.885 445.671 216.307 445.671 239.378 432.35L239.878 433.216C216.498 446.716 187.694 446.716 164.314 433.216L164.814 432.35ZM38.282 84.0431C15.2132 97.3638 1 121.979 1 148.618V294.723C1 321.362 15.2132 345.977 38.282 359.298L164.814 432.35L164.314 433.216L37.782 360.164C14.4038 346.664 0 321.719 0 294.723V148.618C0 121.621 14.4038 96.6764 37.782 83.1771L164.314 10.1245C187.694 -3.37482 216.498 -3.37482 239.878 10.1245L366.41 83.1771C389.788 96.6764 404.192 121.621 404.192 148.618V294.723C404.192 321.719 389.788 346.664 366.41 360.164L239.878 433.216L239.378 432.35L365.91 359.298C388.979 345.977 403.192 321.362 403.192 294.723V148.618C403.192 121.979 388.979 97.3638 365.91 84.0431L239.378 10.9905L239.795 10.2677L239.378 10.9905C216.307 -2.33016 187.885 -2.33016 164.814 10.9905L164.318 10.1308L164.814 10.9905L38.2821 84.0431C38.2821 84.0431 38.282 84.0431 38.282 84.0431Z" fill="url(#paint0_linear_1043_14589)"/>
<path d="M170.008 167.594C140.303 184.745 130.12 222.731 147.273 252.442C164.427 282.152 202.41 292.33 232.121 275.176C261.831 258.023 272.009 220.04 254.855 190.329C237.702 160.618 199.719 150.441 170.008 167.594ZM222.61 258.704C201.999 270.604 175.64 263.546 163.737 242.929C151.834 222.312 158.895 195.959 179.512 184.056C200.129 172.152 226.482 179.213 238.385 199.831C250.289 220.448 243.227 246.801 222.61 258.704Z" fill="#3E3E3E" fill-opacity="0.24"/>
<path d="M147.706 252.192C130.691 222.72 140.792 185.039 170.258 168.027C199.73 151.012 237.407 161.107 254.422 190.579C271.438 220.051 261.342 257.728 231.871 274.743C202.399 291.759 164.722 281.663 147.706 252.192ZM163.304 243.179C175.345 264.035 202.01 271.175 222.86 259.137C243.717 247.096 250.86 220.437 238.818 199.581C226.777 178.724 200.118 171.581 179.262 183.623C158.406 195.664 151.262 222.323 163.304 243.179Z" stroke="url(#paint1_linear_1043_14589)"/>
<path d="M264.035 174.101L294.336 137.932L318.228 153.926L320.059 182.358L274.002 191.291L264.035 174.101Z" stroke="black" stroke-dasharray="2 2"/>
<path d="M264.035 174.101L294.336 137.932L318.228 153.926L320.059 182.358L274.002 191.291L264.035 174.101Z" stroke="url(#paint2_linear_1043_14589)" stroke-dasharray="2 2"/>
<path d="M273.987 179.401L318.366 153.778" stroke="black" stroke-dasharray="2 2"/>
<path d="M273.987 179.401L318.366 153.778" stroke="url(#paint3_linear_1043_14589)" stroke-dasharray="2 2"/>
<path d="M319.996 182.261L291.032 169.602L294.388 137.997" stroke="black" stroke-dasharray="2 2"/>
<path d="M319.996 182.261L291.032 169.602L294.388 137.997" stroke="url(#paint4_linear_1043_14589)" stroke-dasharray="2 2"/>
<path d="M306.261 145.914L291.017 169.6L319.175 168.046" stroke="black" stroke-dasharray="2 2"/>
<path d="M306.261 145.914L291.017 169.6L319.175 168.046" stroke="url(#paint5_linear_1043_14589)" stroke-dasharray="2 2"/>
<path d="M253.258 191.25L262.234 186.068" stroke="black" stroke-dasharray="2 2"/>
<path d="M253.258 191.25L262.234 186.068" stroke="url(#paint6_linear_1043_14589)" stroke-dasharray="2 2"/>
<path d="M137.889 269.001L107.583 305.173L83.6933 289.17L81.8633 260.738L127.923 251.811L137.889 269.001Z" stroke="black" stroke-dasharray="2 2"/>
<path d="M137.889 269.001L107.583 305.173L83.6933 289.17L81.8633 260.738L127.923 251.811L137.889 269.001Z" stroke="url(#paint7_linear_1043_14589)" stroke-dasharray="2 2"/>
<path d="M127.929 263.699L83.5547 289.318" stroke="black" stroke-dasharray="2 2"/>
<path d="M127.929 263.699L83.5547 289.318" stroke="url(#paint8_linear_1043_14589)" stroke-dasharray="2 2"/>
<path d="M81.9258 260.835L110.89 273.494L107.531 305.108" stroke="black" stroke-dasharray="2 2"/>
<path d="M81.9258 260.835L110.89 273.494L107.531 305.108" stroke="url(#paint9_linear_1043_14589)" stroke-dasharray="2 2"/>
<path d="M95.6606 297.181L110.905 273.496L82.7476 275.05" stroke="black" stroke-dasharray="2 2"/>
<path d="M95.6606 297.181L110.905 273.496L82.7476 275.05" stroke="url(#paint10_linear_1043_14589)" stroke-dasharray="2 2"/>
<path d="M148.668 251.852L139.686 257.037" stroke="black" stroke-dasharray="2 2"/>
<path d="M148.668 251.852L139.686 257.037" stroke="url(#paint11_linear_1043_14589)" stroke-dasharray="2 2"/>
<path d="M190.944 143.433L174.048 98.751L199.341 85.917L224.877 98.615L210.611 143.368L190.944 143.433Z" stroke="black" stroke-dasharray="2 2"/>
<path d="M190.944 143.433L174.048 98.751L199.341 85.917L224.877 98.615L210.611 143.368L190.944 143.433Z" stroke="url(#paint12_linear_1043_14589)" stroke-dasharray="2 2"/>
<path d="M200.262 137.235L199.352 85.996" stroke="black" stroke-dasharray="2 2"/>
<path d="M200.262 137.235L199.352 85.996" stroke="url(#paint13_linear_1043_14589)" stroke-dasharray="2 2"/>
<path d="M225.013 98.6589L200.05 117.743L174.092 98.7949" stroke="black" stroke-dasharray="2 2"/>
<path d="M225.013 98.6589L200.05 117.743L174.092 98.7949" stroke="url(#paint14_linear_1043_14589)" stroke-dasharray="2 2"/>
<path d="M186.798 92.445L200.065 117.685L212.17 92.286" stroke="black" stroke-dasharray="2 2"/>
<path d="M186.798 92.445L200.065 117.685L212.17 92.286" stroke="url(#paint15_linear_1043_14589)" stroke-dasharray="2 2"/>
<path d="M200.267 161.115L200.082 150.745" stroke="black" stroke-dasharray="2 2"/>
<path d="M200.267 161.115L200.082 150.745" stroke="url(#paint16_linear_1043_14589)" stroke-dasharray="2 2"/>
<path d="M210.972 299.667L227.869 344.349L202.581 357.18L177.045 344.482L191.306 299.732L210.972 299.667Z" stroke="black" stroke-dasharray="2 2"/>
<path d="M210.972 299.667L227.869 344.349L202.581 357.18L177.045 344.482L191.306 299.732L210.972 299.667Z" stroke="url(#paint17_linear_1043_14589)" stroke-dasharray="2 2"/>
<path d="M201.664 305.867L202.571 357.1" stroke="black" stroke-dasharray="2 2"/>
<path d="M201.664 305.867L202.571 357.1" stroke="url(#paint18_linear_1043_14589)" stroke-dasharray="2 2"/>
<path d="M176.91 344.437L201.871 325.362L227.826 344.304" stroke="black" stroke-dasharray="2 2"/>
<path d="M176.91 344.437L201.871 325.362L227.826 344.304" stroke="url(#paint19_linear_1043_14589)" stroke-dasharray="2 2"/>
<path d="M215.123 350.661L201.856 325.421L189.756 350.816" stroke="black" stroke-dasharray="2 2"/>
<path d="M215.123 350.661L201.856 325.421L189.756 350.816" stroke="url(#paint20_linear_1043_14589)" stroke-dasharray="2 2"/>
<path d="M201.66 281.987L201.842 292.351" stroke="black" stroke-dasharray="2 2"/>
<path d="M201.66 281.987L201.842 292.351" stroke="url(#paint21_linear_1043_14589)" stroke-dasharray="2 2"/>
<path d="M127.998 192.37L81.1328 184.65L82.0838 156.069L105.319 140.125L137.346 175.131L127.998 192.37Z" stroke="black" stroke-dasharray="2 2"/>
<path d="M127.998 192.37L81.1328 184.65L82.0838 156.069L105.319 140.125L137.346 175.131L127.998 192.37Z" stroke="url(#paint22_linear_1043_14589)" stroke-dasharray="2 2"/>
<path d="M127.067 181.104L82.1543 156.101" stroke="black" stroke-dasharray="2 2"/>
<path d="M127.067 181.104L82.1543 156.101" stroke="url(#paint23_linear_1043_14589)" stroke-dasharray="2 2"/>
<path d="M105.378 140.181L110.003 171.62L81.1533 184.787" stroke="black" stroke-dasharray="2 2"/>
<path d="M105.378 140.181L110.003 171.62L81.1533 184.787" stroke="url(#paint24_linear_1043_14589)" stroke-dasharray="2 2"/>
<path d="M81.7007 170.505L109.956 171.612L93.6957 148.238" stroke="black" stroke-dasharray="2 2"/>
<path d="M81.7007 170.505L109.956 171.612L93.6957 148.238" stroke="url(#paint25_linear_1043_14589)" stroke-dasharray="2 2"/>
<path d="M147.941 192.565L138.854 187.504" stroke="black" stroke-dasharray="2 2"/>
<path d="M147.941 192.565L138.854 187.504" stroke="url(#paint26_linear_1043_14589)" stroke-dasharray="2 2"/>
<path d="M273.918 250.729L320.789 258.445L319.836 287.035L296.601 302.98L264.57 267.968L273.918 250.729Z" stroke="black" stroke-dasharray="2 2"/>
<path d="M273.918 250.729L320.789 258.445L319.836 287.035L296.601 302.98L264.57 267.968L273.918 250.729Z" stroke="url(#paint27_linear_1043_14589)" stroke-dasharray="2 2"/>
<path d="M274.857 261.997L319.764 287.003" stroke="black" stroke-dasharray="2 2"/>
<path d="M274.857 261.997L319.764 287.003" stroke="url(#paint28_linear_1043_14589)" stroke-dasharray="2 2"/>
<path d="M296.541 302.924L291.922 271.482L320.769 258.31" stroke="black" stroke-dasharray="2 2"/>
<path d="M296.541 302.924L291.922 271.482L320.769 258.31" stroke="url(#paint29_linear_1043_14589)" stroke-dasharray="2 2"/>
<path d="M320.221 272.591L291.97 271.49L308.225 294.867" stroke="black" stroke-dasharray="2 2"/>
<path d="M320.221 272.591L291.97 271.49L308.225 294.867" stroke="url(#paint30_linear_1043_14589)" stroke-dasharray="2 2"/>
<path d="M253.978 250.539L263.062 255.595" stroke="black" stroke-dasharray="2 2"/>
<path d="M253.978 250.539L263.062 255.595" stroke="url(#paint31_linear_1043_14589)" stroke-dasharray="2 2"/>
<path d="M292.296 157.436L279.678 164.721C278.222 165.562 277.723 167.424 278.563 168.88L285.384 180.694C286.225 182.15 288.087 182.649 289.543 181.808L302.161 174.523C303.617 173.682 304.116 171.82 303.275 170.364L296.455 158.55C295.614 157.094 293.752 156.595 292.296 157.436Z" fill="#9928FE"/>
<path d="M321.675 185.04C323.283 184.112 323.834 182.057 322.906 180.45C321.978 178.843 319.922 178.292 318.315 179.22C316.708 180.148 316.158 182.203 317.086 183.81C318.014 185.418 320.068 185.968 321.675 185.04Z" fill="#9928FE"/>
<path d="M320.854 170.82C322.461 169.892 323.012 167.837 322.084 166.23C321.156 164.623 319.101 164.072 317.493 165C315.886 165.928 315.335 167.983 316.263 169.59C317.191 171.198 319.246 171.748 320.854 170.82Z" fill="#9928FE"/>
<path d="M320.047 156.689C321.654 155.761 322.205 153.706 321.277 152.099C320.349 150.492 318.294 149.941 316.687 150.869C315.079 151.797 314.529 153.852 315.457 155.459C316.385 157.066 318.44 157.617 320.047 156.689Z" fill="#9928FE"/>
<path d="M308.074 148.825C309.681 147.898 310.232 145.842 309.304 144.235C308.376 142.628 306.321 142.077 304.714 143.005C303.106 143.933 302.556 145.988 303.484 147.595C304.412 149.203 306.467 149.753 308.074 148.825Z" fill="#9928FE"/>
<path d="M296.234 140.908C297.841 139.98 298.392 137.924 297.464 136.317C296.536 134.71 294.481 134.159 292.873 135.087C291.266 136.015 290.715 138.07 291.643 139.678C292.571 141.285 294.626 141.836 296.234 140.908Z" fill="#9928FE"/>
<path d="M272.758 176.126L261.118 182.847C259.443 183.814 258.869 185.956 259.836 187.631C260.803 189.306 262.945 189.88 264.62 188.913L276.261 182.192C277.936 181.225 278.51 179.083 277.543 177.408C276.576 175.733 274.434 175.159 272.758 176.126Z" fill="#9928FE"/>
<path d="M267.827 167.585L256.187 174.306C254.512 175.273 253.938 177.415 254.905 179.09C255.872 180.765 258.014 181.339 259.689 180.372L271.33 173.651C273.005 172.684 273.579 170.542 272.612 168.867C271.645 167.192 269.503 166.618 267.827 167.585Z" fill="#9928FE"/>
<path d="M277.693 184.672L266.052 191.393C264.377 192.36 263.803 194.502 264.77 196.177C265.737 197.852 267.879 198.426 269.554 197.459L281.195 190.738C282.87 189.771 283.444 187.629 282.477 185.954C281.51 184.279 279.368 183.705 277.693 184.672Z" fill="#9928FE"/>
<path d="M109.62 285.664L122.239 278.379C123.695 277.538 124.193 275.676 123.352 274.22L116.532 262.406C115.692 260.95 113.83 260.451 112.374 261.292L99.7545 268.577C98.2985 269.418 97.7995 271.28 98.6405 272.736L105.461 284.55C106.301 286.006 108.164 286.505 109.62 285.664Z" fill="#9928FE"/>
<path d="M83.6054 263.877C85.2124 262.949 85.7634 260.894 84.8354 259.286C83.9074 257.679 81.8524 257.128 80.2454 258.056C78.6374 258.984 78.0874 261.04 79.0154 262.647C79.9434 264.254 81.9984 264.805 83.6054 263.877Z" fill="#9928FE"/>
<path d="M84.4275 278.097C86.0345 277.169 86.5855 275.114 85.6575 273.506C84.7295 271.899 82.6745 271.348 81.0665 272.276C79.4595 273.204 78.9085 275.259 79.8365 276.867C80.7645 278.474 82.8195 279.025 84.4275 278.097Z" fill="#9928FE"/>
<path d="M85.2346 292.228C86.8426 291.3 87.3926 289.245 86.4646 287.637C85.5376 286.03 83.4816 285.48 81.8746 286.407C80.2676 287.335 79.7166 289.391 80.6446 290.998C81.5726 292.605 83.6276 293.156 85.2346 292.228Z" fill="#9928FE"/>
<path d="M97.2077 300.092C98.8157 299.164 99.3657 297.108 98.4377 295.501C97.5097 293.894 95.4547 293.343 93.8477 294.271C92.2407 295.199 91.6897 297.254 92.6177 298.862C93.5457 300.469 95.6007 301.019 97.2077 300.092Z" fill="#9928FE"/>
<path d="M109.046 308.018C110.654 307.09 111.204 305.035 110.276 303.428C109.348 301.821 107.293 301.27 105.686 302.198C104.079 303.126 103.528 305.181 104.456 306.788C105.384 308.396 107.439 308.946 109.046 308.018Z" fill="#9928FE"/>
<path d="M129.162 266.971L140.802 260.25C142.477 259.283 143.051 257.141 142.084 255.466C141.117 253.791 138.975 253.217 137.3 254.184L125.659 260.905C123.984 261.872 123.41 264.014 124.377 265.689C125.344 267.364 127.486 267.938 129.162 266.971Z" fill="#9928FE"/>
<path d="M134.094 275.511L145.734 268.791C147.409 267.824 147.983 265.682 147.016 264.006C146.049 262.331 143.907 261.757 142.232 262.725L130.591 269.445C128.916 270.412 128.342 272.554 129.309 274.23C130.276 275.905 132.418 276.479 134.094 275.511Z" fill="#9928FE"/>
<path d="M124.232 258.43L135.872 251.709C137.548 250.742 138.121 248.6 137.154 246.925C136.187 245.25 134.045 244.676 132.37 245.643L120.729 252.364C119.054 253.331 118.48 255.473 119.447 257.148C120.414 258.823 122.556 259.397 124.232 258.43Z" fill="#9928FE"/>
<path d="M189.92 110.501L190.075 125.071C190.093 126.752 191.47 128.101 193.152 128.083L206.792 127.938C208.474 127.92 209.822 126.542 209.804 124.861L209.649 110.291C209.631 108.61 208.254 107.262 206.573 107.28L192.932 107.425C191.25 107.443 189.902 108.82 189.92 110.501Z" fill="#9928FE"/>
<path d="M226.717 101.397C228.325 100.469 228.875 98.4139 227.947 96.8059C227.02 95.1989 224.964 94.649 223.357 95.577C221.75 96.504 221.199 98.56 222.127 100.167C223.055 101.774 225.11 102.325 226.717 101.397Z" fill="#9928FE"/>
<path d="M201.215 88.9069C202.822 87.9789 203.373 85.9239 202.445 84.3169C201.517 82.7089 199.462 82.1589 197.854 83.0869C196.247 84.0139 195.696 86.0699 196.624 87.6769C197.552 89.2839 199.608 89.8349 201.215 88.9069Z" fill="#9928FE"/>
<path d="M188.485 95.4819C190.092 94.5539 190.643 92.4989 189.715 90.8919C188.787 89.2849 186.731 88.7339 185.124 89.6619C183.517 90.5899 182.966 92.6449 183.894 94.2519C184.822 95.8589 186.877 96.4099 188.485 95.4819Z" fill="#9928FE"/>
<path d="M175.77 101.906C177.377 100.978 177.928 98.9229 177 97.3159C176.072 95.7079 174.017 95.158 172.41 96.086C170.803 97.014 170.252 99.069 171.18 100.676C172.108 102.283 174.163 102.834 175.77 101.906Z" fill="#9928FE"/>
<path d="M196.613 136.702L196.756 150.142C196.776 152.077 198.361 153.628 200.295 153.607C202.229 153.587 203.781 152.002 203.76 150.068L203.617 136.627C203.596 134.693 202.012 133.142 200.077 133.162C198.143 133.183 196.592 134.767 196.613 136.702Z" fill="#9928FE"/>
<path d="M186.754 136.803L186.897 150.244C186.917 152.178 188.502 153.73 190.436 153.709C192.37 153.688 193.921 152.104 193.901 150.17L193.758 136.729C193.737 134.795 192.153 133.243 190.218 133.264C188.284 133.285 186.733 134.869 186.754 136.803Z" fill="#9928FE"/>
<path d="M206.48 136.591L206.624 150.032C206.644 151.966 208.229 153.517 210.163 153.497C212.097 153.476 213.648 151.892 213.628 149.957L213.485 136.516C213.464 134.582 211.879 133.031 209.945 133.052C208.011 133.072 206.46 134.657 206.48 136.591Z" fill="#9928FE"/>
<path d="M211.997 332.604L211.842 318.035C211.824 316.354 210.446 315.005 208.765 315.023L195.124 315.168C193.443 315.186 192.095 316.564 192.113 318.245L192.268 332.814C192.286 334.496 193.663 335.844 195.344 335.826L208.985 335.681C210.666 335.663 212.015 334.286 211.997 332.604Z" fill="#9928FE"/>
<path d="M178.564 347.52C180.171 346.592 180.722 344.537 179.794 342.93C178.866 341.322 176.811 340.772 175.204 341.7C173.596 342.628 173.046 344.683 173.974 346.29C174.901 347.897 176.957 348.448 178.564 347.52Z" fill="#9928FE"/>
<path d="M191.357 353.786C192.964 352.858 193.515 350.803 192.587 349.195C191.659 347.588 189.604 347.037 187.997 347.965C186.389 348.893 185.839 350.949 186.767 352.556C187.694 354.163 189.75 354.714 191.357 353.786Z" fill="#9928FE"/>
<path d="M204.068 360.01C205.675 359.082 206.226 357.027 205.298 355.42C204.37 353.812 202.314 353.262 200.707 354.19C199.1 355.118 198.549 357.173 199.477 358.78C200.405 360.387 202.46 360.938 204.068 360.01Z" fill="#9928FE"/>
<path d="M216.795 353.444C218.403 352.516 218.953 350.461 218.025 348.853C217.098 347.246 215.042 346.695 213.435 347.623C211.828 348.551 211.277 350.606 212.205 352.214C213.133 353.821 215.188 354.372 216.795 353.444Z" fill="#9928FE"/>
<path d="M229.506 347.014C231.113 346.086 231.664 344.031 230.736 342.424C229.808 340.816 227.752 340.266 226.145 341.194C224.538 342.122 223.987 344.177 224.915 345.784C225.843 347.391 227.898 347.942 229.506 347.014Z" fill="#9928FE"/>
<path d="M205.298 306.406L205.155 292.965C205.135 291.031 203.55 289.479 201.616 289.5C199.682 289.521 198.13 291.105 198.151 293.039L198.294 306.48C198.315 308.414 199.899 309.966 201.833 309.945C203.768 309.924 205.319 308.34 205.298 306.406Z" fill="#9928FE"/>
<path d="M215.163 306.303L215.02 292.862C214.999 290.928 213.415 289.376 211.48 289.397C209.546 289.418 207.995 291.002 208.016 292.936L208.159 306.377C208.179 308.312 209.764 309.863 211.698 309.842C213.632 309.822 215.183 308.237 215.163 306.303Z" fill="#9928FE"/>
<path d="M195.433 306.509L195.29 293.068C195.269 291.134 193.684 289.582 191.75 289.603C189.816 289.623 188.265 291.208 188.285 293.142L188.429 306.583C188.449 308.517 190.034 310.069 191.968 310.048C193.902 310.027 195.453 308.443 195.433 306.509Z" fill="#9928FE"/>
<path d="M98.7844 176.673L111.555 183.688C113.029 184.497 114.88 183.959 115.689 182.485L122.257 170.529C123.066 169.055 122.528 167.204 121.054 166.395L108.284 159.38C106.81 158.57 104.959 159.109 104.15 160.582L97.5824 172.539C96.7724 174.012 97.3114 175.863 98.7844 176.673Z" fill="#9928FE"/>
<path d="M107.235 143.092C108.842 142.164 109.393 140.108 108.465 138.501C107.537 136.894 105.482 136.343 103.875 137.271C102.268 138.199 101.717 140.254 102.645 141.862C103.573 143.469 105.628 144.02 107.235 143.092Z" fill="#9928FE"/>
<path d="M95.5014 151.162C97.1084 150.234 97.6594 148.179 96.7314 146.571C95.8034 144.964 93.7484 144.413 92.1414 145.341C90.5334 146.269 89.9834 148.324 90.9114 149.932C91.8394 151.539 93.8944 152.09 95.5014 151.162Z" fill="#9928FE"/>
<path d="M83.8344 159.179C85.4414 158.251 85.9924 156.195 85.0644 154.588C84.1364 152.981 82.0814 152.43 80.4744 153.358C78.8664 154.286 78.3164 156.341 79.2444 157.949C80.1724 159.556 82.2274 160.107 83.8344 159.179Z" fill="#9928FE"/>
<path d="M83.3157 173.488C84.9227 172.56 85.4727 170.505 84.5447 168.897C83.6177 167.29 81.5617 166.739 79.9547 167.667C78.3477 168.595 77.7967 170.65 78.7247 172.258C79.6527 173.865 81.7077 174.416 83.3157 173.488Z" fill="#9928FE"/>
<path d="M82.6755 187.717C84.2825 186.789 84.8335 184.734 83.9055 183.127C82.9775 181.52 80.9225 180.969 79.3145 181.897C77.7075 182.825 77.1565 184.88 78.0845 186.487C79.0125 188.095 81.0675 188.645 82.6755 187.717Z" fill="#9928FE"/>
<path d="M124.899 183.69L136.68 190.161C138.375 191.093 140.505 190.473 141.436 188.778C142.367 187.082 141.748 184.953 140.052 184.022L128.271 177.551C126.576 176.619 124.446 177.239 123.515 178.934C122.584 180.629 123.203 182.759 124.899 183.69Z" fill="#9928FE"/>
<path d="M120.146 192.335L131.927 198.807C133.623 199.738 135.752 199.119 136.683 197.423C137.614 195.728 136.995 193.599 135.3 192.668L123.518 186.196C121.823 185.265 119.694 185.884 118.762 187.58C117.831 189.275 118.451 191.404 120.146 192.335Z" fill="#9928FE"/>
<path d="M129.647 175.045L141.428 181.516C143.124 182.448 145.253 181.828 146.184 180.133C147.116 178.438 146.496 176.308 144.801 175.377L133.02 168.906C131.324 167.974 129.195 168.594 128.264 170.289C127.333 171.985 127.952 174.114 129.647 175.045Z" fill="#9928FE"/>
<path d="M303.145 266.429L290.375 259.415C288.901 258.605 287.05 259.144 286.241 260.617L279.673 272.574C278.864 274.047 279.402 275.898 280.876 276.708L293.646 283.723C295.12 284.532 296.971 283.994 297.78 282.52L304.348 270.563C305.157 269.09 304.619 267.239 303.145 266.429Z" fill="#9928FE"/>
<path d="M298.044 305.834C299.651 304.906 300.202 302.851 299.274 301.244C298.346 299.637 296.291 299.086 294.683 300.014C293.076 300.942 292.526 302.997 293.453 304.604C294.381 306.212 296.437 306.762 298.044 305.834Z" fill="#9928FE"/>
<path d="M309.777 297.764C311.384 296.836 311.935 294.781 311.007 293.174C310.079 291.567 308.024 291.016 306.417 291.944C304.809 292.872 304.259 294.927 305.187 296.534C306.115 298.141 308.17 298.692 309.777 297.764Z" fill="#9928FE"/>
<path d="M321.444 289.747C323.051 288.819 323.602 286.764 322.674 285.157C321.746 283.55 319.691 282.999 318.084 283.927C316.476 284.855 315.926 286.91 316.854 288.517C317.782 290.125 319.837 290.675 321.444 289.747Z" fill="#9928FE"/>
<path d="M321.967 275.429C323.574 274.501 324.125 272.446 323.197 270.839C322.269 269.232 320.214 268.681 318.607 269.609C316.999 270.537 316.449 272.592 317.377 274.199C318.304 275.807 320.36 276.357 321.967 275.429Z" fill="#9928FE"/>
<path d="M322.607 261.2C324.214 260.272 324.765 258.217 323.837 256.609C322.909 255.002 320.854 254.451 319.246 255.379C317.639 256.307 317.088 258.363 318.016 259.97C318.944 261.577 321 262.128 322.607 261.2Z" fill="#9928FE"/>
<path d="M277.038 259.408L265.257 252.937C263.562 252.006 261.432 252.625 260.501 254.32C259.57 256.016 260.189 258.145 261.885 259.076L273.666 265.548C275.361 266.479 277.49 265.859 278.422 264.164C279.353 262.469 278.734 260.339 277.038 259.408Z" fill="#9928FE"/>
<path d="M270.007 244.288L281.788 250.76C283.484 251.692 284.103 253.82 283.171 255.516C282.24 257.212 280.111 257.831 278.415 256.899L266.634 250.428C264.938 249.496 264.319 247.368 265.251 245.672C266.182 243.976 268.311 243.357 270.007 244.288Z" fill="#9928FE"/>
<path d="M272.283 268.056L260.502 261.584C258.807 260.653 256.678 261.273 255.746 262.968C254.815 264.663 255.435 266.792 257.13 267.724L268.911 274.195C270.606 275.126 272.736 274.507 273.667 272.812C274.598 271.116 273.979 268.987 272.283 268.056Z" fill="#9928FE"/>
<path d="M289.914 164.404L286.502 166.375C285.042 167.217 284.542 169.083 285.385 170.542L287.355 173.955C288.198 175.414 290.064 175.914 291.523 175.072L294.936 173.101C296.395 172.259 296.895 170.393 296.052 168.934L294.082 165.521C293.239 164.062 291.374 163.562 289.914 164.404Z" fill="white"/>
<path d="M245.708 189.927L242.295 191.897C240.836 192.74 240.336 194.606 241.178 196.065L243.148 199.478C243.991 200.937 245.857 201.437 247.316 200.595L250.729 198.624C252.188 197.782 252.688 195.916 251.846 194.457L249.875 191.044C249.033 189.585 247.167 189.085 245.708 189.927Z" fill="white"/>
<path d="M112.002 278.696L115.415 276.726C116.875 275.884 117.375 274.018 116.532 272.558L114.562 269.146C113.719 267.686 111.853 267.186 110.394 268.029L106.981 269.999C105.522 270.842 105.022 272.708 105.865 274.167L107.835 277.58C108.677 279.039 110.543 279.539 112.002 278.696Z" fill="white"/>
<path d="M156.213 253.171L159.626 251.2C161.085 250.358 161.585 248.492 160.743 247.033L158.772 243.62C157.93 242.161 156.064 241.661 154.605 242.503L151.192 244.473C149.733 245.316 149.233 247.182 150.075 248.641L152.046 252.054C152.888 253.513 154.754 254.013 156.213 253.171Z" fill="white"/>
<path d="M194.823 116L194.865 119.941C194.882 121.625 196.263 122.977 197.948 122.959L201.888 122.917C203.573 122.899 204.924 121.518 204.906 119.834L204.865 115.893C204.847 114.208 203.466 112.857 201.781 112.875L197.841 112.917C196.156 112.935 194.805 114.315 194.823 116Z" fill="white"/>
<path d="M195.367 167.041L195.409 170.981C195.427 172.666 196.807 174.017 198.492 173.999L202.433 173.957C204.117 173.94 205.469 172.559 205.451 170.874L205.409 166.934C205.391 165.249 204.01 163.898 202.326 163.915L198.385 163.957C196.7 163.975 195.349 165.356 195.367 167.041Z" fill="white"/>
<path d="M207.093 327.113L207.051 323.172C207.033 321.487 205.652 320.136 203.968 320.154L200.027 320.196C198.342 320.214 196.991 321.594 197.009 323.279L197.051 327.22C197.069 328.905 198.449 330.256 200.134 330.238L204.075 330.196C205.759 330.178 207.111 328.798 207.093 327.113Z" fill="white"/>
<path d="M206.559 276.064L206.517 272.124C206.499 270.439 205.118 269.088 203.433 269.105L199.493 269.147C197.808 269.165 196.457 270.546 196.475 272.231L196.517 276.171C196.535 277.856 197.915 279.207 199.6 279.189L203.54 279.147C205.225 279.13 206.576 277.749 206.559 276.064Z" fill="white"/>
<path d="M105.981 175.095L109.435 176.992C110.912 177.804 112.766 177.264 113.578 175.787L115.475 172.333C116.286 170.856 115.747 169.002 114.27 168.19L110.816 166.293C109.339 165.482 107.484 166.021 106.673 167.498L104.776 170.952C103.964 172.429 104.504 174.284 105.981 175.095Z" fill="white"/>
<path d="M150.719 199.675L154.173 201.572C155.65 202.383 157.505 201.844 158.316 200.367L160.213 196.913C161.025 195.436 160.485 193.581 159.008 192.77L155.554 190.873C154.077 190.062 152.223 190.601 151.411 192.078L149.514 195.532C148.703 197.009 149.243 198.864 150.719 199.675Z" fill="white"/>
<path d="M295.956 268.013L292.502 266.116C291.026 265.304 289.171 265.844 288.36 267.321L286.462 270.775C285.651 272.252 286.191 274.106 287.667 274.918L291.121 276.815C292.598 277.626 294.453 277.087 295.264 275.61L297.162 272.156C297.973 270.679 297.433 268.824 295.956 268.013Z" fill="white"/>
<path d="M251.215 243.426L247.761 241.529C246.284 240.718 244.429 241.257 243.618 242.734L241.721 246.188C240.91 247.665 241.449 249.52 242.926 250.331L246.38 252.228C247.857 253.04 249.712 252.5 250.523 251.023L252.42 247.569C253.231 246.092 252.692 244.238 251.215 243.426Z" fill="white"/>
<defs>
<linearGradient id="paint0_linear_1043_14589" x1="566.73" y1="475.609" x2="-72.2303" y2="-14.4461" gradientUnits="userSpaceOnUse">
<stop stop-color="#9A74DB"/>
<stop offset="1" stop-color="#9A74DB" stop-opacity="0"/>
</linearGradient>
<linearGradient id="paint1_linear_1043_14589" x1="-23.9594" y1="360.813" x2="291.85" y2="364.342" gradientUnits="userSpaceOnUse">
<stop stop-color="#9A74DB"/>
<stop offset="1" stop-color="#9A74DB" stop-opacity="0"/>
</linearGradient>
<linearGradient id="paint2_linear_1043_14589" x1="650.488" y1="-11.692" x2="626.708" y2="-53.079" gradientUnits="userSpaceOnUse">
<stop offset="0.0001" stop-color="#8B69CA"/>
<stop offset="0.416667" stop-color="#9A74DB"/>
<stop offset="0.84375" stop-color="#9872D8"/>
</linearGradient>
<linearGradient id="paint3_linear_1043_14589" x1="607.296" y1="-11.961" x2="606.831" y2="-12.766" gradientUnits="userSpaceOnUse">
<stop offset="0.0001" stop-color="#8B69CA"/>
<stop offset="0.416667" stop-color="#9A74DB"/>
<stop offset="0.84375" stop-color="#9872D8"/>
</linearGradient>
<linearGradient id="paint4_linear_1043_14589" x1="423.857" y1="118.38" x2="400.16" y2="77.1569" gradientUnits="userSpaceOnUse">
<stop offset="0.0001" stop-color="#8B69CA"/>
<stop offset="0.416667" stop-color="#9A74DB"/>
<stop offset="0.84375" stop-color="#9872D8"/>
</linearGradient>
<linearGradient id="paint5_linear_1043_14589" x1="459.946" y1="85.0729" x2="448.077" y2="64.4149" gradientUnits="userSpaceOnUse">
<stop offset="0.0001" stop-color="#8B69CA"/>
<stop offset="0.416667" stop-color="#9A74DB"/>
<stop offset="0.84375" stop-color="#9872D8"/>
</linearGradient>
<linearGradient id="paint6_linear_1043_14589" x1="321.045" y1="153.186" x2="320.58" y2="152.382" gradientUnits="userSpaceOnUse">
<stop offset="0.0001" stop-color="#8B69CA"/>
<stop offset="0.416667" stop-color="#9A74DB"/>
<stop offset="0.84375" stop-color="#9872D8"/>
</linearGradient>
<linearGradient id="paint7_linear_1043_14589" x1="465.483" y1="95.336" x2="441.7" y2="53.943" gradientUnits="userSpaceOnUse">
<stop offset="0.0001" stop-color="#8B69CA"/>
<stop offset="0.416667" stop-color="#9A74DB"/>
<stop offset="0.84375" stop-color="#9872D8"/>
</linearGradient>
<linearGradient id="paint8_linear_1043_14589" x1="416.821" y1="97.9799" x2="416.356" y2="97.1749" gradientUnits="userSpaceOnUse">
<stop offset="0.0001" stop-color="#8B69CA"/>
<stop offset="0.416667" stop-color="#9A74DB"/>
<stop offset="0.84375" stop-color="#9872D8"/>
</linearGradient>
<linearGradient id="paint9_linear_1043_14589" x1="227.658" y1="231.872" x2="203.958" y2="190.643" gradientUnits="userSpaceOnUse">
<stop offset="0.0001" stop-color="#8B69CA"/>
<stop offset="0.416667" stop-color="#9A74DB"/>
<stop offset="0.84375" stop-color="#9872D8"/>
</linearGradient>
<linearGradient id="paint10_linear_1043_14589" x1="258.167" y1="201.718" x2="246.298" y2="181.06" gradientUnits="userSpaceOnUse">
<stop offset="0.0001" stop-color="#8B69CA"/>
<stop offset="0.416667" stop-color="#9A74DB"/>
<stop offset="0.84375" stop-color="#9872D8"/>
</linearGradient>
<linearGradient id="paint11_linear_1043_14589" x1="207.515" y1="218.949" x2="207.05" y2="218.144" gradientUnits="userSpaceOnUse">
<stop offset="0.0001" stop-color="#8B69CA"/>
<stop offset="0.416667" stop-color="#9A74DB"/>
<stop offset="0.84375" stop-color="#9872D8"/>
</linearGradient>
<linearGradient id="paint12_linear_1043_14589" x1="530.907" y1="-45.304" x2="504.55" y2="-91.18" gradientUnits="userSpaceOnUse">
<stop offset="0.0001" stop-color="#8B69CA"/>
<stop offset="0.416667" stop-color="#9A74DB"/>
<stop offset="0.84375" stop-color="#9872D8"/>
</linearGradient>
<linearGradient id="paint13_linear_1043_14589" x1="360.649" y1="41.404" x2="339.86" y2="5.22388" gradientUnits="userSpaceOnUse">
<stop offset="0.0001" stop-color="#8B69CA"/>
<stop offset="0.416667" stop-color="#9A74DB"/>
<stop offset="0.84375" stop-color="#9872D8"/>
</linearGradient>
<linearGradient id="paint14_linear_1043_14589" x1="474.69" y1="-42.492" x2="461.086" y2="-66.1639" gradientUnits="userSpaceOnUse">
<stop offset="0.0001" stop-color="#8B69CA"/>
<stop offset="0.416667" stop-color="#9A74DB"/>
<stop offset="0.84375" stop-color="#9872D8"/>
</linearGradient>
<linearGradient id="paint15_linear_1043_14589" x1="350.009" y1="29.207" x2="336.811" y2="6.23396" gradientUnits="userSpaceOnUse">
<stop offset="0.0001" stop-color="#8B69CA"/>
<stop offset="0.416667" stop-color="#9A74DB"/>
<stop offset="0.84375" stop-color="#9872D8"/>
</linearGradient>
<linearGradient id="paint16_linear_1043_14589" x1="232.722" y1="141.722" x2="228.514" y2="134.4" gradientUnits="userSpaceOnUse">
<stop offset="0.0001" stop-color="#8B69CA"/>
<stop offset="0.416667" stop-color="#9A74DB"/>
<stop offset="0.84375" stop-color="#9872D8"/>
</linearGradient>
<linearGradient id="paint17_linear_1043_14589" x1="524.723" y1="169.148" x2="498.366" y2="123.272" gradientUnits="userSpaceOnUse">
<stop offset="0.0001" stop-color="#8B69CA"/>
<stop offset="0.416667" stop-color="#9A74DB"/>
<stop offset="0.84375" stop-color="#9872D8"/>
</linearGradient>
<linearGradient id="paint18_linear_1043_14589" x1="362.96" y1="261.269" x2="342.174" y2="225.094" gradientUnits="userSpaceOnUse">
<stop offset="0.0001" stop-color="#8B69CA"/>
<stop offset="0.416667" stop-color="#9A74DB"/>
<stop offset="0.84375" stop-color="#9872D8"/>
</linearGradient>
<linearGradient id="paint19_linear_1043_14589" x1="475.408" y1="199.622" x2="461.807" y2="175.955" gradientUnits="userSpaceOnUse">
<stop offset="0.0001" stop-color="#8B69CA"/>
<stop offset="0.416667" stop-color="#9A74DB"/>
<stop offset="0.84375" stop-color="#9872D8"/>
</linearGradient>
<linearGradient id="paint20_linear_1043_14589" x1="345.931" y1="273.18" x2="332.733" y2="250.207" gradientUnits="userSpaceOnUse">
<stop offset="0.0001" stop-color="#8B69CA"/>
<stop offset="0.416667" stop-color="#9A74DB"/>
<stop offset="0.84375" stop-color="#9872D8"/>
</linearGradient>
<linearGradient id="paint21_linear_1043_14589" x1="234.299" y1="272.959" x2="230.094" y2="265.642" gradientUnits="userSpaceOnUse">
<stop offset="0.0001" stop-color="#8B69CA"/>
<stop offset="0.416667" stop-color="#9A74DB"/>
<stop offset="0.84375" stop-color="#9872D8"/>
</linearGradient>
<linearGradient id="paint22_linear_1043_14589" x1="441.492" y1="7.63193" x2="415.276" y2="-37.9991" gradientUnits="userSpaceOnUse">
<stop offset="0.0001" stop-color="#8B69CA"/>
<stop offset="0.416667" stop-color="#9A74DB"/>
<stop offset="0.84375" stop-color="#9872D8"/>
</linearGradient>
<linearGradient id="paint23_linear_1043_14589" x1="273.816" y1="93.184" x2="253.406" y2="57.663" gradientUnits="userSpaceOnUse">
<stop offset="0.0001" stop-color="#8B69CA"/>
<stop offset="0.416667" stop-color="#9A74DB"/>
<stop offset="0.84375" stop-color="#9872D8"/>
</linearGradient>
<linearGradient id="paint24_linear_1043_14589" x1="363.349" y1="23.6109" x2="349.653" y2="-0.222143" gradientUnits="userSpaceOnUse">
<stop offset="0.0001" stop-color="#8B69CA"/>
<stop offset="0.416667" stop-color="#9A74DB"/>
<stop offset="0.84375" stop-color="#9872D8"/>
</linearGradient>
<linearGradient id="paint25_linear_1043_14589" x1="243.582" y1="92.522" x2="230.442" y2="69.651" gradientUnits="userSpaceOnUse">
<stop offset="0.0001" stop-color="#8B69CA"/>
<stop offset="0.416667" stop-color="#9A74DB"/>
<stop offset="0.84375" stop-color="#9872D8"/>
</linearGradient>
<linearGradient id="paint26_linear_1043_14589" x1="177.627" y1="174.78" x2="173.496" y2="167.591" gradientUnits="userSpaceOnUse">
<stop offset="0.0001" stop-color="#8B69CA"/>
<stop offset="0.416667" stop-color="#9A74DB"/>
<stop offset="0.84375" stop-color="#9872D8"/>
</linearGradient>
<linearGradient id="paint27_linear_1043_14589" x1="633.134" y1="105.002" x2="606.914" y2="59.366" gradientUnits="userSpaceOnUse">
<stop offset="0.0001" stop-color="#8B69CA"/>
<stop offset="0.416667" stop-color="#9A74DB"/>
<stop offset="0.84375" stop-color="#9872D8"/>
</linearGradient>
<linearGradient id="paint28_linear_1043_14589" x1="466.477" y1="199.104" x2="446.068" y2="163.584" gradientUnits="userSpaceOnUse">
<stop offset="0.0001" stop-color="#8B69CA"/>
<stop offset="0.416667" stop-color="#9A74DB"/>
<stop offset="0.84375" stop-color="#9872D8"/>
</linearGradient>
<linearGradient id="paint29_linear_1043_14589" x1="577.295" y1="139.163" x2="563.599" y2="115.33" gradientUnits="userSpaceOnUse">
<stop offset="0.0001" stop-color="#8B69CA"/>
<stop offset="0.416667" stop-color="#9A74DB"/>
<stop offset="0.84375" stop-color="#9872D8"/>
</linearGradient>
<linearGradient id="paint30_linear_1043_14589" x1="460.537" y1="205.04" x2="447.397" y2="182.168" gradientUnits="userSpaceOnUse">
<stop offset="0.0001" stop-color="#8B69CA"/>
<stop offset="0.416667" stop-color="#9A74DB"/>
<stop offset="0.84375" stop-color="#9872D8"/>
</linearGradient>
<linearGradient id="paint31_linear_1043_14589" x1="292.746" y1="237.81" x2="288.619" y2="230.627" gradientUnits="userSpaceOnUse">
<stop offset="0.0001" stop-color="#8B69CA"/>
<stop offset="0.416667" stop-color="#9A74DB"/>
<stop offset="0.84375" stop-color="#9872D8"/>
</linearGradient>
</defs>
</svg>
