<svg width="405" height="444" viewBox="0 0 405 444" fill="none" xmlns="http://www.w3.org/2000/svg">
<path d="M239.878 433.216C216.498 446.716 187.694 446.716 164.314 433.216L37.782 360.164C14.4038 346.664 0 321.719 0 294.723V148.618C0 121.621 14.4038 96.6764 37.782 83.1771L164.314 10.1245C187.694 -3.37482 216.498 -3.37482 239.878 10.1245L366.41 83.1771C389.788 96.6764 404.192 121.621 404.192 148.618V294.723C404.192 321.719 389.788 346.664 366.41 360.164L239.878 433.216Z" fill="black" fill-opacity="0.55"/>
<path d="M232.939 210.659C232.294 210.63 231.653 210.594 231.008 210.576C230.921 210.576 230.809 210.626 230.747 210.692C230.577 210.873 230.428 211.075 230.265 211.264C230.182 211.358 230.171 211.445 230.2 211.568C230.501 212.756 230.798 213.948 231.091 215.139C231.33 216.092 230.599 216.823 229.646 216.584C228.451 216.287 227.252 215.983 226.056 215.693C225.973 215.672 225.85 215.708 225.777 215.758C225.578 215.9 225.404 216.07 225.209 216.215C225.104 216.294 225.067 216.381 225.075 216.512C225.136 217.74 225.194 218.967 225.248 220.195C225.292 221.177 224.437 221.742 223.542 221.322C222.438 220.8 221.333 220.282 220.232 219.753C220.112 219.695 220.022 219.695 219.906 219.761C219.692 219.887 219.471 220.003 219.246 220.116C219.145 220.166 219.094 220.231 219.076 220.351C218.899 221.586 218.714 222.821 218.529 224.052C218.395 224.94 217.428 225.353 216.7 224.82C215.704 224.092 214.711 223.353 213.722 222.615C213.606 222.528 213.505 222.481 213.367 222.553C213.306 222.586 213.23 222.607 213.161 222.615C212.632 222.662 212.407 222.984 212.255 223.469C211.94 224.469 211.56 225.45 211.205 226.436C210.872 227.359 209.854 227.555 209.194 226.827C208.376 225.921 207.55 225.016 206.735 224.107C206.641 224.002 206.55 223.969 206.409 223.991C206.181 224.027 205.953 224.045 205.724 224.056C205.583 224.063 205.503 224.118 205.431 224.241C204.822 225.269 204.17 226.273 203.598 227.323C203.105 228.221 201.946 228.228 201.45 227.327C200.874 226.28 200.226 225.273 199.617 224.244C199.541 224.118 199.458 224.056 199.309 224.052C199.081 224.045 198.849 224.016 198.625 223.987C198.494 223.969 198.407 224.002 198.317 224.103C197.498 225.012 196.676 225.914 195.854 226.82C195.183 227.558 194.173 227.363 193.836 226.425C193.423 225.277 193.01 224.129 192.601 222.977C192.557 222.85 192.492 222.785 192.365 222.752C192.137 222.694 191.909 222.629 191.688 222.549C191.547 222.499 191.449 222.52 191.329 222.607C190.333 223.35 189.341 224.096 188.337 224.824C187.624 225.342 186.671 224.943 186.519 224.078C186.486 223.882 186.461 223.687 186.432 223.495C186.273 222.43 186.117 221.365 185.954 220.3C185.947 220.242 185.892 220.17 185.838 220.141C185.588 219.996 185.334 219.858 185.074 219.732C185.012 219.703 184.911 219.714 184.842 219.746C183.722 220.268 182.61 220.796 181.495 221.322C180.611 221.734 179.76 221.169 179.799 220.199C179.807 220.007 179.814 219.819 179.821 219.627C179.872 218.576 179.926 217.526 179.97 216.476C179.97 216.396 179.919 216.291 179.857 216.233C179.669 216.059 179.47 215.896 179.263 215.744C179.195 215.693 179.082 215.664 179.003 215.686C177.796 215.979 176.594 216.28 175.391 216.581C174.453 216.816 173.721 216.081 173.953 215.139C174.25 213.944 174.547 212.745 174.851 211.55C174.884 211.423 174.859 211.34 174.779 211.249C174.62 211.065 174.46 210.88 174.315 210.684C174.239 210.583 174.156 210.554 174.033 210.558C172.805 210.619 171.577 210.655 170.349 210.739C169.422 210.804 168.78 209.898 169.208 209.029C169.748 207.928 170.258 206.813 170.787 205.704C170.842 205.588 170.842 205.505 170.776 205.396C170.642 205.172 170.534 204.929 170.4 204.705C170.363 204.643 170.28 204.581 170.211 204.571C168.972 204.379 167.73 204.194 166.491 204.013C165.596 203.882 165.184 202.908 165.723 202.169C166.451 201.173 167.19 200.181 167.929 199.192C168.009 199.084 168.042 198.989 167.991 198.852C167.904 198.627 167.839 198.392 167.781 198.156C167.748 198.026 167.676 197.964 167.552 197.921C166.397 197.512 165.241 197.095 164.086 196.682C163.188 196.364 162.981 195.335 163.687 194.698C164.593 193.879 165.495 193.053 166.408 192.238C166.531 192.13 166.567 192.025 166.538 191.862C166.502 191.655 166.488 191.445 166.48 191.235C166.477 191.083 166.422 190.989 166.285 190.905C165.238 190.286 164.198 189.66 163.159 189.033C162.304 188.519 162.3 187.49 163.159 186.976C164.205 186.346 165.252 185.715 166.303 185.092C166.426 185.02 166.477 184.933 166.484 184.795C166.495 184.56 166.52 184.325 166.553 184.089C166.571 183.966 166.538 183.883 166.444 183.799C165.531 182.977 164.622 182.148 163.713 181.326C162.985 180.67 163.188 179.649 164.111 179.319C165.26 178.91 166.408 178.493 167.56 178.088C167.694 178.041 167.759 177.968 167.792 177.834C167.846 177.606 167.911 177.378 167.994 177.157C168.045 177.019 168.02 176.929 167.936 176.817C167.198 175.828 166.459 174.835 165.73 173.839C165.198 173.115 165.582 172.155 166.459 172.003C166.835 171.938 167.212 171.891 167.589 171.836C168.473 171.706 169.356 171.576 170.237 171.438C170.295 171.427 170.367 171.377 170.396 171.326C170.545 171.069 170.686 170.812 170.813 170.543C170.842 170.482 170.82 170.381 170.787 170.312C170.258 169.182 169.722 168.055 169.197 166.925C168.882 166.244 169.219 165.498 169.925 165.314C170.056 165.281 170.2 165.274 170.334 165.281C171.562 165.335 172.79 165.393 174.018 165.455C174.156 165.462 174.25 165.429 174.333 165.314C174.478 165.118 174.649 164.944 174.79 164.745C174.841 164.673 174.87 164.553 174.848 164.466C174.558 163.267 174.257 162.072 173.957 160.873C173.721 159.935 174.457 159.2 175.395 159.432C176.597 159.732 177.8 160.033 179.006 160.326C179.086 160.344 179.195 160.312 179.267 160.268C179.383 160.196 179.47 160.076 179.589 160.011C179.93 159.819 180.002 159.544 179.973 159.164C179.894 158.048 179.854 156.933 179.803 155.817C179.76 154.846 180.618 154.278 181.498 154.694C182.592 155.209 183.683 155.723 184.773 156.244C184.921 156.313 185.037 156.331 185.186 156.234C185.389 156.103 185.617 156.009 185.823 155.886C185.885 155.85 185.947 155.766 185.957 155.698C186.149 154.459 186.334 153.217 186.515 151.978C186.646 151.087 187.609 150.663 188.337 151.192C189.337 151.916 190.326 152.659 191.315 153.398C191.445 153.496 191.554 153.521 191.71 153.463C191.931 153.38 192.159 153.322 192.387 153.26C192.499 153.231 192.557 153.173 192.597 153.061C193.01 151.898 193.427 150.739 193.847 149.577C194.176 148.668 195.194 148.468 195.846 149.186C196.669 150.091 197.491 150.993 198.309 151.906C198.411 152.018 198.505 152.054 198.65 152.029C198.878 151.992 199.106 151.974 199.335 151.963C199.469 151.956 199.545 151.906 199.613 151.79C200.233 150.747 200.863 149.703 201.486 148.664C202.015 147.784 203.033 147.777 203.562 148.653C204.188 149.693 204.815 150.736 205.435 151.779C205.507 151.902 205.59 151.956 205.732 151.96C205.942 151.967 206.155 151.971 206.358 152.018C206.557 152.061 206.67 151.989 206.793 151.851C207.597 150.957 208.405 150.066 209.213 149.175C209.854 148.468 210.875 148.668 211.201 149.566C211.621 150.725 212.038 151.887 212.447 153.05C212.491 153.17 212.552 153.231 212.672 153.26C212.857 153.304 213.045 153.347 213.219 153.423C213.469 153.539 213.646 153.47 213.856 153.311C214.776 152.612 215.711 151.927 216.638 151.239C217.442 150.642 218.395 151.051 218.54 152.047C218.717 153.26 218.902 154.477 219.087 155.69C219.098 155.759 219.156 155.846 219.217 155.882C219.449 156.02 219.696 156.132 219.927 156.27C220.032 156.331 220.112 156.324 220.217 156.273C221.326 155.745 222.438 155.223 223.542 154.698C223.854 154.549 224.169 154.506 224.495 154.622C224.984 154.792 225.27 155.241 225.245 155.792C225.191 157.027 225.133 158.258 225.067 159.493C225.06 159.645 225.104 159.736 225.223 159.823C225.412 159.964 225.582 160.131 225.777 160.265C225.85 160.315 225.973 160.348 226.056 160.326C227.255 160.037 228.451 159.736 229.646 159.435C230.588 159.2 231.323 159.932 231.091 160.866C230.794 162.065 230.497 163.26 230.193 164.455C230.16 164.578 230.175 164.665 230.262 164.756C230.356 164.854 230.461 164.955 230.526 165.075C230.711 165.408 230.979 165.469 231.341 165.444C232.457 165.368 233.573 165.35 234.688 165.266C235.634 165.194 236.26 166.121 235.829 166.987C235.286 168.081 234.782 169.193 234.257 170.294C234.203 170.406 234.192 170.489 234.261 170.601C234.369 170.772 234.475 170.953 234.547 171.141C234.634 171.366 234.79 171.442 235.018 171.471C236.195 171.634 237.369 171.811 238.546 171.989C239.452 172.123 239.864 173.086 239.321 173.825C238.589 174.828 237.847 175.824 237.104 176.817C237.025 176.922 237.006 177.012 237.05 177.139C237.133 177.374 237.198 177.613 237.264 177.856C237.293 177.968 237.351 178.026 237.463 178.066C238.618 178.475 239.774 178.888 240.926 179.308C241.875 179.652 242.06 180.659 241.31 181.34C240.411 182.151 239.52 182.966 238.618 183.774C238.506 183.872 238.47 183.966 238.492 184.115C238.528 184.343 238.546 184.571 238.557 184.799C238.564 184.933 238.615 185.009 238.731 185.078C239.792 185.708 240.85 186.342 241.907 186.979C242.418 187.287 242.628 187.82 242.458 188.345C242.36 188.645 242.157 188.859 241.886 189.018C240.853 189.634 239.825 190.257 238.792 190.866C238.622 190.963 238.55 191.076 238.553 191.271C238.553 191.449 238.546 191.63 238.503 191.8C238.448 192.01 238.528 192.133 238.68 192.271C239.571 193.068 240.455 193.872 241.342 194.676C242.052 195.32 241.857 196.338 240.958 196.664C239.799 197.084 238.637 197.501 237.474 197.91C237.343 197.957 237.285 198.026 237.253 198.149C237.188 198.388 237.101 198.624 237.043 198.866C237.025 198.953 237.043 199.076 237.093 199.145C237.814 200.13 238.546 201.112 239.27 202.093C239.868 202.901 239.47 203.854 238.474 203.998C237.26 204.179 236.043 204.361 234.829 204.545C234.753 204.556 234.663 204.621 234.623 204.687C234.489 204.911 234.377 205.15 234.246 205.378C234.185 205.48 234.185 205.559 234.235 205.668C234.775 206.798 235.311 207.932 235.84 209.069C236.155 209.746 235.804 210.496 235.098 210.673C234.974 210.706 234.837 210.71 234.706 210.702C234.109 210.681 233.511 210.648 232.913 210.623L232.939 210.659ZM217.5 186.882C217.562 186.932 217.653 186.997 217.736 187.074C219.67 188.823 220.949 190.963 221.525 193.499C221.851 194.929 222.72 195.799 224.089 196.172C225.346 196.516 226.509 196.295 227.436 195.31C228.059 194.643 228.327 193.81 228.389 192.923C228.44 192.217 228.425 191.503 228.433 190.797C228.436 190.438 228.559 190.311 228.918 190.311C229.791 190.311 230.667 190.311 231.54 190.311H231.758C231.769 190.264 231.776 190.232 231.78 190.203C231.914 188.283 231.874 186.367 231.645 184.459C231.627 184.299 231.562 184.223 231.428 184.154C229.936 183.397 228.447 182.637 226.955 181.876C225.683 181.228 225.256 179.924 225.904 178.649C226.665 177.15 227.429 175.654 228.197 174.158C228.266 174.024 228.262 173.93 228.19 173.8C227.139 171.923 225.915 170.17 224.477 168.573C220.054 163.655 214.61 160.522 208.115 159.225C207.974 159.196 207.887 159.225 207.789 159.327C206.608 160.515 205.424 161.699 204.236 162.883C203.2 163.916 201.845 163.912 200.812 162.883C199.635 161.71 198.458 160.533 197.288 159.356C197.176 159.24 197.078 159.204 196.911 159.236C195.325 159.544 193.771 159.979 192.257 160.551C187.939 162.173 184.211 164.68 181.06 168.044C181.013 168.095 180.969 168.146 180.897 168.233C181.031 168.233 181.114 168.233 181.198 168.233C191.438 168.233 201.678 168.233 211.918 168.233C213.382 168.233 214.798 168.475 216.146 169.044C219.029 170.261 221.152 172.267 222.343 175.183C223.137 177.124 223.227 179.116 222.554 181.116C221.967 182.858 220.891 184.267 219.489 185.426C218.859 185.947 218.174 186.404 217.5 186.9V186.882ZM226.049 205.61L226.009 205.545C225.933 205.545 225.857 205.545 225.777 205.545C222.083 205.545 218.391 205.545 214.697 205.545C214.479 205.545 214.262 205.545 214.045 205.534C212.962 205.476 212.056 205.049 211.35 204.212C210.712 203.459 210.314 202.579 210.071 201.641C209.705 200.239 209.401 198.819 209.075 197.407C208.803 196.23 208.528 195.056 208.017 193.951C207.644 193.147 207.166 192.427 206.445 191.891C205.59 191.253 204.601 191.065 203.562 191.065C201.262 191.065 198.961 191.065 196.661 191.065C196.592 191.065 196.524 191.065 196.444 191.065V196.403H196.69C198.708 196.403 200.726 196.403 202.743 196.403C203.185 196.403 203.286 196.505 203.286 196.95C203.286 199.63 203.286 202.314 203.286 204.994C203.286 205.067 203.29 205.139 203.279 205.212C203.254 205.396 203.145 205.509 202.96 205.534C202.863 205.549 202.765 205.541 202.667 205.541C194.872 205.541 187.077 205.541 179.282 205.541C179.202 205.541 179.118 205.541 179.039 205.541L178.995 205.61C179.716 206.443 180.437 207.28 181.161 208.109C181.194 208.145 181.281 208.16 181.335 208.149C183.016 207.885 184.693 207.62 186.374 207.349C187.772 207.124 188.91 207.943 189.127 209.341C189.388 211.007 189.656 212.673 189.917 214.339C189.935 214.455 189.971 214.538 190.09 214.592C193.336 216.106 196.748 216.994 200.32 217.265C202.37 217.421 204.417 217.356 206.456 217.084C209.412 216.689 212.241 215.856 214.943 214.603C215.066 214.545 215.121 214.473 215.139 214.342C215.403 212.651 215.675 210.96 215.936 209.265C216.128 208.011 217.269 207.142 218.518 207.33C220.098 207.566 221.67 207.823 223.245 208.073C223.839 208.167 223.847 208.185 224.238 207.732C224.846 207.03 225.444 206.313 226.045 205.599L226.049 205.61ZM178.499 177.367C178.745 177.849 178.977 178.298 179.202 178.751C179.767 179.891 179.343 181.206 178.22 181.811C178.083 181.887 177.941 181.956 177.8 182.028C176.395 182.742 174.993 183.459 173.587 184.169C173.468 184.23 173.421 184.303 173.41 184.437C173.355 185.125 173.272 185.81 173.232 186.498C173.142 188.109 173.2 189.714 173.377 191.318C173.562 192.981 173.888 194.611 174.348 196.219C174.391 196.367 174.453 196.411 174.605 196.411C177.492 196.407 180.375 196.411 183.262 196.407C183.331 196.407 183.4 196.4 183.469 196.396V177.367H178.503H178.499ZM196.44 182.691H196.719C199.715 182.691 202.714 182.691 205.71 182.691C206.137 182.691 206.565 182.669 206.988 182.619C207.807 182.521 208.579 182.275 209.238 181.749C210.441 180.793 210.448 179.268 209.245 178.312C209.035 178.146 208.803 178.001 208.564 177.885C207.753 177.483 206.876 177.363 205.981 177.363C202.874 177.363 199.762 177.363 196.654 177.36C196.473 177.36 196.422 177.407 196.422 177.588C196.429 179.218 196.426 180.848 196.426 182.477C196.426 182.543 196.433 182.608 196.437 182.695L196.44 182.691ZM231.511 180.887C232.768 180.887 233.794 179.873 233.801 178.613C233.808 177.353 232.772 176.317 231.508 176.317C230.258 176.317 229.229 177.349 229.229 178.606C229.229 179.862 230.251 180.884 231.511 180.887ZM202.522 159.83C203.783 159.83 204.811 158.812 204.815 157.559C204.819 156.295 203.786 155.259 202.526 155.259C201.272 155.259 200.244 156.292 200.244 157.545C200.244 158.802 201.265 159.826 202.522 159.83ZM173.533 180.887C174.797 180.887 175.822 179.873 175.826 178.617C175.829 177.353 174.797 176.313 173.537 176.317C172.28 176.32 171.251 177.349 171.251 178.602C171.251 179.862 172.272 180.887 173.529 180.887H173.533ZM222.727 212.691C222.735 211.43 221.724 210.402 220.463 210.391C219.199 210.38 218.163 211.409 218.16 212.673C218.156 213.919 219.174 214.947 220.42 214.958C221.699 214.969 222.724 213.962 222.727 212.691ZM182.335 212.665C182.335 213.937 183.338 214.954 184.599 214.962C185.874 214.965 186.906 213.944 186.903 212.684C186.903 211.423 185.881 210.398 184.624 210.395C183.367 210.391 182.335 211.416 182.335 212.669V212.665Z" fill="white"/>
<path d="M139.273 260V271.719C140.771 269.564 142.558 268.356 144.914 267.865C149.311 266.954 153.874 269.083 155.775 273.173C157.912 277.78 157.833 282.414 155.731 287.003C153.401 292.101 144.59 295.447 139.282 288.352V291.926H131.679V260H139.273ZM139.159 279.733C139.212 282.326 139.869 283.824 141.27 284.831C143.767 286.635 147.235 286.057 148.838 283.561C150.677 280.706 149.898 276.405 147.218 274.811C145.448 273.76 143.591 273.734 141.831 274.741C139.825 275.888 139.037 277.763 139.151 279.733H139.159Z" fill="white"/>
<path d="M76.018 284.034H82.928C84.523 287.397 87.29 288.221 89.769 286.11C90.023 285.444 89.979 284.761 89.787 283.981C88.298 282.597 86.257 282.519 84.4 281.976C83.06 281.581 81.667 281.38 80.38 280.802C78.207 279.83 76.596 278.402 76.377 275.844C76.14 273.042 76.955 270.773 79.469 269.205C83.358 266.779 90.978 267.016 94.359 271.229C95.445 272.586 96.102 273.961 96.338 275.897C94.131 276.142 91.932 275.985 89.69 276.002C89.016 274.031 87.763 272.84 85.687 272.779C84.505 272.744 83.428 273.033 83.06 274.382C82.762 275.477 83.288 276.291 84.812 276.799C86.336 277.307 87.912 277.666 89.454 278.104C90.671 278.446 91.897 278.735 93.027 279.322C95.138 280.416 96.618 281.932 96.785 284.481C96.969 287.169 96.084 289.315 93.763 290.752C89.646 293.301 81.413 292.854 78.032 288.685C77.086 287.52 76.78 286.092 76 284.883V284.043L76.018 284.034Z" fill="white"/>
<path d="M302.046 295V287.835H329.032V295H302.046Z" fill="#00FEAA"/>
<path d="M241.296 271.421V268.093H248.478V291.943H241.374V288.667C240.945 288.396 240.753 288.562 240.604 288.816C237.853 293.45 228.955 293.966 225.267 287.826C222.175 282.668 222.21 277.211 225.285 272.034C228.587 266.481 237.144 265.938 240.604 271.123C240.718 271.299 240.84 271.465 241.296 271.421ZM241.296 279.979C241.296 276.624 239.281 274.224 236.329 274.066C233.281 273.909 230.917 275.958 230.654 278.998C230.33 282.843 232.046 285.409 235.235 285.829C238.642 286.285 241.287 283.727 241.287 279.979H241.296Z" fill="white"/>
<path d="M101.269 268.04H108.539C108.539 270.545 108.539 272.972 108.539 275.407C108.539 277.368 108.478 279.339 108.557 281.301C108.679 284.384 110.562 286.232 113.418 286.206C116.221 286.18 118.051 284.419 118.139 281.398C118.253 277.684 118.191 273.961 118.209 270.239C118.209 269.547 118.209 268.864 118.209 268.075H125.531V291.926C123.219 292.293 120.863 291.952 118.463 292.118C117.99 290.883 118.349 289.683 118.174 288.483C117.508 288.457 117.333 289.053 117.018 289.421C113.251 293.905 104.02 293.292 101.996 286.434C101.637 285.225 101.296 284.043 101.304 282.755C101.331 278.192 101.296 273.637 101.278 269.074C101.278 268.802 101.278 268.522 101.278 268.04H101.269Z" fill="white"/>
<path d="M278.914 281.38C279.002 284.314 279.983 285.716 282.199 286.302C284.406 286.889 286.245 285.987 287.577 283.613H295.197C294.917 286.285 293.515 288.247 291.545 289.718C288.575 291.934 285.229 292.784 281.454 292.171C270.532 290.401 269.665 277.754 273.966 272.061C278.38 266.219 288.926 266.052 293.375 271.85C295.46 274.574 296.16 277.728 295.512 281.38H278.914ZM288.12 278.148C288.199 275.152 286.552 273.445 283.705 273.436C280.85 273.427 279.028 275.223 279.002 278.148H288.12Z" fill="white"/>
<path d="M167.503 284.121C168.09 286.171 169.57 287.152 171.681 287.275C173.862 287.397 174.781 286.189 174.186 283.841C172.618 282.729 170.647 282.475 168.773 281.976C167.152 281.546 165.506 281.222 164.008 280.39C160.312 278.341 159.594 273.418 162.554 270.361C164.166 268.697 166.224 268.04 168.405 267.769C173.827 267.094 179.826 269.337 180.956 275.932C178.732 275.932 176.524 275.932 174.308 275.932C172.749 273.217 170.805 272.183 168.808 273.015C167.582 273.532 167.371 274.145 167.836 276.002C169.088 277.088 170.744 277.22 172.268 277.684C174.133 278.253 176.086 278.533 177.838 279.497C180.133 280.749 181.385 282.589 181.368 285.251C181.35 287.905 180.124 289.981 177.821 291.015C173.117 293.134 168.379 292.994 164.017 290.025C162.046 288.685 160.846 286.705 160.653 284.13H167.503V284.121Z" fill="white"/>
<path d="M199.735 267.97V273.865C198.264 274.347 196.704 273.883 194.997 274.189C194.997 277.412 194.935 280.679 195.032 283.946C195.067 285.067 195.934 285.646 197.055 285.689C197.896 285.724 198.728 285.689 199.717 285.689V291.943C197.09 292.215 194.462 292.171 191.94 291.199C189.33 290.191 188.077 288.098 187.736 285.4C187.376 282.536 187.587 279.646 187.517 276.773C187.499 275.95 187.7 275.1 187.341 274.285C186.422 273.786 185.379 274.338 184.39 273.865V268.163C185.283 267.646 186.404 268.224 187.543 267.716V262.093H194.786C195.163 263.933 194.769 265.895 195.023 267.97H199.735Z" fill="white"/>
<path d="M255.66 274.145C254.661 274.101 253.768 274.058 252.769 274.014V268.014H255.712C256.194 266.035 255.739 264.134 256.045 262.155H263.245V267.9H268.132C268.255 269.985 268.255 271.912 268.115 274.049H263.306C263.306 277.386 263.262 280.522 263.332 283.657C263.359 284.962 264.165 285.663 265.513 285.733C266.346 285.768 267.186 285.593 268.115 285.908C268.36 287.888 268.211 289.885 268.211 291.978C265.601 292.241 263.166 292.171 260.819 291.4C257.823 290.41 256.396 288.151 256.054 285.102C255.756 282.44 255.879 279.768 255.835 277.097C255.826 276.195 255.966 275.275 255.669 274.154L255.66 274.145Z" fill="white"/>
<path d="M220.984 275.66C219.802 275.66 218.751 275.582 217.717 275.678C214.389 275.985 212.926 277.465 212.812 280.811C212.707 283.824 212.786 286.845 212.768 289.858C212.768 290.542 212.891 291.242 212.611 291.987H205.586V268.067H212.812V272.253C215.159 269.547 217.577 267.786 220.993 267.637V275.669L220.984 275.66Z" fill="white"/>
<path fill-rule="evenodd" clip-rule="evenodd" d="M164.814 432.35C187.885 445.671 216.307 445.671 239.378 432.35L239.878 433.216C216.498 446.716 187.694 446.716 164.314 433.216L164.814 432.35ZM38.282 84.0431C15.2132 97.3638 1 121.979 1 148.618V294.723C1 321.362 15.2132 345.977 38.282 359.298L164.814 432.35L164.314 433.216L37.782 360.164C14.4038 346.664 0 321.719 0 294.723V148.618C0 121.621 14.4038 96.6764 37.782 83.1771L164.314 10.1245C187.694 -3.37482 216.498 -3.37482 239.878 10.1245L366.41 83.1771C389.788 96.6764 404.192 121.621 404.192 148.618V294.723C404.192 321.719 389.788 346.664 366.41 360.164L239.878 433.216L239.378 432.35L365.91 359.298C388.979 345.977 403.192 321.362 403.192 294.723V148.618C403.192 121.979 388.979 97.3638 365.91 84.0431L239.378 10.9905L239.795 10.2677L239.378 10.9905C216.307 -2.33016 187.885 -2.33016 164.814 10.9905L164.318 10.1308L164.814 10.9905L38.2821 84.0431C38.2821 84.0431 38.282 84.0431 38.282 84.0431Z" fill="url(#paint0_linear_1043_15712)"/>
<defs>
<linearGradient id="paint0_linear_1043_15712" x1="566.73" y1="475.609" x2="-72.2303" y2="-14.4461" gradientUnits="userSpaceOnUse">
<stop stop-color="#9A74DB"/>
<stop offset="1" stop-color="#9A74DB" stop-opacity="0"/>
</linearGradient>
</defs>
</svg>
