<svg width="565" height="406" viewBox="0 0 565 406" fill="none" xmlns="http://www.w3.org/2000/svg">
<g clip-path="url(#clip0_1023_15433)">
<path d="M167.242 333.816C151.108 343.131 131.233 343.131 115.099 333.816L26.9488 282.923C10.8168 273.607 0.877441 256.394 0.877441 237.765V135.979C0.877441 117.35 10.8167 100.137 26.9488 90.8221C26.9488 90.8221 26.9488 90.8221 26.9488 90.8221L115.099 39.929C131.233 30.6138 151.108 30.6138 167.242 39.929L167.492 39.496L167.242 39.929L255.392 90.8221C271.524 100.137 281.463 117.35 281.463 135.979V237.765C281.463 256.394 271.524 273.607 255.392 282.923L167.242 333.816Z" fill="black" fill-opacity="0.55" stroke="url(#paint0_linear_1023_15433)"/>
<path d="M176 129.5H106C99.3726 129.5 94 134.873 94 141.5V169.5C94 176.127 99.3726 181.5 106 181.5H176C182.627 181.5 188 176.127 188 169.5V141.5C188 134.873 182.627 129.5 176 129.5Z" fill="#3E3E3E" fill-opacity="0.24"/>
<path d="M130.311 153.666H128.317C128.24 153.24 128.097 152.865 127.888 152.541C127.68 152.217 127.424 151.942 127.121 151.717C126.819 151.491 126.48 151.32 126.105 151.205C125.734 151.09 125.34 151.033 124.923 151.033C124.168 151.033 123.493 151.222 122.896 151.602C122.304 151.981 121.835 152.537 121.49 153.27C121.149 154.003 120.979 154.898 120.979 155.955C120.979 157.02 121.149 157.919 121.49 158.652C121.835 159.385 122.306 159.939 122.903 160.314C123.499 160.689 124.17 160.876 124.916 160.876C125.33 160.876 125.722 160.821 126.092 160.71C126.467 160.595 126.806 160.427 127.109 160.205C127.411 159.984 127.667 159.713 127.876 159.393C128.089 159.07 128.236 158.699 128.317 158.281L130.311 158.288C130.205 158.931 129.998 159.523 129.691 160.065C129.388 160.602 128.999 161.066 128.521 161.458C128.048 161.846 127.507 162.146 126.898 162.359C126.288 162.572 125.624 162.679 124.903 162.679C123.77 162.679 122.76 162.411 121.874 161.874C120.987 161.332 120.288 160.559 119.777 159.553C119.27 158.548 119.016 157.348 119.016 155.955C119.016 154.557 119.272 153.357 119.783 152.356C120.295 151.35 120.994 150.579 121.88 150.042C122.766 149.501 123.774 149.23 124.903 149.23C125.598 149.23 126.246 149.33 126.847 149.531C127.452 149.727 127.995 150.016 128.477 150.4C128.958 150.779 129.357 151.244 129.672 151.793C129.987 152.339 130.2 152.963 130.311 153.666ZM136.657 162.698C135.736 162.698 134.933 162.487 134.247 162.065C133.561 161.643 133.028 161.053 132.649 160.295C132.27 159.536 132.08 158.65 132.08 157.636C132.08 156.617 132.27 155.727 132.649 154.964C133.028 154.201 133.561 153.609 134.247 153.187C134.933 152.765 135.736 152.554 136.657 152.554C137.577 152.554 138.381 152.765 139.067 153.187C139.753 153.609 140.285 154.201 140.665 154.964C141.044 155.727 141.233 156.617 141.233 157.636C141.233 158.65 141.044 159.536 140.665 160.295C140.285 161.053 139.753 161.643 139.067 162.065C138.381 162.487 137.577 162.698 136.657 162.698ZM136.663 161.094C137.26 161.094 137.754 160.936 138.146 160.621C138.538 160.305 138.828 159.886 139.015 159.362C139.207 158.837 139.303 158.26 139.303 157.629C139.303 157.003 139.207 156.428 139.015 155.903C138.828 155.375 138.538 154.951 138.146 154.631C137.754 154.312 137.26 154.152 136.663 154.152C136.062 154.152 135.564 154.312 135.167 154.631C134.775 154.951 134.483 155.375 134.292 155.903C134.104 156.428 134.01 157.003 134.01 157.629C134.01 158.26 134.104 158.837 134.292 159.362C134.483 159.886 134.775 160.305 135.167 160.621C135.564 160.936 136.062 161.094 136.663 161.094ZM147.042 162.692C146.25 162.692 145.542 162.489 144.92 162.085C144.302 161.675 143.816 161.094 143.463 160.339C143.113 159.581 142.939 158.671 142.939 157.61C142.939 156.549 143.115 155.641 143.469 154.887C143.827 154.133 144.317 153.555 144.939 153.155C145.561 152.754 146.267 152.554 147.055 152.554C147.664 152.554 148.154 152.656 148.525 152.861C148.9 153.061 149.19 153.295 149.395 153.564C149.603 153.832 149.765 154.069 149.88 154.273H149.995V149.409H151.907V162.5H150.04V160.972H149.88C149.765 161.181 149.599 161.42 149.382 161.688C149.169 161.957 148.875 162.191 148.5 162.391C148.125 162.592 147.639 162.692 147.042 162.692ZM147.464 161.062C148.014 161.062 148.478 160.917 148.858 160.627C149.241 160.333 149.531 159.926 149.727 159.406C149.927 158.886 150.027 158.281 150.027 157.591C150.027 156.909 149.929 156.312 149.733 155.801C149.537 155.29 149.25 154.891 148.87 154.606C148.491 154.32 148.022 154.178 147.464 154.178C146.889 154.178 146.409 154.327 146.026 154.625C145.642 154.923 145.353 155.33 145.157 155.846C144.965 156.362 144.869 156.943 144.869 157.591C144.869 158.247 144.967 158.837 145.163 159.362C145.359 159.886 145.649 160.301 146.032 160.608C146.42 160.911 146.897 161.062 147.464 161.062ZM158.866 162.698C157.899 162.698 157.066 162.491 156.367 162.078C155.672 161.661 155.135 161.075 154.756 160.32C154.381 159.562 154.193 158.673 154.193 157.655C154.193 156.649 154.381 155.763 154.756 154.996C155.135 154.229 155.664 153.63 156.341 153.2C157.023 152.769 157.82 152.554 158.732 152.554C159.286 152.554 159.823 152.646 160.343 152.829C160.862 153.012 161.329 153.3 161.742 153.692C162.156 154.084 162.482 154.593 162.72 155.219C162.959 155.842 163.078 156.598 163.078 157.489V158.166H155.274V156.734H161.205C161.205 156.232 161.103 155.786 160.899 155.398C160.694 155.006 160.406 154.697 160.036 154.472C159.669 154.246 159.239 154.133 158.744 154.133C158.208 154.133 157.739 154.265 157.338 154.529C156.942 154.789 156.635 155.13 156.418 155.552C156.205 155.969 156.098 156.423 156.098 156.913V158.032C156.098 158.688 156.213 159.246 156.443 159.707C156.678 160.167 157.004 160.518 157.421 160.761C157.839 161 158.327 161.119 158.885 161.119C159.247 161.119 159.578 161.068 159.876 160.966C160.174 160.859 160.432 160.702 160.649 160.493C160.867 160.284 161.033 160.026 161.148 159.719L162.957 160.045C162.812 160.578 162.552 161.045 162.177 161.445C161.806 161.842 161.34 162.151 160.777 162.372C160.219 162.589 159.582 162.698 158.866 162.698Z" fill="white"/>
<path d="M176 130.5H106C99.9249 130.5 95 135.425 95 141.5V169.5C95 175.575 99.9249 180.5 106 180.5H176C182.075 180.5 187 175.575 187 169.5V141.5C187 135.425 182.075 130.5 176 130.5Z" stroke="url(#paint1_linear_1023_15433)" stroke-width="2"/>
<g filter="url(#filter0_b_1023_15433)">
<path d="M433 60.5H374C367.373 60.5 362 65.8726 362 72.5V100.5C362 107.127 367.373 112.5 374 112.5H433C439.627 112.5 445 107.127 445 100.5V72.5C445 65.8726 439.627 60.5 433 60.5Z" fill="#3E3E3E" fill-opacity="0.24"/>
<path d="M388.544 93.4999H386.447L391.158 80.4089H393.44L398.151 93.4999H396.055L392.354 82.7869H392.251L388.544 93.4999ZM388.896 88.3739H395.697V90.0359H388.896V88.3739ZM399.888 97.1819V83.6819H401.755V85.2729H401.915C402.025 85.0689 402.185 84.8319 402.394 84.5639C402.603 84.2949 402.893 84.0609 403.263 83.8609C403.634 83.6559 404.124 83.5539 404.733 83.5539C405.526 83.5539 406.233 83.7539 406.856 84.1549C407.478 84.5549 407.966 85.1329 408.319 85.8869C408.677 86.6409 408.856 87.5489 408.856 88.6099C408.856 89.6709 408.68 90.5809 408.326 91.3389C407.972 92.0939 407.486 92.6749 406.868 93.0849C406.251 93.4889 405.545 93.6919 404.753 93.6919C404.156 93.6919 403.668 93.5919 403.289 93.3909C402.914 93.1909 402.62 92.9569 402.407 92.6879C402.194 92.4199 402.03 92.1809 401.915 91.9719H401.8V97.1819H399.888ZM401.761 88.5909C401.761 89.2809 401.861 89.8859 402.062 90.4059C402.262 90.9259 402.552 91.333 402.931 91.627C403.31 91.917 403.775 92.062 404.324 92.062C404.895 92.062 405.373 91.9109 405.756 91.6079C406.14 91.3009 406.43 90.8859 406.626 90.3619C406.826 89.8369 406.926 89.2469 406.926 88.5909C406.926 87.9429 406.828 87.3619 406.632 86.8459C406.44 86.3299 406.15 85.9229 405.763 85.6249C405.379 85.3269 404.9 85.1779 404.324 85.1779C403.77 85.1779 403.302 85.3199 402.918 85.6059C402.539 85.8909 402.251 86.2899 402.055 86.8009C401.859 87.3119 401.761 87.9089 401.761 88.5909ZM410.998 97.1819V83.6819H412.864V85.2729H413.024C413.135 85.0689 413.295 84.8319 413.503 84.5639C413.712 84.2949 414.002 84.0609 414.373 83.8609C414.743 83.6559 415.233 83.5539 415.843 83.5539C416.635 83.5539 417.343 83.7539 417.965 84.1549C418.587 84.5549 419.075 85.1329 419.429 85.8869C419.787 86.6409 419.966 87.5489 419.966 88.6099C419.966 89.6709 419.789 90.5809 419.435 91.3389C419.081 92.0939 418.596 92.6749 417.978 93.0849C417.36 93.4889 416.655 93.6919 415.862 93.6919C415.265 93.6919 414.778 93.5919 414.398 93.3909C414.023 93.1909 413.729 92.9569 413.516 92.6879C413.303 92.4199 413.139 92.1809 413.024 91.9719H412.909V97.1819H410.998ZM412.871 88.5909C412.871 89.2809 412.971 89.8859 413.171 90.4059C413.371 90.9259 413.661 91.333 414.04 91.627C414.42 91.917 414.884 92.062 415.434 92.062C416.005 92.062 416.482 91.9109 416.866 91.6079C417.249 91.3009 417.539 90.8859 417.735 90.3619C417.935 89.8369 418.035 89.2469 418.035 88.5909C418.035 87.9429 417.937 87.3619 417.741 86.8459C417.55 86.3299 417.26 85.9229 416.872 85.6249C416.488 85.3269 416.009 85.1779 415.434 85.1779C414.88 85.1779 414.411 85.3199 414.028 85.6059C413.648 85.8909 413.361 86.2899 413.165 86.8009C412.969 87.3119 412.871 87.9089 412.871 88.5909Z" fill="white"/>
<path d="M433 61.5H374C367.925 61.5 363 66.4249 363 72.5V100.5C363 106.575 367.925 111.5 374 111.5H433C439.075 111.5 444 106.575 444 100.5V72.5C444 66.4249 439.075 61.5 433 61.5Z" stroke="url(#paint2_linear_1023_15433)" stroke-width="2"/>
</g>
<g filter="url(#filter1_b_1023_15433)">
<path d="M553 60.5H494C487.373 60.5 482 65.8726 482 72.5V100.5C482 107.127 487.373 112.5 494 112.5H553C559.627 112.5 565 107.127 565 100.5V72.5C565 65.8726 559.627 60.5 553 60.5Z" fill="#3E3E3E" fill-opacity="0.24"/>
<path d="M508.544 93.4999H506.447L511.158 80.4089H513.44L518.151 93.4999H516.055L512.354 82.7869H512.251L508.544 93.4999ZM508.896 88.3739H515.697V90.0359H508.896V88.3739ZM519.888 97.1819V83.6819H521.755V85.2729H521.915C522.025 85.0689 522.185 84.8319 522.394 84.5639C522.603 84.2949 522.893 84.0609 523.263 83.8609C523.634 83.6559 524.124 83.5539 524.733 83.5539C525.526 83.5539 526.233 83.7539 526.856 84.1549C527.478 84.5549 527.966 85.1329 528.319 85.8869C528.677 86.6409 528.856 87.5489 528.856 88.6099C528.856 89.6709 528.68 90.5809 528.326 91.3389C527.972 92.0939 527.486 92.6749 526.868 93.0849C526.251 93.4889 525.545 93.6919 524.753 93.6919C524.156 93.6919 523.668 93.5919 523.289 93.3909C522.914 93.1909 522.62 92.9569 522.407 92.6879C522.194 92.4199 522.03 92.1809 521.915 91.9719H521.8V97.1819H519.888ZM521.761 88.5909C521.761 89.2809 521.861 89.8859 522.062 90.4059C522.262 90.9259 522.552 91.333 522.931 91.627C523.31 91.917 523.775 92.062 524.324 92.062C524.895 92.062 525.373 91.9109 525.756 91.6079C526.14 91.3009 526.43 90.8859 526.626 90.3619C526.826 89.8369 526.926 89.2469 526.926 88.5909C526.926 87.9429 526.828 87.3619 526.632 86.8459C526.44 86.3299 526.15 85.9229 525.763 85.6249C525.379 85.3269 524.9 85.1779 524.324 85.1779C523.77 85.1779 523.302 85.3199 522.918 85.6059C522.539 85.8909 522.251 86.2899 522.055 86.8009C521.859 87.3119 521.761 87.9089 521.761 88.5909ZM530.998 97.1819V83.6819H532.864V85.2729H533.024C533.135 85.0689 533.295 84.8319 533.503 84.5639C533.712 84.2949 534.002 84.0609 534.373 83.8609C534.743 83.6559 535.233 83.5539 535.843 83.5539C536.635 83.5539 537.343 83.7539 537.965 84.1549C538.587 84.5549 539.075 85.1329 539.429 85.8869C539.787 86.6409 539.966 87.5489 539.966 88.6099C539.966 89.6709 539.789 90.5809 539.435 91.3389C539.081 92.0939 538.596 92.6749 537.978 93.0849C537.36 93.4889 536.655 93.6919 535.862 93.6919C535.265 93.6919 534.778 93.5919 534.398 93.3909C534.023 93.1909 533.729 92.9569 533.516 92.6879C533.303 92.4199 533.139 92.1809 533.024 91.9719H532.909V97.1819H530.998ZM532.871 88.5909C532.871 89.2809 532.971 89.8859 533.171 90.4059C533.371 90.9259 533.661 91.333 534.04 91.627C534.42 91.917 534.884 92.062 535.434 92.062C536.005 92.062 536.482 91.9109 536.866 91.6079C537.249 91.3009 537.539 90.8859 537.735 90.3619C537.935 89.8369 538.035 89.2469 538.035 88.5909C538.035 87.9429 537.937 87.3619 537.741 86.8459C537.55 86.3299 537.26 85.9229 536.872 85.6249C536.488 85.3269 536.009 85.1779 535.434 85.1779C534.88 85.1779 534.411 85.3199 534.028 85.6059C533.648 85.8909 533.361 86.2899 533.165 86.8009C532.969 87.3119 532.871 87.9089 532.871 88.5909Z" fill="white"/>
<path d="M553 61.5H494C487.925 61.5 483 66.4249 483 72.5V100.5C483 106.575 487.925 111.5 494 111.5H553C559.075 111.5 564 106.575 564 100.5V72.5C564 66.4249 559.075 61.5 553 61.5Z" stroke="url(#paint3_linear_1023_15433)" stroke-width="2"/>
</g>
<g filter="url(#filter2_b_1023_15433)">
<path d="M551 129.5H372C365.373 129.5 360 134.873 360 141.5V169.5C360 176.127 365.373 181.5 372 181.5H551C557.627 181.5 563 176.127 563 169.5V141.5C563 134.873 557.627 129.5 551 129.5Z" fill="#3E3E3E" fill-opacity="0.24"/>
<path d="M396.81 155.955C396.81 157.352 396.554 158.554 396.043 159.56C395.531 160.561 394.83 161.332 393.94 161.874C393.053 162.411 392.045 162.679 390.916 162.679C389.783 162.679 388.771 162.411 387.88 161.874C386.994 161.332 386.295 160.559 385.783 159.553C385.272 158.548 385.016 157.348 385.016 155.955C385.016 154.557 385.272 153.357 385.783 152.356C386.295 151.35 386.994 150.579 387.88 150.042C388.771 149.501 389.783 149.23 390.916 149.23C392.045 149.23 393.053 149.501 393.94 150.042C394.83 150.579 395.531 151.35 396.043 152.356C396.554 153.357 396.81 154.557 396.81 155.955ZM394.854 155.955C394.854 154.889 394.681 153.992 394.336 153.263C393.995 152.531 393.526 151.977 392.93 151.602C392.337 151.222 391.666 151.033 390.916 151.033C390.162 151.033 389.489 151.222 388.896 151.602C388.304 151.977 387.835 152.531 387.49 153.263C387.149 153.992 386.979 154.889 386.979 155.955C386.979 157.02 387.149 157.919 387.49 158.652C387.835 159.381 388.304 159.935 388.896 160.314C389.489 160.689 390.162 160.876 390.916 160.876C391.666 160.876 392.337 160.689 392.93 160.314C393.526 159.935 393.995 159.381 394.336 158.652C394.681 157.919 394.854 157.02 394.854 155.955ZM399.119 166.182V152.682H400.985V154.273H401.145C401.256 154.069 401.416 153.832 401.624 153.564C401.833 153.295 402.123 153.061 402.494 152.861C402.865 152.656 403.355 152.554 403.964 152.554C404.757 152.554 405.464 152.754 406.086 153.155C406.708 153.555 407.196 154.133 407.55 154.887C407.908 155.641 408.087 156.549 408.087 157.61C408.087 158.671 407.91 159.581 407.556 160.339C407.203 161.094 406.717 161.675 406.099 162.085C405.481 162.489 404.776 162.692 403.983 162.692C403.387 162.692 402.899 162.592 402.519 162.391C402.144 162.191 401.85 161.957 401.637 161.688C401.424 161.42 401.26 161.181 401.145 160.972H401.03V166.182H399.119ZM400.992 157.591C400.992 158.281 401.092 158.886 401.292 159.406C401.492 159.926 401.782 160.333 402.161 160.627C402.541 160.917 403.005 161.062 403.555 161.062C404.126 161.062 404.603 160.911 404.987 160.608C405.37 160.301 405.66 159.886 405.856 159.362C406.056 158.837 406.156 158.247 406.156 157.591C406.156 156.943 406.058 156.362 405.862 155.846C405.671 155.33 405.381 154.923 404.993 154.625C404.61 154.327 404.13 154.178 403.555 154.178C403.001 154.178 402.532 154.32 402.149 154.606C401.769 154.891 401.482 155.29 401.286 155.801C401.09 156.312 400.992 156.909 400.992 157.591ZM414.46 162.698C413.492 162.698 412.659 162.491 411.96 162.078C411.266 161.661 410.729 161.075 410.35 160.32C409.975 159.562 409.787 158.673 409.787 157.655C409.787 156.649 409.975 155.763 410.35 154.996C410.729 154.229 411.257 153.63 411.935 153.2C412.617 152.769 413.414 152.554 414.325 152.554C414.879 152.554 415.416 152.646 415.936 152.829C416.456 153.012 416.923 153.3 417.336 153.692C417.749 154.084 418.075 154.593 418.314 155.219C418.553 155.842 418.672 156.598 418.672 157.489V158.166H410.867V156.734H416.799C416.799 156.232 416.697 155.786 416.492 155.398C416.288 155.006 416 154.697 415.629 154.472C415.263 154.246 414.833 154.133 414.338 154.133C413.801 154.133 413.333 154.265 412.932 154.529C412.536 154.789 412.229 155.13 412.012 155.552C411.798 155.969 411.692 156.423 411.692 156.913V158.032C411.692 158.688 411.807 159.246 412.037 159.707C412.271 160.167 412.597 160.518 413.015 160.761C413.433 161 413.921 161.119 414.479 161.119C414.841 161.119 415.171 161.068 415.47 160.966C415.768 160.859 416.026 160.702 416.243 160.493C416.46 160.284 416.627 160.026 416.742 159.719L418.551 160.045C418.406 160.578 418.146 161.045 417.771 161.445C417.4 161.842 416.933 162.151 416.371 162.372C415.813 162.589 415.176 162.698 414.46 162.698ZM420.793 162.5V152.682H422.64V154.241H422.742C422.921 153.713 423.237 153.298 423.688 152.995C424.144 152.688 424.66 152.535 425.235 152.535C425.354 152.535 425.495 152.539 425.657 152.548C425.823 152.556 425.953 152.567 426.047 152.58V154.408C425.97 154.386 425.834 154.363 425.638 154.337C425.442 154.308 425.246 154.293 425.05 154.293C424.598 154.293 424.195 154.388 423.842 154.58C423.492 154.768 423.215 155.03 423.011 155.366C422.806 155.699 422.704 156.078 422.704 156.504V162.5H420.793ZM430.47 162.717C429.848 162.717 429.286 162.602 428.783 162.372C428.28 162.138 427.881 161.799 427.587 161.356C427.298 160.913 427.153 160.369 427.153 159.726C427.153 159.172 427.259 158.716 427.472 158.358C427.685 158 427.973 157.717 428.335 157.508C428.697 157.299 429.102 157.141 429.55 157.035C429.997 156.928 430.453 156.847 430.918 156.792C431.506 156.724 431.983 156.668 432.349 156.626C432.716 156.579 432.982 156.504 433.148 156.402C433.315 156.3 433.398 156.134 433.398 155.903V155.859C433.398 155.3 433.24 154.868 432.925 154.561C432.614 154.254 432.149 154.101 431.531 154.101C430.888 154.101 430.381 154.244 430.01 154.529C429.643 154.81 429.39 155.124 429.249 155.469L427.453 155.06C427.666 154.463 427.977 153.982 428.386 153.615C428.8 153.244 429.275 152.976 429.812 152.81C430.349 152.639 430.913 152.554 431.506 152.554C431.898 152.554 432.313 152.601 432.752 152.695C433.195 152.784 433.609 152.95 433.992 153.193C434.38 153.436 434.697 153.783 434.945 154.235C435.192 154.683 435.315 155.264 435.315 155.98V162.5H433.449V161.158H433.372C433.249 161.405 433.063 161.648 432.816 161.886C432.569 162.125 432.251 162.323 431.864 162.481C431.476 162.638 431.011 162.717 430.47 162.717ZM430.886 161.183C431.414 161.183 431.866 161.079 432.241 160.87C432.62 160.661 432.908 160.388 433.104 160.052C433.304 159.711 433.404 159.347 433.404 158.959V157.693C433.336 157.761 433.204 157.825 433.008 157.885C432.816 157.94 432.597 157.989 432.349 158.032C432.102 158.07 431.862 158.107 431.627 158.141C431.393 158.17 431.197 158.196 431.039 158.217C430.668 158.264 430.33 158.343 430.023 158.454C429.72 158.565 429.477 158.724 429.294 158.933C429.115 159.138 429.026 159.411 429.026 159.751C429.026 160.224 429.2 160.582 429.55 160.825C429.899 161.064 430.344 161.183 430.886 161.183ZM442.444 152.682V154.216H437.081V152.682H442.444ZM438.519 150.33H440.431V159.617C440.431 159.988 440.486 160.267 440.597 160.455C440.708 160.638 440.85 160.763 441.025 160.832C441.204 160.896 441.398 160.928 441.607 160.928C441.76 160.928 441.894 160.917 442.009 160.896C442.124 160.874 442.214 160.857 442.278 160.844L442.623 162.423C442.512 162.466 442.355 162.509 442.15 162.551C441.945 162.598 441.69 162.624 441.383 162.628C440.88 162.636 440.411 162.547 439.977 162.359C439.542 162.172 439.191 161.882 438.922 161.49C438.654 161.098 438.519 160.606 438.519 160.013V150.33ZM444.558 162.5V152.682H446.469V162.5H444.558ZM445.523 151.167C445.191 151.167 444.906 151.056 444.667 150.835C444.433 150.609 444.315 150.34 444.315 150.029C444.315 149.714 444.433 149.445 444.667 149.224C444.906 148.998 445.191 148.885 445.523 148.885C445.856 148.885 446.139 148.998 446.374 149.224C446.612 149.445 446.732 149.714 446.732 150.029C446.732 150.34 446.612 150.609 446.374 150.835C446.139 151.056 445.856 151.167 445.523 151.167ZM450.952 156.67V162.5H449.041V152.682H450.875V154.28H450.997C451.222 153.76 451.576 153.342 452.058 153.027C452.544 152.712 453.155 152.554 453.892 152.554C454.561 152.554 455.147 152.695 455.65 152.976C456.153 153.253 456.543 153.666 456.82 154.216C457.097 154.766 457.235 155.445 457.235 156.255V162.5H455.324V156.485C455.324 155.773 455.139 155.217 454.768 154.817C454.397 154.412 453.888 154.21 453.24 154.21C452.797 154.21 452.403 154.305 452.058 154.497C451.717 154.689 451.446 154.97 451.246 155.341C451.05 155.707 450.952 156.151 450.952 156.67ZM463.915 166.386C463.135 166.386 462.464 166.284 461.901 166.08C461.343 165.875 460.887 165.604 460.534 165.268C460.18 164.931 459.916 164.563 459.741 164.162L461.384 163.484C461.499 163.672 461.652 163.87 461.844 164.079C462.04 164.292 462.304 164.473 462.637 164.622C462.973 164.771 463.406 164.846 463.934 164.846C464.659 164.846 465.257 164.669 465.73 164.315C466.203 163.966 466.44 163.408 466.44 162.641V160.71H466.318C466.203 160.919 466.037 161.151 465.82 161.407C465.607 161.663 465.313 161.884 464.938 162.072C464.563 162.259 464.075 162.353 463.474 162.353C462.698 162.353 461.999 162.172 461.377 161.81C460.759 161.443 460.269 160.904 459.907 160.192C459.549 159.477 459.37 158.597 459.37 157.553C459.37 156.509 459.547 155.614 459.901 154.868C460.259 154.122 460.749 153.551 461.371 153.155C461.993 152.754 462.698 152.554 463.487 152.554C464.096 152.554 464.588 152.656 464.963 152.861C465.338 153.061 465.63 153.295 465.839 153.564C466.052 153.832 466.216 154.069 466.331 154.273H466.472V152.682H468.345V162.717C468.345 163.561 468.149 164.254 467.757 164.795C467.365 165.336 466.834 165.737 466.165 165.996C465.5 166.256 464.75 166.386 463.915 166.386ZM463.896 160.768C464.445 160.768 464.91 160.64 465.289 160.384C465.673 160.124 465.963 159.754 466.159 159.272C466.359 158.786 466.459 158.205 466.459 157.527C466.459 156.866 466.361 156.285 466.165 155.782C465.969 155.279 465.681 154.887 465.302 154.606C464.923 154.32 464.454 154.178 463.896 154.178C463.32 154.178 462.841 154.327 462.458 154.625C462.074 154.919 461.784 155.32 461.588 155.827C461.396 156.334 461.301 156.901 461.301 157.527C461.301 158.17 461.399 158.735 461.595 159.221C461.791 159.707 462.08 160.086 462.464 160.359C462.852 160.631 463.329 160.768 463.896 160.768ZM482.965 152.848C482.897 152.243 482.615 151.774 482.121 151.442C481.627 151.105 481.005 150.937 480.255 150.937C479.718 150.937 479.253 151.022 478.861 151.192C478.469 151.359 478.164 151.589 477.947 151.883C477.734 152.173 477.627 152.503 477.627 152.874C477.627 153.185 477.7 153.453 477.845 153.679C477.994 153.905 478.188 154.094 478.426 154.248C478.669 154.397 478.929 154.523 479.206 154.625C479.483 154.723 479.75 154.804 480.005 154.868L481.284 155.2C481.701 155.303 482.13 155.441 482.569 155.616C483.007 155.79 483.414 156.021 483.789 156.306C484.164 156.592 484.467 156.945 484.697 157.367C484.931 157.789 485.049 158.294 485.049 158.882C485.049 159.624 484.857 160.282 484.473 160.857C484.094 161.433 483.542 161.886 482.818 162.219C482.098 162.551 481.226 162.717 480.203 162.717C479.223 162.717 478.375 162.562 477.659 162.251C476.944 161.94 476.383 161.499 475.978 160.928C475.574 160.352 475.35 159.67 475.307 158.882H477.289C477.327 159.355 477.48 159.749 477.749 160.065C478.022 160.376 478.369 160.608 478.791 160.761C479.217 160.911 479.684 160.985 480.191 160.985C480.749 160.985 481.245 160.898 481.68 160.723C482.119 160.544 482.464 160.297 482.716 159.982C482.967 159.662 483.093 159.289 483.093 158.863C483.093 158.475 482.982 158.158 482.76 157.911C482.543 157.663 482.247 157.459 481.872 157.297C481.501 157.135 481.081 156.992 480.613 156.869L479.066 156.447C478.017 156.161 477.186 155.741 476.573 155.188C475.963 154.634 475.659 153.901 475.659 152.989C475.659 152.234 475.863 151.576 476.272 151.013C476.681 150.451 477.235 150.014 477.934 149.703C478.633 149.388 479.422 149.23 480.299 149.23C481.186 149.23 481.968 149.386 482.645 149.697C483.327 150.008 483.864 150.436 484.256 150.982C484.648 151.523 484.853 152.145 484.87 152.848H482.965ZM488.464 166.182C488.178 166.182 487.918 166.158 487.684 166.112C487.449 166.069 487.275 166.022 487.16 165.971L487.62 164.405C487.969 164.499 488.28 164.539 488.553 164.526C488.826 164.513 489.067 164.411 489.275 164.219C489.488 164.028 489.676 163.714 489.838 163.28L490.074 162.628L486.482 152.682H488.528L491.014 160.301H491.116L493.603 152.682H495.655L491.608 163.81C491.421 164.322 491.182 164.754 490.893 165.108C490.603 165.466 490.258 165.734 489.857 165.913C489.456 166.092 488.992 166.182 488.464 166.182ZM504.808 155.079L503.076 155.386C503.003 155.164 502.888 154.953 502.731 154.753C502.577 154.553 502.368 154.388 502.104 154.261C501.84 154.133 501.51 154.069 501.113 154.069C500.572 154.069 500.121 154.19 499.758 154.433C499.396 154.672 499.215 154.981 499.215 155.36C499.215 155.688 499.336 155.952 499.579 156.153C499.822 156.353 500.214 156.517 500.756 156.645L502.315 157.003C503.219 157.212 503.892 157.533 504.335 157.968C504.778 158.403 505 158.967 505 159.662C505 160.25 504.829 160.774 504.488 161.234C504.152 161.69 503.681 162.048 503.076 162.308C502.475 162.568 501.778 162.698 500.986 162.698C499.886 162.698 498.989 162.464 498.295 161.995C497.6 161.522 497.174 160.851 497.016 159.982L498.863 159.7C498.979 160.182 499.215 160.546 499.573 160.793C499.931 161.036 500.398 161.158 500.973 161.158C501.599 161.158 502.1 161.028 502.475 160.768C502.85 160.504 503.037 160.182 503.037 159.803C503.037 159.496 502.922 159.238 502.692 159.029C502.466 158.82 502.119 158.663 501.65 158.556L499.988 158.192C499.072 157.983 498.395 157.651 497.956 157.195C497.521 156.739 497.304 156.161 497.304 155.462C497.304 154.883 497.466 154.376 497.79 153.941C498.113 153.506 498.561 153.168 499.132 152.925C499.703 152.678 500.357 152.554 501.094 152.554C502.155 152.554 502.991 152.784 503.6 153.244C504.209 153.7 504.612 154.312 504.808 155.079ZM511.684 152.682V154.216H506.321V152.682H511.684ZM507.76 150.33H509.671V159.617C509.671 159.988 509.726 160.267 509.837 160.455C509.948 160.638 510.091 160.763 510.265 160.832C510.444 160.896 510.638 160.928 510.847 160.928C511 160.928 511.135 160.917 511.25 160.896C511.365 160.874 511.454 160.857 511.518 160.844L511.863 162.423C511.752 162.466 511.595 162.509 511.39 162.551C511.186 162.598 510.93 162.624 510.623 162.628C510.12 162.636 509.652 162.547 509.217 162.359C508.782 162.172 508.431 161.882 508.162 161.49C507.894 161.098 507.76 160.606 507.76 160.013V150.33ZM517.925 162.698C516.957 162.698 516.124 162.491 515.425 162.078C514.731 161.661 514.194 161.075 513.814 160.32C513.439 159.562 513.252 158.673 513.252 157.655C513.252 156.649 513.439 155.763 513.814 154.996C514.194 154.229 514.722 153.63 515.4 153.2C516.081 152.769 516.878 152.554 517.79 152.554C518.344 152.554 518.881 152.646 519.401 152.829C519.921 153.012 520.388 153.3 520.801 153.692C521.214 154.084 521.54 154.593 521.779 155.219C522.018 155.842 522.137 156.598 522.137 157.489V158.166H514.332V156.734H520.264C520.264 156.232 520.162 155.786 519.957 155.398C519.753 155.006 519.465 154.697 519.094 154.472C518.728 154.246 518.297 154.133 517.803 154.133C517.266 154.133 516.797 154.265 516.397 154.529C516.001 154.789 515.694 155.13 515.476 155.552C515.263 155.969 515.157 156.423 515.157 156.913V158.032C515.157 158.688 515.272 159.246 515.502 159.707C515.736 160.167 516.062 160.518 516.48 160.761C516.898 161 517.385 161.119 517.944 161.119C518.306 161.119 518.636 161.068 518.934 160.966C519.233 160.859 519.491 160.702 519.708 160.493C519.925 160.284 520.091 160.026 520.206 159.719L522.015 160.045C521.871 160.578 521.611 161.045 521.236 161.445C520.865 161.842 520.398 162.151 519.836 162.372C519.278 162.589 518.64 162.698 517.925 162.698ZM524.257 162.5V152.682H526.092V154.28H526.213C526.418 153.739 526.752 153.317 527.217 153.014C527.681 152.707 528.238 152.554 528.885 152.554C529.542 152.554 530.091 152.707 530.534 153.014C530.982 153.321 531.312 153.743 531.525 154.28H531.627C531.862 153.756 532.235 153.338 532.746 153.027C533.257 152.712 533.867 152.554 534.574 152.554C535.465 152.554 536.191 152.833 536.754 153.391C537.321 153.95 537.604 154.791 537.604 155.916V162.5H535.693V156.095C535.693 155.43 535.512 154.949 535.15 154.651C534.787 154.352 534.355 154.203 533.852 154.203C533.23 154.203 532.746 154.395 532.401 154.778C532.056 155.158 531.883 155.646 531.883 156.242V162.5H529.978V155.974C529.978 155.441 529.812 155.013 529.48 154.689C529.147 154.365 528.715 154.203 528.182 154.203C527.82 154.203 527.485 154.299 527.179 154.491C526.876 154.678 526.631 154.94 526.444 155.277C526.26 155.614 526.169 156.004 526.169 156.447V162.5H524.257Z" fill="white"/>
<path d="M551 130.5H372C365.925 130.5 361 135.425 361 141.5V169.5C361 175.575 365.925 180.5 372 180.5H551C557.075 180.5 562 175.575 562 169.5V141.5C562 135.425 557.075 130.5 551 130.5Z" stroke="url(#paint4_linear_1023_15433)" stroke-width="2"/>
</g>
<g filter="url(#filter3_b_1023_15433)">
<path d="M549 199H372C365.373 199 360 204.373 360 211V239C360 245.627 365.373 251 372 251H549C555.627 251 561 245.627 561 239V211C561 204.373 555.627 199 549 199Z" fill="#3E3E3E" fill-opacity="0.24"/>
<path d="M414.438 232V218.909H416.413V224.598H422.94V218.909H424.921V232H422.94V226.292H416.413V232H414.438ZM428.852 235.682C428.567 235.682 428.307 235.658 428.072 235.612C427.838 235.569 427.663 235.522 427.548 235.471L428.009 233.905C428.358 233.999 428.669 234.039 428.942 234.026C429.214 234.013 429.455 233.911 429.664 233.719C429.877 233.528 430.065 233.214 430.227 232.78L430.463 232.128L426.871 222.182H428.916L431.403 229.801H431.505L433.991 222.182H436.043L431.997 233.31C431.81 233.822 431.571 234.254 431.281 234.608C430.991 234.966 430.646 235.234 430.246 235.413C429.845 235.592 429.381 235.682 428.852 235.682ZM437.839 235.682V222.182H439.706V223.773H439.866C439.977 223.569 440.136 223.332 440.345 223.064C440.554 222.795 440.844 222.561 441.214 222.361C441.585 222.156 442.075 222.054 442.685 222.054C443.477 222.054 444.185 222.254 444.807 222.655C445.429 223.055 445.917 223.633 446.271 224.387C446.629 225.141 446.808 226.049 446.808 227.11C446.808 228.171 446.631 229.081 446.277 229.839C445.923 230.594 445.438 231.175 444.82 231.585C444.202 231.989 443.496 232.192 442.704 232.192C442.107 232.192 441.619 232.092 441.24 231.891C440.865 231.691 440.571 231.457 440.358 231.188C440.145 230.92 439.981 230.681 439.866 230.472H439.751V235.682H437.839ZM439.712 227.091C439.712 227.781 439.813 228.386 440.013 228.906C440.213 229.426 440.503 229.833 440.882 230.127C441.261 230.417 441.726 230.562 442.276 230.562C442.847 230.562 443.324 230.411 443.707 230.108C444.091 229.801 444.381 229.386 444.577 228.862C444.777 228.337 444.877 227.747 444.877 227.091C444.877 226.443 444.779 225.862 444.583 225.346C444.391 224.83 444.102 224.423 443.714 224.125C443.33 223.827 442.851 223.678 442.276 223.678C441.722 223.678 441.253 223.82 440.869 224.106C440.49 224.391 440.202 224.79 440.006 225.301C439.81 225.812 439.712 226.409 439.712 227.091ZM453.18 232.198C452.213 232.198 451.38 231.991 450.681 231.578C449.987 231.161 449.45 230.575 449.07 229.82C448.695 229.062 448.508 228.173 448.508 227.155C448.508 226.149 448.695 225.263 449.07 224.496C449.45 223.729 449.978 223.13 450.656 222.7C451.337 222.269 452.134 222.054 453.046 222.054C453.6 222.054 454.137 222.146 454.657 222.329C455.177 222.512 455.643 222.8 456.057 223.192C456.47 223.584 456.796 224.093 457.035 224.719C457.273 225.342 457.393 226.098 457.393 226.989V227.666H449.588V226.234H455.52C455.52 225.732 455.418 225.286 455.213 224.898C455.009 224.506 454.721 224.197 454.35 223.972C453.984 223.746 453.553 223.633 453.059 223.633C452.522 223.633 452.053 223.765 451.653 224.029C451.256 224.289 450.95 224.63 450.732 225.052C450.519 225.469 450.413 225.923 450.413 226.413V227.532C450.413 228.188 450.528 228.746 450.758 229.207C450.992 229.667 451.318 230.018 451.736 230.261C452.153 230.5 452.641 230.619 453.2 230.619C453.562 230.619 453.892 230.568 454.19 230.466C454.489 230.359 454.746 230.202 454.964 229.993C455.181 229.784 455.347 229.526 455.462 229.219L457.271 229.545C457.126 230.078 456.866 230.545 456.491 230.945C456.121 231.342 455.654 231.651 455.092 231.872C454.533 232.089 453.896 232.198 453.18 232.198ZM459.513 232V222.182H461.361V223.741H461.463C461.642 223.213 461.957 222.798 462.409 222.495C462.865 222.188 463.381 222.035 463.956 222.035C464.075 222.035 464.216 222.039 464.378 222.048C464.544 222.056 464.674 222.067 464.768 222.08V223.908C464.691 223.886 464.555 223.863 464.358 223.837C464.162 223.808 463.966 223.793 463.77 223.793C463.319 223.793 462.916 223.888 462.562 224.08C462.213 224.268 461.936 224.53 461.731 224.866C461.527 225.199 461.425 225.578 461.425 226.004V232H459.513ZM475.119 222.182L471.559 232H469.514L465.947 222.182H467.999L470.485 229.737H470.588L473.068 222.182H475.119ZM476.916 232V222.182H478.827V232H476.916ZM477.881 220.667C477.548 220.667 477.263 220.556 477.024 220.335C476.79 220.109 476.673 219.84 476.673 219.529C476.673 219.214 476.79 218.945 477.024 218.724C477.263 218.498 477.548 218.385 477.881 218.385C478.213 218.385 478.497 218.498 478.731 218.724C478.97 218.945 479.089 219.214 479.089 219.529C479.089 219.84 478.97 220.109 478.731 220.335C478.497 220.556 478.213 220.667 477.881 220.667ZM488.755 224.579L487.023 224.886C486.951 224.664 486.836 224.453 486.678 224.253C486.525 224.053 486.316 223.888 486.051 223.761C485.787 223.633 485.457 223.569 485.061 223.569C484.52 223.569 484.068 223.69 483.706 223.933C483.343 224.172 483.162 224.481 483.162 224.86C483.162 225.188 483.284 225.452 483.527 225.653C483.77 225.853 484.162 226.017 484.703 226.145L486.262 226.503C487.166 226.712 487.839 227.033 488.282 227.468C488.725 227.903 488.947 228.467 488.947 229.162C488.947 229.75 488.777 230.274 488.436 230.734C488.099 231.19 487.628 231.548 487.023 231.808C486.422 232.068 485.725 232.198 484.933 232.198C483.833 232.198 482.936 231.964 482.242 231.495C481.547 231.022 481.121 230.351 480.963 229.482L482.811 229.2C482.926 229.682 483.162 230.046 483.52 230.293C483.878 230.536 484.345 230.658 484.92 230.658C485.547 230.658 486.047 230.528 486.422 230.268C486.797 230.004 486.985 229.682 486.985 229.303C486.985 228.996 486.87 228.738 486.64 228.529C486.414 228.32 486.066 228.163 485.598 228.056L483.936 227.692C483.02 227.483 482.342 227.151 481.903 226.695C481.468 226.239 481.251 225.661 481.251 224.962C481.251 224.383 481.413 223.876 481.737 223.441C482.061 223.006 482.508 222.668 483.079 222.425C483.65 222.178 484.304 222.054 485.042 222.054C486.103 222.054 486.938 222.284 487.547 222.744C488.157 223.2 488.559 223.812 488.755 224.579ZM495.184 232.198C494.264 232.198 493.46 231.987 492.774 231.565C492.088 231.143 491.556 230.553 491.176 229.795C490.797 229.036 490.607 228.15 490.607 227.136C490.607 226.117 490.797 225.227 491.176 224.464C491.556 223.701 492.088 223.109 492.774 222.687C493.46 222.265 494.264 222.054 495.184 222.054C496.105 222.054 496.908 222.265 497.594 222.687C498.28 223.109 498.813 223.701 499.192 224.464C499.571 225.227 499.761 226.117 499.761 227.136C499.761 228.15 499.571 229.036 499.192 229.795C498.813 230.553 498.28 231.143 497.594 231.565C496.908 231.987 496.105 232.198 495.184 232.198ZM495.191 230.594C495.787 230.594 496.281 230.436 496.673 230.121C497.066 229.805 497.355 229.386 497.543 228.862C497.735 228.337 497.83 227.76 497.83 227.129C497.83 226.503 497.735 225.928 497.543 225.403C497.355 224.875 497.066 224.451 496.673 224.131C496.281 223.812 495.787 223.652 495.191 223.652C494.59 223.652 494.091 223.812 493.695 224.131C493.303 224.451 493.011 224.875 492.819 225.403C492.632 225.928 492.538 226.503 492.538 227.129C492.538 227.76 492.632 228.337 492.819 228.862C493.011 229.386 493.303 229.805 493.695 230.121C494.091 230.436 494.59 230.594 495.191 230.594ZM501.894 232V222.182H503.741V223.741H503.844C504.023 223.213 504.338 222.798 504.79 222.495C505.246 222.188 505.761 222.035 506.337 222.035C506.456 222.035 506.597 222.039 506.759 222.048C506.925 222.056 507.055 222.067 507.148 222.08V223.908C507.072 223.886 506.935 223.863 506.739 223.837C506.543 223.808 506.347 223.793 506.151 223.793C505.7 223.793 505.297 223.888 504.943 224.08C504.594 224.268 504.317 224.53 504.112 224.866C503.908 225.199 503.805 225.578 503.805 226.004V232H501.894Z" fill="white"/>
<path d="M549 200H372C365.925 200 361 204.925 361 211V239C361 245.075 365.925 250 372 250H549C555.075 250 560 245.075 560 239V211C560 204.925 555.075 200 549 200Z" stroke="url(#paint5_linear_1023_15433)" stroke-width="2"/>
</g>
<g filter="url(#filter4_b_1023_15433)">
<path d="M549 267.5H372C365.373 267.5 360 272.873 360 279.5V307.5C360 314.127 365.373 319.5 372 319.5H549C555.627 319.5 561 314.127 561 307.5V279.5C561 272.873 555.627 267.5 549 267.5Z" fill="#3E3E3E" fill-opacity="0.24"/>
<path d="M409.811 291.666H407.817C407.74 291.24 407.597 290.865 407.388 290.541C407.18 290.217 406.924 289.942 406.621 289.717C406.319 289.491 405.98 289.32 405.605 289.205C405.234 289.09 404.84 289.033 404.423 289.033C403.668 289.033 402.993 289.222 402.396 289.602C401.804 289.981 401.335 290.537 400.99 291.27C400.649 292.003 400.479 292.898 400.479 293.955C400.479 295.02 400.649 295.919 400.99 296.652C401.335 297.385 401.806 297.939 402.403 298.314C402.999 298.689 403.67 298.876 404.416 298.876C404.83 298.876 405.222 298.821 405.592 298.71C405.967 298.595 406.306 298.427 406.609 298.205C406.911 297.984 407.167 297.713 407.376 297.393C407.589 297.07 407.736 296.699 407.817 296.281L409.811 296.288C409.705 296.931 409.498 297.523 409.191 298.065C408.888 298.602 408.499 299.066 408.021 299.458C407.548 299.846 407.007 300.146 406.398 300.359C405.788 300.572 405.124 300.679 404.403 300.679C403.27 300.679 402.26 300.411 401.374 299.874C400.487 299.332 399.788 298.559 399.277 297.553C398.77 296.548 398.516 295.348 398.516 293.955C398.516 292.557 398.772 291.357 399.283 290.356C399.795 289.35 400.494 288.579 401.38 288.042C402.266 287.501 403.274 287.23 404.403 287.23C405.098 287.23 405.746 287.33 406.347 287.531C406.952 287.727 407.495 288.016 407.977 288.4C408.458 288.779 408.857 289.244 409.172 289.793C409.487 290.339 409.7 290.963 409.811 291.666ZM412.175 300.5V287.409H416.841C417.859 287.409 418.703 287.594 419.372 287.965C420.041 288.336 420.542 288.843 420.874 289.487C421.206 290.126 421.373 290.846 421.373 291.647C421.373 292.452 421.204 293.177 420.868 293.82C420.535 294.46 420.032 294.967 419.359 295.342C418.69 295.712 417.849 295.898 416.834 295.898H413.626V294.223H416.655C417.299 294.223 417.821 294.112 418.221 293.891C418.622 293.665 418.916 293.358 419.104 292.97C419.291 292.582 419.385 292.141 419.385 291.647C419.385 291.153 419.291 290.714 419.104 290.33C418.916 289.947 418.62 289.646 418.215 289.429C417.814 289.212 417.286 289.103 416.63 289.103H414.15V300.5H412.175ZM432.107 287.409H434.088V296.019C434.088 296.935 433.873 297.747 433.442 298.455C433.012 299.158 432.407 299.712 431.627 300.116C430.847 300.517 429.933 300.717 428.885 300.717C427.841 300.717 426.929 300.517 426.149 300.116C425.369 299.712 424.764 299.158 424.334 298.455C423.903 297.747 423.688 296.935 423.688 296.019V287.409H425.663V295.859C425.663 296.452 425.793 296.978 426.053 297.438C426.317 297.898 426.69 298.261 427.172 298.525C427.653 298.785 428.224 298.915 428.885 298.915C429.55 298.915 430.123 298.785 430.604 298.525C431.09 298.261 431.461 297.898 431.717 297.438C431.977 296.978 432.107 296.452 432.107 295.859V287.409ZM446.556 286.795L442.337 302.469H440.63L444.849 286.795H446.556ZM453.096 287.409H455.493L459.661 297.585H459.814L463.982 287.409H466.379V300.5H464.5V291.027H464.378L460.518 300.481H458.958L455.097 291.021H454.976V300.5H453.096V287.409ZM473.329 300.698C472.362 300.698 471.528 300.491 470.83 300.078C470.135 299.661 469.598 299.075 469.219 298.32C468.844 297.562 468.656 296.673 468.656 295.655C468.656 294.649 468.844 293.763 469.219 292.996C469.598 292.229 470.126 291.63 470.804 291.2C471.486 290.769 472.283 290.554 473.195 290.554C473.749 290.554 474.286 290.646 474.805 290.829C475.325 291.012 475.792 291.3 476.205 291.692C476.619 292.084 476.945 292.593 477.183 293.219C477.422 293.842 477.541 294.598 477.541 295.489V296.166H469.737V294.734H475.668C475.668 294.232 475.566 293.786 475.362 293.398C475.157 293.006 474.869 292.697 474.499 292.472C474.132 292.246 473.702 292.133 473.207 292.133C472.67 292.133 472.202 292.265 471.801 292.529C471.405 292.789 471.098 293.13 470.881 293.552C470.668 293.969 470.561 294.423 470.561 294.913V296.032C470.561 296.688 470.676 297.246 470.906 297.707C471.141 298.167 471.467 298.518 471.884 298.761C472.302 299 472.79 299.119 473.348 299.119C473.71 299.119 474.04 299.068 474.339 298.966C474.637 298.859 474.895 298.702 475.112 298.493C475.33 298.284 475.496 298.026 475.611 297.719L477.42 298.045C477.275 298.578 477.015 299.045 476.64 299.445C476.269 299.842 475.803 300.151 475.24 300.372C474.682 300.589 474.045 300.698 473.329 300.698ZM479.662 300.5V290.682H481.496V292.28H481.618C481.822 291.739 482.157 291.317 482.621 291.014C483.086 290.707 483.642 290.554 484.29 290.554C484.946 290.554 485.496 290.707 485.939 291.014C486.386 291.321 486.716 291.743 486.93 292.28H487.032C487.266 291.756 487.639 291.338 488.15 291.027C488.662 290.712 489.271 290.554 489.979 290.554C490.869 290.554 491.596 290.833 492.158 291.391C492.725 291.95 493.008 292.791 493.008 293.916V300.5H491.097V294.095C491.097 293.43 490.916 292.949 490.554 292.651C490.192 292.352 489.759 292.203 489.256 292.203C488.634 292.203 488.15 292.395 487.805 292.778C487.46 293.158 487.287 293.646 487.287 294.242V300.5H485.383V293.974C485.383 293.441 485.216 293.013 484.884 292.689C484.552 292.365 484.119 292.203 483.586 292.203C483.224 292.203 482.89 292.299 482.583 292.491C482.28 292.678 482.035 292.94 481.848 293.277C481.665 293.614 481.573 294.004 481.573 294.447V300.5H479.662ZM499.706 300.698C498.785 300.698 497.982 300.487 497.296 300.065C496.61 299.643 496.077 299.053 495.698 298.295C495.319 297.536 495.129 296.65 495.129 295.636C495.129 294.617 495.319 293.727 495.698 292.964C496.077 292.201 496.61 291.609 497.296 291.187C497.982 290.765 498.785 290.554 499.706 290.554C500.626 290.554 501.429 290.765 502.115 291.187C502.801 291.609 503.334 292.201 503.713 292.964C504.093 293.727 504.282 294.617 504.282 295.636C504.282 296.65 504.093 297.536 503.713 298.295C503.334 299.053 502.801 299.643 502.115 300.065C501.429 300.487 500.626 300.698 499.706 300.698ZM499.712 299.094C500.309 299.094 500.803 298.936 501.195 298.621C501.587 298.305 501.877 297.886 502.064 297.362C502.256 296.837 502.352 296.26 502.352 295.629C502.352 295.003 502.256 294.428 502.064 293.903C501.877 293.375 501.587 292.951 501.195 292.631C500.803 292.312 500.309 292.152 499.712 292.152C499.111 292.152 498.613 292.312 498.216 292.631C497.824 292.951 497.532 293.375 497.341 293.903C497.153 294.428 497.059 295.003 497.059 295.629C497.059 296.26 497.153 296.837 497.341 297.362C497.532 297.886 497.824 298.305 498.216 298.621C498.613 298.936 499.111 299.094 499.712 299.094ZM506.416 300.5V290.682H508.263V292.241H508.365C508.544 291.713 508.86 291.298 509.311 290.995C509.767 290.688 510.283 290.535 510.858 290.535C510.977 290.535 511.118 290.539 511.28 290.548C511.446 290.556 511.576 290.567 511.67 290.58V292.408C511.593 292.386 511.457 292.363 511.261 292.337C511.065 292.308 510.869 292.293 510.673 292.293C510.221 292.293 509.818 292.388 509.465 292.58C509.115 292.768 508.838 293.03 508.634 293.366C508.429 293.699 508.327 294.078 508.327 294.504V300.5H506.416ZM514.831 304.182C514.545 304.182 514.285 304.158 514.051 304.112C513.817 304.069 513.642 304.022 513.527 303.971L513.987 302.405C514.336 302.499 514.648 302.539 514.92 302.526C515.193 302.513 515.434 302.411 515.643 302.219C515.856 302.028 516.043 301.714 516.205 301.28L516.442 300.628L512.849 290.682H514.895L517.381 298.301H517.483L519.97 290.682H522.022L517.976 301.81C517.788 302.322 517.55 302.754 517.26 303.108C516.97 303.466 516.625 303.734 516.224 303.913C515.824 304.092 515.359 304.182 514.831 304.182Z" fill="white"/>
<path d="M549 268.5H372C365.925 268.5 361 273.425 361 279.5V307.5C361 313.575 365.925 318.5 372 318.5H549C555.075 318.5 560 313.575 560 307.5V279.5C560 273.425 555.075 268.5 549 268.5Z" stroke="url(#paint6_linear_1023_15433)" stroke-width="2"/>
</g>
<path d="M173 198.5H108C101.373 198.5 96 203.873 96 210.5V238.5C96 245.127 101.373 250.5 108 250.5H173C179.627 250.5 185 245.127 185 238.5V210.5C185 203.873 179.627 198.5 173 198.5Z" fill="#3E3E3E" fill-opacity="0.24"/>
<path d="M125.676 231.5H121.438V218.409H125.81C127.093 218.409 128.195 218.671 129.115 219.195C130.036 219.715 130.741 220.463 131.231 221.439C131.725 222.411 131.972 223.576 131.972 224.935C131.972 226.299 131.723 227.471 131.224 228.451C130.73 229.431 130.014 230.185 129.077 230.714C128.139 231.238 127.006 231.5 125.676 231.5ZM123.413 229.774H125.567C126.565 229.774 127.393 229.587 128.054 229.212C128.714 228.832 129.209 228.285 129.537 227.569C129.865 226.849 130.029 225.971 130.029 224.935C130.029 223.908 129.865 223.037 129.537 222.321C129.213 221.605 128.729 221.062 128.086 220.691C127.442 220.32 126.643 220.135 125.689 220.135H123.413V229.774ZM137.132 231.717C136.51 231.717 135.948 231.602 135.445 231.372C134.942 231.138 134.544 230.799 134.249 230.356C133.96 229.913 133.815 229.369 133.815 228.726C133.815 228.172 133.921 227.716 134.134 227.358C134.347 227 134.635 226.717 134.997 226.508C135.36 226.299 135.764 226.141 136.212 226.035C136.659 225.928 137.115 225.847 137.58 225.792C138.168 225.724 138.645 225.668 139.012 225.626C139.378 225.579 139.644 225.504 139.811 225.402C139.977 225.3 140.06 225.134 140.06 224.903V224.859C140.06 224.3 139.902 223.868 139.587 223.561C139.276 223.254 138.811 223.101 138.193 223.101C137.55 223.101 137.043 223.244 136.672 223.529C136.306 223.81 136.052 224.124 135.911 224.469L134.115 224.06C134.328 223.463 134.639 222.982 135.048 222.615C135.462 222.244 135.937 221.976 136.474 221.81C137.011 221.639 137.575 221.554 138.168 221.554C138.56 221.554 138.975 221.601 139.414 221.695C139.857 221.784 140.271 221.95 140.654 222.193C141.042 222.436 141.36 222.783 141.607 223.235C141.854 223.683 141.977 224.264 141.977 224.98V231.5H140.111V230.158H140.034C139.911 230.405 139.725 230.648 139.478 230.886C139.231 231.125 138.914 231.323 138.526 231.481C138.138 231.638 137.673 231.717 137.132 231.717ZM137.548 230.183C138.076 230.183 138.528 230.079 138.903 229.87C139.282 229.661 139.57 229.388 139.766 229.052C139.966 228.711 140.066 228.347 140.066 227.959V226.693C139.998 226.761 139.866 226.825 139.67 226.885C139.478 226.94 139.259 226.989 139.012 227.032C138.764 227.07 138.524 227.107 138.289 227.141C138.055 227.17 137.859 227.196 137.701 227.217C137.33 227.264 136.992 227.343 136.685 227.454C136.382 227.565 136.139 227.724 135.956 227.933C135.777 228.138 135.688 228.411 135.688 228.751C135.688 229.224 135.862 229.582 136.212 229.825C136.561 230.064 137.007 230.183 137.548 230.183ZM149.106 221.682V223.216H143.743V221.682H149.106ZM145.181 219.33H147.093V228.617C147.093 228.988 147.148 229.267 147.259 229.455C147.37 229.638 147.512 229.763 147.687 229.832C147.866 229.896 148.06 229.928 148.269 229.928C148.422 229.928 148.556 229.917 148.672 229.896C148.787 229.874 148.876 229.857 148.94 229.844L149.285 231.423C149.174 231.466 149.017 231.509 148.812 231.551C148.608 231.598 148.352 231.624 148.045 231.628C147.542 231.636 147.074 231.547 146.639 231.359C146.204 231.172 145.853 230.882 145.584 230.49C145.316 230.098 145.181 229.606 145.181 229.013V219.33ZM154.078 231.717C153.455 231.717 152.893 231.602 152.39 231.372C151.887 231.138 151.489 230.799 151.195 230.356C150.905 229.913 150.76 229.369 150.76 228.726C150.76 228.172 150.867 227.716 151.08 227.358C151.293 227 151.58 226.717 151.943 226.508C152.305 226.299 152.71 226.141 153.157 226.035C153.605 225.928 154.061 225.847 154.525 225.792C155.113 225.724 155.59 225.668 155.957 225.626C156.323 225.579 156.59 225.504 156.756 225.402C156.922 225.3 157.005 225.134 157.005 224.903V224.859C157.005 224.3 156.847 223.868 156.532 223.561C156.221 223.254 155.757 223.101 155.139 223.101C154.495 223.101 153.988 223.244 153.617 223.529C153.251 223.81 152.997 224.124 152.857 224.469L151.061 224.06C151.274 223.463 151.585 222.982 151.994 222.615C152.407 222.244 152.882 221.976 153.419 221.81C153.956 221.639 154.521 221.554 155.113 221.554C155.505 221.554 155.921 221.601 156.36 221.695C156.803 221.784 157.216 221.95 157.6 222.193C157.987 222.436 158.305 222.783 158.552 223.235C158.799 223.683 158.923 224.264 158.923 224.98V231.5H157.056V230.158H156.98C156.856 230.405 156.671 230.648 156.423 230.886C156.176 231.125 155.859 231.323 155.471 231.481C155.083 231.638 154.619 231.717 154.078 231.717ZM154.493 230.183C155.021 230.183 155.473 230.079 155.848 229.87C156.227 229.661 156.515 229.388 156.711 229.052C156.911 228.711 157.012 228.347 157.012 227.959V226.693C156.943 226.761 156.811 226.825 156.615 226.885C156.423 226.94 156.204 226.989 155.957 227.032C155.71 227.07 155.469 227.107 155.235 227.141C155 227.17 154.804 227.196 154.646 227.217C154.276 227.264 153.937 227.343 153.63 227.454C153.328 227.565 153.085 227.724 152.901 227.933C152.722 228.138 152.633 228.411 152.633 228.751C152.633 229.224 152.808 229.582 153.157 229.825C153.507 230.064 153.952 230.183 154.493 230.183Z" fill="white"/>
<path d="M173 199.5H108C101.925 199.5 97 204.425 97 210.5V238.5C97 244.575 101.925 249.5 108 249.5H173C179.075 249.5 184 244.575 184 238.5V210.5C184 204.425 179.075 199.5 173 199.5Z" stroke="url(#paint7_linear_1023_15433)" stroke-width="2"/>
<path d="M140.646 125.354C140.842 125.549 141.158 125.549 141.354 125.354L144.536 122.172C144.731 121.976 144.731 121.66 144.536 121.464C144.34 121.269 144.024 121.269 143.828 121.464L141 124.293L138.172 121.464C137.976 121.269 137.66 121.269 137.464 121.464C137.269 121.66 137.269 121.976 137.464 122.172L140.646 125.354ZM387.5 62V49H386.5V62H387.5ZM339 0.5H189V1.5H339V0.5ZM140.5 49V125H141.5V49H140.5ZM189 0.5C177.7 0.5 169.175 0.498996 162.599 1.383C156.008 2.269 151.299 4.05299 147.676 7.67599L148.383 8.383C151.789 4.977 156.252 3.24499 162.732 2.37399C169.227 1.50099 177.672 1.5 189 1.5V0.5ZM141.5 49C141.5 37.672 141.501 29.227 142.374 22.732C143.245 16.252 144.977 11.789 148.383 8.383L147.676 7.67599C144.053 11.299 142.269 16.008 141.383 22.599C140.499 29.175 140.5 37.7 140.5 49H141.5ZM387.5 49C387.5 37.7 387.501 29.175 386.617 22.599C385.731 16.008 383.947 11.299 380.324 7.67599L379.617 8.383C383.023 11.789 384.755 16.252 385.626 22.732C386.499 29.227 386.5 37.672 386.5 49H387.5ZM339 1.5C350.328 1.5 358.773 1.50099 365.268 2.37399C371.748 3.24499 376.211 4.977 379.617 8.383L380.324 7.67599C376.701 4.05299 371.992 2.269 365.401 1.383C358.825 0.498996 350.3 0.5 339 0.5V1.5Z" fill="black"/>
<path d="M140.646 125.354C140.842 125.549 141.158 125.549 141.354 125.354L144.536 122.172C144.731 121.976 144.731 121.66 144.536 121.464C144.34 121.269 144.024 121.269 143.828 121.464L141 124.293L138.172 121.464C137.976 121.269 137.66 121.269 137.464 121.464C137.269 121.66 137.269 121.976 137.464 122.172L140.646 125.354ZM387.5 62V49H386.5V62H387.5ZM339 0.5H189V1.5H339V0.5ZM140.5 49V125H141.5V49H140.5ZM189 0.5C177.7 0.5 169.175 0.498996 162.599 1.383C156.008 2.269 151.299 4.05299 147.676 7.67599L148.383 8.383C151.789 4.977 156.252 3.24499 162.732 2.37399C169.227 1.50099 177.672 1.5 189 1.5V0.5ZM141.5 49C141.5 37.672 141.501 29.227 142.374 22.732C143.245 16.252 144.977 11.789 148.383 8.383L147.676 7.67599C144.053 11.299 142.269 16.008 141.383 22.599C140.499 29.175 140.5 37.7 140.5 49H141.5ZM387.5 49C387.5 37.7 387.501 29.175 386.617 22.599C385.731 16.008 383.947 11.299 380.324 7.67599L379.617 8.383C383.023 11.789 384.755 16.252 385.626 22.732C386.499 29.227 386.5 37.672 386.5 49H387.5ZM339 1.5C350.328 1.5 358.773 1.50099 365.268 2.37399C371.748 3.24499 376.211 4.977 379.617 8.383L380.324 7.67599C376.701 4.05299 371.992 2.269 365.401 1.383C358.825 0.498996 350.3 0.5 339 0.5V1.5Z" fill="url(#paint8_linear_1023_15433)"/>
<path d="M437.354 321.646C437.158 321.451 436.842 321.451 436.646 321.646L433.464 324.828C433.269 325.024 433.269 325.34 433.464 325.536C433.66 325.731 433.976 325.731 434.172 325.536L437 322.707L439.828 325.536C440.024 325.731 440.34 325.731 440.536 325.536C440.731 325.34 440.731 325.024 440.536 324.828L437.354 321.646ZM140.5 253V357H141.5V253H140.5ZM189 405.5H389V404.5H189V405.5ZM437.5 357V322H436.5V357H437.5ZM389 405.5C400.3 405.5 408.825 405.501 415.401 404.617C421.992 403.731 426.701 401.947 430.324 398.324L429.617 397.617C426.211 401.023 421.748 402.755 415.268 403.626C408.773 404.499 400.328 404.5 389 404.5V405.5ZM436.5 357C436.5 368.328 436.499 376.773 435.626 383.268C434.755 389.748 433.023 394.211 429.617 397.617L430.324 398.324C433.947 394.701 435.731 389.992 436.617 383.401C437.501 376.825 437.5 368.3 437.5 357H436.5ZM140.5 357C140.5 368.3 140.499 376.825 141.383 383.401C142.269 389.992 144.053 394.701 147.676 398.324L148.383 397.617C144.977 394.211 143.245 389.748 142.374 383.268C141.501 376.773 141.5 368.328 141.5 357H140.5ZM189 404.5C177.672 404.5 169.227 404.499 162.732 403.626C156.252 402.755 151.789 401.023 148.383 397.617L147.676 398.324C151.299 401.947 156.008 403.731 162.599 404.617C169.175 405.501 177.7 405.5 189 405.5V404.5Z" fill="black"/>
<path d="M437.354 321.646C437.158 321.451 436.842 321.451 436.646 321.646L433.464 324.828C433.269 325.024 433.269 325.34 433.464 325.536C433.66 325.731 433.976 325.731 434.172 325.536L437 322.707L439.828 325.536C440.024 325.731 440.34 325.731 440.536 325.536C440.731 325.34 440.731 325.024 440.536 324.828L437.354 321.646ZM140.5 253V357H141.5V253H140.5ZM189 405.5H389V404.5H189V405.5ZM437.5 357V322H436.5V357H437.5ZM389 405.5C400.3 405.5 408.825 405.501 415.401 404.617C421.992 403.731 426.701 401.947 430.324 398.324L429.617 397.617C426.211 401.023 421.748 402.755 415.268 403.626C408.773 404.499 400.328 404.5 389 404.5V405.5ZM436.5 357C436.5 368.328 436.499 376.773 435.626 383.268C434.755 389.748 433.023 394.211 429.617 397.617L430.324 398.324C433.947 394.701 435.731 389.992 436.617 383.401C437.501 376.825 437.5 368.3 437.5 357H436.5ZM140.5 357C140.5 368.3 140.499 376.825 141.383 383.401C142.269 389.992 144.053 394.701 147.676 398.324L148.383 397.617C144.977 394.211 143.245 389.748 142.374 383.268C141.501 376.773 141.5 368.328 141.5 357H140.5ZM189 404.5C177.672 404.5 169.227 404.499 162.732 403.626C156.252 402.755 151.789 401.023 148.383 397.617L147.676 398.324C151.299 401.947 156.008 403.731 162.599 404.617C169.175 405.501 177.7 405.5 189 405.5V404.5Z" fill="url(#paint9_linear_1023_15433)"/>
<g filter="url(#filter5_d_1023_15433)">
<path d="M72.9998 101.959C68.6678 104.459 63.3318 104.459 58.9998 101.959L40.0908 91.041C35.7588 88.541 33.0908 83.919 33.0908 78.917V57.083C33.0908 52.081 35.7588 47.459 40.0908 44.959L58.9998 34.041C63.3318 31.541 68.6678 31.541 72.9998 34.041L91.9088 44.959C96.2408 47.459 98.9088 52.081 98.9088 57.083V78.917C98.9088 83.919 96.2408 88.541 91.9088 91.041L72.9998 101.959Z" fill="#3E3E3E" fill-opacity="0.01"/>
<path d="M59.2498 101.526L40.3408 90.608C36.1638 88.197 33.5908 83.74 33.5908 78.917V57.083C33.5908 52.26 36.1638 47.803 40.3408 45.392L59.2498 34.474C63.4268 32.063 68.5728 32.063 72.7498 34.474L91.6588 45.392C95.8358 47.803 98.4088 52.26 98.4088 57.083V78.917C98.4088 83.74 95.8358 88.197 91.6588 90.608L72.7498 101.526C68.5728 103.937 63.4268 103.937 59.2498 101.526Z" stroke="url(#paint10_linear_1023_15433)"/>
</g>
<path d="M65.999 72C67.38 72 68.499 70.881 68.499 69.5C68.499 68.119 67.38 67 65.999 67C64.619 67 63.499 68.119 63.499 69.5C63.499 70.881 64.619 72 65.999 72Z" stroke="#9928FE" stroke-width="2" stroke-linecap="round" stroke-linejoin="round"/>
<path d="M65.999 72V75" stroke="#9928FE" stroke-width="2" stroke-linecap="round" stroke-linejoin="round"/>
<path d="M75.999 63H55.999C55.447 63 54.999 63.448 54.999 64V78C54.999 78.552 55.447 79 55.999 79H75.999C76.552 79 76.999 78.552 76.999 78V64C76.999 63.448 76.552 63 75.999 63Z" stroke="#9928FE" stroke-width="2" stroke-linecap="round" stroke-linejoin="round"/>
<path d="M61.499 63V58.5C61.499 57.307 61.973 56.162 62.817 55.318C63.661 54.474 64.806 54 65.999 54C67.193 54 68.337 54.474 69.181 55.318C70.025 56.162 70.499 57.307 70.499 58.5V63" stroke="#9928FE" stroke-width="2" stroke-linecap="round" stroke-linejoin="round"/>
</g>
<defs>
<filter id="filter0_b_1023_15433" x="342" y="40.5" width="123" height="92" filterUnits="userSpaceOnUse" color-interpolation-filters="sRGB">
<feFlood flood-opacity="0" result="BackgroundImageFix"/>
<feGaussianBlur in="BackgroundImageFix" stdDeviation="10"/>
<feComposite in2="SourceAlpha" operator="in" result="effect1_backgroundBlur_1023_15433"/>
<feBlend mode="normal" in="SourceGraphic" in2="effect1_backgroundBlur_1023_15433" result="shape"/>
</filter>
<filter id="filter1_b_1023_15433" x="462" y="40.5" width="123" height="92" filterUnits="userSpaceOnUse" color-interpolation-filters="sRGB">
<feFlood flood-opacity="0" result="BackgroundImageFix"/>
<feGaussianBlur in="BackgroundImageFix" stdDeviation="10"/>
<feComposite in2="SourceAlpha" operator="in" result="effect1_backgroundBlur_1023_15433"/>
<feBlend mode="normal" in="SourceGraphic" in2="effect1_backgroundBlur_1023_15433" result="shape"/>
</filter>
<filter id="filter2_b_1023_15433" x="340" y="109.5" width="243" height="92" filterUnits="userSpaceOnUse" color-interpolation-filters="sRGB">
<feFlood flood-opacity="0" result="BackgroundImageFix"/>
<feGaussianBlur in="BackgroundImageFix" stdDeviation="10"/>
<feComposite in2="SourceAlpha" operator="in" result="effect1_backgroundBlur_1023_15433"/>
<feBlend mode="normal" in="SourceGraphic" in2="effect1_backgroundBlur_1023_15433" result="shape"/>
</filter>
<filter id="filter3_b_1023_15433" x="340" y="179" width="241" height="92" filterUnits="userSpaceOnUse" color-interpolation-filters="sRGB">
<feFlood flood-opacity="0" result="BackgroundImageFix"/>
<feGaussianBlur in="BackgroundImageFix" stdDeviation="10"/>
<feComposite in2="SourceAlpha" operator="in" result="effect1_backgroundBlur_1023_15433"/>
<feBlend mode="normal" in="SourceGraphic" in2="effect1_backgroundBlur_1023_15433" result="shape"/>
</filter>
<filter id="filter4_b_1023_15433" x="340" y="247.5" width="241" height="92" filterUnits="userSpaceOnUse" color-interpolation-filters="sRGB">
<feFlood flood-opacity="0" result="BackgroundImageFix"/>
<feGaussianBlur in="BackgroundImageFix" stdDeviation="10"/>
<feComposite in2="SourceAlpha" operator="in" result="effect1_backgroundBlur_1023_15433"/>
<feBlend mode="normal" in="SourceGraphic" in2="effect1_backgroundBlur_1023_15433" result="shape"/>
</filter>
<filter id="filter5_d_1023_15433" x="-216.909" y="-213.834" width="565.818" height="571.668" filterUnits="userSpaceOnUse" color-interpolation-filters="sRGB">
<feFlood flood-opacity="0" result="BackgroundImageFix"/>
<feColorMatrix in="SourceAlpha" type="matrix" values="0 0 0 0 0 0 0 0 0 0 0 0 0 0 0 0 0 0 127 0" result="hardAlpha"/>
<feOffset dy="4"/>
<feGaussianBlur stdDeviation="125"/>
<feComposite in2="hardAlpha" operator="out"/>
<feColorMatrix type="matrix" values="0 0 0 0 0.6 0 0 0 0 0.156863 0 0 0 0 0.996078 0 0 0 0.6 0"/>
<feBlend mode="normal" in2="BackgroundImageFix" result="effect1_dropShadow_1023_15433"/>
<feBlend mode="normal" in="SourceGraphic" in2="effect1_dropShadow_1023_15433" result="shape"/>
</filter>
<linearGradient id="paint0_linear_1023_15433" x1="395.198" y1="363.782" x2="-49.9428" y2="22.3786" gradientUnits="userSpaceOnUse">
<stop stop-color="#9A74DB"/>
<stop offset="1" stop-color="#9A74DB" stop-opacity="0"/>
</linearGradient>
<linearGradient id="paint1_linear_1023_15433" x1="-59.213" y1="158.948" x2="70.187" y2="297.506" gradientUnits="userSpaceOnUse">
<stop stop-color="#9A74DB"/>
<stop offset="1" stop-color="#9A74DB" stop-opacity="0"/>
</linearGradient>
<linearGradient id="paint2_linear_1023_15433" x1="226.717" y1="89.948" x2="356.215" y2="212.385" gradientUnits="userSpaceOnUse">
<stop stop-color="#9A74DB"/>
<stop offset="1" stop-color="#9A74DB" stop-opacity="0"/>
</linearGradient>
<linearGradient id="paint3_linear_1023_15433" x1="346.717" y1="89.948" x2="476.215" y2="212.385" gradientUnits="userSpaceOnUse">
<stop stop-color="#9A74DB"/>
<stop offset="1" stop-color="#9A74DB" stop-opacity="0"/>
</linearGradient>
<linearGradient id="paint4_linear_1023_15433" x1="29.126" y1="158.948" x2="123.631" y2="377.483" gradientUnits="userSpaceOnUse">
<stop stop-color="#9A74DB"/>
<stop offset="1" stop-color="#9A74DB" stop-opacity="0"/>
</linearGradient>
<linearGradient id="paint5_linear_1023_15433" x1="32.386" y1="228.448" x2="127.531" y2="446.297" gradientUnits="userSpaceOnUse">
<stop stop-color="#9A74DB"/>
<stop offset="1" stop-color="#9A74DB" stop-opacity="0"/>
</linearGradient>
<linearGradient id="paint6_linear_1023_15433" x1="32.386" y1="296.948" x2="127.531" y2="514.797" gradientUnits="userSpaceOnUse">
<stop stop-color="#9A74DB"/>
<stop offset="1" stop-color="#9A74DB" stop-opacity="0"/>
</linearGradient>
<linearGradient id="paint7_linear_1023_15433" x1="-49.063" y1="227.948" x2="80.627" y2="359.43" gradientUnits="userSpaceOnUse">
<stop stop-color="#9A74DB"/>
<stop offset="1" stop-color="#9A74DB" stop-opacity="0"/>
</linearGradient>
<linearGradient id="paint8_linear_1023_15433" x1="1986" y1="116.278" x2="1986" y2="0.980002" gradientUnits="userSpaceOnUse">
<stop offset="0.0001" stop-color="#8B69CA"/>
<stop offset="0.416667" stop-color="#9A74DB"/>
<stop offset="0.84375" stop-color="#9872D8"/>
</linearGradient>
<linearGradient id="paint9_linear_1023_15433" x1="-1458" y1="289.722" x2="-1458" y2="405.02" gradientUnits="userSpaceOnUse">
<stop offset="0.0001" stop-color="#30DAFF"/>
<stop offset="0.416667" stop-color="#30DAFF"/>
<stop offset="0.84375" stop-color="#30DAFF"/>
</linearGradient>
<linearGradient id="paint10_linear_1023_15433" x1="227.874" y1="62.961" x2="61.6288" y2="-35.513" gradientUnits="userSpaceOnUse">
<stop stop-color="#9A74DB"/>
<stop offset="1" stop-color="#9A74DB" stop-opacity="0"/>
</linearGradient>
<clipPath id="clip0_1023_15433">
<rect width="565" height="406" fill="white"/>
</clipPath>
</defs>
</svg>
