<svg width="1159" height="1072" viewBox="0 0 1159 1072" fill="none" xmlns="http://www.w3.org/2000/svg">
	<path d="M894.135 750.246C1039.73 750.246 1157.76 632.218 1157.76 486.623C1157.76 341.028 1039.73 223 894.135 223C748.54 223 630.512 341.028 630.512 486.623C630.512 632.218 748.54 750.246 894.135 750.246Z" stroke="black" stroke-linecap="round" />
	<path d="M894.135 750.246C1039.73 750.246 1157.76 632.218 1157.76 486.623C1157.76 341.028 1039.73 223 894.135 223C748.54 223 630.512 341.028 630.512 486.623C630.512 632.218 748.54 750.246 894.135 750.246Z" stroke="url(#paint0_linear_597_10203)" stroke-linecap="round" />
	<path d="M542.697 486.273H599.529M542.58 473.929C562.735 473.929 566.271 486.207 588.548 486.207H630.626M542.697 464.643C563.428 464.643 570.934 485.919 601.316 485.919H630.626M542.58 453.008C571.059 453.008 575.687 485.852 601.674 485.852M542.58 498.618C562.735 498.618 566.271 486.34 588.548 486.34H630.626M542.697 507.904C563.428 507.904 570.934 486.628 601.316 486.628H630.626M542.58 519.539C571.059 519.539 575.687 486.695 601.674 486.695" stroke="black" stroke-linecap="round" />
	<path d="M542.697 486.273H599.529M542.58 473.929C562.735 473.929 566.271 486.207 588.548 486.207H630.626M542.697 464.643C563.428 464.643 570.934 485.919 601.316 485.919H630.626M542.58 453.008C571.059 453.008 575.687 485.852 601.674 485.852M542.58 498.618C562.735 498.618 566.271 486.34 588.548 486.34H630.626M542.697 507.904C563.428 507.904 570.934 486.628 601.316 486.628H630.626M542.58 519.539C571.059 519.539 575.687 486.695 601.674 486.695" stroke="url(#paint1_linear_597_10203)" stroke-linecap="round" />
	<g filter="url(#filter0_bd_597_10203)">
		<path d="M387 419.185C376.48 425.259 363.52 425.259 353 419.185L319.45 399.815C308.93 393.741 302.45 382.517 302.45 370.37L302.45 331.63C302.45 319.483 308.93 308.259 319.45 302.185L353 282.815C363.52 276.741 376.48 276.741 387 282.815L420.55 302.185C431.07 308.259 437.55 319.483 437.55 331.63L437.55 370.37C437.55 382.517 431.07 393.741 420.55 399.815L387 419.185Z" fill="#3E3E3E" fill-opacity="0.01" shape-rendering="crispEdges" />
	</g>
	<path d="M386.75 418.752C376.385 424.736 363.615 424.736 353.25 418.752L319.7 399.382C309.335 393.398 302.95 382.338 302.95 370.37L302.95 331.63C302.95 319.662 309.335 308.602 319.7 302.618L353.25 283.248C363.615 277.264 376.385 277.264 386.75 283.248L420.3 302.618C430.665 308.602 437.05 319.662 437.05 331.63L437.05 370.37C437.05 382.338 430.665 393.398 420.3 399.382L386.75 418.752Z" stroke="url(#paint2_linear_597_10203)" />
	<path d="M363.5 388.959C367.832 391.459 373.168 391.459 377.5 388.959L399.44 376.291C403.772 373.791 406.44 369.169 406.44 364.167L406.44 338.833C406.44 333.831 403.772 329.209 399.44 326.709L377.5 314.041C373.168 311.541 367.832 311.541 363.5 314.041L341.56 326.709C337.228 329.209 334.56 333.831 334.56 338.833L334.56 364.167C334.56 369.169 337.228 373.791 341.56 376.291L363.5 388.959Z" fill="url(#paint3_linear_597_10203)" />
	<path d="M359.785 346.464V344.75H369.998V346.464H365.881V357.946H363.896V346.464H359.785Z" fill="white" />
	<path d="M372.699 348.049L374.884 351.902L377.087 348.049H379.194L376.108 352.998L379.22 357.946H377.113L374.884 354.248L372.661 357.946H370.547L373.627 352.998L370.586 348.049H372.699Z" fill="white" />
	<g filter="url(#filter1_bd_597_10203)">
		<path d="M579 387.185C568.48 393.259 555.52 393.259 545 387.185L511.45 367.815C500.93 361.741 494.45 350.517 494.45 338.37L494.45 299.63C494.45 287.483 500.93 276.259 511.45 270.185L545 250.815C555.52 244.741 568.48 244.741 579 250.815L612.55 270.185C623.07 276.259 629.55 287.483 629.55 299.63L629.55 338.37C629.55 350.517 623.07 361.741 612.55 367.815L579 387.185Z" fill="#3E3E3E" fill-opacity="0.01" shape-rendering="crispEdges" />
	</g>
	<path d="M578.75 386.752C568.385 392.736 555.615 392.736 545.25 386.752L511.7 367.382C501.335 361.398 494.95 350.338 494.95 338.37L494.95 299.63C494.95 287.662 501.335 276.602 511.7 270.618L545.25 251.248C555.615 245.264 568.385 245.264 578.75 251.248L612.3 270.618C622.665 276.602 629.05 287.662 629.05 299.63L629.05 338.37C629.05 350.338 622.665 361.398 612.3 367.382L578.75 386.752Z" stroke="url(#paint4_linear_597_10203)" />
	<path d="M569.5 356.959C565.168 359.459 559.832 359.459 555.5 356.959L533.56 344.291C529.228 341.791 526.56 337.169 526.56 332.167L526.56 306.833C526.56 301.831 529.228 297.209 533.56 294.709L555.5 282.041C559.832 279.541 565.168 279.541 569.5 282.041L591.44 294.709C595.772 297.209 598.44 301.831 598.44 306.833L598.44 332.167C598.44 337.169 595.772 341.791 591.44 344.291L569.5 356.959Z" fill="url(#paint5_linear_597_10203)" />
	<path d="M552.994 314.593V312.879H563.207V314.593H559.089V326.075H557.105V314.593H552.994Z" fill="white" />
	<path d="M565.908 316.178L568.092 320.031L570.296 316.178H572.403L569.317 321.127L572.429 326.075H570.322L568.092 322.377L565.869 326.075H563.756L566.836 321.127L563.794 316.178H565.908Z" fill="white" />
	<g filter="url(#filter2_bd_597_10203)">
		<path d="M358.5 711.185C347.98 717.259 335.02 717.259 324.5 711.185L267.134 678.065C256.615 671.991 250.134 660.767 250.134 648.62L250.134 582.38C250.134 570.233 256.615 559.009 267.134 552.935L324.5 519.815C335.02 513.741 347.98 513.741 358.5 519.815L415.866 552.935C426.385 559.009 432.866 570.233 432.866 582.38L432.866 648.62C432.866 660.767 426.385 671.991 415.866 678.065L358.5 711.185Z" fill="#3E3E3E" fill-opacity="0.01" shape-rendering="crispEdges" />
	</g>
	<path d="M358.25 710.752C347.885 716.736 335.115 716.736 324.75 710.752L267.384 677.632C257.019 671.648 250.634 660.588 250.634 648.62L250.634 582.38C250.634 570.411 257.019 559.352 267.384 553.368L324.75 520.248C335.115 514.264 347.885 514.264 358.25 520.248L415.616 553.368C425.981 559.352 432.366 570.412 432.366 582.38L432.366 648.62C432.366 660.588 425.981 671.648 415.616 677.632L358.25 710.752Z" stroke="url(#paint6_linear_597_10203)" />
	<path d="M331 667.959C335.332 670.459 340.668 670.459 345 667.959L379.497 648.041C383.829 645.541 386.497 640.919 386.497 635.917L386.497 596.083C386.497 591.081 383.829 586.459 379.497 583.959L345 564.041C340.668 561.541 335.332 561.541 331 564.041L296.503 583.959C292.171 586.459 289.503 591.081 289.503 596.083L289.503 635.917C289.503 640.919 292.171 645.541 296.503 648.041L331 667.959Z" fill="url(#paint7_linear_597_10203)" />
	<path d="M327.661 611.12V609.406H337.874V611.12H333.757V622.602H331.772V611.12H327.661Z" fill="white" />
	<path d="M340.575 612.705L342.76 616.558L344.963 612.705H347.07L343.984 617.654L347.096 622.602H344.989L342.76 618.904L340.537 622.602H338.423L341.503 617.654L338.462 612.705H340.575Z" fill="white" />
	<g filter="url(#filter3_bd_597_10203)">
		<path d="M591.5 813.185C580.98 819.259 568.02 819.259 557.5 813.185L500.134 780.065C489.615 773.991 483.134 762.767 483.134 750.62L483.134 684.38C483.134 672.233 489.615 661.009 500.134 654.935L557.5 621.815C568.02 615.741 580.98 615.741 591.5 621.815L648.866 654.935C659.385 661.009 665.866 672.233 665.866 684.38L665.866 750.62C665.866 762.767 659.385 773.991 648.866 780.065L591.5 813.185Z" fill="#3E3E3E" fill-opacity="0.01" shape-rendering="crispEdges" />
	</g>
	<path d="M591.25 812.752C580.885 818.736 568.115 818.736 557.75 812.752L500.384 779.632C490.019 773.648 483.634 762.588 483.634 750.62L483.634 684.38C483.634 672.411 490.019 661.352 500.384 655.368L557.75 622.248C568.115 616.264 580.885 616.264 591.25 622.248L648.616 655.368C658.981 661.352 665.366 672.412 665.366 684.38L665.366 750.62C665.366 762.588 658.981 773.648 648.616 779.632L591.25 812.752Z" stroke="url(#paint8_linear_597_10203)" />
	<path d="M582 769.959C577.668 772.459 572.332 772.459 568 769.959L533.503 750.041C529.171 747.541 526.503 742.919 526.503 737.917L526.503 698.083C526.503 693.081 529.171 688.459 533.503 685.959L568 666.041C572.332 663.541 577.668 663.541 582 666.041L616.497 685.959C620.829 688.459 623.497 693.081 623.497 698.083L623.497 737.917C623.497 742.919 620.829 747.541 616.497 750.041L582 769.959Z" fill="url(#paint9_linear_597_10203)" />
	<path d="M564.252 712.171V710.457H574.465V712.171H570.347V723.653H568.363V712.171H564.252Z" fill="white" />
	<path d="M577.166 713.756L579.351 717.609L581.554 713.756H583.661L580.575 718.705L583.687 723.653H581.58L579.351 719.955L577.128 723.653H575.014L578.094 718.705L575.053 713.756H577.166Z" fill="white" />
	<g filter="url(#filter4_bd_597_10203)">
		<path d="M469.5 594.185C458.98 600.259 446.02 600.259 435.5 594.185L367.742 555.065C357.222 548.991 350.742 537.767 350.742 525.62L350.742 447.38C350.742 435.233 357.222 424.009 367.742 417.935L435.5 378.815C446.02 372.741 458.98 372.741 469.5 378.815L537.258 417.935C547.778 424.009 554.258 435.233 554.258 447.38L554.258 525.62C554.258 537.767 547.778 548.991 537.258 555.065L469.5 594.185Z" fill="#3E3E3E" fill-opacity="0.01" shape-rendering="crispEdges" />
	</g>
	<path d="M469.25 593.752C458.885 599.736 446.115 599.736 435.75 593.752L367.992 554.632C357.627 548.648 351.242 537.588 351.242 525.62L351.242 447.38C351.242 435.411 357.627 424.352 367.992 418.368L435.75 379.248C446.115 373.264 458.885 373.264 469.25 379.248L537.008 418.368C547.373 424.352 553.758 435.412 553.758 447.38L553.758 525.62C553.758 537.588 547.373 548.648 537.008 554.632L469.25 593.752Z" stroke="url(#paint10_linear_597_10203)" />
	<path d="M464.5 542.072C457.074 546.359 447.926 546.359 440.5 542.072L410.373 524.678C402.948 520.391 398.373 512.468 398.373 503.894L398.373 469.106C398.373 460.532 402.948 452.609 410.373 448.322L440.5 430.928C447.926 426.641 457.074 426.641 464.5 430.928L494.627 448.322C502.052 452.609 506.627 460.532 506.627 469.106L506.627 503.894C506.627 512.468 502.052 520.391 494.627 524.678L464.5 542.072Z" fill="url(#paint11_linear_597_10203)" />
	<path d="M441.771 472.126C441.702 471.516 441.419 471.043 440.921 470.708C440.422 470.369 439.795 470.199 439.039 470.199C438.498 470.199 438.03 470.285 437.634 470.457C437.239 470.624 436.932 470.856 436.713 471.153C436.498 471.445 436.391 471.778 436.391 472.152C436.391 472.465 436.464 472.736 436.61 472.963C436.76 473.191 436.956 473.382 437.196 473.537C437.441 473.687 437.703 473.814 437.982 473.917C438.262 474.016 438.53 474.098 438.788 474.162L440.076 474.497C440.497 474.6 440.929 474.74 441.372 474.916C441.814 475.092 442.224 475.324 442.602 475.612C442.98 475.9 443.285 476.256 443.517 476.681C443.753 477.107 443.872 477.616 443.872 478.208C443.872 478.956 443.678 479.62 443.292 480.199C442.909 480.779 442.353 481.237 441.623 481.572C440.897 481.907 440.018 482.075 438.987 482.075C437.999 482.075 437.145 481.918 436.423 481.604C435.701 481.291 435.136 480.846 434.728 480.27C434.32 479.69 434.095 479.003 434.052 478.208H436.049C436.088 478.685 436.243 479.083 436.513 479.4C436.788 479.714 437.138 479.948 437.563 480.103C437.993 480.253 438.463 480.328 438.975 480.328C439.537 480.328 440.038 480.24 440.476 480.064C440.918 479.884 441.266 479.635 441.52 479.317C441.773 478.995 441.9 478.619 441.9 478.189C441.9 477.798 441.788 477.478 441.565 477.229C441.346 476.98 441.047 476.774 440.669 476.61C440.295 476.447 439.872 476.303 439.4 476.179L437.841 475.753C436.784 475.466 435.946 475.043 435.328 474.484C434.713 473.926 434.406 473.187 434.406 472.268C434.406 471.507 434.612 470.844 435.025 470.277C435.437 469.71 435.996 469.269 436.7 468.956C437.405 468.638 438.199 468.479 439.084 468.479C439.978 468.479 440.766 468.636 441.449 468.949C442.136 469.263 442.677 469.694 443.073 470.244C443.468 470.79 443.674 471.417 443.691 472.126H441.771Z" fill="white" />
	<path d="M446.096 481.855V471.958H448.023V481.855H446.096ZM447.069 470.431C446.734 470.431 446.446 470.319 446.206 470.096C445.969 469.868 445.851 469.598 445.851 469.284C445.851 468.966 445.969 468.696 446.206 468.472C446.446 468.245 446.734 468.131 447.069 468.131C447.404 468.131 447.69 468.245 447.926 468.472C448.167 468.696 448.287 468.966 448.287 469.284C448.287 469.598 448.167 469.868 447.926 470.096C447.69 470.319 447.404 470.431 447.069 470.431Z" fill="white" />
	<path d="M454.32 482.049C453.521 482.049 452.808 481.845 452.18 481.437C451.558 481.024 451.068 480.438 450.711 479.678C450.359 478.913 450.183 477.996 450.183 476.926C450.183 475.857 450.361 474.942 450.718 474.181C451.079 473.421 451.573 472.839 452.2 472.435C452.827 472.031 453.538 471.829 454.333 471.829C454.947 471.829 455.441 471.932 455.815 472.139C456.193 472.341 456.485 472.577 456.691 472.847C456.901 473.118 457.065 473.357 457.181 473.563H457.297V468.659H459.223V481.855H457.342V480.315H457.181C457.065 480.526 456.897 480.766 456.678 481.037C456.463 481.308 456.167 481.544 455.789 481.746C455.411 481.948 454.921 482.049 454.32 482.049ZM454.745 480.406C455.299 480.406 455.767 480.26 456.15 479.967C456.536 479.671 456.828 479.261 457.026 478.737C457.228 478.213 457.329 477.603 457.329 476.907C457.329 476.22 457.23 475.618 457.032 475.103C456.835 474.587 456.545 474.186 456.163 473.898C455.78 473.61 455.308 473.466 454.745 473.466C454.165 473.466 453.682 473.616 453.295 473.917C452.909 474.218 452.616 474.628 452.419 475.148C452.226 475.668 452.129 476.254 452.129 476.907C452.129 477.568 452.228 478.163 452.425 478.692C452.623 479.22 452.915 479.639 453.302 479.948C453.693 480.253 454.174 480.406 454.745 480.406Z" fill="white" />
	<path d="M466.238 482.055C465.263 482.055 464.424 481.847 463.719 481.43C463.019 481.009 462.478 480.419 462.095 479.658C461.717 478.894 461.528 477.998 461.528 476.971C461.528 475.958 461.717 475.064 462.095 474.291C462.478 473.518 463.01 472.914 463.693 472.48C464.381 472.046 465.184 471.829 466.103 471.829C466.662 471.829 467.203 471.922 467.727 472.106C468.251 472.291 468.721 472.581 469.138 472.976C469.555 473.372 469.883 473.885 470.124 474.516C470.364 475.143 470.485 475.906 470.485 476.804V477.487H462.617V476.043H468.597C468.597 475.537 468.494 475.088 468.287 474.697C468.081 474.302 467.791 473.99 467.418 473.762C467.048 473.535 466.614 473.421 466.116 473.421C465.575 473.421 465.102 473.554 464.698 473.82C464.299 474.082 463.99 474.426 463.771 474.851C463.556 475.272 463.448 475.73 463.448 476.224V477.351C463.448 478.013 463.564 478.576 463.796 479.04C464.033 479.504 464.361 479.858 464.782 480.103C465.203 480.343 465.695 480.464 466.258 480.464C466.623 480.464 466.956 480.412 467.257 480.309C467.557 480.202 467.817 480.043 468.036 479.832C468.255 479.622 468.423 479.362 468.539 479.053L470.362 479.381C470.216 479.918 469.954 480.388 469.576 480.792C469.202 481.192 468.732 481.503 468.165 481.727C467.602 481.946 466.96 482.055 466.238 482.055Z" fill="white" />
	<path d="M439.66 494.876H437.65C437.572 494.446 437.428 494.068 437.218 493.741C437.007 493.415 436.75 493.138 436.445 492.91C436.14 492.683 435.798 492.511 435.42 492.395C435.046 492.279 434.649 492.221 434.228 492.221C433.468 492.221 432.787 492.412 432.186 492.794C431.588 493.177 431.116 493.737 430.768 494.476C430.424 495.215 430.253 496.117 430.253 497.182C430.253 498.256 430.424 499.163 430.768 499.901C431.116 500.64 431.591 501.199 432.192 501.577C432.793 501.955 433.47 502.144 434.222 502.144C434.638 502.144 435.034 502.088 435.407 501.976C435.785 501.86 436.127 501.691 436.432 501.467C436.737 501.244 436.995 500.971 437.205 500.649C437.42 500.322 437.568 499.949 437.65 499.528L439.66 499.534C439.553 500.183 439.344 500.78 439.035 501.325C438.73 501.867 438.337 502.335 437.856 502.73C437.379 503.121 436.833 503.424 436.219 503.639C435.605 503.853 434.935 503.961 434.209 503.961C433.066 503.961 432.048 503.69 431.155 503.149C430.261 502.603 429.557 501.824 429.041 500.81C428.53 499.796 428.274 498.587 428.274 497.182C428.274 495.773 428.532 494.564 429.048 493.555C429.563 492.541 430.268 491.763 431.161 491.222C432.055 490.677 433.07 490.404 434.209 490.404C434.909 490.404 435.562 490.505 436.168 490.707C436.778 490.904 437.325 491.196 437.811 491.583C438.296 491.965 438.698 492.433 439.016 492.988C439.334 493.537 439.548 494.167 439.66 494.876Z" fill="white" />
	<path d="M443.814 497.904V503.78H441.888V490.584H443.789V495.494H443.911C444.143 494.961 444.497 494.538 444.974 494.225C445.451 493.911 446.074 493.754 446.843 493.754C447.522 493.754 448.114 493.894 448.621 494.173C449.132 494.452 449.528 494.869 449.807 495.423C450.09 495.973 450.232 496.66 450.232 497.485V503.78H448.306V497.717C448.306 496.991 448.119 496.428 447.745 496.029C447.371 495.625 446.851 495.423 446.186 495.423C445.73 495.423 445.322 495.52 444.961 495.713C444.605 495.906 444.323 496.19 444.117 496.564C443.915 496.933 443.814 497.38 443.814 497.904Z" fill="white" />
	<path d="M455.683 503.999C455.056 503.999 454.489 503.883 453.982 503.651C453.475 503.415 453.074 503.074 452.777 502.627C452.485 502.18 452.339 501.633 452.339 500.984C452.339 500.425 452.447 499.966 452.661 499.605C452.876 499.244 453.166 498.959 453.531 498.748C453.896 498.538 454.304 498.379 454.755 498.271C455.206 498.164 455.666 498.082 456.134 498.026C456.727 497.958 457.208 497.902 457.578 497.859C457.947 497.812 458.216 497.736 458.383 497.633C458.551 497.53 458.634 497.363 458.634 497.131V497.086C458.634 496.523 458.475 496.087 458.158 495.778C457.844 495.468 457.376 495.314 456.753 495.314C456.104 495.314 455.593 495.458 455.219 495.745C454.85 496.029 454.594 496.345 454.453 496.693L452.642 496.28C452.857 495.679 453.17 495.193 453.583 494.824C453.999 494.45 454.478 494.18 455.02 494.012C455.561 493.84 456.13 493.754 456.727 493.754C457.122 493.754 457.541 493.802 457.984 493.896C458.43 493.986 458.847 494.154 459.234 494.399C459.625 494.644 459.945 494.994 460.194 495.449C460.443 495.9 460.567 496.486 460.567 497.208V503.78H458.686V502.427H458.609C458.484 502.676 458.297 502.921 458.048 503.162C457.799 503.402 457.479 503.602 457.088 503.761C456.697 503.92 456.229 503.999 455.683 503.999ZM456.102 502.453C456.635 502.453 457.09 502.348 457.468 502.137C457.85 501.927 458.14 501.652 458.338 501.313C458.54 500.969 458.641 500.602 458.641 500.211V498.935C458.572 499.004 458.439 499.068 458.241 499.128C458.048 499.184 457.827 499.233 457.578 499.276C457.329 499.315 457.086 499.352 456.85 499.386C456.613 499.416 456.416 499.442 456.257 499.463C455.883 499.51 455.542 499.59 455.232 499.702C454.927 499.813 454.682 499.974 454.498 500.185C454.317 500.391 454.227 500.666 454.227 501.01C454.227 501.486 454.403 501.847 454.755 502.092C455.108 502.333 455.557 502.453 456.102 502.453Z" fill="white" />
	<path d="M463.134 503.78V493.883H465.06V503.78H463.134ZM464.106 492.356C463.771 492.356 463.484 492.244 463.243 492.021C463.007 491.793 462.889 491.523 462.889 491.209C462.889 490.891 463.007 490.621 463.243 490.397C463.484 490.17 463.771 490.056 464.106 490.056C464.442 490.056 464.727 490.17 464.963 490.397C465.204 490.621 465.324 490.891 465.324 491.209C465.324 491.523 465.204 491.793 464.963 492.021C464.727 492.244 464.442 492.356 464.106 492.356Z" fill="white" />
	<path d="M469.579 497.904V503.78H467.652V493.883H469.501V495.494H469.624C469.851 494.97 470.208 494.549 470.693 494.231C471.183 493.913 471.799 493.754 472.543 493.754C473.217 493.754 473.808 493.896 474.315 494.18C474.821 494.459 475.214 494.876 475.494 495.43C475.773 495.984 475.913 496.669 475.913 497.485V503.78H473.986V497.717C473.986 497 473.799 496.439 473.425 496.035C473.052 495.627 472.538 495.423 471.885 495.423C471.439 495.423 471.041 495.52 470.693 495.713C470.35 495.906 470.077 496.19 469.875 496.564C469.677 496.933 469.579 497.38 469.579 497.904Z" fill="white" />
	<defs>
		<filter id="filter0_bd_597_10203" x="52.4502" y="32.2598" width="635.1" height="645.48" filterUnits="userSpaceOnUse" color-interpolation-filters="sRGB">
			<feFlood flood-opacity="0" result="BackgroundImageFix" />
			<feGaussianBlur in="BackgroundImageFix" stdDeviation="12" />
			<feComposite in2="SourceAlpha" operator="in" result="effect1_backgroundBlur_597_10203" />
			<feColorMatrix in="SourceAlpha" type="matrix" values="0 0 0 0 0 0 0 0 0 0 0 0 0 0 0 0 0 0 127 0" result="hardAlpha" />
			<feOffset dy="4" />
			<feGaussianBlur stdDeviation="125" />
			<feComposite in2="hardAlpha" operator="out" />
			<feColorMatrix type="matrix" values="0 0 0 0 0.6 0 0 0 0 0.156863 0 0 0 0 0.996078 0 0 0 0.6 0" />
			<feBlend mode="normal" in2="effect1_backgroundBlur_597_10203" result="effect2_dropShadow_597_10203" />
			<feBlend mode="normal" in="SourceGraphic" in2="effect2_dropShadow_597_10203" result="shape" />
		</filter>
		<filter id="filter1_bd_597_10203" x="244.45" y="0.259766" width="635.1" height="645.48" filterUnits="userSpaceOnUse" color-interpolation-filters="sRGB">
			<feFlood flood-opacity="0" result="BackgroundImageFix" />
			<feGaussianBlur in="BackgroundImageFix" stdDeviation="12" />
			<feComposite in2="SourceAlpha" operator="in" result="effect1_backgroundBlur_597_10203" />
			<feColorMatrix in="SourceAlpha" type="matrix" values="0 0 0 0 0 0 0 0 0 0 0 0 0 0 0 0 0 0 127 0" result="hardAlpha" />
			<feOffset dy="4" />
			<feGaussianBlur stdDeviation="125" />
			<feComposite in2="hardAlpha" operator="out" />
			<feColorMatrix type="matrix" values="0 0 0 0 0.6 0 0 0 0 0.156863 0 0 0 0 0.996078 0 0 0 0.6 0" />
			<feBlend mode="normal" in2="effect1_backgroundBlur_597_10203" result="effect2_dropShadow_597_10203" />
			<feBlend mode="normal" in="SourceGraphic" in2="effect2_dropShadow_597_10203" result="shape" />
		</filter>
		<filter id="filter2_bd_597_10203" x="0.134277" y="269.26" width="682.731" height="700.48" filterUnits="userSpaceOnUse" color-interpolation-filters="sRGB">
			<feFlood flood-opacity="0" result="BackgroundImageFix" />
			<feGaussianBlur in="BackgroundImageFix" stdDeviation="12" />
			<feComposite in2="SourceAlpha" operator="in" result="effect1_backgroundBlur_597_10203" />
			<feColorMatrix in="SourceAlpha" type="matrix" values="0 0 0 0 0 0 0 0 0 0 0 0 0 0 0 0 0 0 127 0" result="hardAlpha" />
			<feOffset dy="4" />
			<feGaussianBlur stdDeviation="125" />
			<feComposite in2="hardAlpha" operator="out" />
			<feColorMatrix type="matrix" values="0 0 0 0 0.6 0 0 0 0 0.156863 0 0 0 0 0.996078 0 0 0 0.6 0" />
			<feBlend mode="normal" in2="effect1_backgroundBlur_597_10203" result="effect2_dropShadow_597_10203" />
			<feBlend mode="normal" in="SourceGraphic" in2="effect2_dropShadow_597_10203" result="shape" />
		</filter>
		<filter id="filter3_bd_597_10203" x="233.134" y="371.26" width="682.731" height="700.48" filterUnits="userSpaceOnUse" color-interpolation-filters="sRGB">
			<feFlood flood-opacity="0" result="BackgroundImageFix" />
			<feGaussianBlur in="BackgroundImageFix" stdDeviation="12" />
			<feComposite in2="SourceAlpha" operator="in" result="effect1_backgroundBlur_597_10203" />
			<feColorMatrix in="SourceAlpha" type="matrix" values="0 0 0 0 0 0 0 0 0 0 0 0 0 0 0 0 0 0 127 0" result="hardAlpha" />
			<feOffset dy="4" />
			<feGaussianBlur stdDeviation="125" />
			<feComposite in2="hardAlpha" operator="out" />
			<feColorMatrix type="matrix" values="0 0 0 0 0.6 0 0 0 0 0.156863 0 0 0 0 0.996078 0 0 0 0.6 0" />
			<feBlend mode="normal" in2="effect1_backgroundBlur_597_10203" result="effect2_dropShadow_597_10203" />
			<feBlend mode="normal" in="SourceGraphic" in2="effect2_dropShadow_597_10203" result="shape" />
		</filter>
		<filter id="filter4_bd_597_10203" x="100.742" y="128.26" width="703.516" height="724.48" filterUnits="userSpaceOnUse" color-interpolation-filters="sRGB">
			<feFlood flood-opacity="0" result="BackgroundImageFix" />
			<feGaussianBlur in="BackgroundImageFix" stdDeviation="12" />
			<feComposite in2="SourceAlpha" operator="in" result="effect1_backgroundBlur_597_10203" />
			<feColorMatrix in="SourceAlpha" type="matrix" values="0 0 0 0 0 0 0 0 0 0 0 0 0 0 0 0 0 0 127 0" result="hardAlpha" />
			<feOffset dy="4" />
			<feGaussianBlur stdDeviation="125" />
			<feComposite in2="hardAlpha" operator="out" />
			<feColorMatrix type="matrix" values="0 0 0 0 0.6 0 0 0 0 0.156863 0 0 0 0 0.996078 0 0 0 0.6 0" />
			<feBlend mode="normal" in2="effect1_backgroundBlur_597_10203" result="effect2_dropShadow_597_10203" />
			<feBlend mode="normal" in="SourceGraphic" in2="effect2_dropShadow_597_10203" result="shape" />
		</filter>
		<linearGradient id="paint0_linear_597_10203" x1="4584.86" y1="713.161" x2="4584.89" y2="222.915" gradientUnits="userSpaceOnUse">
			<stop offset="0.0001" stop-color="#8B69CA" />
			<stop offset="0.416667" stop-color="#9A74DB" />
			<stop offset="0.84375" stop-color="#9872D8" />
		</linearGradient>
		<linearGradient id="paint1_linear_597_10203" x1="1202.93" y1="514.859" x2="1202.93" y2="452.997" gradientUnits="userSpaceOnUse">
			<stop offset="0.0001" stop-color="#8B69CA" />
			<stop offset="0.416667" stop-color="#9A74DB" />
			<stop offset="0.84375" stop-color="#9872D8" />
		</linearGradient>
		<linearGradient id="paint2_linear_597_10203" x1="702.268" y1="340.657" x2="361.029" y2="138.525" gradientUnits="userSpaceOnUse">
			<stop stop-color="#9A74DB" />
			<stop offset="1" stop-color="#9A74DB" stop-opacity="0" />
		</linearGradient>
		<linearGradient id="paint3_linear_597_10203" x1="412" y1="351.5" x2="329" y2="351.5" gradientUnits="userSpaceOnUse">
			<stop stop-color="#D5A222" />
			<stop offset="1" stop-color="#F242E1" />
		</linearGradient>
		<linearGradient id="paint4_linear_597_10203" x1="894.268" y1="308.657" x2="553.029" y2="106.525" gradientUnits="userSpaceOnUse">
			<stop stop-color="#9A74DB" />
			<stop offset="1" stop-color="#9A74DB" stop-opacity="0" />
		</linearGradient>
		<linearGradient id="paint5_linear_597_10203" x1="521" y1="319.5" x2="604" y2="319.5" gradientUnits="userSpaceOnUse">
			<stop stop-color="#9B08CE" />
			<stop offset="1" stop-color="#FC315A" />
		</linearGradient>
		<linearGradient id="paint6_linear_597_10203" x1="790.913" y1="601.511" x2="329.366" y2="328.114" gradientUnits="userSpaceOnUse">
			<stop stop-color="#9A74DB" />
			<stop offset="1" stop-color="#9A74DB" stop-opacity="0" />
		</linearGradient>
		<linearGradient id="paint7_linear_597_10203" x1="394" y1="616" x2="282" y2="616" gradientUnits="userSpaceOnUse">
			<stop offset="0.0913122" stop-color="#24AD7C" />
			<stop offset="1" stop-color="#1845B9" />
		</linearGradient>
		<linearGradient id="paint8_linear_597_10203" x1="1023.91" y1="703.511" x2="562.366" y2="430.114" gradientUnits="userSpaceOnUse">
			<stop stop-color="#9A74DB" />
			<stop offset="1" stop-color="#9A74DB" stop-opacity="0" />
		</linearGradient>
		<linearGradient id="paint9_linear_597_10203" x1="519" y1="718" x2="630.998" y2="718.46" gradientUnits="userSpaceOnUse">
			<stop stop-color="#F43053" />
			<stop offset="1" stop-color="#E38048" />
		</linearGradient>
		<linearGradient id="paint10_linear_597_10203" x1="953.031" y1="470.92" x2="438.985" y2="166.426" gradientUnits="userSpaceOnUse">
			<stop stop-color="#9A74DB" />
			<stop offset="1" stop-color="#9A74DB" stop-opacity="0" />
		</linearGradient>
		<linearGradient id="paint11_linear_597_10203" x1="514.987" y1="486.439" x2="390.054" y2="486.439" gradientUnits="userSpaceOnUse">
			<stop stop-color="#B000FD" />
			<stop offset="0.0001" stop-color="#B000FD" />
			<stop offset="0.98" stop-color="#30DAFF" />
		</linearGradient>
	</defs>
</svg>
