<svg viewBox="0 0 817 818" fill="none" xmlns="http://www.w3.org/2000/svg">
<g filter="url(#filter0_d_419_12929)">
<path d="M410 559.183C399.48 565.257 386.52 565.257 376 559.183L267.972 496.813C257.452 490.739 250.972 479.515 250.972 467.368V342.628C250.972 330.481 257.452 319.257 267.972 313.183L376 250.813C386.52 244.739 399.48 244.739 410 250.813L518.028 313.183C528.548 319.257 535.028 330.481 535.028 342.628V467.368C535.028 479.515 528.548 490.739 518.028 496.813L410 559.183Z" fill="#3E3E3E" fill-opacity="0.01"/>
<path d="M376.25 558.75L268.222 496.38C257.857 490.396 251.472 479.336 251.472 467.368V342.628C251.472 330.66 257.857 319.6 268.222 313.616L376.25 251.246C386.615 245.262 399.385 245.262 409.75 251.246L517.778 313.616C528.143 319.6 534.528 330.66 534.528 342.628V467.368C534.528 479.336 528.143 490.396 517.778 496.38L409.75 558.75C399.385 564.734 386.615 564.734 376.25 558.75Z" stroke="url(#paint0_linear_419_12929)"/>
</g>
<path d="M439 342H347C340.373 342 335 347.373 335 354V387C335 393.627 340.373 399 347 399H439C445.627 399 451 393.627 451 387V354C451 347.373 445.627 342 439 342Z" fill="#3E3E3E" fill-opacity="0.24"/>
<path d="M382.119 368H380.534C380.44 367.544 380.276 367.143 380.042 366.798C379.812 366.453 379.531 366.163 379.198 365.929C378.87 365.69 378.506 365.511 378.105 365.392C377.705 365.273 377.287 365.213 376.852 365.213C376.06 365.213 375.342 365.413 374.698 365.814C374.059 366.214 373.55 366.805 373.17 367.585C372.795 368.364 372.608 369.321 372.608 370.455C372.608 371.588 372.795 372.545 373.17 373.325C373.55 374.104 374.059 374.695 374.698 375.095C375.342 375.496 376.06 375.696 376.852 375.696C377.287 375.696 377.705 375.636 378.105 375.517C378.506 375.398 378.87 375.221 379.198 374.987C379.531 374.748 379.812 374.456 380.042 374.111C380.276 373.761 380.44 373.361 380.534 372.909H382.119C382 373.578 381.783 374.177 381.467 374.705C381.152 375.234 380.76 375.683 380.291 376.054C379.822 376.42 379.296 376.7 378.712 376.891C378.133 377.083 377.513 377.179 376.852 377.179C375.736 377.179 374.743 376.906 373.874 376.361C373.004 375.815 372.32 375.04 371.822 374.034C371.323 373.028 371.074 371.835 371.074 370.455C371.074 369.074 371.323 367.881 371.822 366.875C372.32 365.869 373.004 365.094 373.874 364.548C374.743 364.003 375.736 363.73 376.852 363.73C377.513 363.73 378.133 363.826 378.712 364.018C379.296 364.21 379.822 364.491 380.291 364.862C380.76 365.228 381.152 365.675 381.467 366.204C381.783 366.728 382 367.327 382.119 368ZM388.465 377.205C387.579 377.205 386.801 376.994 386.132 376.572C385.467 376.15 384.947 375.56 384.572 374.801C384.202 374.043 384.016 373.156 384.016 372.142C384.016 371.119 384.202 370.227 384.572 369.464C384.947 368.701 385.467 368.109 386.132 367.687C386.801 367.265 387.579 367.054 388.465 367.054C389.351 367.054 390.127 367.265 390.792 367.687C391.461 368.109 391.981 368.701 392.351 369.464C392.726 370.227 392.914 371.119 392.914 372.142C392.914 373.156 392.726 374.043 392.351 374.801C391.981 375.56 391.461 376.15 390.792 376.572C390.127 376.994 389.351 377.205 388.465 377.205ZM388.465 375.849C389.138 375.849 389.692 375.677 390.127 375.332C390.562 374.987 390.883 374.533 391.092 373.97C391.301 373.408 391.405 372.798 391.405 372.142C391.405 371.486 391.301 370.874 391.092 370.308C390.883 369.741 390.562 369.283 390.127 368.933C389.692 368.584 389.138 368.409 388.465 368.409C387.792 368.409 387.238 368.584 386.803 368.933C386.368 369.283 386.047 369.741 385.838 370.308C385.629 370.874 385.525 371.486 385.525 372.142C385.525 372.798 385.629 373.408 385.838 373.97C386.047 374.533 386.368 374.987 386.803 375.332C387.238 375.677 387.792 375.849 388.465 375.849ZM398.924 377.205C398.106 377.205 397.384 376.998 396.757 376.585C396.131 376.167 395.641 375.579 395.287 374.82C394.933 374.058 394.756 373.156 394.756 372.116C394.756 371.085 394.933 370.19 395.287 369.432C395.641 368.673 396.133 368.087 396.763 367.674C397.394 367.261 398.123 367.054 398.95 367.054C399.589 367.054 400.094 367.161 400.464 367.374C400.839 367.582 401.125 367.821 401.321 368.089C401.521 368.354 401.677 368.571 401.788 368.741H401.915V363.909H403.424V377H401.967V375.491H401.788C401.677 375.67 401.519 375.896 401.315 376.169C401.11 376.437 400.818 376.678 400.439 376.891C400.06 377.1 399.555 377.205 398.924 377.205ZM399.129 375.849C399.734 375.849 400.245 375.692 400.663 375.376C401.08 375.057 401.398 374.616 401.615 374.053C401.832 373.487 401.941 372.832 401.941 372.091C401.941 371.358 401.835 370.717 401.621 370.167C401.408 369.613 401.093 369.183 400.675 368.876C400.258 368.565 399.742 368.409 399.129 368.409C398.489 368.409 397.957 368.573 397.531 368.901C397.109 369.225 396.791 369.666 396.578 370.224C396.369 370.778 396.265 371.401 396.265 372.091C396.265 372.79 396.371 373.425 396.585 373.996C396.802 374.562 397.121 375.014 397.543 375.351C397.969 375.683 398.498 375.849 399.129 375.849ZM410.513 377.205C409.567 377.205 408.751 376.996 408.065 376.578C407.383 376.156 406.857 375.568 406.486 374.814C406.119 374.055 405.936 373.173 405.936 372.168C405.936 371.162 406.119 370.276 406.486 369.509C406.857 368.737 407.372 368.136 408.033 367.706C408.697 367.271 409.473 367.054 410.359 367.054C410.871 367.054 411.376 367.139 411.874 367.31C412.373 367.48 412.827 367.757 413.236 368.141C413.645 368.52 413.971 369.023 414.214 369.649C414.457 370.276 414.578 371.047 414.578 371.963V372.602H407.01V371.298H413.044C413.044 370.744 412.933 370.25 412.712 369.815C412.494 369.381 412.183 369.038 411.778 368.786C411.378 368.535 410.905 368.409 410.359 368.409C409.759 368.409 409.239 368.558 408.8 368.857C408.365 369.151 408.031 369.534 407.796 370.007C407.562 370.48 407.445 370.987 407.445 371.528V372.398C407.445 373.139 407.572 373.768 407.828 374.283C408.088 374.795 408.448 375.185 408.908 375.453C409.369 375.717 409.903 375.849 410.513 375.849C410.909 375.849 411.267 375.794 411.587 375.683C411.911 375.568 412.19 375.398 412.424 375.172C412.658 374.942 412.839 374.656 412.967 374.315L414.425 374.724C414.271 375.219 414.013 375.653 413.651 376.028C413.289 376.399 412.842 376.689 412.309 376.898C411.776 377.102 411.178 377.205 410.513 377.205Z" fill="white"/>
<path d="M439 343H347C340.925 343 336 347.925 336 354V387C336 393.075 340.925 398 347 398H439C445.075 398 450 393.075 450 387V354C450 347.925 445.075 343 439 343Z" stroke="url(#paint1_linear_419_12929)" stroke-width="2"/>
<path d="M685 273H604C597.373 273 592 278.373 592 285V318C592 324.627 597.373 330 604 330H685C691.627 330 697 324.627 697 318V285C697 278.373 691.627 273 685 273Z" fill="#3E3E3E" fill-opacity="0.24"/>
<path d="M629.122 308.001H627.46L632.267 294.91H633.903L638.71 308.001H637.048L633.136 296.981H633.034L629.122 308.001ZM629.736 302.887H636.435V304.294H629.736V302.887ZM640.545 311.683V298.183H642.002V299.742H642.181C642.292 299.572 642.445 299.355 642.641 299.09C642.842 298.822 643.127 298.583 643.498 298.375C643.873 298.162 644.38 298.055 645.019 298.055C645.846 298.055 646.575 298.262 647.205 298.675C647.836 299.088 648.328 299.674 648.682 300.433C649.036 301.191 649.212 302.086 649.212 303.117C649.212 304.157 649.036 305.059 648.682 305.821C648.328 306.58 647.838 307.168 647.212 307.586C646.585 307.999 645.863 308.206 645.045 308.206C644.414 308.206 643.909 308.101 643.53 307.892C643.151 307.679 642.859 307.438 642.654 307.17C642.45 306.897 642.292 306.671 642.181 306.492H642.053V311.683H640.545ZM642.028 303.092C642.028 303.833 642.136 304.488 642.354 305.054C642.571 305.617 642.888 306.058 643.306 306.377C643.724 306.693 644.235 306.85 644.84 306.85C645.471 306.85 645.997 306.684 646.419 306.352C646.845 306.015 647.165 305.563 647.378 304.997C647.595 304.426 647.704 303.791 647.704 303.092C647.704 302.402 647.597 301.779 647.384 301.225C647.175 300.667 646.858 300.226 646.432 299.902C646.01 299.574 645.479 299.41 644.84 299.41C644.227 299.41 643.711 299.566 643.293 299.877C642.876 300.184 642.56 300.614 642.347 301.168C642.134 301.718 642.028 302.359 642.028 303.092ZM651.513 311.683V298.183H652.971V299.742H653.15C653.261 299.572 653.414 299.355 653.61 299.09C653.81 298.822 654.096 298.583 654.467 298.375C654.842 298.162 655.349 298.055 655.988 298.055C656.815 298.055 657.543 298.262 658.174 298.675C658.805 299.088 659.297 299.674 659.651 300.433C660.004 301.191 660.181 302.086 660.181 303.117C660.181 304.157 660.004 305.059 659.651 305.821C659.297 306.58 658.807 307.168 658.18 307.586C657.554 307.999 656.832 308.206 656.013 308.206C655.383 308.206 654.878 308.101 654.499 307.892C654.119 307.679 653.827 307.438 653.623 307.17C653.418 306.897 653.261 306.671 653.15 306.492H653.022V311.683H651.513ZM652.996 303.092C652.996 303.833 653.105 304.488 653.322 305.054C653.54 305.617 653.857 306.058 654.275 306.377C654.692 306.693 655.204 306.85 655.809 306.85C656.44 306.85 656.966 306.684 657.388 306.352C657.814 306.015 658.134 305.563 658.347 304.997C658.564 304.426 658.673 303.791 658.673 303.092C658.673 302.402 658.566 301.779 658.353 301.225C658.144 300.667 657.827 300.226 657.401 299.902C656.979 299.574 656.448 299.41 655.809 299.41C655.195 299.41 654.68 299.566 654.262 299.877C653.844 300.184 653.529 300.614 653.316 301.168C653.103 301.718 652.996 302.359 652.996 303.092Z" fill="white"/>
<path d="M685 274H604C597.925 274 593 278.925 593 285V318C593 324.075 597.925 329 604 329H685C691.075 329 696 324.075 696 318V285C696 278.925 691.075 274 685 274Z" stroke="url(#paint2_linear_419_12929)" stroke-width="2"/>
<path d="M805 273H724C717.373 273 712 278.373 712 285V318C712 324.627 717.373 330 724 330H805C811.627 330 817 324.627 817 318V285C817 278.373 811.627 273 805 273Z" fill="#3E3E3E" fill-opacity="0.24"/>
<path d="M749.122 308.001H747.46L752.267 294.91H753.903L758.71 308.001H757.048L753.136 296.981H753.034L749.122 308.001ZM749.736 302.887H756.435V304.294H749.736V302.887ZM760.545 311.683V298.183H762.002V299.742H762.181C762.292 299.572 762.445 299.355 762.641 299.09C762.842 298.822 763.127 298.583 763.498 298.375C763.873 298.162 764.38 298.055 765.019 298.055C765.846 298.055 766.575 298.262 767.205 298.675C767.836 299.088 768.328 299.674 768.682 300.433C769.036 301.191 769.212 302.086 769.212 303.117C769.212 304.157 769.036 305.059 768.682 305.821C768.328 306.58 767.838 307.168 767.212 307.586C766.585 307.999 765.863 308.206 765.045 308.206C764.414 308.206 763.909 308.101 763.53 307.892C763.151 307.679 762.859 307.438 762.654 307.17C762.45 306.897 762.292 306.671 762.181 306.492H762.053V311.683H760.545ZM762.028 303.092C762.028 303.833 762.136 304.488 762.354 305.054C762.571 305.617 762.888 306.058 763.306 306.377C763.724 306.693 764.235 306.85 764.84 306.85C765.471 306.85 765.997 306.684 766.419 306.352C766.845 306.015 767.165 305.563 767.378 304.997C767.595 304.426 767.704 303.791 767.704 303.092C767.704 302.402 767.597 301.779 767.384 301.225C767.175 300.667 766.858 300.226 766.432 299.902C766.01 299.574 765.479 299.41 764.84 299.41C764.227 299.41 763.711 299.566 763.293 299.877C762.876 300.184 762.56 300.614 762.347 301.168C762.134 301.718 762.028 302.359 762.028 303.092ZM771.513 311.683V298.183H772.971V299.742H773.15C773.261 299.572 773.414 299.355 773.61 299.09C773.81 298.822 774.096 298.583 774.467 298.375C774.842 298.162 775.349 298.055 775.988 298.055C776.815 298.055 777.543 298.262 778.174 298.675C778.805 299.088 779.297 299.674 779.651 300.433C780.004 301.191 780.181 302.086 780.181 303.117C780.181 304.157 780.004 305.059 779.651 305.821C779.297 306.58 778.807 307.168 778.18 307.586C777.554 307.999 776.832 308.206 776.013 308.206C775.383 308.206 774.878 308.101 774.499 307.892C774.119 307.679 773.827 307.438 773.623 307.17C773.418 306.897 773.261 306.671 773.15 306.492H773.022V311.683H771.513ZM772.996 303.092C772.996 303.833 773.105 304.488 773.322 305.054C773.54 305.617 773.857 306.058 774.275 306.377C774.692 306.693 775.204 306.85 775.809 306.85C776.44 306.85 776.966 306.684 777.388 306.352C777.814 306.015 778.134 305.563 778.347 304.997C778.564 304.426 778.673 303.791 778.673 303.092C778.673 302.402 778.566 301.779 778.353 301.225C778.144 300.667 777.827 300.226 777.401 299.902C776.979 299.574 776.448 299.41 775.809 299.41C775.195 299.41 774.68 299.566 774.262 299.877C773.844 300.184 773.529 300.614 773.316 301.168C773.103 301.718 772.996 302.359 772.996 303.092Z" fill="white"/>
<path d="M805 274H724C717.925 274 713 278.925 713 285V318C713 324.075 717.925 329 724 329H805C811.075 329 816 324.075 816 318V285C816 278.925 811.075 274 805 274Z" stroke="url(#paint3_linear_419_12929)" stroke-width="2"/>
<path d="M803 342H604C597.373 342 592 347.373 592 354V387C592 393.627 597.373 399 604 399H803C809.627 399 815 393.627 815 387V354C815 347.373 809.627 342 803 342Z" fill="#3E3E3E" fill-opacity="0.24"/>
<path d="M639.631 370.455C639.631 371.835 639.381 373.028 638.883 374.034C638.384 375.04 637.7 375.815 636.831 376.361C635.962 376.906 634.969 377.179 633.852 377.179C632.736 377.179 631.743 376.906 630.874 376.361C630.004 375.815 629.32 375.04 628.822 374.034C628.323 373.028 628.074 371.835 628.074 370.455C628.074 369.074 628.323 367.881 628.822 366.875C629.32 365.869 630.004 365.094 630.874 364.548C631.743 364.003 632.736 363.73 633.852 363.73C634.969 363.73 635.962 364.003 636.831 364.548C637.7 365.094 638.384 365.869 638.883 366.875C639.381 367.881 639.631 369.074 639.631 370.455ZM638.097 370.455C638.097 369.321 637.907 368.364 637.528 367.585C637.153 366.805 636.643 366.214 636 365.814C635.361 365.413 634.645 365.213 633.852 365.213C633.06 365.213 632.342 365.413 631.698 365.814C631.059 366.214 630.55 366.805 630.17 367.585C629.795 368.364 629.608 369.321 629.608 370.455C629.608 371.588 629.795 372.545 630.17 373.325C630.55 374.104 631.059 374.695 631.698 375.095C632.342 375.496 633.06 375.696 633.852 375.696C634.645 375.696 635.361 375.496 636 375.095C636.643 374.695 637.153 374.104 637.528 373.325C637.907 372.545 638.097 371.588 638.097 370.455ZM642.092 380.682V367.182H643.549V368.741H643.728C643.839 368.571 643.992 368.354 644.188 368.089C644.388 367.821 644.674 367.582 645.045 367.374C645.42 367.161 645.927 367.054 646.566 367.054C647.393 367.054 648.121 367.261 648.752 367.674C649.383 368.087 649.875 368.673 650.229 369.432C650.582 370.19 650.759 371.085 650.759 372.116C650.759 373.156 650.582 374.058 650.229 374.82C649.875 375.579 649.385 376.167 648.759 376.585C648.132 376.998 647.41 377.205 646.592 377.205C645.961 377.205 645.456 377.1 645.077 376.891C644.697 376.678 644.406 376.437 644.201 376.169C643.996 375.896 643.839 375.67 643.728 375.491H643.6V380.682H642.092ZM643.575 372.091C643.575 372.832 643.683 373.487 643.901 374.053C644.118 374.616 644.435 375.057 644.853 375.376C645.271 375.692 645.782 375.849 646.387 375.849C647.018 375.849 647.544 375.683 647.966 375.351C648.392 375.014 648.712 374.562 648.925 373.996C649.142 373.425 649.251 372.79 649.251 372.091C649.251 371.401 649.144 370.778 648.931 370.224C648.722 369.666 648.405 369.225 647.979 368.901C647.557 368.573 647.026 368.409 646.387 368.409C645.773 368.409 645.258 368.565 644.84 368.876C644.423 369.183 644.107 369.613 643.894 370.167C643.681 370.717 643.575 371.358 643.575 372.091ZM657.177 377.205C656.231 377.205 655.415 376.996 654.729 376.578C654.047 376.156 653.521 375.568 653.15 374.814C652.783 374.055 652.6 373.173 652.6 372.168C652.6 371.162 652.783 370.276 653.15 369.509C653.521 368.737 654.036 368.136 654.697 367.706C655.362 367.271 656.137 367.054 657.023 367.054C657.535 367.054 658.04 367.139 658.538 367.31C659.037 367.48 659.491 367.757 659.9 368.141C660.309 368.52 660.635 369.023 660.878 369.649C661.121 370.276 661.242 371.047 661.242 371.963V372.602H653.674V371.298H659.708C659.708 370.744 659.597 370.25 659.376 369.815C659.158 369.381 658.847 369.038 658.442 368.786C658.042 368.535 657.569 368.409 657.023 368.409C656.423 368.409 655.903 368.558 655.464 368.857C655.029 369.151 654.695 369.534 654.46 370.007C654.226 370.48 654.109 370.987 654.109 371.528V372.398C654.109 373.139 654.237 373.768 654.492 374.283C654.752 374.795 655.112 375.185 655.572 375.453C656.033 375.717 656.567 375.849 657.177 375.849C657.573 375.849 657.931 375.794 658.251 375.683C658.575 375.568 658.854 375.398 659.088 375.172C659.322 374.942 659.504 374.656 659.631 374.315L661.089 374.724C660.935 375.219 660.678 375.653 660.315 376.028C659.953 376.399 659.506 376.689 658.973 376.898C658.44 377.102 657.842 377.205 657.177 377.205ZM663.537 377V367.182H664.994V368.665H665.097C665.276 368.179 665.599 367.785 666.068 367.482C666.537 367.18 667.065 367.028 667.653 367.028C667.764 367.028 667.903 367.031 668.069 367.035C668.235 367.039 668.361 367.045 668.446 367.054V368.588C668.395 368.575 668.278 368.556 668.094 368.531C667.915 368.501 667.726 368.486 667.526 368.486C667.048 368.486 666.622 368.586 666.247 368.786C665.876 368.982 665.582 369.255 665.365 369.604C665.152 369.95 665.045 370.344 665.045 370.787V377H663.537ZM673.123 377.23C672.501 377.23 671.937 377.113 671.43 376.879C670.922 376.64 670.52 376.297 670.221 375.849C669.923 375.398 669.774 374.852 669.774 374.213C669.774 373.651 669.885 373.195 670.106 372.845C670.328 372.491 670.624 372.214 670.995 372.014C671.366 371.814 671.775 371.665 672.222 371.567C672.674 371.464 673.128 371.384 673.584 371.324C674.18 371.247 674.664 371.19 675.035 371.151C675.41 371.109 675.682 371.038 675.853 370.94C676.028 370.842 676.115 370.672 676.115 370.429V370.378C676.115 369.747 675.942 369.257 675.597 368.908C675.256 368.558 674.738 368.384 674.044 368.384C673.324 368.384 672.759 368.541 672.35 368.857C671.941 369.172 671.653 369.509 671.487 369.866L670.055 369.355C670.311 368.759 670.652 368.294 671.078 367.962C671.508 367.625 671.977 367.391 672.484 367.259C672.996 367.122 673.498 367.054 673.993 367.054C674.308 367.054 674.67 367.092 675.079 367.169C675.493 367.241 675.891 367.393 676.275 367.623C676.662 367.853 676.984 368.2 677.24 368.665C677.496 369.129 677.623 369.751 677.623 370.531V377H676.115V375.67H676.038C675.936 375.884 675.765 376.112 675.527 376.354C675.288 376.597 674.971 376.804 674.574 376.974C674.178 377.145 673.694 377.23 673.123 377.23ZM673.354 375.875C673.95 375.875 674.453 375.758 674.862 375.523C675.275 375.289 675.586 374.987 675.795 374.616C676.008 374.245 676.115 373.855 676.115 373.446V372.065C676.051 372.142 675.91 372.212 675.693 372.276C675.48 372.336 675.233 372.389 674.952 372.436C674.675 372.479 674.404 372.517 674.14 372.551C673.88 372.581 673.669 372.607 673.507 372.628C673.115 372.679 672.748 372.762 672.407 372.877C672.071 372.988 671.798 373.156 671.589 373.382C671.385 373.604 671.282 373.906 671.282 374.29C671.282 374.814 671.476 375.21 671.864 375.479C672.256 375.743 672.753 375.875 673.354 375.875ZM684.647 367.182V368.46H679.559V367.182H684.647ZM681.042 364.83H682.55V374.188C682.55 374.614 682.612 374.933 682.735 375.146C682.863 375.355 683.025 375.496 683.221 375.568C683.422 375.636 683.632 375.67 683.854 375.67C684.02 375.67 684.157 375.662 684.263 375.645C684.37 375.624 684.455 375.607 684.519 375.594L684.826 376.949C684.723 376.987 684.581 377.026 684.397 377.064C684.214 377.107 683.982 377.128 683.701 377.128C683.275 377.128 682.857 377.036 682.448 376.853C682.043 376.67 681.706 376.391 681.438 376.016C681.174 375.641 681.042 375.168 681.042 374.597V364.83ZM686.916 377V367.182H688.424V377H686.916ZM687.683 365.545C687.389 365.545 687.135 365.445 686.922 365.245C686.713 365.045 686.609 364.804 686.609 364.523C686.609 364.241 686.713 364.001 686.922 363.8C687.135 363.6 687.389 363.5 687.683 363.5C687.977 363.5 688.228 363.6 688.437 363.8C688.65 364.001 688.757 364.241 688.757 364.523C688.757 364.804 688.65 365.045 688.437 365.245C688.228 365.445 687.977 365.545 687.683 365.545ZM692.696 371.094V377H691.187V367.182H692.645V368.716H692.773C693.003 368.217 693.352 367.817 693.821 367.514C694.29 367.207 694.895 367.054 695.636 367.054C696.301 367.054 696.883 367.19 697.381 367.463C697.88 367.732 698.268 368.141 698.545 368.69C698.822 369.236 698.96 369.926 698.96 370.761V377H697.452V370.864C697.452 370.092 697.251 369.491 696.851 369.061C696.45 368.626 695.9 368.409 695.202 368.409C694.72 368.409 694.29 368.513 693.91 368.722C693.535 368.931 693.239 369.236 693.022 369.636C692.805 370.037 692.696 370.523 692.696 371.094ZM705.68 380.886C704.951 380.886 704.325 380.793 703.8 380.605C703.276 380.422 702.839 380.179 702.49 379.876C702.145 379.578 701.87 379.259 701.665 378.918L702.867 378.074C703.004 378.253 703.176 378.457 703.385 378.688C703.594 378.922 703.879 379.124 704.241 379.295C704.608 379.469 705.087 379.557 705.68 379.557C706.472 379.557 707.126 379.365 707.642 378.982C708.158 378.598 708.415 377.997 708.415 377.179V375.185H708.288C708.177 375.364 708.019 375.585 707.815 375.849C707.614 376.109 707.325 376.342 706.945 376.546C706.57 376.746 706.063 376.847 705.424 376.847C704.631 376.847 703.92 376.659 703.289 376.284C702.663 375.909 702.166 375.364 701.8 374.648C701.438 373.932 701.256 373.062 701.256 372.04C701.256 371.034 701.433 370.158 701.787 369.413C702.141 368.663 702.633 368.083 703.263 367.674C703.894 367.261 704.623 367.054 705.45 367.054C706.089 367.054 706.596 367.161 706.971 367.374C707.35 367.582 707.64 367.821 707.84 368.089C708.045 368.354 708.202 368.571 708.313 368.741H708.467V367.182H709.924V377.281C709.924 378.125 709.732 378.811 709.349 379.339C708.969 379.872 708.458 380.262 707.815 380.509C707.175 380.761 706.464 380.886 705.68 380.886ZM705.629 375.491C706.234 375.491 706.745 375.353 707.163 375.076C707.58 374.799 707.898 374.401 708.115 373.881C708.332 373.361 708.441 372.739 708.441 372.014C708.441 371.307 708.335 370.683 708.121 370.141C707.908 369.6 707.593 369.176 707.175 368.869C706.758 368.562 706.242 368.409 705.629 368.409C704.989 368.409 704.457 368.571 704.031 368.895C703.609 369.219 703.291 369.653 703.078 370.199C702.869 370.744 702.765 371.349 702.765 372.014C702.765 372.696 702.871 373.299 703.085 373.823C703.302 374.343 703.621 374.752 704.043 375.05C704.469 375.344 704.998 375.491 705.629 375.491ZM725.112 367.182C725.035 366.534 724.724 366.031 724.178 365.673C723.633 365.315 722.964 365.136 722.171 365.136C721.592 365.136 721.085 365.23 720.65 365.418C720.219 365.605 719.883 365.863 719.64 366.191C719.401 366.519 719.282 366.892 719.282 367.31C719.282 367.659 719.365 367.96 719.531 368.211C719.702 368.458 719.919 368.665 720.183 368.831C720.447 368.993 720.724 369.127 721.014 369.234C721.304 369.336 721.57 369.419 721.813 369.483L723.143 369.841C723.484 369.93 723.863 370.054 724.281 370.212C724.702 370.369 725.105 370.585 725.489 370.857C725.876 371.126 726.196 371.471 726.447 371.893C726.699 372.315 726.825 372.832 726.825 373.446C726.825 374.153 726.639 374.793 726.268 375.364C725.902 375.935 725.365 376.388 724.658 376.725C723.955 377.062 723.1 377.23 722.094 377.23C721.157 377.23 720.345 377.079 719.659 376.776C718.977 376.474 718.44 376.052 718.048 375.511C717.661 374.969 717.441 374.341 717.39 373.625H719.026C719.069 374.119 719.235 374.528 719.525 374.852C719.819 375.172 720.19 375.411 720.637 375.568C721.089 375.722 721.575 375.798 722.094 375.798C722.7 375.798 723.243 375.7 723.724 375.504C724.206 375.304 724.587 375.027 724.869 374.673C725.15 374.315 725.29 373.898 725.29 373.42C725.29 372.986 725.169 372.632 724.926 372.359C724.683 372.087 724.364 371.865 723.967 371.695C723.571 371.524 723.143 371.375 722.683 371.247L721.072 370.787C720.049 370.493 719.239 370.073 718.643 369.528C718.046 368.982 717.748 368.268 717.748 367.386C717.748 366.653 717.946 366.014 718.342 365.469C718.743 364.919 719.28 364.493 719.953 364.19C720.631 363.884 721.387 363.73 722.222 363.73C723.066 363.73 723.816 363.881 724.472 364.184C725.129 364.482 725.648 364.891 726.032 365.411C726.42 365.931 726.624 366.521 726.646 367.182H725.112ZM730.198 380.682C729.942 380.682 729.714 380.661 729.514 380.618C729.314 380.58 729.175 380.541 729.099 380.503L729.482 379.173C729.849 379.267 730.172 379.301 730.454 379.276C730.735 379.25 730.984 379.124 731.202 378.898C731.423 378.677 731.626 378.317 731.809 377.818L732.09 377.051L728.459 367.182H730.096L732.806 375.006H732.908L735.618 367.182H737.255L733.087 378.432C732.9 378.939 732.667 379.359 732.39 379.691C732.113 380.028 731.792 380.277 731.425 380.439C731.063 380.601 730.654 380.682 730.198 380.682ZM746.2 369.381L744.845 369.764C744.76 369.538 744.634 369.319 744.468 369.106C744.306 368.888 744.085 368.71 743.803 368.569C743.522 368.428 743.162 368.358 742.723 368.358C742.122 368.358 741.622 368.496 741.221 368.773C740.825 369.046 740.627 369.393 740.627 369.815C740.627 370.19 740.763 370.487 741.036 370.704C741.308 370.921 741.735 371.102 742.314 371.247L743.771 371.605C744.649 371.818 745.303 372.144 745.734 372.583C746.164 373.018 746.379 373.578 746.379 374.264C746.379 374.827 746.218 375.33 745.894 375.773C745.574 376.216 745.127 376.565 744.551 376.821C743.976 377.077 743.307 377.205 742.544 377.205C741.543 377.205 740.714 376.987 740.058 376.553C739.401 376.118 738.986 375.483 738.811 374.648L740.243 374.29C740.379 374.818 740.637 375.214 741.017 375.479C741.4 375.743 741.901 375.875 742.519 375.875C743.222 375.875 743.78 375.726 744.193 375.428C744.611 375.125 744.82 374.763 744.82 374.341C744.82 374 744.7 373.714 744.462 373.484C744.223 373.25 743.857 373.075 743.362 372.96L741.726 372.577C740.827 372.364 740.166 372.033 739.744 371.586C739.327 371.134 739.118 370.57 739.118 369.892C739.118 369.338 739.274 368.848 739.585 368.422C739.9 367.996 740.328 367.661 740.869 367.418C741.415 367.175 742.033 367.054 742.723 367.054C743.695 367.054 744.458 367.267 745.012 367.693C745.57 368.119 745.966 368.682 746.2 369.381ZM752.92 367.182V368.46H747.832V367.182H752.92ZM749.315 364.83H750.824V374.188C750.824 374.614 750.885 374.933 751.009 375.146C751.137 375.355 751.299 375.496 751.495 375.568C751.695 375.636 751.906 375.67 752.127 375.67C752.294 375.67 752.43 375.662 752.537 375.645C752.643 375.624 752.728 375.607 752.792 375.594L753.099 376.949C752.997 376.987 752.854 377.026 752.671 377.064C752.488 377.107 752.255 377.128 751.974 377.128C751.548 377.128 751.13 377.036 750.721 376.853C750.316 376.67 749.98 376.391 749.711 376.016C749.447 375.641 749.315 375.168 749.315 374.597V364.83ZM759.2 377.205C758.254 377.205 757.438 376.996 756.752 376.578C756.07 376.156 755.544 375.568 755.173 374.814C754.807 374.055 754.624 373.173 754.624 372.168C754.624 371.162 754.807 370.276 755.173 369.509C755.544 368.737 756.06 368.136 756.72 367.706C757.385 367.271 758.161 367.054 759.047 367.054C759.558 367.054 760.063 367.139 760.562 367.31C761.06 367.48 761.514 367.757 761.923 368.141C762.332 368.52 762.658 369.023 762.901 369.649C763.144 370.276 763.266 371.047 763.266 371.963V372.602H755.697V371.298H761.732C761.732 370.744 761.621 370.25 761.399 369.815C761.182 369.381 760.871 369.038 760.466 368.786C760.065 368.535 759.592 368.409 759.047 368.409C758.446 368.409 757.926 368.558 757.487 368.857C757.053 369.151 756.718 369.534 756.484 370.007C756.249 370.48 756.132 370.987 756.132 371.528V372.398C756.132 373.139 756.26 373.768 756.516 374.283C756.776 374.795 757.136 375.185 757.596 375.453C758.056 375.717 758.591 375.849 759.2 375.849C759.597 375.849 759.955 375.794 760.274 375.683C760.598 375.568 760.877 375.398 761.112 375.172C761.346 374.942 761.527 374.656 761.655 374.315L763.112 374.724C762.959 375.219 762.701 375.653 762.339 376.028C761.977 376.399 761.529 376.689 760.996 376.898C760.464 377.102 759.865 377.205 759.2 377.205ZM765.56 377V367.182H767.018V368.716H767.146C767.35 368.192 767.68 367.785 768.136 367.495C768.592 367.201 769.14 367.054 769.779 367.054C770.427 367.054 770.966 367.201 771.396 367.495C771.831 367.785 772.17 368.192 772.413 368.716H772.515C772.766 368.209 773.143 367.806 773.646 367.508C774.149 367.205 774.752 367.054 775.455 367.054C776.333 367.054 777.051 367.329 777.609 367.879C778.168 368.424 778.447 369.274 778.447 370.429V377H776.938V370.429C776.938 369.705 776.74 369.187 776.344 368.876C775.947 368.565 775.481 368.409 774.944 368.409C774.254 368.409 773.719 368.618 773.339 369.036C772.96 369.449 772.771 369.973 772.771 370.608V377H771.237V370.276C771.237 369.717 771.055 369.268 770.693 368.927C770.331 368.582 769.864 368.409 769.293 368.409C768.901 368.409 768.535 368.513 768.194 368.722C767.857 368.931 767.585 369.221 767.376 369.592C767.171 369.958 767.069 370.382 767.069 370.864V377H765.56Z" fill="white"/>
<path d="M803 343H604C597.925 343 593 347.925 593 354V387C593 393.075 597.925 398 604 398H803C809.075 398 814 393.075 814 387V354C814 347.925 809.075 343 803 343Z" stroke="url(#paint4_linear_419_12929)" stroke-width="2"/>
<path d="M801 411H604C597.373 411 592 416.373 592 423V456C592 462.627 597.373 468 604 468H801C807.627 468 813 462.627 813 456V423C813 416.373 807.627 411 801 411Z" fill="#3E3E3E" fill-opacity="0.24"/>
<path d="M628.585 446.002V432.911H630.17V444.596H636.256V446.002H628.585ZM642.622 446.207C641.676 446.207 640.86 445.998 640.174 445.58C639.492 445.158 638.966 444.57 638.595 443.816C638.229 443.057 638.045 442.175 638.045 441.17C638.045 440.164 638.229 439.278 638.595 438.511C638.966 437.739 639.482 437.138 640.142 436.708C640.807 436.273 641.582 436.056 642.469 436.056C642.98 436.056 643.485 436.141 643.984 436.312C644.482 436.482 644.936 436.759 645.345 437.143C645.754 437.522 646.08 438.025 646.323 438.651C646.566 439.278 646.688 440.049 646.688 440.965V441.604H639.119V440.3H645.153C645.153 439.746 645.043 439.252 644.821 438.817C644.604 438.383 644.293 438.04 643.888 437.788C643.487 437.537 643.014 437.411 642.469 437.411C641.868 437.411 641.348 437.56 640.909 437.859C640.474 438.153 640.14 438.536 639.906 439.009C639.671 439.482 639.554 439.989 639.554 440.53V441.4C639.554 442.141 639.682 442.77 639.938 443.285C640.197 443.797 640.558 444.187 641.018 444.455C641.478 444.719 642.013 444.851 642.622 444.851C643.018 444.851 643.376 444.796 643.696 444.685C644.02 444.57 644.299 444.4 644.533 444.174C644.768 443.944 644.949 443.658 645.077 443.317L646.534 443.726C646.381 444.221 646.123 444.655 645.761 445.03C645.398 445.401 644.951 445.691 644.418 445.9C643.886 446.104 643.287 446.207 642.622 446.207ZM650.491 440.096V446.002H648.982V436.184H650.44V437.718H650.567C650.798 437.219 651.147 436.819 651.616 436.516C652.085 436.209 652.69 436.056 653.431 436.056C654.096 436.056 654.678 436.192 655.176 436.465C655.675 436.734 656.063 437.143 656.339 437.692C656.616 438.238 656.755 438.928 656.755 439.763V446.002H655.246V439.866C655.246 439.094 655.046 438.493 654.646 438.063C654.245 437.628 653.695 437.411 652.996 437.411C652.515 437.411 652.085 437.515 651.705 437.724C651.33 437.933 651.034 438.238 650.817 438.638C650.599 439.039 650.491 439.525 650.491 440.096ZM663.475 449.888C662.746 449.888 662.119 449.795 661.595 449.607C661.071 449.424 660.634 449.181 660.285 448.878C659.94 448.58 659.665 448.261 659.46 447.92L660.662 447.076C660.798 447.255 660.971 447.459 661.18 447.69C661.389 447.924 661.674 448.126 662.036 448.297C662.403 448.471 662.882 448.559 663.475 448.559C664.267 448.559 664.921 448.367 665.437 447.984C665.953 447.6 666.21 446.999 666.21 446.181V444.187H666.083C665.972 444.366 665.814 444.587 665.61 444.851C665.409 445.111 665.119 445.344 664.74 445.548C664.365 445.748 663.858 445.849 663.219 445.849C662.426 445.849 661.715 445.661 661.084 445.286C660.458 444.911 659.961 444.366 659.595 443.65C659.232 442.934 659.051 442.064 659.051 441.042C659.051 440.036 659.228 439.16 659.582 438.415C659.936 437.665 660.428 437.085 661.058 436.676C661.689 436.263 662.418 436.056 663.244 436.056C663.884 436.056 664.391 436.163 664.766 436.376C665.145 436.584 665.435 436.823 665.635 437.091C665.84 437.356 665.997 437.573 666.108 437.743H666.262V436.184H667.719V446.283C667.719 447.127 667.527 447.813 667.144 448.341C666.764 448.874 666.253 449.264 665.61 449.511C664.97 449.763 664.259 449.888 663.475 449.888ZM663.423 444.493C664.029 444.493 664.54 444.355 664.958 444.078C665.375 443.801 665.693 443.403 665.91 442.883C666.127 442.363 666.236 441.741 666.236 441.016C666.236 440.309 666.129 439.685 665.916 439.143C665.703 438.602 665.388 438.178 664.97 437.871C664.553 437.564 664.037 437.411 663.423 437.411C662.784 437.411 662.252 437.573 661.825 437.897C661.404 438.221 661.086 438.655 660.873 439.201C660.664 439.746 660.56 440.351 660.56 441.016C660.56 441.698 660.666 442.301 660.879 442.825C661.097 443.345 661.416 443.754 661.838 444.052C662.264 444.346 662.793 444.493 663.423 444.493ZM674.75 436.184V437.462H669.662V436.184H674.75ZM671.145 433.832H672.654V443.19C672.654 443.616 672.715 443.935 672.839 444.148C672.967 444.357 673.129 444.498 673.325 444.57C673.525 444.638 673.736 444.672 673.958 444.672C674.124 444.672 674.26 444.664 674.367 444.647C674.473 444.626 674.558 444.609 674.622 444.596L674.929 445.951C674.827 445.989 674.684 446.028 674.501 446.066C674.318 446.109 674.085 446.13 673.804 446.13C673.378 446.13 672.96 446.038 672.551 445.855C672.146 445.672 671.81 445.393 671.541 445.018C671.277 444.643 671.145 444.17 671.145 443.599V433.832ZM678.739 440.096V446.002H677.23V432.911H678.739V437.718H678.867C679.097 437.211 679.442 436.808 679.902 436.51C680.367 436.207 680.985 436.056 681.756 436.056C682.425 436.056 683.011 436.19 683.514 436.459C684.017 436.723 684.406 437.13 684.683 437.68C684.965 438.225 685.105 438.92 685.105 439.763V446.002H683.597V439.866C683.597 439.086 683.394 438.483 682.99 438.057C682.589 437.626 682.033 437.411 681.321 437.411C680.827 437.411 680.384 437.515 679.992 437.724C679.604 437.933 679.297 438.238 679.071 438.638C678.85 439.039 678.739 439.525 678.739 440.096ZM696.916 446.207C696.03 446.207 695.252 445.996 694.583 445.574C693.918 445.152 693.398 444.562 693.023 443.803C692.653 443.045 692.467 442.158 692.467 441.144C692.467 440.121 692.653 439.229 693.023 438.466C693.398 437.703 693.918 437.111 694.583 436.689C695.252 436.267 696.03 436.056 696.916 436.056C697.803 436.056 698.578 436.267 699.243 436.689C699.912 437.111 700.432 437.703 700.803 438.466C701.178 439.229 701.365 440.121 701.365 441.144C701.365 442.158 701.178 443.045 700.803 443.803C700.432 444.562 699.912 445.152 699.243 445.574C698.578 445.996 697.803 446.207 696.916 446.207ZM696.916 444.851C697.589 444.851 698.143 444.679 698.578 444.334C699.013 443.989 699.335 443.535 699.543 442.972C699.752 442.41 699.857 441.8 699.857 441.144C699.857 440.488 699.752 439.876 699.543 439.31C699.335 438.743 699.013 438.285 698.578 437.935C698.143 437.586 697.589 437.411 696.916 437.411C696.243 437.411 695.689 437.586 695.254 437.935C694.82 438.285 694.498 438.743 694.289 439.31C694.08 439.876 693.976 440.488 693.976 441.144C693.976 441.8 694.08 442.41 694.289 442.972C694.498 443.535 694.82 443.989 695.254 444.334C695.689 444.679 696.243 444.851 696.916 444.851ZM708.04 436.184V437.462H702.747V436.184H708.04ZM704.333 446.002V434.829C704.333 434.266 704.465 433.797 704.729 433.422C704.993 433.047 705.336 432.766 705.758 432.579C706.18 432.391 706.625 432.297 707.094 432.297C707.465 432.297 707.767 432.327 708.002 432.387C708.236 432.447 708.411 432.502 708.526 432.553L708.091 433.857C708.014 433.832 707.908 433.8 707.771 433.761C707.639 433.723 707.465 433.704 707.247 433.704C706.749 433.704 706.389 433.829 706.167 434.081C705.95 434.332 705.841 434.701 705.841 435.187V446.002H704.333ZM719.487 436.184V437.462H714.398V436.184H719.487ZM715.881 433.832H717.39V443.19C717.39 443.616 717.452 443.935 717.575 444.148C717.703 444.357 717.865 444.498 718.061 444.57C718.261 444.638 718.472 444.672 718.694 444.672C718.86 444.672 718.996 444.664 719.103 444.647C719.21 444.626 719.295 444.609 719.359 444.596L719.665 445.951C719.563 445.989 719.42 446.028 719.237 446.066C719.054 446.109 718.822 446.13 718.54 446.13C718.114 446.13 717.697 446.038 717.288 445.855C716.883 445.672 716.546 445.393 716.278 445.018C716.013 444.643 715.881 444.17 715.881 443.599V433.832ZM723.475 440.096V446.002H721.967V432.911H723.475V437.718H723.603C723.833 437.211 724.178 436.808 724.638 436.51C725.103 436.207 725.721 436.056 726.492 436.056C727.161 436.056 727.747 436.19 728.25 436.459C728.753 436.723 729.143 437.13 729.42 437.68C729.701 438.225 729.842 438.92 729.842 439.763V446.002H728.333V439.866C728.333 439.086 728.131 438.483 727.726 438.057C727.325 437.626 726.769 437.411 726.058 437.411C725.563 437.411 725.12 437.515 724.728 437.724C724.34 437.933 724.033 438.238 723.808 438.638C723.586 439.039 723.475 439.525 723.475 440.096ZM736.718 446.207C735.772 446.207 734.956 445.998 734.27 445.58C733.588 445.158 733.062 444.57 732.691 443.816C732.324 443.057 732.141 442.175 732.141 441.17C732.141 440.164 732.324 439.278 732.691 438.511C733.062 437.739 733.577 437.138 734.238 436.708C734.903 436.273 735.678 436.056 736.564 436.056C737.076 436.056 737.581 436.141 738.079 436.312C738.578 436.482 739.032 436.759 739.441 437.143C739.85 437.522 740.176 438.025 740.419 438.651C740.662 439.278 740.783 440.049 740.783 440.965V441.604H733.215V440.3H739.249C739.249 439.746 739.138 439.252 738.917 438.817C738.699 438.383 738.388 438.04 737.983 437.788C737.583 437.537 737.11 437.411 736.564 437.411C735.964 437.411 735.444 437.56 735.005 437.859C734.57 438.153 734.236 438.536 734.001 439.009C733.767 439.482 733.65 439.989 733.65 440.53V441.4C733.65 442.141 733.778 442.77 734.033 443.285C734.293 443.797 734.653 444.187 735.113 444.455C735.574 444.719 736.108 444.851 736.718 444.851C737.114 444.851 737.472 444.796 737.792 444.685C738.116 444.57 738.395 444.4 738.629 444.174C738.863 443.944 739.045 443.658 739.172 443.317L740.63 443.726C740.476 444.221 740.219 444.655 739.856 445.03C739.494 445.401 739.047 445.691 738.514 445.9C737.981 446.104 737.383 446.207 736.718 446.207ZM748.345 446.002V432.911H749.854V437.743H749.981C750.092 437.573 750.246 437.356 750.442 437.091C750.642 436.823 750.927 436.584 751.298 436.376C751.673 436.163 752.18 436.056 752.819 436.056C753.646 436.056 754.375 436.263 755.006 436.676C755.636 437.089 756.128 437.675 756.482 438.434C756.836 439.192 757.013 440.087 757.013 441.118C757.013 442.158 756.836 443.06 756.482 443.822C756.128 444.581 755.638 445.169 755.012 445.587C754.385 446 753.663 446.207 752.845 446.207C752.214 446.207 751.709 446.102 751.33 445.893C750.951 445.68 750.659 445.439 750.454 445.171C750.25 444.898 750.092 444.672 749.981 444.493H749.802V446.002H748.345ZM749.828 441.093C749.828 441.834 749.937 442.489 750.154 443.055C750.371 443.618 750.689 444.059 751.106 444.378C751.524 444.694 752.035 444.851 752.64 444.851C753.271 444.851 753.797 444.685 754.219 444.353C754.645 444.016 754.965 443.564 755.178 442.998C755.395 442.427 755.504 441.792 755.504 441.093C755.504 440.403 755.398 439.78 755.184 439.226C754.976 438.668 754.658 438.227 754.232 437.903C753.81 437.575 753.28 437.411 752.64 437.411C752.027 437.411 751.511 437.567 751.094 437.878C750.676 438.185 750.361 438.615 750.148 439.169C749.934 439.719 749.828 440.36 749.828 441.093ZM763.309 446.207C762.422 446.207 761.645 445.996 760.976 445.574C760.311 445.152 759.791 444.562 759.416 443.803C759.045 443.045 758.86 442.158 758.86 441.144C758.86 440.121 759.045 439.229 759.416 438.466C759.791 437.703 760.311 437.111 760.976 436.689C761.645 436.267 762.422 436.056 763.309 436.056C764.195 436.056 764.971 436.267 765.635 436.689C766.305 437.111 766.824 437.703 767.195 438.466C767.57 439.229 767.758 440.121 767.758 441.144C767.758 442.158 767.57 443.045 767.195 443.803C766.824 444.562 766.305 445.152 765.635 445.574C764.971 445.996 764.195 446.207 763.309 446.207ZM763.309 444.851C763.982 444.851 764.536 444.679 764.971 444.334C765.405 443.989 765.727 443.535 765.936 442.972C766.145 442.41 766.249 441.8 766.249 441.144C766.249 440.488 766.145 439.876 765.936 439.31C765.727 438.743 765.405 438.285 764.971 437.935C764.536 437.586 763.982 437.411 763.309 437.411C762.635 437.411 762.081 437.586 761.647 437.935C761.212 438.285 760.89 438.743 760.682 439.31C760.473 439.876 760.368 440.488 760.368 441.144C760.368 441.8 760.473 442.41 760.682 442.972C760.89 443.535 761.212 443.989 761.647 444.334C762.081 444.679 762.635 444.851 763.309 444.851ZM770.781 436.184L773.133 440.198L775.486 436.184H777.224L774.054 441.093L777.224 446.002H775.486L773.133 442.192L770.781 446.002H769.042L772.162 441.093L769.042 436.184H770.781Z" fill="white"/>
<path d="M801 412H604C597.925 412 593 416.925 593 423V456C593 462.075 597.925 467 604 467H801C807.075 467 812 462.075 812 456V423C812 416.925 807.075 412 801 412Z" stroke="url(#paint5_linear_419_12929)" stroke-width="2"/>
<path d="M775 480H604C597.373 480 592 485.373 592 492V525C592 531.627 597.373 537 604 537H775C781.627 537 787 531.627 787 525V492C787 485.373 781.627 480 775 480Z" fill="#3E3E3E" fill-opacity="0.24"/>
<path d="M639.119 506.002H637.534C637.44 505.546 637.276 505.145 637.042 504.8C636.812 504.455 636.531 504.165 636.198 503.931C635.87 503.692 635.506 503.513 635.105 503.394C634.705 503.275 634.287 503.215 633.852 503.215C633.06 503.215 632.342 503.415 631.698 503.816C631.059 504.216 630.55 504.807 630.17 505.587C629.795 506.366 629.608 507.323 629.608 508.457C629.608 509.59 629.795 510.547 630.17 511.327C630.55 512.106 631.059 512.697 631.698 513.097C632.342 513.498 633.06 513.698 633.852 513.698C634.287 513.698 634.705 513.638 635.105 513.519C635.506 513.4 635.87 513.223 636.198 512.989C636.531 512.75 636.812 512.458 637.042 512.113C637.276 511.763 637.44 511.363 637.534 510.911H639.119C639 511.58 638.783 512.179 638.467 512.707C638.152 513.236 637.76 513.685 637.291 514.056C636.822 514.422 636.296 514.702 635.712 514.893C635.133 515.085 634.513 515.181 633.852 515.181C632.736 515.181 631.743 514.908 630.874 514.363C630.004 513.817 629.32 513.042 628.822 512.036C628.323 511.03 628.074 509.837 628.074 508.457C628.074 507.076 628.323 505.883 628.822 504.877C629.32 503.871 630.004 503.096 630.874 502.55C631.743 502.005 632.736 501.732 633.852 501.732C634.513 501.732 635.133 501.828 635.712 502.02C636.296 502.212 636.822 502.493 637.291 502.864C637.76 503.23 638.152 503.677 638.467 504.206C638.783 504.73 639 505.329 639.119 506.002ZM641.681 515.002V501.911H646.104C647.131 501.911 647.971 502.096 648.623 502.467C649.279 502.834 649.765 503.33 650.08 503.957C650.395 504.583 650.553 505.282 650.553 506.053C650.553 506.824 650.395 507.525 650.08 508.156C649.769 508.787 649.287 509.29 648.635 509.665C647.983 510.035 647.148 510.221 646.13 510.221H642.959V508.814H646.079C646.782 508.814 647.346 508.693 647.773 508.45C648.199 508.207 648.508 507.879 648.699 507.466C648.895 507.048 648.993 506.577 648.993 506.053C648.993 505.529 648.895 505.06 648.699 504.647C648.508 504.234 648.197 503.91 647.766 503.675C647.336 503.437 646.765 503.317 646.053 503.317H643.266V515.002H641.681ZM661.698 501.911H663.283V510.579C663.283 511.474 663.072 512.273 662.65 512.976C662.232 513.675 661.642 514.226 660.879 514.631C660.117 515.032 659.222 515.232 658.195 515.232C657.168 515.232 656.273 515.032 655.51 514.631C654.747 514.226 654.155 513.675 653.733 512.976C653.316 512.273 653.107 511.474 653.107 510.579V501.911H654.692V510.451C654.692 511.09 654.833 511.659 655.114 512.158C655.395 512.652 655.796 513.042 656.316 513.327C656.84 513.609 657.466 513.749 658.195 513.749C658.923 513.749 659.55 513.609 660.074 513.327C660.598 513.042 660.999 512.652 661.276 512.158C661.557 511.659 661.698 511.09 661.698 510.451V501.911ZM675.934 501.297L671.716 516.971H670.335L674.554 501.297H675.934ZM682.99 501.911H684.882L689.33 512.778H689.484L693.933 501.911H695.825V515.002H694.342V505.056H694.214L690.123 515.002H688.691L684.6 505.056H684.472V515.002H682.99V501.911ZM702.915 515.207C701.969 515.207 701.153 514.998 700.467 514.58C699.785 514.158 699.259 513.57 698.888 512.816C698.522 512.057 698.338 511.175 698.338 510.17C698.338 509.164 698.522 508.278 698.888 507.511C699.259 506.739 699.775 506.138 700.435 505.708C701.1 505.273 701.875 505.056 702.762 505.056C703.273 505.056 703.778 505.141 704.277 505.312C704.775 505.482 705.229 505.759 705.638 506.143C706.047 506.522 706.373 507.025 706.616 507.651C706.859 508.278 706.98 509.049 706.98 509.965V510.604H699.412V509.3H705.446C705.446 508.746 705.336 508.252 705.114 507.817C704.897 507.383 704.586 507.04 704.181 506.788C703.78 506.537 703.307 506.411 702.762 506.411C702.161 506.411 701.641 506.56 701.202 506.859C700.767 507.153 700.433 507.536 700.199 508.009C699.964 508.482 699.847 508.989 699.847 509.53V510.4C699.847 511.141 699.975 511.77 700.23 512.285C700.49 512.797 700.85 513.187 701.311 513.455C701.771 513.719 702.306 513.851 702.915 513.851C703.311 513.851 703.669 513.796 703.989 513.685C704.313 513.57 704.592 513.4 704.826 513.174C705.061 512.944 705.242 512.658 705.37 512.317L706.827 512.726C706.674 513.221 706.416 513.655 706.054 514.03C705.691 514.401 705.244 514.691 704.711 514.9C704.179 515.104 703.58 515.207 702.915 515.207ZM709.275 515.002V505.184H710.733V506.718H710.86C711.065 506.194 711.395 505.787 711.851 505.497C712.307 505.203 712.855 505.056 713.494 505.056C714.142 505.056 714.681 505.203 715.111 505.497C715.546 505.787 715.885 506.194 716.127 506.718H716.23C716.481 506.211 716.858 505.808 717.361 505.51C717.864 505.207 718.467 505.056 719.17 505.056C720.048 505.056 720.766 505.331 721.324 505.881C721.882 506.426 722.162 507.276 722.162 508.431V515.002H720.653V508.431C720.653 507.707 720.455 507.189 720.059 506.878C719.662 506.567 719.196 506.411 718.659 506.411C717.968 506.411 717.434 506.62 717.054 507.038C716.675 507.451 716.485 507.975 716.485 508.61V515.002H714.951V508.278C714.951 507.719 714.77 507.27 714.408 506.929C714.046 506.584 713.579 506.411 713.008 506.411C712.616 506.411 712.25 506.515 711.909 506.724C711.572 506.933 711.299 507.223 711.091 507.594C710.886 507.96 710.784 508.384 710.784 508.866V515.002H709.275ZM728.908 515.207C728.022 515.207 727.244 514.996 726.575 514.574C725.911 514.152 725.391 513.562 725.016 512.803C724.645 512.045 724.46 511.158 724.46 510.144C724.46 509.121 724.645 508.229 725.016 507.466C725.391 506.703 725.911 506.111 726.575 505.689C727.244 505.267 728.022 505.056 728.908 505.056C729.795 505.056 730.57 505.267 731.235 505.689C731.904 506.111 732.424 506.703 732.795 507.466C733.17 508.229 733.357 509.121 733.357 510.144C733.357 511.158 733.17 512.045 732.795 512.803C732.424 513.562 731.904 514.152 731.235 514.574C730.57 514.996 729.795 515.207 728.908 515.207ZM728.908 513.851C729.582 513.851 730.136 513.679 730.57 513.334C731.005 512.989 731.327 512.535 731.536 511.972C731.744 511.41 731.849 510.8 731.849 510.144C731.849 509.488 731.744 508.876 731.536 508.31C731.327 507.743 731.005 507.285 730.57 506.935C730.136 506.586 729.582 506.411 728.908 506.411C728.235 506.411 727.681 506.586 727.246 506.935C726.812 507.285 726.49 507.743 726.281 508.31C726.072 508.876 725.968 509.488 725.968 510.144C725.968 510.8 726.072 511.41 726.281 511.972C726.49 512.535 726.812 512.989 727.246 513.334C727.681 513.679 728.235 513.851 728.908 513.851ZM735.66 515.002V505.184H737.117V506.667H737.22C737.399 506.181 737.722 505.787 738.191 505.484C738.66 505.182 739.188 505.03 739.776 505.03C739.887 505.03 740.026 505.033 740.192 505.037C740.358 505.041 740.484 505.047 740.569 505.056V506.59C740.518 506.577 740.401 506.558 740.218 506.533C740.039 506.503 739.849 506.488 739.649 506.488C739.171 506.488 738.745 506.588 738.37 506.788C737.999 506.984 737.705 507.257 737.488 507.606C737.275 507.952 737.169 508.346 737.169 508.789V515.002H735.66ZM743.628 518.684C743.372 518.684 743.144 518.663 742.944 518.62C742.743 518.582 742.605 518.543 742.528 518.505L742.912 517.175C743.278 517.269 743.602 517.303 743.883 517.278C744.165 517.252 744.414 517.126 744.631 516.9C744.853 516.679 745.055 516.319 745.238 515.82L745.52 515.053L741.889 505.184H743.525L746.236 513.008H746.338L749.048 505.184H750.684L746.517 516.434C746.329 516.941 746.097 517.361 745.82 517.693C745.543 518.03 745.221 518.279 744.855 518.441C744.493 518.603 744.084 518.684 743.628 518.684Z" fill="white"/>
<path fill-rule="evenodd" clip-rule="evenodd" d="M604 482C598.477 482 594 486.477 594 492V525C594 530.523 598.477 535 604 535H775C780.523 535 785 530.523 785 525V492C785 486.477 780.523 482 775 482H604ZM592 492C592 485.373 597.373 480 604 480H775C781.627 480 787 485.373 787 492V525C787 531.627 781.627 537 775 537H604C597.373 537 592 531.627 592 525V492Z" fill="url(#paint6_linear_419_12929)"/>
<path d="M436 411H350C343.373 411 338 416.373 338 423V456C338 462.627 343.373 468 350 468H436C442.627 468 448 462.627 448 456V423C448 416.373 442.627 411 436 411Z" fill="#3E3E3E" fill-opacity="0.24"/>
<path d="M378.625 446.001H374.585V432.91H378.804C380.074 432.91 381.161 433.172 382.064 433.696C382.967 434.216 383.66 434.964 384.141 435.94C384.623 436.912 384.864 438.075 384.864 439.43C384.864 440.794 384.621 441.968 384.135 442.952C383.649 443.932 382.942 444.686 382.013 445.215C381.084 445.739 379.955 446.001 378.625 446.001ZM376.17 444.595H378.523C379.605 444.595 380.502 444.386 381.214 443.968C381.925 443.551 382.456 442.956 382.805 442.185C383.155 441.414 383.33 440.495 383.33 439.43C383.33 438.373 383.157 437.463 382.812 436.701C382.467 435.934 381.951 435.345 381.265 434.936C380.579 434.523 379.724 434.316 378.702 434.316H376.17V444.595ZM390.207 446.231C389.585 446.231 389.021 446.114 388.513 445.88C388.006 445.641 387.604 445.298 387.305 444.85C387.007 444.399 386.858 443.853 386.858 443.214C386.858 442.652 386.969 442.196 387.19 441.846C387.412 441.492 387.708 441.215 388.079 441.015C388.45 440.815 388.859 440.666 389.306 440.568C389.758 440.465 390.212 440.385 390.668 440.325C391.264 440.248 391.748 440.191 392.119 440.152C392.494 440.11 392.766 440.039 392.937 439.941C393.112 439.843 393.199 439.673 393.199 439.43V439.379C393.199 438.748 393.026 438.258 392.681 437.909C392.34 437.559 391.822 437.385 391.128 437.385C390.408 437.385 389.843 437.542 389.434 437.858C389.025 438.173 388.737 438.51 388.571 438.867L387.139 438.356C387.395 437.76 387.736 437.295 388.162 436.963C388.592 436.626 389.061 436.392 389.568 436.26C390.08 436.123 390.582 436.055 391.077 436.055C391.392 436.055 391.754 436.093 392.163 436.17C392.577 436.242 392.975 436.394 393.359 436.624C393.746 436.854 394.068 437.201 394.324 437.666C394.58 438.13 394.707 438.752 394.707 439.532V446.001H393.199V444.671H393.122C393.02 444.885 392.849 445.113 392.611 445.355C392.372 445.598 392.055 445.805 391.658 445.975C391.262 446.146 390.778 446.231 390.207 446.231ZM390.438 444.876C391.034 444.876 391.537 444.759 391.946 444.524C392.359 444.29 392.67 443.988 392.879 443.617C393.092 443.246 393.199 442.856 393.199 442.447V441.066C393.135 441.143 392.994 441.213 392.777 441.277C392.564 441.337 392.317 441.39 392.036 441.437C391.759 441.48 391.488 441.518 391.224 441.552C390.964 441.582 390.753 441.608 390.591 441.629C390.199 441.68 389.832 441.763 389.491 441.878C389.155 441.989 388.882 442.157 388.673 442.383C388.469 442.605 388.366 442.907 388.366 443.291C388.366 443.815 388.56 444.211 388.948 444.48C389.34 444.744 389.837 444.876 390.438 444.876ZM401.731 436.183V437.461H396.643V436.183H401.731ZM398.126 433.831H399.634V443.189C399.634 443.615 399.696 443.934 399.819 444.147C399.947 444.356 400.109 444.497 400.305 444.569C400.506 444.637 400.716 444.671 400.938 444.671C401.104 444.671 401.241 444.663 401.347 444.646C401.454 444.625 401.539 444.608 401.603 444.595L401.91 445.95C401.807 445.988 401.665 446.027 401.481 446.065C401.298 446.108 401.066 446.129 400.785 446.129C400.358 446.129 399.941 446.037 399.532 445.854C399.127 445.671 398.79 445.392 398.522 445.017C398.258 444.642 398.126 444.169 398.126 443.598V433.831ZM406.889 446.231C406.267 446.231 405.702 446.114 405.195 445.88C404.688 445.641 404.285 445.298 403.987 444.85C403.689 444.399 403.54 443.853 403.54 443.214C403.54 442.652 403.65 442.196 403.872 441.846C404.094 441.492 404.39 441.215 404.76 441.015C405.131 440.815 405.54 440.666 405.988 440.568C406.439 440.465 406.893 440.385 407.349 440.325C407.946 440.248 408.43 440.191 408.8 440.152C409.175 440.11 409.448 440.039 409.618 439.941C409.793 439.843 409.881 439.673 409.881 439.43V439.379C409.881 438.748 409.708 438.258 409.363 437.909C409.022 437.559 408.504 437.385 407.809 437.385C407.089 437.385 406.525 437.542 406.116 437.858C405.706 438.173 405.419 438.51 405.253 438.867L403.821 438.356C404.077 437.76 404.417 437.295 404.844 436.963C405.274 436.626 405.743 436.392 406.25 436.26C406.761 436.123 407.264 436.055 407.758 436.055C408.074 436.055 408.436 436.093 408.845 436.17C409.258 436.242 409.657 436.394 410.04 436.624C410.428 436.854 410.75 437.201 411.006 437.666C411.261 438.13 411.389 438.752 411.389 439.532V446.001H409.881V444.671H409.804C409.702 444.885 409.531 445.113 409.292 445.355C409.054 445.598 408.736 445.805 408.34 445.975C407.944 446.146 407.46 446.231 406.889 446.231ZM407.119 444.876C407.716 444.876 408.219 444.759 408.628 444.524C409.041 444.29 409.352 443.988 409.561 443.617C409.774 443.246 409.881 442.856 409.881 442.447V441.066C409.817 441.143 409.676 441.213 409.459 441.277C409.246 441.337 408.998 441.39 408.717 441.437C408.44 441.48 408.17 441.518 407.905 441.552C407.645 441.582 407.434 441.608 407.273 441.629C406.881 441.68 406.514 441.763 406.173 441.878C405.836 441.989 405.564 442.157 405.355 442.383C405.15 442.605 405.048 442.907 405.048 443.291C405.048 443.815 405.242 444.211 405.63 444.48C406.022 444.744 406.518 444.876 407.119 444.876Z" fill="white"/>
<path d="M436 412H350C343.925 412 339 416.925 339 423V456C339 462.075 343.925 467 350 467H436C442.075 467 447 462.075 447 456V423C447 416.925 442.075 412 436 412Z" stroke="url(#paint7_linear_419_12929)" stroke-width="2"/>
<path d="M392.646 340.354C392.842 340.549 393.158 340.549 393.354 340.354L396.536 337.172C396.731 336.976 396.731 336.66 396.536 336.464C396.34 336.269 396.024 336.269 395.828 336.464L393 339.293L390.172 336.464C389.976 336.269 389.66 336.269 389.464 336.464C389.269 336.66 389.269 336.976 389.464 337.172L392.646 340.354ZM639.5 274V264H638.5V274H639.5ZM591 215.5H441V216.5H591V215.5ZM392.5 264V340H393.5V264H392.5ZM441 215.5C429.7 215.5 421.175 215.499 414.599 216.383C408.008 217.269 403.299 219.053 399.676 222.676L400.383 223.383C403.789 219.977 408.252 218.245 414.732 217.374C421.227 216.501 429.672 216.5 441 216.5V215.5ZM393.5 264C393.5 252.672 393.501 244.227 394.374 237.732C395.245 231.252 396.977 226.789 400.383 223.383L399.676 222.676C396.053 226.299 394.269 231.008 393.383 237.599C392.499 244.175 392.5 252.7 392.5 264H393.5ZM639.5 264C639.5 252.7 639.501 244.175 638.617 237.599C637.731 231.008 635.947 226.299 632.324 222.676L631.617 223.383C635.023 226.789 636.755 231.252 637.626 237.732C638.499 244.227 638.5 252.672 638.5 264H639.5ZM591 216.5C602.328 216.5 610.773 216.501 617.268 217.374C623.748 218.245 628.211 219.977 631.617 223.383L632.324 222.676C628.701 219.053 623.992 217.269 617.401 216.383C610.825 215.499 602.3 215.5 591 215.5V216.5Z" fill="black"/>
<path d="M392.646 340.354C392.842 340.549 393.158 340.549 393.354 340.354L396.536 337.172C396.731 336.976 396.731 336.66 396.536 336.464C396.34 336.269 396.024 336.269 395.828 336.464L393 339.293L390.172 336.464C389.976 336.269 389.66 336.269 389.464 336.464C389.269 336.66 389.269 336.976 389.464 337.172L392.646 340.354ZM639.5 274V264H638.5V274H639.5ZM591 215.5H441V216.5H591V215.5ZM392.5 264V340H393.5V264H392.5ZM441 215.5C429.7 215.5 421.175 215.499 414.599 216.383C408.008 217.269 403.299 219.053 399.676 222.676L400.383 223.383C403.789 219.977 408.252 218.245 414.732 217.374C421.227 216.501 429.672 216.5 441 216.5V215.5ZM393.5 264C393.5 252.672 393.501 244.227 394.374 237.732C395.245 231.252 396.977 226.789 400.383 223.383L399.676 222.676C396.053 226.299 394.269 231.008 393.383 237.599C392.499 244.175 392.5 252.7 392.5 264H393.5ZM639.5 264C639.5 252.7 639.501 244.175 638.617 237.599C637.731 231.008 635.947 226.299 632.324 222.676L631.617 223.383C635.023 226.789 636.755 231.252 637.626 237.732C638.499 244.227 638.5 252.672 638.5 264H639.5ZM591 216.5C602.328 216.5 610.773 216.501 617.268 217.374C623.748 218.245 628.211 219.977 631.617 223.383L632.324 222.676C628.701 219.053 623.992 217.269 617.401 216.383C610.825 215.499 602.3 215.5 591 215.5V216.5Z" fill="url(#paint8_linear_419_12929)"/>
<path d="M689.354 536.646C689.158 536.451 688.842 536.451 688.646 536.646L685.464 539.828C685.269 540.024 685.269 540.34 685.464 540.536C685.66 540.731 685.976 540.731 686.172 540.536L689 537.707L691.828 540.536C692.024 540.731 692.34 540.731 692.536 540.536C692.731 540.34 692.731 540.024 692.536 539.828L689.354 536.646ZM392.5 468V572H393.5V468H392.5ZM441 620.5H641V619.5H441V620.5ZM689.5 572V537H688.5V572H689.5ZM641 620.5C652.3 620.5 660.825 620.501 667.401 619.617C673.992 618.731 678.701 616.947 682.324 613.324L681.617 612.617C678.211 616.023 673.748 617.755 667.268 618.626C660.773 619.499 652.328 619.5 641 619.5V620.5ZM688.5 572C688.5 583.328 688.499 591.773 687.626 598.268C686.755 604.748 685.023 609.211 681.617 612.617L682.324 613.324C685.947 609.701 687.731 604.992 688.617 598.401C689.501 591.825 689.5 583.3 689.5 572H688.5ZM392.5 572C392.5 583.3 392.499 591.825 393.383 598.401C394.269 604.992 396.053 609.701 399.676 613.324L400.383 612.617C396.977 609.211 395.245 604.748 394.374 598.268C393.501 591.773 393.5 583.328 393.5 572H392.5ZM441 619.5C429.672 619.5 421.227 619.499 414.732 618.626C408.252 617.755 403.789 616.023 400.383 612.617L399.676 613.324C403.299 616.947 408.008 618.731 414.599 619.617C421.175 620.501 429.7 620.5 441 620.5V619.5Z" fill="black"/>
<path d="M689.354 536.646C689.158 536.451 688.842 536.451 688.646 536.646L685.464 539.828C685.269 540.024 685.269 540.34 685.464 540.536C685.66 540.731 685.976 540.731 686.172 540.536L689 537.707L691.828 540.536C692.024 540.731 692.34 540.731 692.536 540.536C692.731 540.34 692.731 540.024 692.536 539.828L689.354 536.646ZM392.5 468V572H393.5V468H392.5ZM441 620.5H641V619.5H441V620.5ZM689.5 572V537H688.5V572H689.5ZM641 620.5C652.3 620.5 660.825 620.501 667.401 619.617C673.992 618.731 678.701 616.947 682.324 613.324L681.617 612.617C678.211 616.023 673.748 617.755 667.268 618.626C660.773 619.499 652.328 619.5 641 619.5V620.5ZM688.5 572C688.5 583.328 688.499 591.773 687.626 598.268C686.755 604.748 685.023 609.211 681.617 612.617L682.324 613.324C685.947 609.701 687.731 604.992 688.617 598.401C689.501 591.825 689.5 583.3 689.5 572H688.5ZM392.5 572C392.5 583.3 392.499 591.825 393.383 598.401C394.269 604.992 396.053 609.701 399.676 613.324L400.383 612.617C396.977 609.211 395.245 604.748 394.374 598.268C393.501 591.773 393.5 583.328 393.5 572H392.5ZM441 619.5C429.672 619.5 421.227 619.499 414.732 618.626C408.252 617.755 403.789 616.023 400.383 612.617L399.676 613.324C403.299 616.947 408.008 618.731 414.599 619.617C421.175 620.501 429.7 620.5 441 620.5V619.5Z" fill="url(#paint9_linear_419_12929)"/>
<g filter="url(#filter1_d_419_12929)">
<path d="M325 316.957C320.668 319.457 315.332 319.457 311 316.957L292.091 306.039C287.759 303.539 285.091 298.917 285.091 293.915V272.081C285.091 267.079 287.759 262.457 292.091 259.957L311 249.039C315.332 246.539 320.668 246.539 325 249.039L343.909 259.957C348.241 262.457 350.909 267.079 350.909 272.081V293.915C350.909 298.917 348.241 303.539 343.909 306.039L325 316.957Z" fill="#3E3E3E" fill-opacity="0.01"/>
<path d="M311.25 316.524L292.341 305.606C288.164 303.195 285.591 298.738 285.591 293.915V272.081C285.591 267.258 288.164 262.801 292.341 260.39L311.25 249.472C315.427 247.061 320.573 247.061 324.75 249.472L343.659 260.39C347.836 262.801 350.409 267.258 350.409 272.081V293.915C350.409 298.738 347.836 303.195 343.659 305.606L324.75 316.524C320.573 318.935 315.427 318.935 311.25 316.524Z" stroke="url(#paint10_linear_419_12929)"/>
</g>
<path d="M317.999 287C319.38 287 320.499 285.881 320.499 284.5C320.499 283.119 319.38 282 317.999 282C316.618 282 315.499 283.119 315.499 284.5C315.499 285.881 316.618 287 317.999 287Z" stroke="#9928FE" stroke-width="2" stroke-linecap="round" stroke-linejoin="round"/>
<path d="M317.999 287V290" stroke="#9928FE" stroke-width="2" stroke-linecap="round" stroke-linejoin="round"/>
<path d="M327.999 278H307.999C307.447 278 306.999 278.448 306.999 279V293C306.999 293.552 307.447 294 307.999 294H327.999C328.551 294 328.999 293.552 328.999 293V279C328.999 278.448 328.551 278 327.999 278Z" stroke="#9928FE" stroke-width="2" stroke-linecap="round" stroke-linejoin="round"/>
<path d="M313.499 278V273.5C313.499 272.307 313.973 271.162 314.817 270.318C315.661 269.474 316.806 269 317.999 269C319.192 269 320.337 269.474 321.181 270.318C322.025 271.162 322.499 272.307 322.499 273.5V278" stroke="#9928FE" stroke-width="2" stroke-linecap="round" stroke-linejoin="round"/>
<defs>
<filter id="filter0_d_419_12929" x="0.972046" y="0.257812" width="784.056" height="817.48" filterUnits="userSpaceOnUse" color-interpolation-filters="sRGB">
<feFlood flood-opacity="0" result="BackgroundImageFix"/>
<feColorMatrix in="SourceAlpha" type="matrix" values="0 0 0 0 0 0 0 0 0 0 0 0 0 0 0 0 0 0 127 0" result="hardAlpha"/>
<feOffset dy="4"/>
<feGaussianBlur stdDeviation="125"/>
<feComposite in2="hardAlpha" operator="out"/>
<feColorMatrix type="matrix" values="0 0 0 0 0.6 0 0 0 0 0.156863 0 0 0 0 0.996078 0 0 0 0.6 0"/>
<feBlend mode="normal" in2="BackgroundImageFix" result="effect1_dropShadow_419_12929"/>
<feBlend mode="normal" in="SourceGraphic" in2="effect1_dropShadow_419_12929" result="shape"/>
</filter>
<filter id="filter1_d_419_12929" x="35.0911" y="1.16406" width="565.818" height="571.668" filterUnits="userSpaceOnUse" color-interpolation-filters="sRGB">
<feFlood flood-opacity="0" result="BackgroundImageFix"/>
<feColorMatrix in="SourceAlpha" type="matrix" values="0 0 0 0 0 0 0 0 0 0 0 0 0 0 0 0 0 0 127 0" result="hardAlpha"/>
<feOffset dy="4"/>
<feGaussianBlur stdDeviation="125"/>
<feComposite in2="hardAlpha" operator="out"/>
<feColorMatrix type="matrix" values="0 0 0 0 0.6 0 0 0 0 0.156863 0 0 0 0 0.996078 0 0 0 0.6 0"/>
<feBlend mode="normal" in2="BackgroundImageFix" result="effect1_dropShadow_419_12929"/>
<feBlend mode="normal" in="SourceGraphic" in2="effect1_dropShadow_419_12929" result="shape"/>
</filter>
<linearGradient id="paint0_linear_419_12929" x1="1091.61" y1="383.252" x2="374.137" y2="-41.7439" gradientUnits="userSpaceOnUse">
<stop stop-color="#9A74DB"/>
<stop offset="1" stop-color="#9A74DB" stop-opacity="0"/>
</linearGradient>
<linearGradient id="paint1_linear_419_12929" x1="145.929" y1="374.279" x2="285.655" y2="542.716" gradientUnits="userSpaceOnUse">
<stop stop-color="#9A74DB"/>
<stop offset="1" stop-color="#9A74DB" stop-opacity="0"/>
</linearGradient>
<linearGradient id="paint2_linear_419_12929" x1="420.858" y1="305.279" x2="562.492" y2="459.825" gradientUnits="userSpaceOnUse">
<stop stop-color="#9A74DB"/>
<stop offset="1" stop-color="#9A74DB" stop-opacity="0"/>
</linearGradient>
<linearGradient id="paint3_linear_419_12929" x1="540.858" y1="305.279" x2="682.492" y2="459.825" gradientUnits="userSpaceOnUse">
<stop stop-color="#9A74DB"/>
<stop offset="1" stop-color="#9A74DB" stop-opacity="0"/>
</linearGradient>
<linearGradient id="paint4_linear_419_12929" x1="228.528" y1="374.279" x2="331.966" y2="613.99" gradientUnits="userSpaceOnUse">
<stop stop-color="#9A74DB"/>
<stop offset="1" stop-color="#9A74DB" stop-opacity="0"/>
</linearGradient>
<linearGradient id="paint5_linear_419_12929" x1="231.787" y1="443.279" x2="335.865" y2="682.308" gradientUnits="userSpaceOnUse">
<stop stop-color="#9A74DB"/>
<stop offset="1" stop-color="#9A74DB" stop-opacity="0"/>
</linearGradient>
<linearGradient id="paint6_linear_419_12929" x1="274.165" y1="512.279" x2="387.005" y2="740.942" gradientUnits="userSpaceOnUse">
<stop stop-color="#9A74DB"/>
<stop offset="1" stop-color="#9A74DB" stop-opacity="0"/>
</linearGradient>
<linearGradient id="paint7_linear_419_12929" x1="158.709" y1="443.279" x2="299.619" y2="604.358" gradientUnits="userSpaceOnUse">
<stop stop-color="#9A74DB"/>
<stop offset="1" stop-color="#9A74DB" stop-opacity="0"/>
</linearGradient>
<linearGradient id="paint8_linear_419_12929" x1="2238" y1="331.278" x2="2238" y2="215.98" gradientUnits="userSpaceOnUse">
<stop offset="0.0001" stop-color="#8B69CA"/>
<stop offset="0.416667" stop-color="#9A74DB"/>
<stop offset="0.84375" stop-color="#9872D8"/>
</linearGradient>
<linearGradient id="paint9_linear_419_12929" x1="-1206" y1="504.722" x2="-1206" y2="620.02" gradientUnits="userSpaceOnUse">
<stop offset="0.0001" stop-color="#30DAFF"/>
<stop offset="0.416667" stop-color="#30DAFF"/>
<stop offset="0.84375" stop-color="#30DAFF"/>
</linearGradient>
<linearGradient id="paint10_linear_419_12929" x1="479.874" y1="277.959" x2="313.629" y2="179.485" gradientUnits="userSpaceOnUse">
<stop stop-color="#9A74DB"/>
<stop offset="1" stop-color="#9A74DB" stop-opacity="0"/>
</linearGradient>
</defs>
</svg>
