<svg width="64" height="64" viewBox="0 0 64 64" fill="none" xmlns="http://www.w3.org/2000/svg">
<rect x="7.99866" y="8" width="48" height="48" rx="5" fill="#9928FE"/>
<path fill-rule="evenodd" clip-rule="evenodd" d="M20.1633 45.4527L25.8087 44.042C27.6839 43.5731 29.3965 42.6035 30.7633 41.2367L43.83 28.17C44.8917 27.1096 45.4883 25.6706 45.4883 24.17C45.4883 22.6695 44.8917 21.2304 43.83 20.17V20.17C42.7696 19.1083 41.3306 18.5117 39.83 18.5117C38.3294 18.5117 36.8904 19.1083 35.83 20.17L22.7633 33.2367C21.3966 34.6036 20.4269 36.3161 19.958 38.1914L18.5474 43.8367C18.4343 44.2907 18.5675 44.7708 18.8984 45.1017C19.2292 45.4325 19.7093 45.5658 20.1633 45.4527Z" stroke="white" stroke-width="4" stroke-linecap="round" stroke-linejoin="round"/>
<path d="M37.3334 45.3333H45.3334" stroke="white" stroke-width="4" stroke-linecap="round" stroke-linejoin="round"/>
</svg>
