<?xml version="1.0" standalone="no"?>
<!DOCTYPE svg PUBLIC "-//W3C//DTD SVG 20010904//EN"
 "http://www.w3.org/TR/2001/REC-SVG-20010904/DTD/svg10.dtd">
<svg version="1.0" xmlns="http://www.w3.org/2000/svg"
 width="260.000000pt" height="260.000000pt" viewBox="0 0 260.000000 260.000000"
 preserveAspectRatio="xMidYMid meet">
<metadata>
Created by potrace 1.14, written by Peter Selinger 2001-2017
</metadata>
<g transform="translate(0.000000,260.000000) scale(0.100000,-0.100000)"
fill="#000000" stroke="none">
<path d="M595 2590 c-292 -14 -421 -66 -502 -202 -55 -91 -73 -184 -85 -443
-12 -279 -4 -1398 11 -1500 43 -279 152 -385 438 -427 126 -18 1560 -18 1686
0 290 43 396 149 439 439 18 126 18 1560 0 1686 -42 286 -148 395 -427 438
-86 13 -1329 21 -1560 9z m771 -631 c45 -26 53 -34 42 -44 -7 -7 -107 -63
-221 -125 -114 -62 -206 -114 -204 -116 6 -6 828 -454 833 -454 3 0 4 26 2 57
l-3 57 -307 166 c-169 91 -306 169 -305 173 1 5 27 22 58 38 l55 30 115 -64
c63 -35 176 -96 252 -136 l137 -73 0 49 c0 26 -4 53 -8 59 -4 6 -91 57 -194
113 -104 57 -188 106 -188 110 0 3 24 19 54 35 l53 29 197 -109 c138 -76 198
-115 201 -129 3 -11 2 -151 -2 -312 l-8 -291 -491 267 c-270 147 -511 279
-535 293 -41 24 -46 25 -72 12 l-27 -15 0 -345 0 -346 -52 31 -53 30 -5 334
c-3 184 -4 340 -2 348 1 8 26 28 55 44 134 75 562 314 565 315 1 0 27 -14 58
-31z m-174 -653 c541 -310 633 -364 632 -373 -1 -10 -84 -61 -101 -62 -10 -1
-625 347 -696 394 l-27 17 0 -65 c0 -50 4 -66 16 -71 38 -15 593 -339 590
-345 -3 -3 -29 -19 -58 -35 l-55 -29 -209 120 c-115 66 -226 130 -246 142
l-38 23 0 -64 1 -63 186 -105 c102 -58 185 -110 185 -115 0 -5 -22 -22 -49
-37 l-49 -27 -114 66 c-63 36 -149 85 -190 109 -41 24 -78 51 -82 61 -7 20
-11 633 -3 633 2 0 141 -78 307 -174z"/>
</g>
</svg>
