<svg width="1060" height="884" viewBox="0 0 1060 884" fill="none" xmlns="http://www.w3.org/2000/svg">
	<g clip-path="url(#clip0_853_16353)">
		<g filter="url(#filter0_d_853_16353)">
			<path d="M770 559.072C762.574 563.359 753.426 563.359 746 559.072L718.905 543.428C711.479 539.141 706.905 531.218 706.905 522.644V491.356C706.905 482.782 711.479 474.859 718.905 470.572L746 454.928C753.426 450.641 762.574 450.641 770 454.928L797.096 470.572C804.521 474.859 809.096 482.782 809.096 491.356V522.644C809.096 531.218 804.521 539.141 797.095 543.428L770 559.072Z" fill="#3E3E3E" fill-opacity="0.01" />
			<path d="M746.25 558.639L719.155 542.995C711.884 538.797 707.405 531.039 707.405 522.644V491.356C707.405 482.961 711.884 475.203 719.155 471.005L746.25 455.361C753.521 451.163 762.479 451.163 769.75 455.361L796.846 471.005C804.116 475.203 808.596 482.961 808.596 491.356V522.644C808.596 531.039 804.116 538.797 796.845 542.995L769.75 558.639C762.479 562.837 753.521 562.837 746.25 558.639Z" stroke="url(#paint0_linear_853_16353)" />
		</g>
		<g filter="url(#filter1_d_853_16353)">
			<path d="M290 320.928C297.426 316.641 306.574 316.641 314 320.928L341.095 336.572C348.521 340.859 353.095 348.782 353.095 357.356V388.644C353.095 397.218 348.521 405.141 341.095 409.428L314 425.072C306.574 429.359 297.426 429.359 290 425.072L262.905 409.428C255.479 405.141 250.905 397.218 250.905 388.644V357.356C250.905 348.782 255.479 340.859 262.905 336.572L290 320.928Z" fill="#3E3E3E" fill-opacity="0.01" />
			<path d="M313.75 321.361L340.845 337.005C348.116 341.203 352.595 348.961 352.595 357.356V388.644C352.595 397.039 348.116 404.797 340.845 408.995L313.75 424.639C306.479 428.837 297.521 428.837 290.25 424.639L263.155 408.995C255.884 404.797 251.405 397.039 251.405 388.644V357.356C251.405 348.961 255.884 341.203 263.155 337.005L290.25 321.361C297.521 317.163 306.479 317.163 313.75 321.361Z" stroke="url(#paint1_linear_853_16353)" />
		</g>
		<g filter="url(#filter2_d_853_16353)">
			<path d="M378 625.185C367.48 631.259 354.52 631.259 344 625.185L287.067 592.315C276.548 586.241 270.067 575.017 270.067 562.87V497.13C270.067 484.983 276.548 473.759 287.067 467.685L344 434.815C354.52 428.741 367.48 428.741 378 434.815L434.933 467.685C445.452 473.759 451.933 484.983 451.933 497.13V562.87C451.933 575.017 445.452 586.241 434.933 592.315L378 625.185Z" fill="black" fill-opacity="0.55" />
			<path d="M344.25 624.752L287.317 591.882C276.952 585.898 270.567 574.838 270.567 562.87V497.13C270.567 485.161 276.952 474.102 287.317 468.118L344.25 435.248C354.615 429.264 367.385 429.264 377.75 435.248L434.683 468.118C445.048 474.102 451.433 485.162 451.433 497.13V562.87C451.433 574.838 445.048 585.898 434.683 591.882L377.75 624.752C367.385 630.736 354.615 630.736 344.25 624.752Z" stroke="url(#paint2_linear_853_16353)" />
		</g>
		<path d="M302 551H305.193L310.744 564.764H310.949L316.5 551H319.693V568.706H317.19V555.893H317.028L311.885 568.68H309.808L304.665 555.885H304.503V568.706H302V551Z" fill="white" />
		<path d="M328.95 568.974C327.661 568.974 326.552 568.695 325.621 568.135C324.696 567.571 323.98 566.778 323.475 565.758C322.976 564.732 322.726 563.53 322.726 562.153C322.726 560.793 322.976 559.594 323.475 558.556C323.98 557.519 324.684 556.709 325.587 556.127C326.495 555.545 327.556 555.254 328.771 555.254C329.509 555.254 330.224 555.378 330.917 555.625C331.609 555.873 332.231 556.262 332.781 556.793C333.332 557.323 333.766 558.012 334.084 558.859C334.402 559.7 334.561 560.723 334.561 561.928V562.844H324.165V560.908H332.066C332.066 560.228 331.93 559.625 331.658 559.101C331.385 558.571 331.002 558.153 330.508 557.847C330.02 557.542 329.447 557.389 328.788 557.389C328.073 557.389 327.449 557.568 326.915 557.925C326.387 558.277 325.978 558.738 325.689 559.308C325.405 559.873 325.263 560.487 325.263 561.15V562.663C325.263 563.55 325.417 564.305 325.723 564.928C326.035 565.55 326.469 566.026 327.026 566.354C327.582 566.677 328.232 566.839 328.976 566.839C329.458 566.839 329.898 566.769 330.295 566.631C330.693 566.487 331.036 566.274 331.325 565.991C331.615 565.709 331.836 565.36 331.99 564.945L334.399 565.386C334.206 566.107 333.86 566.738 333.36 567.28C332.867 567.816 332.245 568.233 331.496 568.533C330.752 568.827 329.904 568.974 328.95 568.974Z" fill="white" />
		<path d="M343.49 555.427V557.501H336.347V555.427H343.49ZM338.263 552.245H340.808V564.807C340.808 565.308 340.882 565.686 341.03 565.939C341.177 566.187 341.367 566.357 341.6 566.45C341.839 566.536 342.097 566.579 342.375 566.579C342.579 566.579 342.758 566.565 342.911 566.536C343.065 566.507 343.184 566.484 343.269 566.467L343.729 568.602C343.581 568.66 343.371 568.718 343.099 568.775C342.826 568.839 342.486 568.873 342.077 568.879C341.407 568.89 340.783 568.769 340.204 568.516C339.625 568.262 339.157 567.87 338.799 567.34C338.441 566.81 338.263 566.144 338.263 565.343V552.245Z" fill="white" />
		<path d="M350.112 569C349.284 569 348.534 568.844 347.865 568.533C347.195 568.216 346.664 567.758 346.272 567.159C345.886 566.559 345.693 565.824 345.693 564.954C345.693 564.205 345.835 563.588 346.119 563.104C346.403 562.62 346.786 562.236 347.269 561.954C347.751 561.671 348.29 561.458 348.886 561.314C349.482 561.17 350.09 561.061 350.708 560.986C351.492 560.893 352.127 560.818 352.616 560.761C353.104 560.697 353.458 560.597 353.68 560.458C353.901 560.32 354.012 560.095 354.012 559.784V559.723C354.012 558.968 353.802 558.383 353.382 557.968C352.967 557.553 352.349 557.346 351.526 557.346C350.669 557.346 349.993 557.539 349.499 557.925C349.011 558.305 348.673 558.729 348.486 559.196L346.094 558.643C346.377 557.836 346.792 557.184 347.337 556.689C347.887 556.187 348.52 555.824 349.235 555.599C349.951 555.369 350.703 555.254 351.492 555.254C352.014 555.254 352.567 555.317 353.152 555.444C353.742 555.565 354.293 555.79 354.804 556.118C355.32 556.447 355.743 556.916 356.072 557.527C356.402 558.133 356.566 558.919 356.566 559.888V568.706H354.08V566.89H353.978C353.813 567.225 353.566 567.553 353.237 567.876C352.908 568.199 352.485 568.467 351.968 568.68C351.452 568.893 350.833 569 350.112 569ZM350.666 566.925C351.37 566.925 351.971 566.784 352.471 566.501C352.976 566.219 353.359 565.85 353.62 565.395C353.887 564.934 354.02 564.441 354.02 563.916V562.205C353.93 562.297 353.754 562.383 353.492 562.464C353.237 562.539 352.945 562.605 352.616 562.663C352.286 562.715 351.966 562.764 351.653 562.81C351.341 562.85 351.08 562.885 350.87 562.914C350.376 562.977 349.925 563.084 349.516 563.233C349.113 563.383 348.79 563.599 348.546 563.882C348.307 564.159 348.188 564.527 348.188 564.988C348.188 565.628 348.421 566.112 348.886 566.441C349.352 566.764 349.945 566.925 350.666 566.925Z" fill="white" />
		<path d="M370.677 555.427L365.934 568.706H363.209L358.458 555.427H361.192L364.504 565.646H364.64L367.943 555.427H370.677Z" fill="white" />
		<path d="M378.261 568.974C376.972 568.974 375.862 568.695 374.932 568.135C374.006 567.571 373.291 566.778 372.786 565.758C372.286 564.732 372.037 563.53 372.037 562.153C372.037 560.793 372.286 559.594 372.786 558.556C373.291 557.519 373.995 556.709 374.898 556.127C375.806 555.545 376.867 555.254 378.082 555.254C378.82 555.254 379.535 555.378 380.227 555.625C380.92 555.873 381.542 556.262 382.092 556.793C382.643 557.323 383.077 558.012 383.395 558.859C383.713 559.7 383.872 560.723 383.872 561.928V562.844H373.476V560.908H381.377C381.377 560.228 381.241 559.625 380.968 559.101C380.696 558.571 380.313 558.153 379.819 557.847C379.331 557.542 378.757 557.389 378.099 557.389C377.384 557.389 376.759 557.568 376.226 557.925C375.698 558.277 375.289 558.738 375 559.308C374.716 559.873 374.574 560.487 374.574 561.15V562.663C374.574 563.55 374.727 564.305 375.034 564.928C375.346 565.55 375.78 566.026 376.336 566.354C376.893 566.677 377.543 566.839 378.286 566.839C378.769 566.839 379.209 566.769 379.606 566.631C380.003 566.487 380.347 566.274 380.636 565.991C380.926 565.709 381.147 565.36 381.3 564.945L383.71 565.386C383.517 566.107 383.171 566.738 382.671 567.28C382.177 567.816 381.556 568.233 380.806 568.533C380.063 568.827 379.214 568.974 378.261 568.974Z" fill="white" />
		<path d="M386.696 568.706V555.427H389.157V557.536H389.293C389.532 556.821 389.952 556.259 390.553 555.85C391.161 555.435 391.847 555.228 392.614 555.228C392.773 555.228 392.96 555.233 393.176 555.245C393.397 555.256 393.57 555.271 393.695 555.288V557.761C393.593 557.732 393.411 557.7 393.15 557.666C392.889 557.625 392.628 557.605 392.367 557.605C391.765 557.605 391.229 557.735 390.758 557.994C390.292 558.248 389.923 558.602 389.651 559.058C389.378 559.507 389.242 560.02 389.242 560.597V568.706H386.696Z" fill="white" />
		<path d="M405.698 558.669L403.391 559.084C403.294 558.784 403.141 558.499 402.931 558.228C402.727 557.957 402.448 557.735 402.097 557.562C401.745 557.389 401.305 557.303 400.777 557.303C400.056 557.303 399.454 557.467 398.972 557.795C398.489 558.118 398.248 558.536 398.248 559.049C398.248 559.493 398.41 559.85 398.733 560.121C399.057 560.392 399.579 560.614 400.3 560.787L402.377 561.271C403.581 561.553 404.478 561.988 405.068 562.576C405.658 563.164 405.954 563.928 405.954 564.867C405.954 565.663 405.726 566.372 405.272 566.994C404.824 567.611 404.197 568.095 403.391 568.447C402.59 568.798 401.662 568.974 400.607 568.974C399.142 568.974 397.947 568.657 397.022 568.023C396.097 567.383 395.529 566.476 395.319 565.3L397.78 564.919C397.933 565.571 398.248 566.063 398.725 566.398C399.202 566.726 399.823 566.89 400.589 566.89C401.424 566.89 402.091 566.715 402.59 566.363C403.09 566.006 403.34 565.571 403.34 565.058C403.34 564.643 403.186 564.294 402.88 564.012C402.579 563.729 402.116 563.516 401.492 563.372L399.278 562.879C398.058 562.597 397.155 562.147 396.571 561.53C395.992 560.914 395.702 560.133 395.702 559.187C395.702 558.403 395.918 557.718 396.349 557.13C396.781 556.542 397.377 556.084 398.137 555.755C398.898 555.421 399.769 555.254 400.751 555.254C402.165 555.254 403.277 555.565 404.089 556.187C404.901 556.804 405.437 557.631 405.698 558.669Z" fill="white" />
		<path d="M414.389 568.974C413.101 568.974 411.991 568.695 411.06 568.135C410.135 567.571 409.42 566.778 408.914 565.758C408.415 564.732 408.165 563.53 408.165 562.153C408.165 560.793 408.415 559.594 408.914 558.556C409.42 557.519 410.123 556.709 411.026 556.127C411.934 555.545 412.996 555.254 414.21 555.254C414.948 555.254 415.663 555.378 416.356 555.625C417.048 555.873 417.67 556.262 418.221 556.793C418.771 557.323 419.205 558.012 419.523 558.859C419.841 559.7 420 560.723 420 561.928V562.844H409.604V560.908H417.505C417.505 560.228 417.369 559.625 417.097 559.101C416.824 558.571 416.441 558.153 415.947 557.847C415.459 557.542 414.886 557.389 414.227 557.389C413.512 557.389 412.888 557.568 412.354 557.925C411.826 558.277 411.418 558.738 411.128 559.308C410.844 559.873 410.702 560.487 410.702 561.15V562.663C410.702 563.55 410.856 564.305 411.162 564.928C411.474 565.55 411.909 566.026 412.465 566.354C413.021 566.677 413.671 566.839 414.415 566.839C414.897 566.839 415.337 566.769 415.734 566.631C416.132 566.487 416.475 566.274 416.765 565.991C417.054 565.709 417.275 565.36 417.429 564.945L419.838 565.386C419.645 566.107 419.299 566.738 418.799 567.28C418.306 567.816 417.684 568.233 416.935 568.533C416.191 568.827 415.343 568.974 414.389 568.974Z" fill="white" />
		<path fill-rule="evenodd" clip-rule="evenodd" d="M361.628 523H360.372C359.412 523 358.481 523.31 357.732 523.879L354.777 526.121C354.028 526.69 353.097 527 352.137 527H348.333C344.836 527 342 524.314 342 521V515C342 512.791 343.89 511 346.222 511H375.778C378.11 511 380 512.791 380 515V521C380 524.314 377.164 527 373.667 527H369.863C368.903 527 367.972 526.69 367.223 526.121L364.268 523.879C363.519 523.31 362.588 523 361.628 523Z" fill="#9928FE" />
		<path d="M348 517V519" stroke="white" stroke-width="2" stroke-linecap="round" stroke-linejoin="round" />
		<path d="M380 515V509.949C380 509.311 379.917 508.675 379.753 508.054L377.384 499.105C376.44 495.54 372.984 493.023 369 493" stroke="#9928FE" stroke-width="2" stroke-linecap="round" stroke-linejoin="round" />
		<path d="M342 515V509.949C342 509.311 342.083 508.675 342.247 508.054L344.616 499.105C345.56 495.54 349.016 493.023 353 493" stroke="#9928FE" stroke-width="2" stroke-linecap="round" stroke-linejoin="round" />
		<g filter="url(#filter3_d_853_16353)">
			<path d="M487 441.185C476.48 447.259 463.52 447.259 453 441.185L396.067 408.315C385.548 402.241 379.067 391.017 379.067 378.87V313.13C379.067 300.983 385.548 289.759 396.067 283.685L453 250.815C463.52 244.741 476.48 244.741 487 250.815L543.933 283.685C554.452 289.759 560.933 300.983 560.933 313.13V378.87C560.933 391.017 554.452 402.241 543.933 408.315L487 441.185Z" fill="black" fill-opacity="0.55" />
			<path d="M453.25 440.752L396.317 407.882C385.952 401.898 379.567 390.838 379.567 378.87V313.13C379.567 301.161 385.952 290.102 396.317 284.118L453.25 251.248C463.615 245.264 476.385 245.264 486.75 251.248L543.683 284.118C554.048 290.102 560.433 301.162 560.433 313.13V378.87C560.433 390.838 554.048 401.898 543.683 407.882L486.75 440.752C476.385 446.736 463.615 446.736 453.25 440.752Z" stroke="url(#paint3_linear_853_16353)" />
		</g>
		<g filter="url(#filter4_d_853_16353)">
			<path d="M597 623.185C586.48 629.259 573.52 629.259 563 623.185L506.067 590.315C495.548 584.241 489.067 573.017 489.067 560.87V495.13C489.067 482.983 495.548 471.759 506.067 465.685L563 432.815C573.52 426.741 586.48 426.741 597 432.815L653.933 465.685C664.452 471.759 670.933 482.983 670.933 495.13V560.87C670.933 573.017 664.452 584.241 653.933 590.315L597 623.185Z" fill="black" fill-opacity="0.55" />
			<path d="M563.25 622.752L506.317 589.882C495.952 583.898 489.567 572.838 489.567 560.87V495.13C489.567 483.161 495.952 472.102 506.317 466.118L563.25 433.248C573.615 427.264 586.385 427.264 596.75 433.248L653.683 466.118C664.048 472.102 670.433 483.162 670.433 495.13V560.87C670.433 572.838 664.048 583.898 653.683 589.882L596.75 622.752C586.385 628.736 573.615 628.736 563.25 622.752Z" stroke="url(#paint4_linear_853_16353)" />
		</g>
		<path d="M540.641 548.697V566.104H538V548.697H540.641Z" fill="white" />
		<path d="M549.197 566.359C548.138 566.359 547.192 566.09 546.36 565.552C545.533 565.008 544.884 564.234 544.411 563.231C543.943 562.223 543.71 561.013 543.71 559.602C543.71 558.191 543.946 556.984 544.419 555.981C544.898 554.978 545.553 554.21 546.385 553.678C547.217 553.145 548.16 552.879 549.215 552.879C550.029 552.879 550.685 553.015 551.18 553.287C551.682 553.553 552.069 553.865 552.343 554.222C552.622 554.579 552.839 554.893 552.993 555.165H553.146V548.697H555.702V566.104H553.206V564.073H552.993C552.839 564.35 552.616 564.668 552.326 565.025C552.041 565.382 551.648 565.693 551.146 565.96C550.645 566.226 549.995 566.359 549.197 566.359ZM549.762 564.192C550.497 564.192 551.118 563.999 551.625 563.614C552.138 563.223 552.525 562.682 552.787 561.99C553.055 561.299 553.189 560.494 553.189 559.576C553.189 558.67 553.058 557.877 552.796 557.197C552.534 556.517 552.149 555.987 551.642 555.607C551.135 555.228 550.508 555.038 549.762 555.038C548.992 555.038 548.351 555.236 547.838 555.633C547.325 556.029 546.938 556.57 546.676 557.256C546.419 557.942 546.291 558.715 546.291 559.576C546.291 560.449 546.422 561.234 546.684 561.931C546.947 562.628 547.334 563.18 547.847 563.588C548.365 563.991 549.004 564.192 549.762 564.192Z" fill="white" />
		<path d="M565.008 566.368C563.715 566.368 562.601 566.093 561.666 565.543C560.737 564.988 560.019 564.209 559.512 563.206C559.011 562.197 558.76 561.016 558.76 559.661C558.76 558.324 559.011 557.146 559.512 556.126C560.019 555.106 560.726 554.31 561.632 553.737C562.544 553.165 563.609 552.879 564.829 552.879C565.57 552.879 566.288 553.001 566.983 553.244C567.678 553.488 568.302 553.87 568.855 554.392C569.408 554.913 569.844 555.59 570.163 556.423C570.482 557.25 570.641 558.256 570.641 559.441V560.341H560.205V558.438H568.137C568.137 557.769 568 557.177 567.727 556.661C567.453 556.14 567.068 555.729 566.573 555.429C566.083 555.128 565.507 554.978 564.846 554.978C564.128 554.978 563.501 555.154 562.966 555.505C562.436 555.851 562.025 556.304 561.735 556.865C561.45 557.42 561.307 558.024 561.307 558.676V560.163C561.307 561.036 561.461 561.778 561.769 562.39C562.082 563.002 562.518 563.469 563.077 563.792C563.635 564.11 564.288 564.268 565.034 564.268C565.518 564.268 565.96 564.2 566.359 564.064C566.758 563.923 567.103 563.713 567.393 563.435C567.684 563.158 567.906 562.815 568.06 562.407L570.479 562.84C570.285 563.549 569.938 564.169 569.436 564.702C568.94 565.229 568.316 565.64 567.564 565.934C566.818 566.223 565.966 566.368 565.008 566.368Z" fill="white" />
		<path d="M576.033 558.353V566.104H573.477V553.049H575.93V555.174H576.093C576.395 554.482 576.868 553.927 577.512 553.508C578.161 553.088 578.979 552.879 579.965 552.879C580.859 552.879 581.643 553.066 582.315 553.44C582.988 553.808 583.509 554.358 583.88 555.089C584.25 555.82 584.435 556.723 584.435 557.8V566.104H581.879V558.106C581.879 557.16 581.631 556.42 581.136 555.888C580.64 555.349 579.959 555.08 579.093 555.08C578.5 555.08 577.973 555.208 577.512 555.463C577.056 555.718 576.694 556.092 576.426 556.585C576.164 557.072 576.033 557.661 576.033 558.353Z" fill="white" />
		<path d="M593.991 553.049V555.089H586.82V553.049H593.991ZM588.743 549.921H591.299V562.271C591.299 562.764 591.373 563.135 591.521 563.384C591.669 563.628 591.86 563.795 592.094 563.886C592.333 563.971 592.592 564.013 592.872 564.013C593.077 564.013 593.256 563.999 593.41 563.971C593.564 563.942 593.684 563.92 593.769 563.903L594.231 566.002C594.083 566.059 593.872 566.116 593.598 566.172C593.325 566.235 592.983 566.269 592.572 566.274C591.9 566.286 591.273 566.167 590.692 565.917C590.111 565.668 589.641 565.283 589.282 564.761C588.923 564.24 588.743 563.585 588.743 562.798V549.921Z" fill="white" />
		<path d="M596.819 566.104V553.049H599.374V566.104H596.819ZM598.109 551.034C597.665 551.034 597.283 550.887 596.964 550.592C596.65 550.292 596.494 549.935 596.494 549.521C596.494 549.102 596.65 548.745 596.964 548.45C597.283 548.15 597.665 548 598.109 548C598.554 548 598.933 548.15 599.246 548.45C599.565 548.745 599.725 549.102 599.725 549.521C599.725 549.935 599.565 550.292 599.246 550.592C598.933 550.887 598.554 551.034 598.109 551.034Z" fill="white" />
		<path d="M608.941 553.049V555.089H601.77V553.049H608.941ZM603.693 549.921H606.249V562.271C606.249 562.764 606.323 563.135 606.471 563.384C606.619 563.628 606.81 563.795 607.044 563.886C607.283 563.971 607.542 564.013 607.822 564.013C608.027 564.013 608.206 563.999 608.36 563.971C608.514 563.942 608.634 563.92 608.719 563.903L609.181 566.002C609.032 566.059 608.822 566.116 608.548 566.172C608.275 566.235 607.933 566.269 607.522 566.274C606.85 566.286 606.223 566.167 605.642 565.917C605.061 565.668 604.59 565.283 604.231 564.761C603.872 564.24 603.693 563.585 603.693 562.798V549.921Z" fill="white" />
		<path d="M613.384 571C613.002 571 612.654 570.969 612.341 570.907C612.028 570.85 611.794 570.788 611.64 570.72L612.256 568.637C612.723 568.762 613.139 568.816 613.504 568.799C613.868 568.782 614.19 568.646 614.469 568.391C614.754 568.136 615.005 567.719 615.222 567.141L615.538 566.274L610.734 553.049H613.469L616.794 563.18H616.931L620.256 553.049H623L617.589 567.847C617.339 568.527 617.019 569.102 616.632 569.572C616.245 570.048 615.783 570.405 615.247 570.643C614.712 570.881 614.09 571 613.384 571Z" fill="white" />
		<path fill-rule="evenodd" clip-rule="evenodd" d="M559 520V494.082C559 491.828 560.919 490 563.286 490H596.8C599.12 490 601 491.79 601 494V520C601 522.21 599.12 524 596.8 524H563.2C560.879 524 559 522.21 559 520Z" fill="#9928FE" />
		<path d="M575.682 499.318C577.439 501.075 577.439 503.925 575.682 505.682C573.925 507.439 571.075 507.439 569.318 505.682C567.561 503.925 567.561 501.075 569.318 499.318C571.075 497.561 573.925 497.561 575.682 499.318Z" stroke="white" stroke-width="2" stroke-linecap="round" stroke-linejoin="round" />
		<path d="M586 502H594" stroke="white" stroke-width="2" stroke-linecap="round" stroke-linejoin="round" />
		<path d="M591 510H586" stroke="white" stroke-width="2" stroke-linecap="round" stroke-linejoin="round" />
		<path d="M580 516C579.635 515.122 579.072 514.334 578.348 513.692C577.123 512.604 575.517 512 573.848 512H571.152C569.483 512 567.877 512.604 566.652 513.692C565.928 514.334 565.365 515.122 565 516" stroke="white" stroke-width="2" stroke-linecap="round" stroke-linejoin="round" />
		<path d="M439.386 372.124C439.221 371.614 438.999 371.158 438.721 370.755C438.448 370.346 438.121 369.999 437.74 369.713C437.359 369.422 436.924 369.201 436.434 369.049C435.951 368.898 435.419 368.822 434.839 368.822C433.856 368.822 432.968 369.072 432.178 369.57C431.387 370.069 430.762 370.799 430.301 371.763C429.846 372.72 429.619 373.893 429.619 375.282C429.619 376.677 429.849 377.856 430.31 378.819C430.77 379.782 431.402 380.513 432.203 381.011C433.005 381.51 433.918 381.759 434.942 381.759C435.891 381.759 436.719 381.569 437.424 381.188C438.135 380.807 438.684 380.269 439.07 379.575C439.463 378.875 439.659 378.052 439.659 377.105L440.341 377.231H435.343V375.089H442.209V377.046C442.209 378.491 441.897 379.746 441.271 380.81C440.651 381.868 439.793 382.686 438.695 383.263C437.603 383.839 436.352 384.128 434.942 384.128C433.361 384.128 431.973 383.769 430.779 383.053C429.59 382.336 428.663 381.319 427.998 380.003C427.333 378.682 427 377.114 427 375.299C427 373.927 427.193 372.695 427.58 371.603C427.967 370.511 428.51 369.584 429.209 368.822C429.915 368.055 430.742 367.47 431.692 367.067C432.647 366.658 433.691 366.454 434.822 366.454C435.766 366.454 436.645 366.591 437.458 366.865C438.277 367.14 439.005 367.529 439.642 368.033C440.284 368.537 440.816 369.136 441.237 369.831C441.658 370.519 441.942 371.284 442.09 372.124H439.386Z" fill="white" />
		<path d="M449.164 384.178C448.334 384.178 447.583 384.027 446.912 383.725C446.241 383.417 445.709 382.971 445.317 382.389C444.93 381.807 444.737 381.093 444.737 380.247C444.737 379.519 444.879 378.92 445.163 378.449C445.447 377.979 445.831 377.606 446.315 377.332C446.798 377.058 447.338 376.85 447.935 376.71C448.533 376.57 449.141 376.464 449.761 376.391C450.546 376.302 451.183 376.229 451.672 376.173C452.161 376.111 452.516 376.013 452.738 375.879C452.96 375.744 453.071 375.526 453.071 375.224V375.165C453.071 374.431 452.86 373.863 452.439 373.459C452.024 373.056 451.404 372.855 450.58 372.855C449.721 372.855 449.044 373.042 448.55 373.417C448.061 373.787 447.722 374.199 447.535 374.652L445.138 374.115C445.422 373.331 445.837 372.698 446.383 372.216C446.935 371.729 447.569 371.376 448.285 371.158C449.002 370.934 449.755 370.822 450.546 370.822C451.069 370.822 451.623 370.883 452.209 371.007C452.801 371.124 453.352 371.343 453.864 371.662C454.381 371.981 454.805 372.437 455.135 373.031C455.465 373.619 455.63 374.383 455.63 375.324V383.893H453.139V382.129H453.037C452.872 382.453 452.624 382.773 452.294 383.086C451.965 383.4 451.541 383.66 451.023 383.867C450.506 384.075 449.886 384.178 449.164 384.178ZM449.718 382.162C450.423 382.162 451.026 382.025 451.527 381.751C452.033 381.476 452.417 381.118 452.678 380.675C452.946 380.227 453.079 379.748 453.079 379.239V377.576C452.988 377.665 452.812 377.749 452.55 377.828C452.294 377.9 452.002 377.965 451.672 378.021C451.342 378.071 451.021 378.119 450.708 378.164C450.395 378.203 450.133 378.236 449.923 378.264C449.428 378.326 448.976 378.43 448.567 378.575C448.163 378.721 447.839 378.931 447.594 379.205C447.355 379.474 447.236 379.832 447.236 380.28C447.236 380.902 447.469 381.373 447.935 381.692C448.402 382.005 448.996 382.162 449.718 382.162Z" fill="white" />
		<path d="M459.027 383.893V370.99H461.475V373.09H461.637C461.91 372.379 462.357 371.824 462.976 371.427C463.596 371.023 464.338 370.822 465.203 370.822C466.079 370.822 466.812 371.023 467.404 371.427C468.001 371.83 468.442 372.384 468.726 373.09H468.862C469.175 372.401 469.673 371.852 470.355 371.443C471.038 371.029 471.851 370.822 472.795 370.822C473.983 370.822 474.953 371.189 475.704 371.922C476.46 372.656 476.838 373.762 476.838 375.24V383.893H474.288V375.476C474.288 374.602 474.046 373.969 473.563 373.577C473.079 373.185 472.502 372.989 471.831 372.989C471.001 372.989 470.355 373.241 469.895 373.745C469.434 374.243 469.204 374.885 469.204 375.669V383.893H466.662V375.316C466.662 374.616 466.44 374.053 465.996 373.627C465.553 373.202 464.975 372.989 464.265 372.989C463.781 372.989 463.335 373.115 462.925 373.367C462.522 373.613 462.195 373.958 461.944 374.4C461.7 374.843 461.577 375.355 461.577 375.938V383.893H459.027Z" fill="white" />
		<path d="M480.257 383.893V370.99H482.807V383.893H480.257ZM481.545 368.999C481.101 368.999 480.72 368.853 480.402 368.562C480.089 368.265 479.933 367.912 479.933 367.504C479.933 367.089 480.089 366.736 480.402 366.445C480.72 366.148 481.101 366 481.545 366C481.988 366 482.367 366.148 482.679 366.445C482.998 366.736 483.157 367.089 483.157 367.504C483.157 367.912 482.998 368.265 482.679 368.562C482.367 368.853 481.988 368.999 481.545 368.999Z" fill="white" />
		<path d="M488.789 376.232V383.893H486.239V370.99H488.687V373.09H488.849C489.15 372.407 489.622 371.858 490.265 371.443C490.913 371.029 491.729 370.822 492.713 370.822C493.606 370.822 494.388 371.007 495.059 371.376C495.73 371.74 496.25 372.283 496.62 373.006C496.99 373.728 497.174 374.621 497.174 375.686V383.893H494.624V375.988C494.624 375.053 494.376 374.322 493.882 373.795C493.387 373.263 492.707 372.997 491.843 372.997C491.252 372.997 490.725 373.123 490.265 373.375C489.81 373.627 489.449 373.997 489.181 374.484C488.92 374.966 488.789 375.548 488.789 376.232Z" fill="white" />
		<path d="M506.089 389C505.048 389 504.152 388.866 503.401 388.597C502.656 388.328 502.048 387.972 501.576 387.53C501.104 387.088 500.751 386.603 500.518 386.077L502.711 385.186C502.864 385.433 503.069 385.693 503.325 385.967C503.586 386.248 503.939 386.486 504.382 386.682C504.832 386.878 505.409 386.976 506.114 386.976C507.081 386.976 507.88 386.743 508.511 386.278C509.142 385.819 509.458 385.085 509.458 384.077V381.541H509.296C509.142 381.815 508.921 382.12 508.631 382.456C508.346 382.792 507.954 383.083 507.453 383.33C506.953 383.576 506.302 383.699 505.5 383.699C504.465 383.699 503.532 383.461 502.702 382.985C501.877 382.504 501.223 381.795 500.74 380.86C500.262 379.919 500.023 378.763 500.023 377.391C500.023 376.019 500.259 374.843 500.731 373.863C501.209 372.883 501.863 372.132 502.693 371.611C503.524 371.085 504.465 370.822 505.517 370.822C506.33 370.822 506.987 370.956 507.487 371.225C507.988 371.488 508.377 371.796 508.656 372.149C508.94 372.502 509.159 372.813 509.313 373.081H509.501V370.99H512V384.178C512 385.287 511.738 386.197 511.215 386.908C510.692 387.62 509.984 388.146 509.091 388.488C508.204 388.829 507.203 389 506.089 389ZM506.063 381.616C506.797 381.616 507.416 381.448 507.923 381.112C508.434 380.771 508.821 380.283 509.083 379.65C509.35 379.012 509.484 378.248 509.484 377.357C509.484 376.489 509.353 375.725 509.091 375.064C508.83 374.403 508.446 373.888 507.94 373.518C507.433 373.143 506.808 372.955 506.063 372.955C505.295 372.955 504.655 373.151 504.144 373.543C503.632 373.93 503.245 374.456 502.983 375.123C502.728 375.789 502.6 376.534 502.6 377.357C502.6 378.203 502.73 378.945 502.992 379.583C503.254 380.222 503.64 380.72 504.152 381.079C504.67 381.437 505.307 381.616 506.063 381.616Z" fill="white" />
		<path fill-rule="evenodd" clip-rule="evenodd" d="M486.063 311.752C475.701 308.083 464.299 308.083 453.937 311.752C452.118 312.446 450.753 313.921 450.259 315.727C448.522 322.865 448.583 330.294 450.437 337.406C450.812 338.693 451.837 339.717 453.169 340.136L455.561 340.895C456.612 341.233 457.758 340.73 458.171 339.749C459.012 337.746 460.371 334.51 461.114 332.742C461.432 331.984 462.204 331.488 463.061 331.491H476.939C477.797 331.491 478.57 331.988 478.889 332.748L481.825 339.74C482.238 340.723 483.384 341.23 484.439 340.895L486.832 340.135C488.163 339.716 489.188 338.692 489.563 337.405C491.417 330.293 491.478 322.865 489.741 315.727C489.247 313.921 487.882 312.446 486.063 311.752Z" fill="#9928FE" />
		<path d="M457 321H463" stroke="white" stroke-width="2" stroke-linecap="round" stroke-linejoin="round" />
		<path d="M460 318V324" stroke="white" stroke-width="2" stroke-linecap="round" stroke-linejoin="round" />
		<path d="M474.35 321C474.35 321.194 474.193 321.35 474 321.35C473.807 321.35 473.65 321.193 473.65 321C473.65 320.807 473.806 320.65 474 320.65C474.093 320.65 474.182 320.687 474.247 320.753C474.313 320.818 474.35 320.907 474.35 321Z" stroke="white" stroke-width="2" stroke-linecap="round" stroke-linejoin="round" />
		<path d="M482.35 321C482.35 321.194 482.193 321.35 482 321.35C481.807 321.35 481.65 321.193 481.65 321C481.65 320.807 481.806 320.65 482 320.65C482.093 320.65 482.182 320.687 482.247 320.753C482.313 320.818 482.35 320.907 482.35 321Z" stroke="white" stroke-width="2" stroke-linecap="round" stroke-linejoin="round" />
		<path d="M478 323.65C478.194 323.65 478.35 323.807 478.35 324C478.35 324.193 478.193 324.35 478 324.35C477.807 324.35 477.65 324.194 477.65 324C477.65 323.907 477.687 323.818 477.753 323.753C477.818 323.687 477.907 323.65 478 323.65Z" stroke="white" stroke-width="2" stroke-linecap="round" stroke-linejoin="round" />
		<path d="M478 316.65C478.194 316.65 478.35 316.807 478.35 317C478.35 317.193 478.193 317.35 478 317.35C477.807 317.35 477.65 317.194 477.65 317C477.65 316.907 477.687 316.818 477.753 316.753C477.818 316.687 477.907 316.65 478 316.65Z" stroke="white" stroke-width="2" stroke-linecap="round" stroke-linejoin="round" />
		<g filter="url(#filter5_d_853_16353)">
			<path d="M707 445.185C696.48 451.259 683.52 451.259 673 445.185L616.067 412.315C605.548 406.241 599.067 395.017 599.067 382.87V317.13C599.067 304.983 605.548 293.759 616.067 287.685L673 254.815C683.52 248.741 696.48 248.741 707 254.815L763.933 287.685C774.452 293.759 780.933 304.983 780.933 317.13V382.87C780.933 395.017 774.452 406.241 763.933 412.315L707 445.185Z" fill="black" fill-opacity="0.55" />
			<path d="M673.25 444.752L616.317 411.882C605.952 405.898 599.567 394.838 599.567 382.87V317.13C599.567 305.161 605.952 294.102 616.317 288.118L673.25 255.248C683.615 249.264 696.385 249.264 706.75 255.248L763.683 288.118C774.048 294.102 780.433 305.162 780.433 317.13V382.87C780.433 394.838 774.048 405.898 763.683 411.882L706.75 444.752C696.385 450.736 683.615 450.736 673.25 444.752Z" stroke="url(#paint5_linear_853_16353)" />
		</g>
		<path d="M666.687 388.732H661V371H666.867C668.589 371 670.067 371.355 671.302 372.065C672.537 372.769 673.484 373.782 674.141 375.104C674.805 376.42 675.137 377.999 675.137 379.84C675.137 381.687 674.802 383.274 674.133 384.602C673.47 385.929 672.509 386.951 671.251 387.667C669.993 388.377 668.471 388.732 666.687 388.732ZM663.651 386.394H666.541C667.88 386.394 668.992 386.14 669.878 385.632C670.765 385.118 671.428 384.377 671.868 383.407C672.309 382.431 672.529 381.242 672.529 379.84C672.529 378.449 672.309 377.268 671.868 376.299C671.434 375.329 670.785 374.593 669.921 374.091C669.058 373.589 667.985 373.338 666.704 373.338H663.651V386.394Z" fill="white" />
		<path d="M678.433 388.732V371H689.447V373.303H681.083V378.706H688.872V381H681.083V386.429H689.55V388.732H678.433Z" fill="white" />
		<path d="M694.832 371L699.035 377.935H699.172L703.375 371H706.446L700.973 379.866L706.48 388.732H703.392L699.172 381.892H699.035L694.814 388.732H691.726L697.328 379.866L691.761 371H694.832Z" fill="white" />
		<path d="M718.743 378.68L716.418 379.095C716.321 378.795 716.166 378.509 715.955 378.238C715.749 377.967 715.469 377.745 715.114 377.571C714.76 377.398 714.316 377.312 713.785 377.312C713.058 377.312 712.452 377.476 711.966 377.805C711.48 378.128 711.237 378.547 711.237 379.061C711.237 379.505 711.4 379.863 711.726 380.134C712.052 380.405 712.578 380.628 713.304 380.801L715.397 381.286C716.61 381.569 717.513 382.004 718.108 382.593C718.703 383.182 719 383.947 719 384.887C719 385.684 718.771 386.394 718.314 387.017C717.862 387.635 717.23 388.12 716.418 388.472C715.612 388.824 714.677 389 713.613 389C712.138 389 710.934 388.683 710.002 388.048C709.07 387.407 708.498 386.498 708.286 385.32L710.765 384.939C710.92 385.592 711.237 386.085 711.717 386.42C712.198 386.749 712.824 386.913 713.596 386.913C714.437 386.913 715.108 386.737 715.612 386.385C716.115 386.027 716.367 385.592 716.367 385.078C716.367 384.662 716.212 384.313 715.903 384.03C715.6 383.747 715.134 383.534 714.505 383.39L712.275 382.896C711.045 382.613 710.136 382.163 709.547 381.545C708.964 380.928 708.672 380.146 708.672 379.199C708.672 378.414 708.889 377.727 709.324 377.139C709.759 376.55 710.359 376.091 711.125 375.762C711.892 375.427 712.77 375.26 713.759 375.26C715.183 375.26 716.304 375.571 717.121 376.195C717.939 376.812 718.48 377.641 718.743 378.68Z" fill="white" />
		<path fill-rule="evenodd" clip-rule="evenodd" d="M684 317.5C684 314.464 686.685 312 690 312C693.312 312 696 314.462 696 317.5C696 320.536 693.315 323 690 323C686.685 322.996 684 320.534 684 317.5Z" fill="#9928FE" />
		<path fill-rule="evenodd" clip-rule="evenodd" d="M670 340.5C670 337.464 672.685 335 676 335C679.312 335 682 337.462 682 340.5C681.998 343.536 679.315 346 676 346C672.685 346 670 343.538 670 340.5Z" fill="#9928FE" />
		<path fill-rule="evenodd" clip-rule="evenodd" d="M698 340.5C698 337.464 700.685 335 704 335C707.312 335 710 337.462 710 340.5C710 343.536 707.315 346 704 346C700.683 346 698 343.538 698 340.5Z" fill="#9928FE" />
		<path d="M683 329L679 335" stroke="#9928FE" stroke-width="4" stroke-linecap="round" stroke-linejoin="round" />
		<path d="M693 323L697 329" stroke="#9928FE" stroke-width="4" stroke-linecap="round" stroke-linejoin="round" />
		<path d="M698 340H690" stroke="#9928FE" stroke-width="4" stroke-linecap="round" stroke-linejoin="round" />
	</g>
	<defs>
		<filter id="filter0_d_853_16353" x="456.905" y="205.712" width="602.191" height="610.575" filterUnits="userSpaceOnUse" color-interpolation-filters="sRGB">
			<feFlood flood-opacity="0" result="BackgroundImageFix" />
			<feColorMatrix in="SourceAlpha" type="matrix" values="0 0 0 0 0 0 0 0 0 0 0 0 0 0 0 0 0 0 127 0" result="hardAlpha" />
			<feOffset dy="4" />
			<feGaussianBlur stdDeviation="125" />
			<feComposite in2="hardAlpha" operator="out" />
			<feColorMatrix type="matrix" values="0 0 0 0 0.6 0 0 0 0 0.156863 0 0 0 0 0.996078 0 0 0 0.6 0" />
			<feBlend mode="normal" in2="BackgroundImageFix" result="effect1_dropShadow_853_16353" />
			<feBlend mode="normal" in="SourceGraphic" in2="effect1_dropShadow_853_16353" result="shape" />
		</filter>
		<filter id="filter1_d_853_16353" x="0.904785" y="71.7125" width="602.19" height="610.575" filterUnits="userSpaceOnUse" color-interpolation-filters="sRGB">
			<feFlood flood-opacity="0" result="BackgroundImageFix" />
			<feColorMatrix in="SourceAlpha" type="matrix" values="0 0 0 0 0 0 0 0 0 0 0 0 0 0 0 0 0 0 127 0" result="hardAlpha" />
			<feOffset dy="4" />
			<feGaussianBlur stdDeviation="125" />
			<feComposite in2="hardAlpha" operator="out" />
			<feColorMatrix type="matrix" values="0 0 0 0 0.6 0 0 0 0 0.156863 0 0 0 0 0.996078 0 0 0 0.6 0" />
			<feBlend mode="normal" in2="BackgroundImageFix" result="effect1_dropShadow_853_16353" />
			<feBlend mode="normal" in="SourceGraphic" in2="effect1_dropShadow_853_16353" result="shape" />
		</filter>
		<filter id="filter2_d_853_16353" x="20.0669" y="184.259" width="681.866" height="699.481" filterUnits="userSpaceOnUse" color-interpolation-filters="sRGB">
			<feFlood flood-opacity="0" result="BackgroundImageFix" />
			<feColorMatrix in="SourceAlpha" type="matrix" values="0 0 0 0 0 0 0 0 0 0 0 0 0 0 0 0 0 0 127 0" result="hardAlpha" />
			<feOffset dy="4" />
			<feGaussianBlur stdDeviation="125" />
			<feComposite in2="hardAlpha" operator="out" />
			<feColorMatrix type="matrix" values="0 0 0 0 0.6 0 0 0 0 0.156863 0 0 0 0 0.996078 0 0 0 0.6 0" />
			<feBlend mode="normal" in2="BackgroundImageFix" result="effect1_dropShadow_853_16353" />
			<feBlend mode="normal" in="SourceGraphic" in2="effect1_dropShadow_853_16353" result="shape" />
		</filter>
		<filter id="filter3_d_853_16353" x="129.067" y="0.259521" width="681.866" height="699.481" filterUnits="userSpaceOnUse" color-interpolation-filters="sRGB">
			<feFlood flood-opacity="0" result="BackgroundImageFix" />
			<feColorMatrix in="SourceAlpha" type="matrix" values="0 0 0 0 0 0 0 0 0 0 0 0 0 0 0 0 0 0 127 0" result="hardAlpha" />
			<feOffset dy="4" />
			<feGaussianBlur stdDeviation="125" />
			<feComposite in2="hardAlpha" operator="out" />
			<feColorMatrix type="matrix" values="0 0 0 0 0.6 0 0 0 0 0.156863 0 0 0 0 0.996078 0 0 0 0.6 0" />
			<feBlend mode="normal" in2="BackgroundImageFix" result="effect1_dropShadow_853_16353" />
			<feBlend mode="normal" in="SourceGraphic" in2="effect1_dropShadow_853_16353" result="shape" />
		</filter>
		<filter id="filter4_d_853_16353" x="239.067" y="182.259" width="681.866" height="699.481" filterUnits="userSpaceOnUse" color-interpolation-filters="sRGB">
			<feFlood flood-opacity="0" result="BackgroundImageFix" />
			<feColorMatrix in="SourceAlpha" type="matrix" values="0 0 0 0 0 0 0 0 0 0 0 0 0 0 0 0 0 0 127 0" result="hardAlpha" />
			<feOffset dy="4" />
			<feGaussianBlur stdDeviation="125" />
			<feComposite in2="hardAlpha" operator="out" />
			<feColorMatrix type="matrix" values="0 0 0 0 0.6 0 0 0 0 0.156863 0 0 0 0 0.996078 0 0 0 0.6 0" />
			<feBlend mode="normal" in2="BackgroundImageFix" result="effect1_dropShadow_853_16353" />
			<feBlend mode="normal" in="SourceGraphic" in2="effect1_dropShadow_853_16353" result="shape" />
		</filter>
		<filter id="filter5_d_853_16353" x="349.067" y="4.25952" width="681.866" height="699.481" filterUnits="userSpaceOnUse" color-interpolation-filters="sRGB">
			<feFlood flood-opacity="0" result="BackgroundImageFix" />
			<feColorMatrix in="SourceAlpha" type="matrix" values="0 0 0 0 0 0 0 0 0 0 0 0 0 0 0 0 0 0 127 0" result="hardAlpha" />
			<feOffset dy="4" />
			<feGaussianBlur stdDeviation="125" />
			<feComposite in2="hardAlpha" operator="out" />
			<feColorMatrix type="matrix" values="0 0 0 0 0.6 0 0 0 0 0.156863 0 0 0 0 0.996078 0 0 0 0.6 0" />
			<feBlend mode="normal" in2="BackgroundImageFix" result="effect1_dropShadow_853_16353" />
			<feBlend mode="normal" in="SourceGraphic" in2="effect1_dropShadow_853_16353" result="shape" />
		</filter>
		<linearGradient id="paint0_linear_853_16353" x1="1009.33" y1="499.177" x2="751.214" y2="346.282" gradientUnits="userSpaceOnUse">
			<stop stop-color="#9A74DB" />
			<stop offset="1" stop-color="#9A74DB" stop-opacity="0" />
		</linearGradient>
		<linearGradient id="paint1_linear_853_16353" x1="50.6691" y1="380.823" x2="308.786" y2="533.718" gradientUnits="userSpaceOnUse">
			<stop stop-color="#9A74DB" />
			<stop offset="1" stop-color="#9A74DB" stop-opacity="0" />
		</linearGradient>
		<linearGradient id="paint2_linear_853_16353" x1="808.283" y1="516.077" x2="348.923" y2="243.976" gradientUnits="userSpaceOnUse">
			<stop stop-color="#9A74DB" />
			<stop offset="1" stop-color="#9A74DB" stop-opacity="0" />
		</linearGradient>
		<linearGradient id="paint3_linear_853_16353" x1="917.283" y1="332.077" x2="457.923" y2="59.9764" gradientUnits="userSpaceOnUse">
			<stop stop-color="#9A74DB" />
			<stop offset="1" stop-color="#9A74DB" stop-opacity="0" />
		</linearGradient>
		<linearGradient id="paint4_linear_853_16353" x1="1027.28" y1="514.077" x2="567.923" y2="241.976" gradientUnits="userSpaceOnUse">
			<stop stop-color="#9A74DB" />
			<stop offset="1" stop-color="#9A74DB" stop-opacity="0" />
		</linearGradient>
		<linearGradient id="paint5_linear_853_16353" x1="1137.28" y1="336.077" x2="677.923" y2="63.9765" gradientUnits="userSpaceOnUse">
			<stop stop-color="#9A74DB" />
			<stop offset="1" stop-color="#9A74DB" stop-opacity="0" />
		</linearGradient>
		<clipPath id="clip0_853_16353">
			<rect width="1060" height="884" fill="white" />
		</clipPath>
	</defs>
</svg>
