<svg width="61" height="68" viewBox="0 0 61 68" fill="none" xmlns="http://www.w3.org/2000/svg">
<path d="M45.1725 61.4342C38.179 65.6086 34.6822 67.6957 30.8217 67.6957C26.9612 67.6957 23.4645 65.6086 16.471 61.4343L14.3144 60.147C7.64837 56.1682 4.31537 54.1788 2.49025 50.9639C0.665132 47.749 0.665133 43.8674 0.665133 36.1042L0.665134 31.8958C0.665134 24.1326 0.665135 20.251 2.49026 17.0361C4.31538 13.8212 7.64838 11.8318 14.3144 7.85299L16.471 6.56575C23.4645 2.39143 26.9612 0.304271 30.8217 0.304271C34.6822 0.304272 38.179 2.39143 45.1725 6.56575L47.3291 7.85299C53.9951 11.8318 57.3281 13.8212 59.1532 17.0361C60.9783 20.251 60.9783 24.1326 60.9783 31.8958L60.9783 36.1042C60.9783 43.8674 60.9783 47.749 59.1532 50.9639C57.3281 54.1788 53.9951 56.1682 47.3291 60.147L45.1725 61.4342Z" fill="#EBEBEB"/>
</svg>
