<svg viewBox="0 0 134 32" fill="none" xmlns="http://www.w3.org/2000/svg">
<path d="M25.6752 16.0142H32.9148C33.8466 20.3852 29.9735 27.109 24.9206 29.9441C18.7963 33.3777 10.9939 32.4382 6.00559 27.6661C0.775507 22.659 -0.569014 15.1412 2.59739 8.79774C6.01393 1.95751 13.1785 -0.436885 17.1307 0.0640258V7.27423L17.1599 7.24721C16.9869 7.25968 16.816 7.28046 16.643 7.2867C11.1106 7.50494 7.19169 12.7302 8.55914 18.0677C9.61808 22.1976 13.6037 25.068 17.7081 24.6502C23.0946 24.0994 25.8774 19.612 25.7065 15.9809L25.6752 16.0121V16.0142Z" fill="white"/>
<path d="M17.1303 7.27396H25.6748C25.6748 10.3064 25.6748 13.1602 25.6748 16.0139L25.7061 15.9827C22.8899 15.9827 20.0737 15.9827 17.2908 15.9827C17.1929 15.5089 17.1157 15.3093 17.1157 15.1098C17.1241 12.4888 17.1428 9.86789 17.1595 7.24902L17.1303 7.27604V7.27396Z" fill="#05EA9B"/>
<path d="M64.7838 12.5597C64.6191 12.0426 64.3975 11.5795 64.1191 11.1705C63.8463 10.7557 63.5196 10.4034 63.1389 10.1136C62.7583 9.81818 62.3236 9.59375 61.835 9.44034C61.352 9.28693 60.8208 9.21023 60.2412 9.21023C59.2583 9.21023 58.3719 9.46307 57.5821 9.96875C56.7923 10.4744 56.1673 11.2159 55.7071 12.1932C55.2526 13.1648 55.0253 14.3551 55.0253 15.7642C55.0253 17.179 55.2554 18.375 55.7156 19.3523C56.1759 20.3295 56.8066 21.071 57.6077 21.5767C58.4088 22.0824 59.3208 22.3352 60.3435 22.3352C61.2923 22.3352 62.1191 22.142 62.8236 21.7557C63.5338 21.3693 64.0821 20.8239 64.4685 20.1193C64.8605 19.4091 65.0566 18.5739 65.0566 17.6136L65.7384 17.7415H60.7441V15.5682H67.6048V17.554C67.6048 19.0199 67.2923 20.2926 66.6673 21.3722C66.048 22.446 65.1901 23.2756 64.0935 23.8608C63.0026 24.446 61.7526 24.7386 60.3435 24.7386C58.7639 24.7386 57.3776 24.375 56.1844 23.6477C54.9969 22.9205 54.0708 21.8892 53.406 20.554C52.7412 19.2131 52.4088 17.6222 52.4088 15.7812C52.4088 14.3892 52.602 13.1392 52.9884 12.0312C53.3747 10.9233 53.9173 9.98295 54.6162 9.21023C55.3208 8.43182 56.1475 7.83807 57.0963 7.42898C58.0509 7.0142 59.0935 6.80682 60.2242 6.80682C61.1673 6.80682 62.0452 6.94602 62.8577 7.22443C63.6759 7.50284 64.4031 7.89773 65.0395 8.40909C65.6816 8.92045 66.2128 9.52841 66.6333 10.233C67.0537 10.9318 67.3378 11.7074 67.4855 12.5597H64.7838ZM74.553 24.7898C73.7235 24.7898 72.9735 24.6364 72.303 24.3295C71.6325 24.017 71.1013 23.5653 70.7093 22.9744C70.3229 22.3835 70.1297 21.6591 70.1297 20.8011C70.1297 20.0625 70.2718 19.4545 70.5558 18.9773C70.8399 18.5 71.2235 18.1222 71.7064 17.8438C72.1894 17.5653 72.7291 17.3551 73.3257 17.2131C73.9223 17.071 74.5303 16.9631 75.1496 16.8892C75.9337 16.7983 76.57 16.7244 77.0587 16.6676C77.5473 16.6051 77.9024 16.5057 78.124 16.3693C78.3456 16.233 78.4564 16.0114 78.4564 15.7045V15.6449C78.4564 14.9006 78.2462 14.3239 77.8257 13.9148C77.411 13.5057 76.7916 13.3011 75.9678 13.3011C75.1098 13.3011 74.4337 13.4915 73.9394 13.8722C73.4507 14.2472 73.1127 14.6648 72.9252 15.125L70.5303 14.5795C70.8144 13.7841 71.2291 13.142 71.7746 12.6534C72.3257 12.1591 72.9593 11.8011 73.6752 11.5795C74.3911 11.3523 75.1439 11.2386 75.9337 11.2386C76.4564 11.2386 77.0104 11.3011 77.5956 11.4261C78.1865 11.5455 78.7377 11.767 79.249 12.0909C79.7661 12.4148 80.1894 12.8778 80.5189 13.4801C80.8485 14.0767 81.0132 14.8523 81.0132 15.8068V24.5H78.5246V22.7102H78.4223C78.2575 23.0398 78.0104 23.3636 77.6808 23.6818C77.3513 24 76.928 24.2642 76.411 24.4744C75.8939 24.6847 75.2746 24.7898 74.553 24.7898ZM75.107 22.7443C75.8115 22.7443 76.4138 22.6051 76.9138 22.3267C77.4195 22.0483 77.803 21.6847 78.0644 21.2358C78.3314 20.7812 78.4649 20.2955 78.4649 19.7784V18.0909C78.374 18.1818 78.1979 18.267 77.9365 18.3466C77.6808 18.4205 77.3882 18.4858 77.0587 18.5426C76.7291 18.5937 76.4081 18.642 76.0956 18.6875C75.7831 18.7273 75.5218 18.7614 75.3115 18.7898C74.8172 18.8523 74.3655 18.9574 73.9564 19.1051C73.553 19.2528 73.2291 19.4659 72.9848 19.7443C72.7462 20.017 72.6269 20.3807 72.6269 20.8352C72.6269 21.4659 72.8598 21.9432 73.3257 22.267C73.7916 22.5852 74.3854 22.7443 75.107 22.7443ZM90.5182 11.4091V13.4545H83.3676V11.4091H90.5182ZM85.2852 8.27273H87.8335V20.6562C87.8335 21.1506 87.9074 21.5227 88.0551 21.7727C88.2029 22.017 88.3932 22.1847 88.6262 22.2756C88.8648 22.3608 89.1233 22.4034 89.4017 22.4034C89.6063 22.4034 89.7852 22.3892 89.9387 22.3608C90.0921 22.3324 90.2114 22.3097 90.2966 22.2926L90.7568 24.3977C90.6091 24.4545 90.3989 24.5114 90.1262 24.5682C89.8534 24.6307 89.5125 24.6648 89.1034 24.6705C88.433 24.6818 87.808 24.5625 87.2284 24.3125C86.6489 24.0625 86.1801 23.6761 85.8222 23.1534C85.4642 22.6307 85.2852 21.9744 85.2852 21.1847V8.27273ZM98.8385 24.7642C97.5487 24.7642 96.4379 24.4886 95.5061 23.9375C94.58 23.3807 93.8641 22.5994 93.3584 21.5938C92.8584 20.5824 92.6084 19.3977 92.6084 18.0398C92.6084 16.6989 92.8584 15.517 93.3584 14.4943C93.8641 13.4716 94.5686 12.6733 95.472 12.0994C96.3811 11.5256 97.4436 11.2386 98.6595 11.2386C99.3982 11.2386 100.114 11.3608 100.807 11.6051C101.5 11.8494 102.123 12.233 102.674 12.7557C103.225 13.2784 103.66 13.9574 103.978 14.7926C104.296 15.6222 104.455 16.6307 104.455 17.8182V18.7216H94.0487V16.8125H101.958C101.958 16.142 101.821 15.5483 101.549 15.0312C101.276 14.5085 100.892 14.0966 100.398 13.7955C99.9095 13.4943 99.3357 13.3438 98.6766 13.3438C97.9607 13.3438 97.3357 13.5199 96.8016 13.8722C96.2732 14.2187 95.8641 14.6733 95.5743 15.2358C95.2902 15.7926 95.1482 16.3977 95.1482 17.0511V18.5426C95.1482 19.4176 95.3016 20.1619 95.6084 20.7756C95.9209 21.3892 96.3556 21.858 96.9124 22.1818C97.4692 22.5 98.1198 22.6591 98.8641 22.6591C99.347 22.6591 99.7874 22.5909 100.185 22.4545C100.583 22.3125 100.927 22.1023 101.216 21.8239C101.506 21.5455 101.728 21.2017 101.881 20.7926L104.293 21.2273C104.1 21.9375 103.753 22.5597 103.253 23.0938C102.759 23.6222 102.137 24.0341 101.387 24.3295C100.642 24.6193 99.7931 24.7642 98.8385 24.7642ZM108.961 24.6619C108.495 24.6619 108.095 24.4972 107.76 24.1676C107.424 23.8324 107.257 23.429 107.257 22.9574C107.257 22.4915 107.424 22.0937 107.76 21.7642C108.095 21.429 108.495 21.2614 108.961 21.2614C109.427 21.2614 109.828 21.429 110.163 21.7642C110.498 22.0937 110.666 22.4915 110.666 22.9574C110.666 23.2699 110.586 23.5568 110.427 23.8182C110.274 24.0739 110.069 24.2784 109.814 24.4318C109.558 24.5852 109.274 24.6619 108.961 24.6619ZM114.079 24.5V11.4091H116.628V24.5H114.079ZM115.366 9.3892C114.923 9.3892 114.542 9.24148 114.224 8.94602C113.912 8.64489 113.755 8.28693 113.755 7.87216C113.755 7.4517 113.912 7.09375 114.224 6.79829C114.542 6.49716 114.923 6.34659 115.366 6.34659C115.809 6.34659 116.187 6.49716 116.5 6.79829C116.818 7.09375 116.977 7.4517 116.977 7.87216C116.977 8.28693 116.818 8.64489 116.5 8.94602C116.187 9.24148 115.809 9.3892 115.366 9.3892ZM125.57 24.7642C124.343 24.7642 123.272 24.483 122.357 23.9205C121.442 23.358 120.732 22.571 120.226 21.5597C119.721 20.5483 119.468 19.3665 119.468 18.0142C119.468 16.6562 119.721 15.4687 120.226 14.4517C120.732 13.4347 121.442 12.6449 122.357 12.0824C123.272 11.5199 124.343 11.2386 125.57 11.2386C126.797 11.2386 127.868 11.5199 128.783 12.0824C129.698 12.6449 130.408 13.4347 130.914 14.4517C131.419 15.4687 131.672 16.6562 131.672 18.0142C131.672 19.3665 131.419 20.5483 130.914 21.5597C130.408 22.571 129.698 23.358 128.783 23.9205C127.868 24.483 126.797 24.7642 125.57 24.7642ZM125.579 22.625C126.374 22.625 127.033 22.4148 127.556 21.9943C128.079 21.5739 128.465 21.0142 128.715 20.3153C128.971 19.6165 129.098 18.8466 129.098 18.0057C129.098 17.1705 128.971 16.4034 128.715 15.7045C128.465 15 128.079 14.4347 127.556 14.0085C127.033 13.5824 126.374 13.3693 125.579 13.3693C124.777 13.3693 124.113 13.5824 123.584 14.0085C123.062 14.4347 122.672 15 122.417 15.7045C122.167 16.4034 122.042 17.1705 122.042 18.0057C122.042 18.8466 122.167 19.6165 122.417 20.3153C122.672 21.0142 123.062 21.5739 123.584 21.9943C124.113 22.4148 124.777 22.625 125.579 22.625Z" fill="white"/>
</svg>
