<svg width="64" height="64" viewBox="0 0 64 64" fill="none" xmlns="http://www.w3.org/2000/svg">
<path fill-rule="evenodd" clip-rule="evenodd" d="M8 30.1097C8 37.2644 11.7867 43.563 17.5973 47.5337C17.5947 49.8137 17.6 52.8857 17.6 56.1097L27.016 51.451C28.6267 51.7603 30.2907 51.9284 32 51.9284C45.2053 51.9284 56 42.2137 56 30.1097C56 18.0057 45.2053 8.29102 32 8.29102C18.7947 8.29102 8 18.0057 8 30.1097Z" fill="#9928FE"/>
<path d="M31.7311 32.8749V32.3229C31.7311 30.5149 32.8485 29.5362 33.9685 28.7842C35.0618 28.0482 36.1578 27.0882 36.1578 25.3176C36.1578 22.8722 34.1765 20.8936 31.7338 20.8936C29.2911 20.8936 27.3071 22.8696 27.3071 25.3149" stroke="white" stroke-width="4" stroke-linecap="round" stroke-linejoin="round"/>
<path d="M31.7267 39.112C31.5053 39.112 31.3267 39.2907 31.3293 39.512C31.3293 39.7334 31.508 39.912 31.7293 39.912C31.9507 39.912 32.1293 39.7334 32.1293 39.512C32.1293 39.2907 31.9533 39.112 31.7267 39.112" stroke="white" stroke-width="4" stroke-linecap="round" stroke-linejoin="round"/>
</svg>
