<svg width="427" height="391" viewBox="0 0 427 391" fill="none" xmlns="http://www.w3.org/2000/svg">
<path fill-rule="evenodd" clip-rule="evenodd" d="M163.071 294.016H263.387V315.871H163.071V294.016Z" fill="#3E3E3E" fill-opacity="0.24"/>
<path d="M163.571 315.371V294.516H262.887V315.371H163.571Z" stroke="url(#paint0_linear_1043_17383)"/>
<path fill-rule="evenodd" clip-rule="evenodd" d="M315.592 226.462L271.882 149.969L252.906 160.812L296.616 237.305L315.592 226.462Z" fill="#3E3E3E" fill-opacity="0.24"/>
<path d="M314.91 226.273L271.696 150.648L253.588 160.995L296.803 236.62L314.91 226.273Z" stroke="url(#paint1_linear_1043_17383)"/>
<path fill-rule="evenodd" clip-rule="evenodd" d="M112.834 226.462L156.544 149.969L175.52 160.812L131.81 237.305L112.834 226.462Z" fill="#3E3E3E" fill-opacity="0.24"/>
<path d="M113.516 226.273L156.73 150.648L174.838 160.995L131.623 236.62L113.516 226.273Z" stroke="url(#paint2_linear_1043_17383)"/>
<path d="M97.9592 386.057C88.6341 391.441 77.1462 391.441 67.821 386.057L67.6052 386.431L67.821 386.057L16.5173 356.437C7.19311 351.053 1.44824 341.104 1.44824 330.337V271.097C1.44824 260.329 7.19311 250.38 16.5174 244.996L67.821 215.376L67.571 214.943L67.821 215.376C77.1462 209.992 88.6341 209.992 97.9592 215.376L98.2092 214.943L97.9592 215.376L149.263 244.996C158.587 250.38 164.332 260.329 164.332 271.097V330.337C164.332 341.104 158.587 351.053 149.263 356.437L97.9592 386.057L98.2092 386.49L97.9592 386.057Z" fill="black" fill-opacity="0.55" stroke="url(#paint3_linear_1043_17383)"/>
<path d="M359.959 386.057C350.634 391.441 339.146 391.441 329.821 386.057L329.605 386.431L329.821 386.057L278.517 356.437C269.193 351.053 263.448 341.104 263.448 330.337V271.097C263.448 260.329 269.193 250.38 278.517 244.996L329.821 215.376L329.571 214.943L329.821 215.376C339.146 209.992 350.634 209.992 359.959 215.376L360.209 214.943L359.959 215.376L411.263 244.996C420.587 250.38 426.332 260.329 426.332 271.097V330.337C426.332 341.104 420.587 351.053 411.263 356.437L359.959 386.057L360.209 386.49L359.959 386.057Z" fill="black" fill-opacity="0.55" stroke="url(#paint4_linear_1043_17383)"/>
<path d="M228.959 176.057C219.634 181.441 208.146 181.441 198.821 176.057L198.605 176.431L198.821 176.057L147.517 146.437C138.193 141.053 132.448 131.104 132.448 120.337V61.0967C132.448 50.3294 138.193 40.3803 147.517 34.9961L198.821 5.37622L198.571 4.9432L198.821 5.37621C208.146 -0.00789064 219.634 -0.00789064 228.959 5.37621L229.209 4.9432L228.959 5.37622L280.263 34.9961C289.587 40.3803 295.332 50.3294 295.332 61.0967V120.337C295.332 131.104 289.587 141.053 280.263 146.437L228.959 176.057L229.209 176.49L228.959 176.057Z" fill="black" fill-opacity="0.55" stroke="url(#paint5_linear_1043_17383)"/>
<path d="M195.19 81.3359V112.015C195.189 112.39 195.289 112.759 195.48 113.084C195.671 113.409 195.947 113.678 196.278 113.864C199.415 115.635 208.559 120.798 213.587 123.626C214.007 123.865 214.658 124.257 214.961 124.109C216.641 123.283 218.287 122.28 220.081 121.265C219.61 120.947 219.367 120.761 219.098 120.608C213.002 117.133 206.907 113.658 200.814 110.183V103.991L205.682 106.753C211.918 110.283 218.156 113.808 224.395 117.327C224.857 117.587 225.545 118.004 225.877 117.847C227.7 116.968 229.448 115.932 231.459 114.818L200.797 97.3379V91.2049C203.452 92.6989 206.094 94.2089 208.748 95.7079C217.863 100.859 226.976 106.011 236.088 111.165C236.361 111.323 236.672 111.406 236.989 111.406C237.306 111.406 237.617 111.323 237.89 111.165C239.478 110.24 241.075 109.33 242.683 108.433L236.256 104.755L195.19 81.3359Z" fill="url(#paint6_linear_1043_17383)"/>
<path d="M244.526 71.3523C240.468 69.0903 236.445 66.7783 232.412 64.4793L226.066 60.8643L220.5 64.0213C226.63 67.4883 232.761 70.9503 238.894 74.4063C239.249 74.5563 239.548 74.8113 239.751 75.1363C239.953 75.4603 240.048 75.8383 240.023 76.2183C240.023 77.7813 240.023 79.3443 240.023 80.9063L239.973 80.8783C236.911 79.1773 227.439 74.0963 224.398 72.3633C221.357 70.6293 218.207 68.8383 215.111 67.0753L209.206 70.4273C217.358 75.0373 231.438 82.7063 240.04 87.5523C240.04 89.6213 240.047 91.6853 240.061 93.7433C239.961 93.6723 239.857 93.6063 239.75 93.5453C228.044 86.9123 209.928 76.9233 198.239 70.2493L203.569 67.2243L209.495 63.8643L214.855 60.8183L220.429 57.6523L215.771 55.0073C215.388 54.7923 214.788 54.4913 214.511 54.6353C213.599 55.0943 212.709 55.5853 211.802 56.0973L191.917 67.3603L191.674 67.4843L190.783 68.0043L184.903 71.3353C184.585 71.4763 184.319 71.7103 184.143 72.0063C183.967 72.3023 183.889 72.6453 183.92 72.9863C183.951 83.8963 183.958 94.8053 183.941 105.712C183.911 106.075 183.996 106.439 184.185 106.752C184.374 107.065 184.657 107.314 184.995 107.462C186.524 108.288 188.045 109.163 189.561 110.026V102.811C189.533 102.628 189.519 102.443 189.519 102.258C189.569 93.2353 189.565 84.2133 189.569 75.1903L192.295 73.6423C202.49 79.4213 215.914 86.8503 227.91 93.5243L228.002 93.5743C231.623 95.5963 235.113 97.5483 238.347 99.3523L245.488 103.339C245.488 93.2633 245.516 83.1863 245.572 73.1103C245.602 72.7473 245.517 72.3833 245.33 72.0693C245.143 71.7553 244.863 71.5043 244.526 71.3523Z" fill="url(#paint7_linear_1043_17383)"/>
<path d="M324.334 293.926V324.605C324.333 324.98 324.433 325.349 324.624 325.674C324.815 325.998 325.091 326.268 325.422 326.454C328.559 328.225 337.704 333.388 342.731 336.215C343.151 336.455 343.802 336.847 344.105 336.698C345.785 335.873 347.431 334.87 349.225 333.855C348.755 333.537 348.511 333.351 348.242 333.198C342.146 329.723 336.051 326.248 329.958 322.772V316.581L334.826 319.343C341.062 322.873 347.3 326.398 353.539 329.917C354.001 330.177 354.689 330.594 355.021 330.437C356.844 329.558 358.592 328.522 360.603 327.407L329.941 309.928V303.794C332.596 305.289 335.238 306.799 337.893 308.298C347.007 313.449 356.12 318.601 365.232 323.755C365.505 323.913 365.816 323.996 366.133 323.996C366.45 323.996 366.761 323.913 367.034 323.755C368.622 322.83 370.219 321.919 371.827 321.022L365.4 317.345L324.334 293.926Z" fill="url(#paint8_linear_1043_17383)"/>
<path d="M373.671 283.945C369.613 281.683 365.59 279.372 361.557 277.073L355.211 273.457L349.645 276.615C355.775 280.082 361.906 283.544 368.039 287C368.394 287.15 368.693 287.405 368.896 287.73C369.098 288.054 369.193 288.432 369.168 288.812C369.168 290.374 369.168 291.937 369.168 293.5L369.118 293.471C366.056 291.771 356.584 286.69 353.543 284.957C350.502 283.223 347.352 281.432 344.256 279.669L338.351 283.021C346.504 287.631 360.583 295.3 369.185 300.145C369.185 302.215 369.192 304.278 369.206 306.337C369.106 306.265 369.002 306.199 368.895 306.139C357.189 299.506 339.073 289.517 327.384 282.843L332.714 279.818L338.641 276.458L344 273.412L349.574 270.246L344.916 267.601C344.534 267.386 343.933 267.085 343.656 267.229C342.744 267.687 341.854 268.179 340.947 268.69L321.062 279.954L320.819 280.078L319.928 280.598L314.048 283.929C313.73 284.07 313.464 284.304 313.288 284.6C313.112 284.896 313.034 285.238 313.065 285.58C313.096 296.49 313.103 307.399 313.086 318.306C313.056 318.669 313.141 319.032 313.33 319.346C313.519 319.659 313.802 319.907 314.14 320.056C315.669 320.882 317.19 321.757 318.706 322.619V315.405C318.678 315.221 318.664 315.037 318.664 314.851C318.714 305.829 318.71 296.806 318.714 287.784L321.44 286.236C331.635 292.014 345.059 299.444 357.055 306.118L357.147 306.167C360.768 308.19 364.258 310.142 367.492 311.946L374.633 315.933C374.633 305.856 374.661 295.78 374.717 285.704C374.747 285.341 374.662 284.977 374.475 284.663C374.288 284.348 374.008 284.098 373.671 283.945Z" fill="url(#paint9_linear_1043_17383)"/>
<path d="M62.0713 293.926V324.605C62.0703 324.98 62.1703 325.349 62.3623 325.674C62.5533 325.998 62.8283 326.268 63.1593 326.454C66.2973 328.225 75.4413 333.388 80.4693 336.215C80.8893 336.455 81.5403 336.847 81.8423 336.698C83.5223 335.873 85.1693 334.87 86.9623 333.855C86.4923 333.537 86.2483 333.351 85.9793 333.198C79.8833 329.723 73.7893 326.248 67.6953 322.772V316.581L72.5633 319.343C78.8003 322.873 85.0373 326.398 91.2763 329.917C91.7383 330.177 92.4273 330.594 92.7593 330.437C94.5823 329.558 96.3293 328.522 98.3413 327.407L67.6793 309.928V303.794C70.3333 305.289 72.9753 306.799 75.6303 308.298C84.7443 313.449 93.8583 318.601 102.97 323.755C103.243 323.913 103.554 323.996 103.871 323.996C104.187 323.996 104.498 323.913 104.771 323.755C106.359 322.83 107.957 321.919 109.564 321.022L103.138 317.345L62.0713 293.926Z" fill="url(#paint10_linear_1043_17383)"/>
<path d="M111.408 283.945C107.351 281.683 103.327 279.372 99.295 277.073L92.948 273.457L87.383 276.615C93.512 280.082 99.643 283.544 105.776 287C106.131 287.15 106.431 287.405 106.633 287.73C106.835 288.054 106.93 288.432 106.906 288.812C106.906 290.374 106.906 291.937 106.906 293.5L106.855 293.471C103.793 291.771 94.321 286.69 91.28 284.957C88.239 283.223 85.089 281.432 81.994 279.669L76.088 283.021C84.241 287.631 98.32 295.3 106.923 300.145C106.923 302.215 106.929 304.278 106.943 306.337C106.843 306.265 106.74 306.199 106.633 306.139C94.926 299.506 76.811 289.517 65.121 282.843L70.451 279.818L76.378 276.458L81.738 273.412L87.311 270.246L82.653 267.601C82.271 267.386 81.67 267.085 81.393 267.229C80.481 267.687 79.591 268.179 78.684 268.69L58.8 279.954L58.556 280.078L57.666 280.598L51.785 283.929C51.467 284.07 51.202 284.304 51.026 284.6C50.85 284.896 50.771 285.238 50.802 285.58C50.833 296.49 50.84 307.399 50.823 318.306C50.793 318.669 50.879 319.032 51.068 319.346C51.256 319.659 51.539 319.907 51.877 320.056C53.406 320.882 54.927 321.757 56.443 322.619V315.405C56.416 315.221 56.401 315.037 56.401 314.851C56.452 305.829 56.447 296.806 56.452 287.784L59.178 286.236C69.372 292.014 82.796 299.444 94.792 306.118L94.884 306.167C98.505 308.19 101.995 310.142 105.23 311.946L112.37 315.933C112.37 305.856 112.398 295.78 112.454 285.704C112.484 285.341 112.4 284.977 112.213 284.663C112.026 284.348 111.745 284.098 111.408 283.945Z" fill="url(#paint11_linear_1043_17383)"/>
<path d="M214.213 180.766V294.016" stroke="url(#paint12_linear_1043_17383)" stroke-width="2"/>
<path d="M160.433 256.841L266.553 185.262" stroke="url(#paint13_linear_1043_17383)" stroke-width="2"/>
<path d="M267.424 254.923L160.072 185.207" stroke="url(#paint14_linear_1043_17383)" stroke-width="2"/>
<defs>
<linearGradient id="paint0_linear_1043_17383" x1="-8.32473" y1="306.392" x2="26.2064" y2="403.086" gradientUnits="userSpaceOnUse">
<stop stop-color="#9A74DB"/>
<stop offset="1" stop-color="#9A74DB" stop-opacity="0"/>
</linearGradient>
<linearGradient id="paint1_linear_1043_17383" x1="417.766" y1="199.424" x2="260.889" y2="266.122" gradientUnits="userSpaceOnUse">
<stop stop-color="#9A74DB"/>
<stop offset="1" stop-color="#9A74DB" stop-opacity="0"/>
</linearGradient>
<linearGradient id="paint2_linear_1043_17383" x1="10.6601" y1="199.424" x2="167.537" y2="266.122" gradientUnits="userSpaceOnUse">
<stop stop-color="#9A74DB"/>
<stop offset="1" stop-color="#9A74DB" stop-opacity="0"/>
</linearGradient>
<linearGradient id="paint3_linear_1043_17383" x1="230.735" y1="403.679" x2="-28.3383" y2="204.981" gradientUnits="userSpaceOnUse">
<stop stop-color="#9A74DB"/>
<stop offset="1" stop-color="#9A74DB" stop-opacity="0"/>
</linearGradient>
<linearGradient id="paint4_linear_1043_17383" x1="492.735" y1="403.679" x2="233.662" y2="204.981" gradientUnits="userSpaceOnUse">
<stop stop-color="#9A74DB"/>
<stop offset="1" stop-color="#9A74DB" stop-opacity="0"/>
</linearGradient>
<linearGradient id="paint5_linear_1043_17383" x1="361.735" y1="193.679" x2="102.662" y2="-5.01919" gradientUnits="userSpaceOnUse">
<stop stop-color="#9A74DB"/>
<stop offset="1" stop-color="#9A74DB" stop-opacity="0"/>
</linearGradient>
<linearGradient id="paint6_linear_1043_17383" x1="195.195" y1="102.76" x2="242.662" y2="102.76" gradientUnits="userSpaceOnUse">
<stop stop-color="#B000FD"/>
<stop offset="1" stop-color="#5994FE"/>
</linearGradient>
<linearGradient id="paint7_linear_1043_17383" x1="183.92" y1="82.3393" x2="245.551" y2="82.3393" gradientUnits="userSpaceOnUse">
<stop stop-color="#B000FD"/>
<stop offset="1" stop-color="#5994FE"/>
</linearGradient>
<linearGradient id="paint8_linear_1043_17383" x1="324.339" y1="315.349" x2="371.806" y2="315.349" gradientUnits="userSpaceOnUse">
<stop stop-color="#B000FD"/>
<stop offset="1" stop-color="#5994FE"/>
</linearGradient>
<linearGradient id="paint9_linear_1043_17383" x1="313.065" y1="294.933" x2="374.696" y2="294.933" gradientUnits="userSpaceOnUse">
<stop stop-color="#B000FD"/>
<stop offset="1" stop-color="#5994FE"/>
</linearGradient>
<linearGradient id="paint10_linear_1043_17383" x1="62.0763" y1="315.349" x2="109.543" y2="315.349" gradientUnits="userSpaceOnUse">
<stop stop-color="#B000FD"/>
<stop offset="1" stop-color="#5994FE"/>
</linearGradient>
<linearGradient id="paint11_linear_1043_17383" x1="50.802" y1="294.933" x2="112.433" y2="294.933" gradientUnits="userSpaceOnUse">
<stop stop-color="#B000FD"/>
<stop offset="1" stop-color="#5994FE"/>
</linearGradient>
<linearGradient id="paint12_linear_1043_17383" x1="-nan" y1="-nan" x2="-nan" y2="-nan" gradientUnits="userSpaceOnUse">
<stop stop-color="#9A74DB"/>
<stop offset="1" stop-color="#9A74DB" stop-opacity="0"/>
</linearGradient>
<linearGradient id="paint13_linear_1043_17383" x1="219.617" y1="214.955" x2="221.281" y2="217.397" gradientUnits="userSpaceOnUse">
<stop stop-color="#9A74DB"/>
<stop offset="1" stop-color="#9A74DB" stop-opacity="0"/>
</linearGradient>
<linearGradient id="paint14_linear_1043_17383" x1="207.518" y1="214.076" x2="205.898" y2="216.547" gradientUnits="userSpaceOnUse">
<stop stop-color="#9A74DB"/>
<stop offset="1" stop-color="#9A74DB" stop-opacity="0"/>
</linearGradient>
</defs>
</svg>
