<svg width="405" height="444" viewBox="0 0 405 444" fill="none" xmlns="http://www.w3.org/2000/svg">
<g clip-path="url(#clip0_1023_18543)">
<path d="M239.994 10.9215L240.173 10.6114L239.994 10.9215L366.526 83.9741C389.75 97.3841 404.058 122.164 404.058 148.982V295.087C404.058 321.905 389.75 346.685 366.526 360.095L239.994 433.147C216.769 446.557 188.156 446.557 164.93 433.147L38.3982 360.095C15.1747 346.685 0.866211 321.905 0.866211 295.087V148.982C0.866211 122.164 15.1747 97.3841 38.3983 83.9741L164.93 10.9215C188.156 -2.48848 216.769 -2.48848 239.994 10.9215Z" fill="black" fill-opacity="0.55" stroke="url(#paint0_linear_1023_18543)"/>
<path d="M164.179 207.219V262.939C164.177 263.621 164.358 264.29 164.706 264.88C165.052 265.47 165.551 265.959 166.153 266.298C171.846 269.513 188.438 278.891 197.561 284.027C198.324 284.462 199.505 285.174 200.054 284.903C203.103 283.404 206.09 281.583 209.345 279.738C208.49 279.162 208.048 278.825 207.561 278.546C196.5 272.235 185.44 265.923 174.384 259.611V248.366L183.217 253.381C194.533 259.793 205.851 266.196 217.171 272.587C218.01 273.06 219.26 273.816 219.862 273.531C223.17 271.935 226.341 270.053 229.991 268.029L174.353 236.282V225.142C179.17 227.856 183.964 230.6 188.781 233.321C205.32 242.677 221.857 252.035 238.391 261.395C238.886 261.682 239.45 261.833 240.026 261.833C240.6 261.833 241.165 261.682 241.66 261.395C244.541 259.716 247.44 258.062 250.356 256.432L238.696 249.754L164.179 207.219Z" fill="url(#paint1_linear_1023_18543)"/>
<path d="M253.702 189.093C246.34 184.984 239.038 180.787 231.722 176.611L220.205 170.045L210.107 175.779C221.229 182.076 232.354 188.363 243.482 194.641C244.127 194.914 244.67 195.377 245.037 195.966C245.404 196.555 245.577 197.241 245.532 197.931C245.532 200.769 245.532 203.608 245.532 206.447L245.44 206.394C239.884 203.306 222.697 194.078 217.179 190.93C211.661 187.781 205.945 184.527 200.328 181.327L189.612 187.414C204.405 195.787 229.954 209.716 245.563 218.516C245.563 222.274 245.575 226.022 245.6 229.76C245.419 229.631 245.231 229.511 245.037 229.401C223.795 217.355 190.923 199.213 169.712 187.091L179.383 181.596L190.138 175.494L199.863 169.962L209.977 164.212L201.524 159.407C200.831 159.017 199.741 158.471 199.238 158.732C197.584 159.564 195.969 160.457 194.322 161.386L158.242 181.844L157.8 182.069L156.184 183.014L145.513 189.063C144.936 189.318 144.455 189.744 144.135 190.282C143.816 190.82 143.674 191.442 143.73 192.061C143.786 211.877 143.798 231.69 143.767 251.5C143.713 252.159 143.869 252.819 144.211 253.388C144.554 253.957 145.067 254.408 145.68 254.679C148.455 256.177 151.214 257.767 153.966 259.334V246.23C153.916 245.897 153.889 245.562 153.889 245.226C153.98 228.839 153.973 212.452 153.981 196.065L158.928 193.253C177.425 203.748 201.784 217.242 223.551 229.363L223.718 229.453C230.288 233.126 236.622 236.672 242.491 239.948L255.447 247.19C255.447 228.889 255.499 210.587 255.6 192.286C255.654 191.627 255.502 190.967 255.162 190.395C254.822 189.825 254.312 189.37 253.702 189.093Z" fill="url(#paint2_linear_1023_18543)"/>
<path d="M99.8949 224.978C99.7066 224.789 99.4016 224.789 99.2125 224.978L96.1412 228.052C95.9529 228.24 95.9529 228.546 96.1412 228.735C96.3303 228.924 96.6354 228.924 96.8245 228.735L99.5541 226.002L102.284 228.735C102.473 228.924 102.778 228.924 102.966 228.735C103.155 228.546 103.155 228.24 102.966 228.052L99.8949 224.978ZM299.561 225.319C299.561 280.468 254.896 325.174 199.799 325.174V326.14C255.429 326.14 300.526 281.001 300.526 225.319H299.561ZM199.799 325.174C144.702 325.174 100.037 280.468 100.037 225.319H99.0715C99.0715 281.001 144.169 326.14 199.799 326.14V325.174Z" fill="black"/>
<path d="M99.8949 224.978C99.7066 224.789 99.4016 224.789 99.2125 224.978L96.1412 228.052C95.9529 228.24 95.9529 228.546 96.1412 228.735C96.3303 228.924 96.6354 228.924 96.8245 228.735L99.5541 226.002L102.284 228.735C102.473 228.924 102.778 228.924 102.966 228.735C103.155 228.546 103.155 228.24 102.966 228.052L99.8949 224.978ZM299.561 225.319C299.561 280.468 254.896 325.174 199.799 325.174V326.14C255.429 326.14 300.526 281.001 300.526 225.319H299.561ZM199.799 325.174C144.702 325.174 100.037 280.468 100.037 225.319H99.0715C99.0715 281.001 144.169 326.14 199.799 326.14V325.174Z" fill="url(#paint3_linear_1023_18543)"/>
<path d="M299.362 218.988C299.739 219.364 300.35 219.364 300.727 218.988L306.869 212.839C307.247 212.461 307.247 211.85 306.869 211.473C306.493 211.095 305.882 211.095 305.504 211.473L300.044 216.937L294.584 211.473C294.208 211.095 293.597 211.095 293.219 211.473C292.843 211.85 292.843 212.461 293.219 212.839L299.362 218.988ZM100.52 218.304C100.52 163.422 144.968 118.932 199.8 118.932V117C143.903 117 98.5894 162.356 98.5894 218.304H100.52ZM199.8 118.932C254.63 118.932 299.079 163.422 299.079 218.304H301.009C301.009 162.356 255.696 117 199.8 117V118.932Z" fill="#5C8EFE"/>
</g>
<defs>
<linearGradient id="paint0_linear_1023_18543" x1="567.097" y1="475.973" x2="-71.8641" y2="-14.0821" gradientUnits="userSpaceOnUse">
<stop stop-color="#9A74DB"/>
<stop offset="1" stop-color="#9A74DB" stop-opacity="0"/>
</linearGradient>
<linearGradient id="paint1_linear_1023_18543" x1="164.187" y1="246.129" x2="250.319" y2="246.129" gradientUnits="userSpaceOnUse">
<stop stop-color="#B000FD"/>
<stop offset="1" stop-color="#5994FE"/>
</linearGradient>
<linearGradient id="paint2_linear_1023_18543" x1="143.73" y1="209.048" x2="255.562" y2="209.048" gradientUnits="userSpaceOnUse">
<stop stop-color="#B000FD"/>
<stop offset="1" stop-color="#5994FE"/>
</linearGradient>
<linearGradient id="paint3_linear_1023_18543" x1="1603.23" y1="318.6" x2="1603.23" y2="225.303" gradientUnits="userSpaceOnUse">
<stop offset="0.0001" stop-color="#8B69CA"/>
<stop offset="0.416667" stop-color="#9A74DB"/>
<stop offset="0.84375" stop-color="#9872D8"/>
</linearGradient>
<clipPath id="clip0_1023_18543">
<rect width="405" height="444" fill="white"/>
</clipPath>
</defs>
</svg>
