<svg width="405" height="444" viewBox="0 0 405 444" fill="none" xmlns="http://www.w3.org/2000/svg">
<path d="M239.994 10.9215L240.173 10.6114L239.994 10.9215L366.526 83.9741C389.75 97.3841 404.058 122.164 404.058 148.982V295.087C404.058 321.905 389.75 346.685 366.526 360.095L239.994 433.147C216.769 446.557 188.156 446.557 164.93 433.147L38.3982 360.095C15.1747 346.685 0.866211 321.905 0.866211 295.087V148.982C0.866211 122.164 15.1747 97.3841 38.3983 83.9741L164.93 10.9215C188.156 -2.48848 216.769 -2.48848 239.994 10.9215Z" fill="black" fill-opacity="0.55" stroke="url(#paint0_linear_1023_18831)"/>
<path d="M236.075 279.088C191.592 279.088 155.531 243.027 155.531 198.545C155.531 154.061 191.592 118 236.075 118C280.558 118 316.619 154.061 316.619 198.545C316.619 243.027 280.558 279.088 236.075 279.088Z" stroke="#5C8EFE" stroke-width="2" stroke-linecap="round"/>
<path d="M213.902 189.023V223.957C213.901 224.385 214.015 224.805 214.232 225.174C214.45 225.544 214.763 225.851 215.14 226.063C218.713 228.08 229.125 233.959 234.851 237.178C235.328 237.451 236.07 237.897 236.414 237.728C238.327 236.788 240.202 235.646 242.244 234.489C241.708 234.128 241.431 233.916 241.125 233.742C234.184 229.785 227.244 225.828 220.306 221.87V214.82L225.849 217.965C232.95 221.985 240.052 225.999 247.156 230.006C247.682 230.302 248.467 230.776 248.844 230.598C250.92 229.597 252.91 228.417 255.201 227.148L220.287 207.245V200.26C223.31 201.962 226.318 203.682 229.34 205.388C239.719 211.254 250.096 217.121 260.471 222.989C260.783 223.169 261.137 223.264 261.497 223.264C261.858 223.264 262.212 223.169 262.523 222.989C264.331 221.936 266.15 220.899 267.98 219.878L260.663 215.69L213.902 189.023Z" fill="url(#paint1_linear_1023_18831)"/>
<path d="M270.08 177.659C265.46 175.084 260.878 172.452 256.286 169.834L249.06 165.717L242.722 169.312C249.703 173.26 256.684 177.202 263.666 181.137C264.072 181.309 264.412 181.599 264.642 181.969C264.873 182.338 264.981 182.768 264.953 183.2C264.953 184.98 264.953 186.759 264.953 188.539L264.896 188.506C261.409 186.57 250.623 180.784 247.161 178.811C243.698 176.837 240.111 174.797 236.586 172.791L229.862 176.606C239.145 181.856 255.177 190.588 264.972 196.106C264.972 198.462 264.98 200.813 264.996 203.156C264.882 203.075 264.764 203 264.642 202.93C251.313 195.377 230.684 184.003 217.374 176.404L223.443 172.96L230.192 169.133L236.295 165.665L242.641 162.06L237.337 159.048C236.902 158.804 236.218 158.46 235.902 158.625C234.865 159.146 233.851 159.706 232.817 160.288L210.175 173.114L209.898 173.256L208.884 173.848L202.188 177.641C201.826 177.801 201.524 178.068 201.324 178.405C201.123 178.742 201.034 179.132 201.07 179.52C201.104 191.943 201.112 204.365 201.093 216.785C201.059 217.199 201.157 217.612 201.372 217.969C201.586 218.325 201.909 218.608 202.294 218.778C204.035 219.718 205.766 220.714 207.492 221.697V213.481C207.461 213.272 207.445 213.062 207.445 212.852C207.502 202.578 207.497 192.304 207.502 182.03L210.606 180.267C222.215 186.847 237.499 195.307 251.159 202.907L251.264 202.963C255.388 205.266 259.361 207.489 263.045 209.543L271.176 214.083C271.176 202.609 271.207 191.135 271.271 179.661C271.305 179.248 271.209 178.834 270.996 178.476C270.783 178.119 270.463 177.833 270.08 177.659Z" fill="url(#paint2_linear_1023_18831)"/>
<path d="M163.624 164.812C124.278 166.656 92.0631 196.741 87.5372 235.869C83.0104 274.999 107.506 311.643 145.394 322.42C183.281 333.197 223.396 314.931 240.141 279.277" stroke="black" stroke-linecap="round"/>
<path d="M163.624 164.812C124.278 166.656 92.0631 196.741 87.5372 235.869C83.0104 274.999 107.506 311.643 145.394 322.42C183.281 333.197 223.396 314.931 240.141 279.277" stroke="url(#paint3_linear_1023_18831)" stroke-linecap="round"/>
<defs>
<linearGradient id="paint0_linear_1023_18831" x1="567.097" y1="475.973" x2="-71.8641" y2="-14.0821" gradientUnits="userSpaceOnUse">
<stop stop-color="#9A74DB"/>
<stop offset="1" stop-color="#9A74DB" stop-opacity="0"/>
</linearGradient>
<linearGradient id="paint1_linear_1023_18831" x1="213.908" y1="213.418" x2="267.957" y2="213.418" gradientUnits="userSpaceOnUse">
<stop stop-color="#B000FD"/>
<stop offset="1" stop-color="#5994FE"/>
</linearGradient>
<linearGradient id="paint2_linear_1023_18831" x1="201.07" y1="190.17" x2="271.247" y2="190.17" gradientUnits="userSpaceOnUse">
<stop stop-color="#B000FD"/>
<stop offset="1" stop-color="#5994FE"/>
</linearGradient>
<linearGradient id="paint3_linear_1023_18831" x1="1235.56" y1="314.196" x2="1235.57" y2="164.786" gradientUnits="userSpaceOnUse">
<stop offset="0.0001" stop-color="#8B69CA"/>
<stop offset="0.416667" stop-color="#9A74DB"/>
<stop offset="0.84375" stop-color="#9872D8"/>
</linearGradient>
</defs>
</svg>
