<svg width="24" height="25" viewBox="0 0 24 25" fill="none" xmlns="http://www.w3.org/2000/svg">
<path d="M18.9108 6.29079C17.622 5.68778 16.2439 5.24954 14.8032 5C14.6262 5.3199 14.4195 5.75017 14.277 6.09245C12.7454 5.86213 11.228 5.86213 9.72461 6.09245C9.58211 5.75017 9.3707 5.3199 9.19218 5C7.74988 5.24954 6.37022 5.68939 5.0814 6.29399C2.48182 10.2223 1.77712 14.053 2.12947 17.8293C3.85365 19.1169 5.52458 19.8991 7.16731 20.4109C7.57291 19.8527 7.93466 19.2593 8.24629 18.6339C7.65277 18.4084 7.08432 18.1301 6.54719 17.807C6.68969 17.7014 6.82907 17.591 6.96374 17.4775C10.2398 19.0098 13.7994 19.0098 17.0363 17.4775C17.1725 17.591 17.3119 17.7014 17.4528 17.807C16.9141 18.1316 16.3441 18.4099 15.7506 18.6355C16.0622 19.2593 16.4224 19.8543 16.8296 20.4125C18.4739 19.9007 20.1464 19.1185 21.8706 17.8293C22.284 13.4516 21.1643 9.65606 18.9108 6.29079Z" fill="white" fill-opacity="0.5"/>
<path d="M6.90283 13.4713C6.90283 14.5893 7.70934 15.5074 8.69278 15.5074C9.69345 15.5074 10.4827 14.5893 10.4827 13.4713C10.4999 12.3517 9.69345 11.4336 8.69278 11.4336C7.69212 11.4336 6.90283 12.3533 6.90283 13.4713Z" fill="#0E0E14"/>
<path d="M13.5177 13.4713C13.5177 14.5893 14.3242 15.5074 15.3076 15.5074C16.3083 15.5074 17.0976 14.5893 17.0976 13.4713C17.1148 12.3517 16.3083 11.4336 15.3076 11.4336C14.3069 11.4336 13.5177 12.3533 13.5177 13.4713Z" fill="#0E0E14"/>
</svg>
